<svg height="395pt" viewBox="-17 0 395 395.37124" width="395pt" xmlns="http://www.w3.org/2000/svg"><g fill="#602f75"><path d="m177.679688 395.371094c-3.769532 0-6.828126-3.054688-6.828126-6.828125v-116.050781c0-2.582032 1.460938-4.941407 3.765626-6.101563l30.308593-15.21875 32.875-74.699219c.757813-1.722656 2.1875-3.054687 3.953125-3.679687l39.261719-14.027344 11.699219-76.023437c.578125-3.726563 4.101562-6.265626 7.785156-5.707032 3.726562.574219 6.28125 4.0625 5.710938 7.789063l-12.316407 80.039062c-.378906 2.472657-2.089843 4.546875-4.449219 5.386719l-40.328124 14.402344-32.675782 74.261718c-.640625 1.453126-1.769531 2.640626-3.1875 3.355469l-28.742187 14.433594v111.839844c-.003907 3.773437-3.0625 6.828125-6.832031 6.828125zm0 0"/><path d="m176.316406 281.472656c-1.117187 0-2.257812-.273437-3.308594-.859375l-55.410156-30.789062c-.867187-.480469-1.617187-1.144531-2.203125-1.953125l-23.089843-31.746094-40.542969-8.6875c-2.976563-.632812-5.167969-3.167969-5.378907-6.207031l-6.15625-89.273438c-.078124-1.101562.117188-2.207031.5625-3.222656l46.171876-104.664063c1.523437-3.445312 5.554687-5.003906 9.003906-3.492187 3.445312 1.519531 5.007812 5.554687 3.488281 9l-45.492187 103.125 5.6875 82.460937 38.070312 8.160157c1.640625.351562 3.097656 1.300781 4.089844 2.660156l23.738281 32.640625 54.09375 30.050781c3.292969 1.835938 4.480469 5.988281 2.648437 9.28125-1.246093 2.25-3.570312 3.515625-5.972656 3.515625zm0 0"/><path d="m244.054688 186.046875c-1.851563 0-3.691407-.75-5.039063-2.214844l-33.25-36.289062-33.101563-21.058594c-3.183593-2.027344-4.121093-6.246094-2.097656-9.425781 2.023438-3.171875 6.246094-4.105469 9.421875-2.09375l33.863281 21.546875c.507813.320312.964844.707031 1.371094 1.144531l33.863282 36.949219c2.546874 2.777343 2.359374 7.097656-.421876 9.644531-1.308593 1.203125-2.964843 1.796875-4.609374 1.796875zm0 0"/><path d="m211.8125 149.609375c-3.769531 0-6.824219-3.050781-6.824219-6.824219v-47.789062c0-3.773438 3.054688-6.824219 6.824219-6.824219s6.828125 3.050781 6.828125 6.824219v47.789062c0 3.773438-3.058594 6.824219-6.828125 6.824219zm0 0"/><path d="m294.019531 126.011719c-2.167969 0-4.300781-1.03125-5.625-2.953125-2.140625-3.097656-1.363281-7.355469 1.742188-9.492188l42.386719-29.242187c3.09375-2.136719 7.347656-1.359375 9.496093 1.746093 2.140625 3.101563 1.359375 7.355469-1.742187 9.496094l-42.386719 29.238282c-1.183594.8125-2.53125 1.207031-3.871094 1.207031zm0 0"/><path d="m223.273438 233.257812c-2.84375 0-5.496094-1.785156-6.464844-4.625-1.210938-3.574218.699218-7.449218 4.265625-8.660156l39.246093-13.355468c3.574219-1.238282 7.449219.695312 8.664063 4.261718 1.210937 3.574219-.699219 7.445313-4.265625 8.660156l-39.246094 13.351563c-.726562.253906-1.46875.367187-2.199218.367187zm0 0"/><path d="m210.195312 263c-2.507812 0-4.917968-1.382812-6.113281-3.773438l-18.472656-36.941406c-1.683594-3.375-.320313-7.472656 3.054687-9.160156 3.378907-1.671875 7.472657-.3125 9.160157 3.054688l18.46875 36.9375c1.6875 3.375.320312 7.476562-3.054688 9.160156-.976562.488281-2.019531.722656-3.042969.722656zm0 0"/><path d="m53.183594 207.59375c-1.40625 0-2.824219-.433594-4.042969-1.335938-3.03125-2.234374-3.683594-6.503906-1.445313-9.539062l43.09375-58.492188c2.238282-3.046874 6.5-3.695312 9.546876-1.449218 3.035156 2.234375 3.683593 6.507812 1.449218 9.542968l-43.097656 58.492188c-1.339844 1.820312-3.40625 2.78125-5.503906 2.78125zm0 0"/><path d="m47.042969 118.320312c-2.242188 0-4.433594-1.101562-5.738281-3.121093l-33.863282-52.335938c-2.050781-3.164062-1.144531-7.386719 2.019532-9.4375 3.164062-2.039062 7.394531-1.132812 9.4375 2.027344l33.867187 52.332031c2.046875 3.167969 1.140625 7.386719-2.023437 9.441406-1.144532.738282-2.429688 1.09375-3.699219 1.09375zm0 0"/><path d="m71.550781 62.738281c-2.808593 0-5.378906-1.734375-6.390625-4.433593l-18.363281-49.085938c-1.320313-3.53125.46875-7.464844 4-8.785156 3.542969-1.316406 7.464844.472656 8.785156 4l16.402344 43.839844 49.984375-8.164063c3.746094-.582031 7.230469 1.917969 7.839844 5.640625.605468 3.71875-1.917969 7.226562-5.640625 7.839844l-55.515625 9.066406c-.367188.054688-.738282.082031-1.101563.082031zm0 0"/><path d="m287.152344 170.652344c-1.925782 0-3.839844-.808594-5.1875-2.386719l-36.941406-43.097656c-2.453126-2.863281-2.125-7.167969.742187-9.628907 2.851563-2.445312 7.171875-2.125 9.625.746094l36.941406 43.101563c2.453125 2.859375 2.125 7.167969-.742187 9.628906-1.285156 1.097656-2.867188 1.636719-4.4375 1.636719zm0 0"/><path d="m105.511719 226.058594c-1.398438 0-2.8125-.425782-4.027344-1.320313-3.039063-2.234375-3.695313-6.503906-1.464844-9.546875l33.863281-46.171875c2.222657-3.035156 6.496094-3.695312 9.539063-1.46875 3.039063 2.234375 3.695313 6.507813 1.464844 9.546875l-33.863281 46.175782c-1.335938 1.820312-3.410157 2.785156-5.511719 2.785156zm0 0"/><path d="m120.914062 250.683594c-.375 0-.75-.03125-1.121093-.09375l-36.941407-6.152344c-3.71875-.617188-6.230468-4.132812-5.609374-7.851562.617187-3.722657 4.101562-6.269532 7.855468-5.613282l34.058594 5.671875 22.289062-16.714843c3.027344-2.25 7.300782-1.652344 9.5625 1.367187 2.257813 3.015625 1.648438 7.292969-1.367187 9.554687l-24.628906 18.464844c-1.191407.894532-2.632813 1.367188-4.097657 1.367188zm0 0"/><path d="m47.035156 164.492188c-.816406 0-1.644531-.148438-2.453125-.453126l-40.019531-15.394531c-3.515625-1.355469-5.273438-5.308593-3.917969-8.828125 1.355469-3.519531 5.304688-5.257812 8.820313-3.921875l40.019531 15.394531c3.519531 1.355469 5.277344 5.308594 3.917969 8.828126-1.042969 2.714843-3.628906 4.375-6.367188 4.375zm0 0"/><path d="m177.6875 340.757812c-2.171875 0-4.308594-1.03125-5.632812-2.960937-2.136719-3.105469-1.347657-7.351563 1.757812-9.492187l32.507812-22.347657c3.109376-2.132812 7.355469-1.34375 9.492188 1.761719 2.132812 3.105469 1.347656 7.355469-1.761719 9.492188l-32.503906 22.347656c-1.179687.8125-2.527344 1.199218-3.859375 1.199218zm0 0"/></g><path d="m268.683594 343.039062c-2.117188 0-4.207032-.980468-5.539063-2.828124l-40.019531-55.40625c-2.207031-3.058594-1.519531-7.328126 1.535156-9.535157 3.0625-2.203125 7.328125-1.511719 9.53125 1.535157l40.019532 55.40625c2.207031 3.058593 1.519531 7.328124-1.535157 9.535156-1.207031.871094-2.609375 1.292968-3.992187 1.292968zm0 0" fill="#00e7ff"/><path d="m239.121094 395.371094c-3.769532 0-6.828125-3.054688-6.828125-6.828125v-33.859375c0-2.679688 1.5625-5.105469 4.003906-6.214844l54.183594-24.625c3.402343-1.582031 7.472656-.046875 9.035156 3.386719 1.5625 3.433593.042969 7.480469-3.386719 9.039062l-50.179687 22.804688v29.46875c-.003907 3.773437-3.058594 6.828125-6.828125 6.828125zm0 0" fill="#00e7ff"/><path d="m242.890625 307.34375c-1.363281 0-2.742187-.40625-3.941406-1.257812-3.078125-2.171876-3.804688-6.441407-1.621094-9.511719l22.699219-32.035157c2.179687-3.082031 6.433594-3.8125 9.515625-1.621093 3.078125 2.171875 3.804687 6.441406 1.621093 9.511719l-22.699218 32.035156c-1.328125 1.878906-3.433594 2.878906-5.574219 2.878906zm0 0" fill="#00e7ff"/><path d="m330.125 261.117188c-2.121094 0-4.207031-.980469-5.539062-2.824219l-40.019532-55.40625c-2.207031-3.0625-1.523437-7.328125 1.535156-9.535157 3.058594-2.207031 7.328126-1.519531 9.53125 1.53125l40.019532 55.40625c2.207031 3.0625 1.519531 7.328126-1.539063 9.535157-1.207031.875-2.605469 1.292969-3.988281 1.292969zm0 0" fill="#ea3457"/><path d="m300.558594 313.453125c-3.769532 0-6.824219-3.054687-6.824219-6.828125v-33.859375c0-2.679687 1.5625-5.109375 4.003906-6.214844l54.183594-24.628906c3.402344-1.578125 7.472656-.042969 9.035156 3.386719 1.558594 3.433594.042969 7.480468-3.390625 9.039062l-50.179687 22.808594v29.464844c0 3.777344-3.058594 6.832031-6.828125 6.832031zm0 0" fill="#ea3457"/><path d="m304.328125 225.425781c-1.363281 0-2.742187-.40625-3.9375-1.261719-3.078125-2.171874-3.804687-6.4375-1.625-9.511718l22.699219-32.035156c2.175781-3.078126 6.441406-3.8125 9.519531-1.617188 3.074219 2.171875 3.804687 6.4375 1.621094 9.511719l-22.699219 32.035156c-1.328125 1.878906-3.4375 2.878906-5.578125 2.878906zm0 0" fill="#ea3457"/><path d="m47.972656 395.371094c-3.769531 0-6.824218-3.054688-6.824218-6.828125v-113.730469l-39.546876-51.421875c-2.300781-2.988281-1.738281-7.273437 1.246094-9.574219 2.996094-2.292968 7.28125-1.746094 9.574219 1.253906l40.960937 53.261719c.917969 1.191407 1.414063 2.652344 1.414063 4.160157v116.050781c.003906 3.773437-3.054687 6.828125-6.824219 6.828125zm0 0" fill="#ffe600"/><path d="m47.03125 281.472656c-1.539062 0-3.089844-.519531-4.367188-1.582031-2.894531-2.414063-3.289062-6.71875-.878906-9.613281l15.390625-18.472656c2.421875-2.90625 6.722657-3.285157 9.617188-.878907 2.898437 2.410157 3.289062 6.71875.875 9.613281l-15.386719 18.472657c-1.355469 1.628906-3.292969 2.460937-5.25 2.460937zm0 0" fill="#ffe600"/><path d="m47.035156 350.226562c-1.675781 0-3.359375-.613281-4.671875-1.855468l-33.863281-31.8125c-2.75-2.582032-2.882812-6.902344-.304688-9.648438 2.585938-2.75 6.910157-2.878906 9.648438-.300781l33.863281 31.816406c2.75 2.578125 2.882813 6.898438.304688 9.644531-1.34375 1.433594-3.160157 2.15625-4.976563 2.15625zm0 0" fill="#ffe600"/><path d="m47.976562 368.066406c-1.851562 0-3.691406-.75-5.039062-2.222656-2.542969-2.78125-2.355469-7.09375.425781-9.640625l20.605469-18.867187c2.789062-2.550782 7.105469-2.359376 9.648438.429687 2.542968 2.777344 2.351562 7.089844-.429688 9.636719l-20.605469 18.867187c-1.308593 1.203125-2.957031 1.796875-4.605469 1.796875zm0 0" fill="#ffe600"/></svg>