<svg height="419pt" viewBox="0 -12 419.15729 419" width="419pt" xmlns="http://www.w3.org/2000/svg"><path d="m230.742188 339.664062v-247.246093c-7.421876 4.855469-16.339844 7.695312-25.941407 7.695312-7.464843 0-14.496093-1.757812-20.753906-4.800781v287.058594c15.566406 9.074218 31.128906 9.074218 46.695313 0" fill="#ffe600"/><path d="m207.394531 396.039062c-8.949219 0-17.894531-2.589843-26.78125-7.773437-2.101562-1.222656-3.390625-3.464844-3.390625-5.894531v-287.058594c0-2.351562 1.210938-4.539062 3.207032-5.785156 1.992187-1.25 4.484374-1.382813 6.605468-.355469 12.808594 6.234375 28.277344 5.183594 39.96875-2.46875 2.097656-1.371094 4.773438-1.480469 6.984375-.292969 2.207031 1.191406 3.582031 3.5 3.582031 6.007813v247.246093c0 3.769532-3.058593 6.828126-6.828124 6.828126-3.769532 0-6.824219-3.058594-6.824219-6.828126v-236.175781c-10.425781 3.90625-22.25 4.507813-33.039063 1.632813v273.164062c12.210938 5.945313 24.15625 5.332032 36.429688-1.8125 3.253906-1.894531 7.4375-.800781 9.332031 2.460938 1.898437 3.253906.800781 7.433594-2.457031 9.332031-8.894532 5.183594-17.839844 7.773437-26.789063 7.773437zm0 0" fill="#602f75"/><path d="m204.800781 6.902344c-25.789062 0-46.695312 20.90625-46.695312 46.695312 0 25.789063 20.90625 46.695313 46.695312 46.695313 25.785157 0 46.695313-20.90625 46.695313-46.695313 0-25.789062-20.910156-46.695312-46.695313-46.695312zm0 67.03125c-11.230469 0-20.335937-9.105469-20.335937-20.335938 0-11.230468 9.105468-20.335937 20.335937-20.335937s20.335938 9.105469 20.335938 20.335937c0 11.230469-9.105469 20.335938-20.335938 20.335938zm0 0" fill="#00e7ff"/><path d="m204.800781 107.121094c-29.511719 0-53.519531-24.007813-53.519531-53.523438 0-29.507812 24.007812-53.519531 53.519531-53.519531 29.507813 0 53.519531 24.011719 53.519531 53.519531 0 29.511719-24.011718 53.523438-53.519531 53.523438zm0-93.390625c-21.984375 0-39.867187 17.882812-39.867187 39.867187 0 21.980469 17.882812 39.867188 39.867187 39.867188 21.980469 0 39.867188-17.886719 39.867188-39.867188 0-21.984375-17.882813-39.867187-39.867188-39.867187zm0 67.03125c-14.976562 0-27.164062-12.1875-27.164062-27.164063 0-14.976562 12.1875-27.160156 27.164062-27.160156 14.976563 0 27.160157 12.183594 27.160157 27.160156 0 14.976563-12.183594 27.164063-27.160157 27.164063zm0-40.671875c-7.449219 0-13.511719 6.058594-13.511719 13.507812 0 7.449219 6.0625 13.507813 13.511719 13.507813 7.445313 0 13.503907-6.058594 13.503907-13.507813 0-7.449218-6.058594-13.507812-13.503907-13.507812zm0 0" fill="#602f75"/><path d="m305.015625 143.503906h-191.964844c-3.769531 0-6.828125-3.058594-6.828125-6.828125s3.058594-6.824219 6.828125-6.824219h191.964844c3.769531 0 6.824219 3.054688 6.824219 6.824219s-3.054688 6.828125-6.824219 6.828125zm0 0" fill="#ea3457"/><g fill="#602f75"><path d="m209.988281 396.023438c-95.3125 0-172.851562-77.539063-172.851562-172.847657 0-3.773437 3.058593-6.828125 6.828125-6.828125 3.769531 0 6.824218 3.054688 6.824218 6.828125 0 87.777344 71.417969 159.195313 159.199219 159.195313s159.199219-71.417969 159.199219-159.195313c0-3.773437 3.054688-6.828125 6.824219-6.828125s6.828125 3.054688 6.828125 6.828125c0 95.308594-77.539063 172.847657-172.851563 172.847657zm0 0"/><path d="m412.335938 271.503906c-2.253907 0-4.460938-1.117187-5.765626-3.160156l-30.933593-48.613281-35.609375 48.960937c-2.214844 3.050782-6.480469 3.734375-9.535156 1.503906-3.046876-2.214843-3.726563-6.484374-1.503907-9.535156l41.503907-57.070312c1.332031-1.824219 3.402343-2.914063 5.734374-2.808594 2.253907.070312 4.332032 1.253906 5.546876 3.164062l36.316406 57.066407c2.023437 3.183593 1.085937 7.402343-2.09375 9.425781-1.136719.722656-2.40625 1.066406-3.660156 1.066406zm0 0"/><path d="m84.65625 271.503906c-2.253906 0-4.460938-1.117187-5.765625-3.160156l-30.933594-48.613281-35.609375 48.960937c-2.214844 3.050782-6.472656 3.734375-9.535156 1.503906-3.046875-2.214843-3.726562-6.484374-1.503906-9.535156l41.503906-57.070312c1.328125-1.824219 3.4375-2.914063 5.734375-2.808594 2.253906.070312 4.332031 1.253906 5.546875 3.164062l36.316406 57.066407c2.023438 3.183593 1.085938 7.402343-2.09375 9.425781-1.136718.722656-2.40625 1.066406-3.660156 1.066406zm0 0"/></g></svg>