<svg height="409pt" viewBox="0 -17 409.6 409" width="409pt" xmlns="http://www.w3.org/2000/svg"><g fill="#00e7ff"><path d="m6.828125 292.40625h395.945313v75.09375h-395.945313zm0 0"/><path d="m402.773438 374.328125h-395.945313c-3.773437 0-6.828125-3.054687-6.828125-6.828125v-75.09375c0-3.773438 3.054688-6.828125 6.828125-6.828125h395.945313c3.773437 0 6.828124 3.054687 6.828124 6.828125v75.09375c0 3.773438-3.054687 6.828125-6.828124 6.828125zm-389.121094-13.65625h382.292968v-61.4375h-382.292968zm0 0"/><path d="m281.5625 258.273438h-274.734375v47.84375l49.265625 21.765624c18.328125 8.101563 39.355469 8.835938 58.273438 2.042969l7.902343-2.835937c17.953125-6.445313 37.851563-6.121094 55.554688.902344l4.066406 1.613281c17.707031 7.027343 37.605469 7.351562 55.554687.90625l9.535157-3.421875c17.949219-6.445313 37.847656-6.121094 55.554687.902344 20.089844 7.972656 42.871094 7.273437 62.367188-1.914063l37.871094-17.847656v-49.957031h-57.371094"/></g><path d="m210.859375 341.972656c-10.699219 0-21.378906-2.007812-31.484375-6.019531l-4.066406-1.613281c-16.234375-6.445313-34.261719-6.738282-50.730469-.824219l-7.90625 2.839844c-20.441406 7.324219-43.519531 6.53125-63.339844-2.222657l-49.265625-21.765624c-2.472656-1.09375-4.066406-3.546876-4.066406-6.246094v-47.847656c0-3.773438 3.054688-6.824219 6.828125-6.824219h274.738281c3.773438 0 6.824219 3.050781 6.824219 6.824219 0 3.773437-3.050781 6.828124-6.824219 6.828124h-267.914062v36.574219l45.199218 19.964844c16.632813 7.347656 36.035157 8.027344 53.207032 1.859375l7.90625-2.839844c19.59375-7.023437 41.042968-6.679687 60.382812.988282l4.066406 1.613281c16.242188 6.453125 34.257813 6.746093 50.726563.824219l9.535156-3.425782c19.605469-7.027344 41.039063-6.679687 60.378907.988282 18.375 7.296874 39.132812 6.644531 56.933593-1.742188l33.957031-16v-38.808594h-50.546874c-3.773438 0-6.824219-3.050781-6.824219-6.824218 0-3.773438 3.050781-6.828126 6.824219-6.828126h57.375c3.773437 0 6.828124 3.054688 6.828124 6.828126v49.957031c0 2.640625-1.527343 5.046875-3.921874 6.175781l-37.871094 17.84375c-21.222656 10-45.941406 10.753906-67.796875 2.089844-16.230469-6.433594-34.238281-6.742188-50.726563-.828125l-9.53125 3.429687c-9.355468 3.359375-19.132812 5.03125-28.894531 5.03125zm0 0" fill="#602f75"/><path d="m150.238281 288.480469c-3.773437 0-6.824219-3.054688-6.824219-6.828125v-109.117188c0-3.773437 3.050782-6.828125 6.824219-6.828125 3.773438 0 6.828125 3.054688 6.828125 6.828125v109.117188c0 3.773437-3.054687 6.828125-6.828125 6.828125zm0 0" fill="#602f75"/><path d="m378 52.285156c0 24.941406-20.21875 45.160156-45.160156 45.160156-24.9375 0-45.15625-20.21875-45.15625-45.160156s20.21875-45.160156 45.15625-45.160156c24.941406 0 45.160156 20.21875 45.160156 45.160156zm0 0" fill="#ea3457"/><path d="m332.839844 104.265625c-28.667969 0-51.988282-23.320313-51.988282-51.980469 0-28.664062 23.320313-51.984375 51.988282-51.984375 28.667968 0 51.984375 23.320313 51.984375 51.984375 0 28.660156-23.316407 51.980469-51.984375 51.980469zm0-90.3125c-21.140625 0-38.335938 17.191406-38.335938 38.332031 0 21.136719 17.195313 38.328125 38.335938 38.328125s38.332031-17.191406 38.332031-38.328125c0-21.140625-17.191406-38.332031-38.332031-38.332031zm0 0" fill="#602f75"/><path d="m146.214844 69.769531c-54.8125 1.304688-98.859375 45.417969-98.859375 99.757813h49.925781s-1.597656-65.304688 48.933594-99.757813zm0 0" fill="#ffe600"/><path d="m97.28125 176.351562h-49.921875c-3.773437 0-6.824219-3.050781-6.824219-6.824218 0-58.359375 46.34375-105.175782 105.519532-106.582032 3.152343.023438 5.730468 1.855469 6.65625 4.742188.929687 2.878906-.152344 6.023438-2.652344 7.722656-46.917969 31.988282-45.972656 93.335938-45.953125 93.949219.039062 1.839844-.652344 3.621094-1.9375 4.933594-1.289063 1.320312-3.046875 2.058593-4.886719 2.058593zm-42.847656-13.652343h36.199218c.921876-15.550781 6.046876-53.648438 33.59375-83.046875-38.5 9.933594-66.894531 42.785156-69.792968 83.046875zm0 0" fill="#602f75"/><path d="m154.519531 69.9375c13.050781 8.796875 50.433594 39.472656 44.628907 99.589844h53.4375c0-53.21875-43.402344-96.589844-98.066407-99.589844zm0 0" fill="#ffe600"/><path d="m252.585938 176.351562h-53.4375c-1.929688 0-3.761719-.8125-5.054688-2.238281-1.292969-1.417969-1.925781-3.324219-1.742188-5.238281 5.335938-55.269531-27.34375-83.640625-41.644531-93.273438-2.546875-1.714843-3.632812-4.921874-2.660156-7.832031.972656-2.90625 3.566406-4.976562 6.847656-4.640625 58.605469 3.203125 104.519531 49.945313 104.519531 106.398438 0 3.773437-3.054687 6.824218-6.828124 6.824218zm-46.125-13.652343h39.039062c-2.941406-38.566407-30.617188-70.878907-68.265625-81.980469 14.699219 16.015625 30.875 42.753906 29.226563 81.980469zm0 0" fill="#602f75"/><path d="m154.519531 69.9375c-1.945312-.109375-3.867187-.289062-5.835937-.289062-.832032 0-1.640625.101562-2.46875.125-50.53125 34.449218-48.933594 99.753906-48.933594 99.753906h100.691406c5.652344-60.117188-30.746094-90.792969-43.453125-99.589844zm0 0" fill="#ea3457"/><path d="m197.972656 176.351562h-100.691406c-3.707031 0-6.734375-2.953124-6.828125-6.65625-.066406-2.820312-1.082031-69.4375 51.914063-105.5625 1.085937-.742187 2.367187-1.152343 3.679687-1.1875l.78125-.042968c2.171875-.136719 4.382813-.027344 6.570313.125l1.523437.101562c1.246094.070313 2.453125.484375 3.484375 1.199219 12.402344 8.585937 52.40625 41.585937 46.359375 105.839844-.324219 3.503906-3.273437 6.183593-6.792969 6.183593zm-93.617187-13.652343h87.253906c2.257813-50.464844-27.683594-77.46875-39.46875-86.074219-1.148437-.078125-2.292969-.152344-3.460937-.152344l-.152344.007813c-36.402344 25.878906-42.992188 69.613281-44.171875 86.21875zm0 0" fill="#602f75"/></svg>