<svg height="397pt" viewBox="0 0 397.11151 397" width="397pt" xmlns="http://www.w3.org/2000/svg"><path d="m341.335938 157.351562c0 52.785157-42.792969 95.574219-95.574219 95.574219-52.785157 0-95.574219-42.789062-95.574219-95.574219 0-52.78125 42.789062-95.574218 95.574219-95.574218 52.78125 0 95.574219 42.792968 95.574219 95.574218zm0 0" fill="#ea3457"/><path d="m191.148438 155.148438v-148.273438l-184.320313 240.746094 74.605469 65.363281 109.714844 4.359375v-112.203125" fill="#fff"/><path d="m191.148438 324.167969c-.089844 0-.179688-.003907-.269532-.007813l-109.714844-4.355468c-1.558593-.058594-3.050781-.65625-4.230468-1.6875l-74.605469-65.359376c-2.703125-2.367187-3.105469-6.429687-.921875-9.28125l184.320312-240.75c1.78125-2.324218 4.859376-3.238281 7.609376-2.316406 2.773437.941406 4.636718 3.539063 4.636718 6.46875v148.273438c0 3.769531-3.054687 6.824218-6.824218 6.824218-3.769532 0-6.828126-3.054687-6.828126-6.824218v-128.132813l-168.1875 219.683594 67.984376 59.554687 100.203124 3.980469v-105.097656c0-3.769531 3.058594-6.828125 6.828126-6.828125 3.769531 0 6.824218 3.058594 6.824218 6.828125v112.199219c0 1.855468-.753906 3.632812-2.097656 4.925781-1.269531 1.222656-2.964844 1.902344-4.726562 1.902344zm0 0" fill="#602f75"/><path d="m61.441406 355.324219v18.078125l225.726563 16.351562c15.332031 1.113282 30.550781-3.417968 42.980469-12.792968l28.6875-21.636719zm0 0" fill="#fff"/><path d="m291.699219 396.746094c-1.675781 0-3.351563-.0625-5.027344-.179688l-225.722656-16.359375c-3.570313-.257812-6.335938-3.230469-6.335938-6.808593v-18.074219c0-3.769531 3.058594-6.824219 6.828125-6.824219h297.394532c2.9375 0 5.542968 1.875 6.476562 4.65625.933594 2.785156-.023438 5.851562-2.363281 7.617188l-28.6875 21.636718c-12.375 9.332032-27.324219 14.335938-42.5625 14.335938zm-223.433594-29.699219 219.390625 15.898437c13.660156 1.007813 27.292969-3.070312 38.382812-11.433593l12.410157-9.359375h-270.183594zm0 0" fill="#602f75"/><path d="m177.496094 287.058594v-88.746094h88.746094l54.320312 88.746094zm0 0" fill="#fff"/><path d="m320.5625 293.886719h-143.066406c-3.773438 0-6.828125-3.058594-6.828125-6.828125v-88.746094c0-3.769531 3.054687-6.828125 6.828125-6.828125h88.746094c2.375 0 4.582031 1.238281 5.820312 3.265625l54.324219 88.746094c1.289062 2.105468 1.339843 4.746094.132812 6.898437-1.207031 2.15625-3.484375 3.492188-5.957031 3.492188zm-136.242188-13.65625h124.058594l-45.964844-75.089844h-78.09375zm0 0" fill="#602f75"/><path d="m90.738281 320.207031c-.695312 0-1.40625-.109375-2.105469-.335937-3.589843-1.164063-5.550781-5.015625-4.386718-8.601563l99.101562-305.410156c1.167969-3.589844 5.011719-5.542969 8.601563-4.386719 3.585937 1.164063 5.546875 5.011719 4.386719 8.597656l-99.105469 305.414063c-.9375 2.886719-3.613281 4.722656-6.492188 4.722656zm0 0" fill="#602f75"/><path d="m286.382812 232.445312h-40.621093v34.132813h60.640625zm0 0" fill="#00e7ff"/><path d="m306.402344 273.40625h-60.640625c-3.769531 0-6.824219-3.058594-6.824219-6.828125v-34.132813c0-3.769531 3.054688-6.828124 6.824219-6.828124h40.621093c2.421876 0 4.664063 1.285156 5.890626 3.375l20.019531 34.132812c1.234375 2.109375 1.25 4.726562.03125 6.847656-1.214844 2.125-3.476563 3.433594-5.921875 3.433594zm-53.816406-13.652344h41.898437l-12.011719-20.480468h-29.886718zm0 0" fill="#602f75"/><path d="m177.496094 232.445312h40.957031v34.132813h-40.957031zm0 0" fill="#00e7ff"/><path d="m218.453125 273.40625h-40.957031c-3.773438 0-6.828125-3.058594-6.828125-6.828125v-34.132813c0-3.769531 3.054687-6.828124 6.828125-6.828124h40.957031c3.769531 0 6.828125 3.058593 6.828125 6.828124v34.132813c0 3.769531-3.058594 6.828125-6.828125 6.828125zm-34.132813-13.652344h27.308594v-20.480468h-27.308594zm0 0" fill="#602f75"/><path d="m342.351562 314.367188h-185.335937v-27.308594h163.839844zm0 0" fill="#fff"/><path d="m342.351562 321.191406h-185.335937c-3.773437 0-6.828125-3.054687-6.828125-6.824218v-27.308594c0-3.769532 3.054688-6.828125 6.828125-6.828125h163.839844c2.09375 0 4.070312.960937 5.363281 2.605469l21.496094 27.304687c1.617187 2.054687 1.921875 4.855469.777344 7.203125-1.140626 2.355469-3.527344 3.847656-6.140626 3.847656zm-178.511718-13.652344h164.445312l-10.746094-13.652343h-153.699218zm0 0" fill="#602f75"/><path d="m47.789062 307.539062h342.492188l-30.347656 47.785157h-312.144532zm0 0" fill="#ffe600"/><g fill="#602f75"><path d="m359.933594 362.152344h-312.144532c-3.773437 0-6.828124-3.058594-6.828124-6.828125v-47.785157c0-3.769531 3.054687-6.828124 6.828124-6.828124h342.496094c2.488282 0 4.785156 1.359374 5.984375 3.539062s1.113281 4.84375-.222656 6.949219l-30.347656 47.785156c-1.253907 1.972656-3.425781 3.167969-5.765625 3.167969zm-305.320313-13.652344h301.570313l21.675781-34.132812h-323.246094zm0 0"/><path d="m177.496094 252.925781h-170.667969c-3.769531 0-6.828125-3.058593-6.828125-6.828125 0-3.769531 3.058594-6.824218 6.828125-6.824218h170.667969c3.769531 0 6.824218 3.054687 6.824218 6.824218 0 3.769532-3.054687 6.828125-6.824218 6.828125zm0 0"/></g></svg>