<svg height="392pt" viewBox="0 -66 392.12485 392" width="392pt" xmlns="http://www.w3.org/2000/svg"><path d="m385.296875 137.972656h-339.402344l7.605469 27.304688h324.191406zm0 0" fill="#fff"/><path d="m377.691406 172.105469h-324.1875c-3.0625 0-5.753906-2.042969-6.578125-4.992188l-7.605469-27.308593c-.574218-2.054688-.152343-4.261719 1.140626-5.960938 1.289062-1.703125 3.300781-2.699219 5.433593-2.699219h339.40625c2.132813 0 4.144531.996094 5.433594 2.699219 1.292969 1.699219 1.710937 3.90625 1.140625 5.960938l-7.609375 27.308593c-.820313 2.949219-3.503906 4.992188-6.574219 4.992188zm-319.003906-13.652344h313.820312l3.804688-13.652344h-321.429688zm0 0" fill="#602f75"/><path d="m180.90625 254.027344h173.964844l22.820312-88.75h-324.191406l22.820312 88.75h49.96875" fill="#00e7ff"/><path d="m354.875 260.851562h-173.96875c-3.769531 0-6.828125-3.054687-6.828125-6.824218 0-3.773438 3.058594-6.828125 6.828125-6.828125h168.671875l19.308594-75.09375h-306.582031l19.308593 75.09375h44.675781c3.769532 0 6.828126 3.054687 6.828126 6.828125 0 3.769531-3.058594 6.824218-6.828126 6.824218h-49.96875c-3.117187 0-5.835937-2.109374-6.613281-5.125l-22.8125-88.746093c-.527343-2.042969-.078125-4.21875 1.214844-5.882813 1.289063-1.667968 3.285156-2.644531 5.394531-2.644531h324.1875c2.113282 0 4.101563.976563 5.394532 2.644531 1.292968 1.664063 1.746093 3.839844 1.21875 5.882813l-22.816407 88.746093c-.78125 3.015626-3.503906 5.125-6.613281 5.125zm0 0" fill="#602f75"/><path d="m197.972656 137.972656h-34.132812v-104.304687l34.132812-20.1875zm0 0" fill="#fff"/><path d="m197.972656 144.800781h-34.132812c-3.769532 0-6.828125-3.058593-6.828125-6.828125v-104.304687c0-2.414063 1.273437-4.648438 3.351562-5.878907l34.136719-20.183593c2.105469-1.246094 4.730469-1.261719 6.851562-.054688 2.136719 1.214844 3.449219 3.476563 3.449219 5.929688v124.492187c0 3.769532-3.054687 6.828125-6.828125 6.828125zm-27.308594-13.65625h20.480469v-105.695312l-20.480469 12.109375zm0 0" fill="#602f75"/><path d="m113.003906 28.074219c-7.617187 0-15.226562-1.96875-21.953125-5.890625l-3.257812-1.902344c-9.292969-5.414062-20.835938-5.414062-30.121094 0-15.164063 8.84375-34.035156 7.753906-48.066406-2.777344l-6.875-5.152344c-3.015625-2.261718-3.625-6.542968-1.367188-9.5625 2.265625-3.003906 6.542969-3.625 9.5625-1.367187l6.871094 5.15625c9.636719 7.226563 22.589844 7.984375 32.996094 1.910156 13.53125-7.894531 30.34375-7.894531 43.878906 0l3.253906 1.898438c8.9375 5.214843 20.140625 5.402343 29.234375.5l10.03125-5.398438c5.167969-2.789062 10.765625-4.472656 16.617188-5.015625 3.753906-.3749998 7.078125 2.414063 7.425781 6.164063.351563 3.753906-2.414063 7.082031-6.164063 7.429687-4.019531.371094-7.855468 1.527344-11.40625 3.441406l-10.03125 5.402344c-6.402343 3.445313-13.519531 5.164063-20.628906 5.164063zm0 0" fill="#ea3457"/><g fill="#602f75"><path d="m163.839844 144.800781h-81.921875c-3.769531 0-6.824219-3.058593-6.824219-6.828125v-68.265625c0-3.769531 3.054688-6.828125 6.824219-6.828125h81.921875c3.769531 0 6.824218 3.058594 6.824218 6.828125v68.265625c0 3.769532-3.054687 6.828125-6.824218 6.828125zm-75.09375-13.65625h68.265625v-54.613281h-68.265625zm0 0"/><path d="m375.464844 97.011719h-136.53125c-3.773438 0-6.828125-3.054688-6.828125-6.824219 0-3.773438 3.054687-6.828125 6.828125-6.828125h136.53125c3.773437 0 6.828125 3.054687 6.828125 6.828125 0 3.769531-3.054688 6.824219-6.828125 6.824219zm0 0"/><path d="m259.839844 137.972656c-3.773438 0-6.828125-3.058594-6.828125-6.828125v-40.957031c0-3.773438 3.054687-6.828125 6.828125-6.828125 3.773437 0 6.824218 3.054687 6.824218 6.828125v40.957031c0 3.769531-3.050781 6.828125-6.824218 6.828125zm0 0"/><path d="m307.199219 137.972656c-3.773438 0-6.828125-3.058594-6.828125-6.828125v-40.957031c0-3.773438 3.054687-6.828125 6.828125-6.828125 3.773437 0 6.828125 3.054687 6.828125 6.828125v40.957031c0 3.769531-3.054688 6.828125-6.828125 6.828125zm0 0"/><path d="m354.984375 137.972656c-3.773437 0-6.824219-3.058594-6.824219-6.828125v-40.957031c0-3.773438 3.050782-6.828125 6.824219-6.828125s6.828125 3.054687 6.828125 6.828125v40.957031c0 3.769531-3.054688 6.828125-6.828125 6.828125zm0 0"/><path d="m307.199219 240.371094c-3.773438 0-6.828125-3.054688-6.828125-6.824219v-61.441406c0-3.769531 3.054687-6.828125 6.828125-6.828125 3.773437 0 6.828125 3.058594 6.828125 6.828125v61.441406c0 3.769531-3.054688 6.824219-6.828125 6.824219zm0 0"/><path d="m327.679688 192.585938h-40.960938c-3.773438 0-6.828125-3.058594-6.828125-6.828126 0-3.769531 3.054687-6.824218 6.828125-6.824218h40.960938c3.773437 0 6.824218 3.054687 6.824218 6.824218 0 3.769532-3.050781 6.828126-6.824218 6.828126zm0 0"/><path d="m307.199219 240.371094c-18.820313 0-34.132813-15.3125-34.132813-34.132813 0-3.769531 3.050782-6.824219 6.824219-6.824219s6.828125 3.054688 6.828125 6.824219c0 11.292969 9.1875 20.480469 20.480469 20.480469s20.480469-9.1875 20.480469-20.480469c0-3.769531 3.050781-6.824219 6.824218-6.824219 3.773438 0 6.828125 3.054688 6.828125 6.824219 0 18.820313-15.3125 34.132813-34.132812 34.132813zm0 0"/></g><path d="m150.1875 209.652344c0 13.195312-10.699219 23.894531-23.894531 23.894531-13.195313 0-23.894531-10.699219-23.894531-23.894531 0-13.195313 10.699218-23.894532 23.894531-23.894532 13.195312 0 23.894531 10.699219 23.894531 23.894532zm0 0" fill="#ffe600"/><path d="m126.292969 240.371094c-16.941407 0-30.71875-13.777344-30.71875-30.71875s13.777343-30.71875 30.71875-30.71875c16.941406 0 30.71875 13.777344 30.71875 30.71875s-13.777344 30.71875-30.71875 30.71875zm0-47.785156c-9.410157 0-17.066407 7.65625-17.066407 17.066406s7.65625 17.066406 17.066407 17.066406c9.410156 0 17.066406-7.65625 17.066406-17.066406s-7.65625-17.066406-17.066406-17.066406zm0 0" fill="#602f75"/><path d="m136.53125 103.839844c0 7.539062-6.113281 13.652344-13.652344 13.652344-7.539062 0-13.652344-6.113282-13.652344-13.652344 0-7.542969 6.113282-13.652344 13.652344-13.652344 7.539063 0 13.652344 6.109375 13.652344 13.652344zm0 0" fill="#ffe600"/><path d="m122.878906 124.320312c-11.292968 0-20.480468-9.1875-20.480468-20.480468 0-11.292969 9.1875-20.480469 20.480468-20.480469 11.292969 0 20.480469 9.1875 20.480469 20.480469 0 11.292968-9.1875 20.480468-20.480469 20.480468zm0-27.308593c-3.761718 0-6.828125 3.0625-6.828125 6.828125 0 3.761718 3.066407 6.824218 6.828125 6.824218 3.761719 0 6.828125-3.0625 6.828125-6.824218 0-3.765625-3.066406-6.828125-6.828125-6.828125zm0 0" fill="#602f75"/></svg>