<svg height="340pt" viewBox="0 1 340.84523 340" width="340pt" xmlns="http://www.w3.org/2000/svg"><path d="m6.828125 7.25 327.195313 327.191406" fill="#ea3457"/><path d="m334.019531 341.265625c-1.746093 0-3.492187-.664063-4.828125-2l-327.191406-327.191406c-2.667969-2.664063-2.667969-6.988281 0-9.652344 2.664062-2.664063 6.988281-2.664063 9.652344 0l327.195312 327.195313c2.664063 2.664062 2.664063 6.984374 0 9.652343-1.335937 1.332031-3.082031 1.996094-4.828125 1.996094zm0 0" fill="#602f75"/><path d="m48.152344 88.492188 39.917968-39.917969 64.398438 64.398437-39.917969 39.917969zm0 0" fill="#00e7ff"/><path d="m112.554688 159.71875c-1.746094 0-3.496094-.667969-4.828126-2.003906l-64.398437-64.398438c-2.664063-2.664062-2.664063-6.984375 0-9.652344l39.917969-39.921874c2.667968-2.664063 6.988281-2.664063 9.652344 0l64.402343 64.402343c2.664063 2.664063 2.664063 6.984375 0 9.652344l-39.921875 39.917969c-1.332031 1.335937-3.078125 2.003906-4.824218 2.003906zm-54.746094-71.226562 54.746094 54.746093 30.265624-30.265625-54.746093-54.746094zm0 0" fill="#00e7ff"/><path d="m259.234375 259.652344s15.933594-63.632813-3.808594-108.371094l-104.5625 104.5625c44.734375 19.742188 108.371094 3.808594 108.371094 3.808594zm0 0" fill="#ea3457"/><path d="m206.019531 272.597656c-18.820312 0-39.707031-2.472656-57.90625-10.507812-2.066406-.90625-3.539062-2.773438-3.960937-4.992188-.414063-2.214844.292968-4.488281 1.886718-6.078125l104.558594-104.566406c1.601563-1.597656 3.894532-2.300781 6.082032-1.882813 2.210937.414063 4.078124 1.894532 4.992187 3.953126 20.445313 46.34375 4.855469 110.097656 4.179687 112.785156-.605468 2.449218-2.519531 4.355468-4.960937 4.96875-1.628906.40625-25.785156 6.320312-54.871094 6.320312zm53.214844-12.945312h.066406zm-96.039063-6.476563c34.558594 10.804688 77.136719 3.480469 90.3125.757813 2.71875-13.175782 10.027344-55.796875-.753906-90.328125zm0 0" fill="#602f75"/><path d="m157.84375 91.40625c-18.597656.0625-35.648438 6.140625-48.183594 18.675781-23.53125 23.53125-24.304687 62.992188-5.230468 98.714844l103.949218-103.949219" fill="#fff"/><path d="m104.425781 215.625c-.332031 0-.667969-.023438-1.007812-.074219-2.132813-.320312-4-1.628906-5.011719-3.539062-21.214844-39.738281-18.6875-81.644531 6.425781-106.757813 13.453125-13.453125 31.773438-20.601562 52.996094-20.671875h.019531c3.757813 0 6.8125 3.039063 6.824219 6.800781.015625 3.769532-3.03125 6.835938-6.804687 6.851563-17.527344.058594-32.53125 5.828125-43.378907 16.675781-19.082031 19.078125-21.96875 50.667969-8.113281 82.285156l97.179688-97.175781c2.664062-2.664062 6.984374-2.664062 9.652343 0 2.664063 2.667969 2.664063 6.988281 0 9.65625l-103.953125 103.949219c-1.289062 1.289062-3.027344 2-4.828125 2zm0 0" fill="#602f75"/><path d="m208.378906 104.847656-103.949218 103.949219c6.03125 11.296875 14.003906 22.234375 23.929687 32.160156 6.46875 6.46875 14.199219 11.222657 22.503906 14.886719l104.5625-104.5625c-3.664062-8.308594-8.417969-16.035156-14.886719-22.503906-9.925781-9.925782-20.859374-17.898438-32.160156-23.929688zm0 0" fill="#ffe600"/><path d="m150.867188 262.671875c-.933594 0-1.867188-.191406-2.753907-.582031-9.960937-4.390625-18-9.726563-24.578125-16.304688-10.101562-10.101562-18.554687-21.460937-25.128906-33.769531-1.417969-2.65625-.933594-5.917969 1.195312-8.042969l103.953126-103.953125c2.132812-2.132812 5.398437-2.597656 8.039062-1.195312 12.3125 6.574219 23.671875 15.027343 33.773438 25.128906 6.574218 6.574219 11.90625 14.613281 16.304687 24.570313 1.140625 2.578124.574219 5.589843-1.417969 7.582031l-104.5625 104.566406c-1.304687 1.304687-3.050781 2-4.824218 2zm-37.960938-52.699219c5.539062 9.445313 12.347656 18.226563 20.28125 26.160156 4.441406 4.4375 9.785156 8.21875 16.246094 11.488282l97.769531-97.769532c-3.269531-6.46875-7.054687-11.8125-11.488281-16.25-7.933594-7.925781-16.710938-14.734374-26.160156-20.273437zm0 0" fill="#602f75"/></svg>