<svg height="423pt" viewBox="0 -61 423.25776 423" width="423pt" xmlns="http://www.w3.org/2000/svg"><path d="m334.035156 185.121094c20.488282-9.960938 34.609375-30.972656 34.609375-55.285156 0-33.933594-27.511719-61.441407-61.441406-61.441407l-286.71875-61.4375-13.65625 95.570313 247.796875 73.214844" fill="#fff"/><path d="m334.042969 191.949219c-2.535157 0-4.96875-1.414063-6.148438-3.84375-1.648437-3.390625-.234375-7.472657 3.152344-9.125 18.980469-9.226563 30.765625-28.054688 30.765625-49.144531 0-30.113282-24.496094-54.613282-54.613281-54.613282-.476563 0-.957031-.050781-1.433594-.152344l-279.558594-59.90625-11.785156 82.488282 242.132813 71.542968c3.621093 1.066407 5.679687 4.867188 4.613281 8.480469-1.066407 3.617188-4.832031 5.691407-8.480469 4.613281l-247.792969-73.214843c-3.25-.957031-5.304687-4.15625-4.8242185-7.511719l13.6523435-95.574219c.265625-1.871093 1.300782-3.550781 2.851563-4.632812 1.5625-1.082031 3.476562-1.46875 5.34375-1.078125l286.027343 61.292968c37.296876.402344 67.523438 30.871094 67.523438 68.265626 0 26.359374-14.734375 49.894531-38.445312 61.425781-.960938.46875-1.980469.6875-2.980469.6875zm0 0" fill="#602f75"/><path d="m68.269531 102.527344v129.707031h143.359375l47.789063 47.789063h157.011719v-47.789063s-122.878907 40.960937-163.839844-129.707031zm0 0" fill="#00e7ff"/><path d="m416.429688 286.847656h-157.011719c-1.8125 0-3.546875-.71875-4.828125-2l-45.785156-45.785156h-140.535157c-3.773437 0-6.828125-3.058594-6.828125-6.828125v-129.707031c0-3.769532 3.054688-6.824219 6.828125-6.824219h184.320313c3.152344 0 5.898437 2.164063 6.640625 5.230469 13.753906 57.328125 38.21875 96.148437 72.707031 115.386718 40.707031 22.710938 81.941406 9.574219 82.347656 9.433594 2.078125-.6875 4.371094-.335937 6.140625.953125 1.773438 1.285157 2.832031 3.335938 2.832031 5.527344v47.785156c0 3.773438-3.054687 6.828125-6.828124 6.828125zm-154.1875-13.652344h147.359374v-32.21875c-15.699218 3.164063-49.644531 6.507813-84.097656-12.617187-36.980468-20.519531-63.292968-60.550781-78.253906-119.003906h-172.152344v116.054687h136.53125c1.8125 0 3.546875.71875 4.828125 2zm0 0" fill="#602f75"/><path d="m163.84375 232.234375c0 33.933594-27.507812 61.441406-61.441406 61.441406s-61.441406-27.507812-61.441406-61.441406c0-33.929687 27.507812-61.4375 61.441406-61.4375s61.441406 27.507813 61.441406 61.4375zm0 0" fill="#ffe600"/><path d="m102.402344 300.5c-37.640625 0-68.265625-30.621094-68.265625-68.265625s30.625-68.265625 68.265625-68.265625 68.265625 30.621094 68.265625 68.265625-30.625 68.265625-68.265625 68.265625zm0-122.878906c-30.113282 0-54.613282 24.5-54.613282 54.613281s24.5 54.613281 54.613282 54.613281c30.113281 0 54.613281-24.5 54.613281-54.613281s-24.5-54.613281-54.613281-54.613281zm0 0" fill="#602f75"/><path d="m134.257812 232.234375c0 17.59375-14.261718 31.855469-31.855468 31.855469s-31.855469-14.261719-31.855469-31.855469 14.261719-31.855469 31.855469-31.855469 31.855468 14.261719 31.855468 31.855469zm0 0" fill="#ea3457"/><path d="m102.402344 270.917969c-21.324219 0-38.679688-17.351563-38.679688-38.683594 0-21.328125 17.355469-38.683594 38.679688-38.683594 21.328125 0 38.679687 17.355469 38.679687 38.683594 0 21.332031-17.351562 38.683594-38.679687 38.683594zm0-63.710938c-13.800782 0-25.027344 11.226563-25.027344 25.027344s11.226562 25.03125 25.027344 25.03125c13.800781 0 25.027344-11.230469 25.027344-25.03125s-11.226563-25.027344-25.027344-25.027344zm0 0" fill="#ea3457"/><path d="m218.457031 109.355469c0 15.082031-12.226562 27.304687-27.308593 27.304687-15.082032 0-27.304688-12.222656-27.304688-27.304687s12.222656-27.308594 27.304688-27.308594c15.082031 0 27.308593 12.226563 27.308593 27.308594zm0 0" fill="#fff"/><path d="m191.148438 143.488281c-18.820313 0-34.132813-15.3125-34.132813-34.132812 0-18.820313 15.3125-34.132813 34.132813-34.132813 18.820312 0 34.132812 15.3125 34.132812 34.132813 0 18.820312-15.3125 34.132812-34.132812 34.132812zm0-54.613281c-11.292969 0-20.480469 9.1875-20.480469 20.480469s9.1875 20.480469 20.480469 20.480469c11.292968 0 20.480468-9.1875 20.480468-20.480469s-9.1875-20.480469-20.480468-20.480469zm0 0" fill="#602f75"/></svg>