<svg height="409pt" viewBox="0 -24 409.57529 409" width="409pt" xmlns="http://www.w3.org/2000/svg"><path d="m35.167969 304.371094c116.796875 68.378906 229.957031 67.414062 339.191406 0l-1.023437-10.53125c-117.457032-38.765625-229.617188-37.089844-337.148438 0zm0 0" fill="#ea3457"/><path d="m207 361.988281c-57.816406 0-116.378906-17.242187-175.28125-51.730469-2.296875-1.34375-3.601562-3.898437-3.34375-6.550781l1.023438-10.53125c.257812-2.660156 2.042968-4.921875 4.566406-5.792969 110.847656-38.230468 225.746094-38.230468 341.515625-.03125 2.566406.851563 4.390625 3.132813 4.652343 5.828126l1.019532 10.53125c.253906 2.589843-.992188 5.097656-3.207032 6.464843-55.964843 34.539063-113.085937 51.8125-170.945312 51.8125zm-164.613281-61.328125c110.59375 63.324219 219.8125 63.363282 324.765625.105469l-.179688-1.820313c-110.007812-35.414062-219.097656-35.429687-324.414062-.0625zm0 0" fill="#602f75"/><path d="m393.507812 165.308594c-58.910156-120.808594-383.792968-108.0625-386.578124 38.238281-.023438 1.25-1.132813 27.046875 4.742187 32.027344l20.421875 17.304687h345.339844l20.421875-17.304687c5.871093-4.980469 4.757812-30.132813 4.757812-30.132813" fill="#fff"/><path d="m377.433594 259.703125h-345.34375c-1.613282 0-3.179688-.570313-4.414063-1.617187l-20.414062-17.308594c-2.003907-1.695313-8.105469-6.863282-7.1640628-37.09375 1.0898438-57.035156 49.7421878-101.523438 130.1523438-119.28125 50.886719-11.242188 108.546875-10.441406 158.199219 2.175781 54.660156 13.890625 94.152343 40.785156 111.195312 75.734375 1.652344 3.390625.242188 7.476562-3.144531 9.132812-3.394531 1.648438-7.476562.238282-9.128906-3.144531-33.363282-68.421875-158.375-91.710937-254.179688-70.570312-106.425781 23.503906-118.980468 81.917969-119.433594 105.941406-.519531 16.578125 1.292969 25.242187 2.550782 26.910156l18.28125 15.46875h340.339844l18.511718-15.6875c1.597656-2.148437 2.816406-13.980469 2.351563-24.621093-.164063-3.765626 2.753906-6.953126 6.519531-7.117188 3.695312-.183594 6.953125 2.746094 7.121094 6.515625.46875 10.640625.167968 29.421875-7.167969 35.640625l-20.417969 17.300781c-1.234375 1.050781-2.796875 1.621094-4.414062 1.621094zm0 0" fill="#602f75"/><path d="m377.433594 252.878906c-110.992188-18.453125-226.386719-16.855468-345.339844 0l4.097656 40.960938c112.382813-19.722656 224.761719-19.722656 337.148438 0zm0 0" fill="#ffe600"/><path d="m36.191406 300.664062c-1.480468 0-2.929687-.480468-4.121094-1.386718-1.515624-1.144532-2.480468-2.867188-2.671874-4.757813l-4.097657-40.960937c-.363281-3.644532 2.210938-6.925782 5.835938-7.4375 126.164062-17.878906 239.808593-17.863282 347.417969.027344 3.550781.589843 6.03125 3.832031 5.675781 7.414062l-4.097657 40.957031c-.1875 1.886719-1.15625 3.613281-2.667968 4.761719-1.511719 1.144531-3.433594 1.609375-5.304688 1.28125-111.074218-19.488281-223.714844-19.480469-334.785156 0-.394531.070312-.789062.101562-1.183594.101562zm3.347656-41.933593 2.71875 27.140625c107.871094-18.105469 217.136719-18.105469 325.015626 0l2.734374-27.285156c-102.511718-16.332032-210.765624-16.277344-330.46875.144531zm0 0" fill="#602f75"/><path d="m377.597656 259.703125c-1.921875 0-3.835937-.808594-5.183594-2.378906l-40.960937-47.789063c-2.453125-2.863281-2.125-7.171875.738281-9.625 2.863282-2.457031 7.167969-2.128906 9.628906.738282l40.960938 47.789062c2.453125 2.863281 2.121094 7.171875-.742188 9.625-1.289062 1.101562-2.867187 1.640625-4.441406 1.640625zm0 0" fill="#602f75"/><path d="m38.234375 259.703125c-1.574219 0-3.152344-.539063-4.441406-1.640625-2.863281-2.457031-3.191407-6.765625-.738281-9.628906l40.957031-47.785156c2.457031-2.863282 6.773437-3.191407 9.628906-.742188 2.863281 2.453125 3.195313 6.765625.742187 9.628906l-40.960937 47.785156c-1.351563 1.574219-3.261719 2.382813-5.1875 2.382813zm0 0" fill="#602f75"/><path d="m171.753906 331.394531c-25.992187 0-51.453125-8.964843-65.183594-14.753906-3.472656-1.460937-5.101562-5.464844-3.636718-8.941406 1.464844-3.472657 5.464844-5.109375 8.945312-3.636719 14.230469 6 42.023438 15.691406 68.195313 13.308594 3.761719-.351563 7.078125 2.421875 7.421875 6.171875.34375 3.753906-2.417969 7.078125-6.175782 7.421875-3.183593.292968-6.378906.429687-9.566406.429687zm0 0" fill="#ffe600"/><path d="m200.101562 153.320312c-12.859374 0-23.324218-10.460937-23.324218-23.320312 0-12.863281 10.464844-23.324219 23.324218-23.324219 12.859376 0 23.324219 10.460938 23.324219 23.324219 0 12.859375-10.464843 23.320312-23.324219 23.320312zm0-32.992187c-5.332031 0-9.667968 4.335937-9.667968 9.671875 0 5.332031 4.335937 9.667969 9.667968 9.667969 5.332032 0 9.671876-4.335938 9.671876-9.667969 0-5.335938-4.339844-9.671875-9.671876-9.671875zm0 0" fill="#00e7ff"/><path d="m200.101562 211.917969c-3.769531 0-6.824218-3.054688-6.824218-6.828125v-54.613282c0-3.769531 3.054687-6.824218 6.824218-6.824218 3.769532 0 6.828126 3.054687 6.828126 6.824218v54.613282c0 3.773437-3.058594 6.828125-6.828126 6.828125zm0 0" fill="#00e7ff"/><path d="m200.101562 211.917969c-18.820312 0-34.132812-15.3125-34.132812-34.132813 0-3.769531 3.058594-6.828125 6.828125-6.828125s6.824219 3.058594 6.824219 6.828125c0 11.292969 9.1875 20.480469 20.480468 20.480469 11.292969 0 20.480469-9.1875 20.480469-20.480469 0-3.769531 3.058594-6.828125 6.828125-6.828125 3.769532 0 6.824219 3.058594 6.824219 6.828125 0 18.820313-15.3125 34.132813-34.132813 34.132813zm0 0" fill="#00e7ff"/><g fill="#ea3457"><path d="m200.101562 54.90625c-3.769531 0-6.824218-3.058594-6.824218-6.828125v-40.960937c0-3.769532 3.054687-6.824219 6.824218-6.824219 3.769532 0 6.828126 3.054687 6.828126 6.824219v40.960937c0 3.769531-3.058594 6.828125-6.828126 6.828125zm0 0"/><path d="m254.707031 54.90625c-1.023437 0-2.066406-.230469-3.042969-.722656-3.375-1.683594-4.742187-5.785156-3.054687-9.160156l20.480469-40.957032c1.683594-3.375 5.78125-4.746094 9.160156-3.054687 3.371094 1.6875 4.738281 5.789062 3.050781 9.160156l-20.480469 40.960937c-1.195312 2.394532-3.605468 3.773438-6.113281 3.773438zm0 0"/><path d="m145.492188 54.90625c-2.503907 0-4.914063-1.382812-6.113282-3.773438l-20.476562-40.960937c-1.6875-3.375-.324219-7.472656 3.050781-9.160156 3.378906-1.691407 7.472656-.320313 9.160156 3.054687l20.480469 40.957032c1.6875 3.375.320312 7.476562-3.054688 9.160156-.976562.492187-2.019531.722656-3.046874.722656zm0 0"/></g></svg>