<svg height="393pt" viewBox="-9 0 393 393.97632" width="393pt" xmlns="http://www.w3.org/2000/svg"><path d="m238.441406 387.148438h-86.675781c-49.617187 0-89.835937-40.21875-89.835937-89.835938v-127.964844h266.347656v127.964844c0 49.617188-40.222656 89.835938-89.835938 89.835938zm0 0" fill="#ffe600"/><path d="m238.441406 393.976562h-86.671875c-53.300781 0-96.667969-43.363281-96.667969-96.664062v-127.964844c0-3.769531 3.054688-6.824218 6.828126-6.824218h266.351562c3.773438 0 6.828125 3.054687 6.828125 6.824218v127.964844c0 53.300781-43.367187 96.664062-96.667969 96.664062zm-169.6875-217.804687v121.140625c0 45.773438 37.242188 83.011719 83.015625 83.011719h86.671875c45.773438 0 83.015625-37.238281 83.015625-83.011719v-121.140625zm0 0" fill="#602f75"/><path d="m265.96875 318.882812h-141.070312c-23.042969 0-41.71875-18.675781-41.71875-41.71875v-122.121093h224.507812v122.121093c0 23.042969-18.675781 41.71875-41.71875 41.71875zm0 0" fill="#fff"/><path d="m265.96875 325.710938h-141.074219c-26.765625 0-48.539062-21.777344-48.539062-48.542969v-122.125c0-3.769531 3.054687-6.828125 6.828125-6.828125h224.503906c3.773438 0 6.828125 3.058594 6.828125 6.828125v122.125c0 26.765625-21.78125 48.542969-48.546875 48.542969zm-175.960938-163.839844v115.296875c0 19.238281 15.652344 34.886719 34.886719 34.886719h141.074219c19.238281 0 34.890625-15.648438 34.890625-34.886719v-115.296875zm0 0" fill="#602f75"/><path d="m339.417969 271.097656h-11.140625v-81.921875h11.140625c8.867187 0 16.058593 7.191407 16.058593 16.058594v49.804687c0 8.867188-7.191406 16.058594-16.058593 16.058594zm0 0" fill="#fff"/><path d="m339.414062 277.921875h-11.132812c-3.773438 0-6.824219-3.054687-6.824219-6.824219v-81.921875c0-3.769531 3.050781-6.824219 6.824219-6.824219h11.132812c12.621094 0 22.886719 10.265626 22.886719 22.882813v49.800781c0 12.621094-10.265625 22.886719-22.886719 22.886719zm-4.304687-13.652344h4.304687c5.09375 0 9.230469-4.144531 9.230469-9.234375v-49.800781c0-5.085937-4.136719-9.230469-9.230469-9.230469h-4.304687zm0 0" fill="#602f75"/><path d="m328.277344 150.386719v17.523437c-96.5 50.542969-185.285156 50.542969-266.347656 0v-60.652344h266.347656" fill="#ea3457"/><path d="m189.308594 212.53125c-45.714844 0-89.480469-12.941406-130.992188-38.828125-2-1.246094-3.214844-3.4375-3.214844-5.792969v-60.652344c0-3.773437 3.054688-6.828124 6.828126-6.828124h266.351562c3.773438 0 6.828125 3.054687 6.828125 6.828124 0 3.769532-3.054687 6.824219-6.828125 6.824219h-259.527344v50.007813c76.632813 46.34375 161.59375 46.230468 252.699219-.332032v-13.371093c0-3.769531 3.054687-6.828125 6.828125-6.828125s6.828125 3.058594 6.828125 6.828125v17.523437c0 2.539063-1.40625 4.871094-3.664063 6.046875-49.089843 25.714844-96.585937 38.574219-142.136718 38.574219zm0 0" fill="#602f75"/><path d="m61.929688 271.097656h-11.25c-8.871094 0-16.058594-7.191406-16.058594-16.058594v-49.804687c0-8.871094 7.191406-16.058594 16.058594-16.058594h11.25zm0 0" fill="#fff"/><path d="m61.929688 277.921875h-11.25c-12.621094 0-22.886719-10.265625-22.886719-22.886719v-49.800781c0-12.617187 10.269531-22.882813 22.886719-22.882813h11.25c3.773437 0 6.824218 3.054688 6.824218 6.824219v81.921875c0 3.769532-3.050781 6.824219-6.824218 6.824219zm-11.25-81.917969c-5.089844 0-9.230469 4.144532-9.230469 9.230469v49.800781c0 5.089844 4.140625 9.234375 9.230469 9.234375h4.421874v-68.265625zm0 0" fill="#602f75"/><path d="m165.382812 11.679688c-26.460937 11.796874-74.097656 28.542968-133.25 29.71875-13.804687.277343-24.816406 11.648437-24.816406 25.453124 0 6.035157 2.113282 11.878907 6.03125 16.46875 16.359375 19.183594 63.519532 69.636719 110.679688 74.355469h128.386718c47.164063-4.714843 94.324219-55.171875 110.683594-74.355469 3.914063-4.589843 6.03125-10.433593 6.03125-16.46875 0-13.804687-11.015625-25.175781-24.816406-25.453124-59.15625-1.175782-106.792969-17.921876-133.253906-29.71875-14.539063-6.484376-31.136719-6.484376-45.675782 0zm0 0" fill="#00e7ff"/><path d="m188.222656 164.5h-64.195312c-49.785156-4.945312-97.597656-55.320312-115.871094-76.75-4.941406-5.785156-7.667969-13.210938-7.667969-20.894531 0-17.457031 14.132813-31.933594 31.507813-32.28125 56.472656-1.121094 102.191406-16.460938 130.605468-29.128907 16.28125-7.261718 34.957032-7.261718 51.238282 0 28.414062 12.671876 74.132812 28.007813 130.605468 29.128907 17.375.347656 31.507813 14.824219 31.507813 32.28125 0 7.6875-2.726563 15.109375-7.664063 20.898437-18.273437 21.425782-66.085937 71.800782-115.195312 76.714844zm-20.0625-146.589844c-29.558594 13.1875-77.136718 29.148438-135.898437 30.316406-9.992188.199219-18.121094 8.554688-18.121094 18.628907 0 4.441406 1.5625 8.710937 4.402344 12.03125 13.425781 15.746093 60.753906 67.453125 106.164062 71.996093l127.707031-.035156c44.734376-4.507812 92.058594-56.214844 105.488282-71.957031 2.839844-3.320313 4.398437-7.59375 4.398437-12.035156 0-10.074219-8.125-18.429688-18.117187-18.628907-58.761719-1.167968-106.34375-17.128906-135.902344-30.316406-12.753906-5.683594-27.378906-5.675781-40.121094 0zm0 0" fill="#00e7ff"/><path d="m246.582031 234.53125c-3.773437 0-6.828125-3.058594-6.828125-6.828125v-23.34375c0-3.769531 3.054688-6.824219 6.828125-6.824219 3.773438 0 6.824219 3.054688 6.824219 6.824219v23.34375c0 3.769531-3.050781 6.828125-6.824219 6.828125zm0 0" fill="#602f75"/><path d="m151.007812 234.53125c-3.773437 0-6.828124-3.058594-6.828124-6.828125v-23.34375c0-3.769531 3.054687-6.824219 6.828124-6.824219 3.773438 0 6.828126 3.054688 6.828126 6.824219v23.34375c0 3.769531-3.054688 6.828125-6.828126 6.828125zm0 0" fill="#602f75"/><path d="m209.808594 281.015625h-31.222656c-7.226563 0-14.335938 2.964844-18.789063 8.65625-10.246094 13.085937-31.582031 13.085937-31.582031 13.085937v10.871094c41.898437 27.179688 65.84375 0 65.84375 0s23.941406 27.179688 65.84375 0v-10.871094s-21.582032 0-31.757813-13.3125c-4.28125-5.601562-11.285156-8.429687-18.335937-8.429687zm0 0" fill="#ffe600"/><g fill="#602f75"><path d="m224.441406 332.464844c-14.277344 0-24.660156-5.679688-30.386718-9.886719-10.101563 7.417969-34.660157 19.417969-69.554688-3.222656-1.9375-1.253907-3.113281-3.414063-3.113281-5.726563v-10.867187c0-3.773438 3.054687-6.828125 6.828125-6.828125.167968 0 18.179687-.214844 26.199218-10.46875 5.527344-7.0625 14.566407-11.273438 24.175782-11.273438h31.21875c9.5625 0 18.441406 4.152344 23.761718 11.113282 7.957032 10.414062 26.164063 10.628906 26.351563 10.628906 3.753906.023437 6.804687 3.070312 6.804687 6.828125v10.871093c0 2.3125-1.171874 4.46875-3.113281 5.726563-15.105469 9.796875-28.277343 13.105469-39.171875 13.105469zm-30.386718-25.660156c1.960937 0 3.828124.839843 5.121093 2.3125.777344.851562 19.710938 21.003906 53.898438.71875v-.800782c-8.28125-1.144531-22.105469-4.652344-30.351563-15.441406-2.753906-3.601562-7.582031-5.75-12.914062-5.75h-31.21875c-5.445313 0-10.460938 2.253906-13.421875 6.03125-8.257813 10.566406-21.917969 14.027344-30.125 15.160156v.796875c34.554687 20.507813 53.695312-.492187 53.894531-.714843 1.292969-1.472657 3.15625-2.3125 5.117188-2.3125zm0 0"/><path d="m191.636719 127.734375c-3.773438 0-6.828125-3.054687-6.828125-6.824219v-81.921875c0-3.769531 3.054687-6.824219 6.828125-6.824219 3.773437 0 6.824219 3.054688 6.824219 6.824219v81.921875c0 3.769532-3.050782 6.824219-6.824219 6.824219zm0 0"/><path d="m218.941406 66.296875h-54.613281c-3.773437 0-6.828125-3.058594-6.828125-6.828125s3.054688-6.824219 6.828125-6.824219h54.613281c3.773438 0 6.828125 3.054688 6.828125 6.824219s-3.054687 6.828125-6.828125 6.828125zm0 0"/><path d="m191.636719 127.734375c-22.589844 0-40.960938-18.371094-40.960938-40.957031 0-3.769532 3.050781-6.828125 6.824219-6.828125s6.828125 3.058593 6.828125 6.828125c0 15.054687 12.246094 27.304687 27.308594 27.304687 15.058593 0 27.304687-12.25 27.304687-27.304687 0-3.769532 3.054688-6.828125 6.828125-6.828125 3.773438 0 6.824219 3.058593 6.824219 6.828125 0 22.585937-18.371094 40.957031-40.957031 40.957031zm0 0"/></g></svg>