<svg height="416pt" viewBox="0 -100 416.42667 416" width="416pt" xmlns="http://www.w3.org/2000/svg"><path d="m368.640625 209.179688h-320.855469c-22.621094 0-40.957031-18.335938-40.957031-40.960938 0-22.621094 18.335937-40.957031 40.957031-40.957031h320.855469c22.621094 0 40.960937 18.335937 40.960937 40.957031 0 22.625-18.339843 40.960938-40.960937 40.960938zm0 0" fill="#00e7ff"/><path d="m368.640625 216.007812h-320.855469c-26.347656 0-47.785156-21.441406-47.785156-47.789062s21.4375-47.785156 47.785156-47.785156h320.855469c26.347656 0 47.785156 21.4375 47.785156 47.785156s-21.4375 47.789062-47.785156 47.789062zm-320.855469-81.921874c-18.816406 0-34.132812 15.316406-34.132812 34.132812 0 18.820312 15.316406 34.132812 34.132812 34.132812h320.855469c18.820313 0 34.132813-15.3125 34.132813-34.132812 0-18.816406-15.3125-34.132812-34.132813-34.132812zm0 0" fill="#00e7ff"/><path d="m247.761719 48.019531s-23.503907-27.777343-56.984375-39.359375c-21.144532-7.316406-42.675782 11.085938-36.808594 32.675782 2.589844 9.515624 9.804688 19.261718 25.574219 27.148437zm0 0" fill="#ffe600"/><path d="m179.542969 75.3125c-1.050781 0-2.097657-.242188-3.054688-.71875-15.785156-7.894531-25.578125-18.480469-29.105469-31.472656-3.320312-12.199219.238282-24.660156 9.511719-33.328125 9.671875-9.039063 23.515625-11.945313 36.109375-7.585938 34.847656 12.054688 58.953125 40.214844 59.96875 41.40625 1.484375 1.753907 1.984375 4.140625 1.332032 6.347657-.660157 2.207031-2.378907 3.941406-4.585938 4.601562l-68.214844 20.464844c-.640625.191406-1.300781.285156-1.960937.285156zm1.65625-61.441406c-5.496094 0-10.859375 2.039062-14.976563 5.894531-5.597656 5.226563-7.660156 12.433594-5.664062 19.773437 2.304687 8.472657 8.921875 15.734376 19.683594 21.613282l54.796874-16.445313c-9.144531-8.683593-25.945312-22.488281-46.5-29.59375-2.40625-.832031-4.886718-1.242187-7.339843-1.242187zm0 0" fill="#602f75"/><path d="m88.960938 96.398438c-7.578126-15.414063-24.242188-40.417969-56.082032-51.789063 0 0-17.050781-6.820313-23.871094 13.644531-6.824218 20.464844 27.285157 44.339844 27.285157 44.339844s-34.109375 23.871094-27.285157 44.335938c6.820313 20.464843 23.871094 13.644531 23.871094 13.644531 31.839844-11.371094 48.503906-36.375 56.082032-51.789063zm0 0" fill="#ffe600"/><path d="m26.464844 168.507812c-2.972656 0-6.433594-.523437-9.941406-2.148437-6.460938-2.992187-11.171876-8.804687-13.992188-17.265625-6.203125-18.605469 11.832031-37.3125 22.664062-46.5-10.835937-9.1875-28.867187-27.894531-22.664062-46.5 2.820312-8.460938 7.53125-14.273438 13.992188-17.273438 9.132812-4.226562 17.921874-.941406 18.890624-.550781 34.347657 12.265625 52.144532 39.804688 59.671876 55.117188.460937.941406.699218 1.96875.699218 3.015625v12.386718c0 1.046876-.238281 2.074219-.699218 3.015626-7.527344 15.3125-25.324219 42.851562-59.910157 55.199218-.449219.183594-3.957031 1.503906-8.710937 1.503906zm-.042969-118.164062c-1.320313 0-2.816406.222656-4.253906.90625-2.867188 1.382812-5.117188 4.460938-6.683594 9.160156-4.238281 12.714844 16.964844 31.140625 24.726563 36.59375 1.820312 1.273438 2.90625 3.359375 2.90625 5.585938 0 2.226562-1.085938 4.3125-2.90625 5.585937-7.761719 5.453125-28.964844 23.878907-24.726563 36.59375 1.566406 4.699219 3.816406 7.78125 6.683594 9.152344 3.882812 1.875 8.210937.300781 8.25.28125 29.195312-10.425781 44.730469-33.355469 51.714843-47.035156v-9.160157c-6.984374-13.679687-22.511718-36.605468-51.550781-46.980468-.128906-.042969-1.894531-.683594-4.160156-.683594zm0 0" fill="#602f75"/><path d="m278.929688 137.109375c11.371093-2.113281 40.59375 19.476563 82.089843 10.59375 17.5-3.746094 36.058594-10.0625 40.226563-24.644531 6.820312-23.875-44.339844-78.449219-112.554688-85.269532-57.644531-5.765624-173.742187 29.875-208.339844 41.0625-6.257812 2.019532-11.152343 6.882813-13.230468 13.121094l-.414063 1.234375c-2.03125 6.09375-2.03125 12.683594 0 18.773438 2.320313 6.953125 8.109375 12.148437 15.277344 13.671875 23.039063 4.894531 77.109375 15.09375 131.488281 16.050781" fill="#ea3457"/><path d="m340.691406 156.6875c-19.285156 0-35.078125-5.347656-46.539062-9.234375-5.574219-1.886719-11.902344-4.058594-13.972656-3.632813-3.6875.691407-7.273438-1.761718-7.960938-5.46875-.6875-3.703124 1.757812-7.265624 5.464844-7.957031 5.609375-1.046875 12 1.125 20.847656 4.125 14.941406 5.0625 35.398438 11.988281 61.058594 6.507813 21.378906-4.582032 32.527344-10.886719 35.089844-19.839844 1.371093-4.8125-1.308594-12.847656-7.175782-21.488281-15.84375-23.339844-53.746094-50.546875-99.5-55.121094-56.351562-5.613281-171.566406 29.78125-205.554687 40.761719-4.15625 1.347656-7.46875 4.632812-8.855469 8.785156l-.410156 1.242188c-1.554688 4.65625-1.554688 9.792968 0 14.453124 1.542968 4.632813 5.460937 8.140626 10.222656 9.152344 21.007812 4.464844 75.761719 14.945313 130.183594 15.898438 3.769531.066406 6.773437 3.171875 6.707031 6.945312-.066406 3.769532-3.210937 6.714844-6.945313 6.707032-55.609374-.972657-111.386718-11.652344-132.785156-16.191407-9.476562-2.019531-17.265625-8.988281-20.339844-18.191406-2.476562-7.449219-2.476562-15.648437 0-23.09375l.414063-1.242187c2.753906-8.253907 9.335937-14.773438 17.601563-17.453126 34.636718-11.195312 152.195312-47.257812 211.121093-41.359374 50.121094 5.015624 91.859375 35.152343 109.433594 61.039062 8.480469 12.480469 11.59375 23.859375 9.011719 32.902344-5.386719 18.839844-28.464844 25.824218-45.367188 29.4375-7.65625 1.640625-14.921875 2.316406-21.75 2.316406zm0 0" fill="#602f75"/><path d="m294.039062 118.359375s-33.890624 2.089844-44.125 19.144531c-10.230468 17.054688 12.847657 37.222656 20.464844 37.519532 17.289063.675781 19.578125-13.515626 30.03125-37.550782zm0 0" fill="#ffe600"/><g fill="#602f75"><path d="m271.574219 181.878906c-.472657 0-.960938-.011718-1.460938-.03125-7.878906-.308594-19.859375-9.960937-25.636719-20.65625-5.113281-9.460937-5.261718-19.121094-.414062-27.199218 11.738281-19.566407 45.71875-22.214844 49.558594-22.445313 3.046875-.148437 5.921875 1.71875 6.902344 4.652344l6.363281 19.113281c.527343 1.601562.453125 3.339844-.21875 4.878906-1.699219 3.921875-3.1875 7.574219-4.554688 10.941406-6.953125 17.121094-12.492187 30.746094-30.539062 30.746094zm17.71875-56.160156c-10.445313 1.460938-27.792969 5.746094-33.527344 15.300781-2.132813 3.558594-2.132813 7.558594-.007813 12.234375 3.746094 8.191406 12.410157 14.5 15.0625 14.964844 8.566407.414062 11.09375-3.632812 18.644532-22.226562 1.121094-2.757813 2.3125-5.707032 3.640625-8.824219zm0 0"/><path d="m355.207031 179.339844c-1.914062 0-3.828125-.808594-5.171875-2.382813-2.460937-2.851562-2.132812-7.160156.710938-9.621093.214844-.175782 20.988281-18.390626 18.160156-38.199219-.53125-3.734375 2.0625-7.191407 5.796875-7.726563 3.707031-.558594 7.191406 2.066406 7.726563 5.796875 3.882812 27.269531-21.695313 49.550781-22.789063 50.484375-1.28125 1.109375-2.859375 1.648438-4.433594 1.648438zm0 0"/><path d="m385.894531 169.105469c-1.636719 0-3.269531-.585938-4.574219-1.765625-2.796874-2.527344-3.015624-6.839844-.488281-9.640625 5.3125-5.890625 18.261719-24.1875 14.433594-37.925781-1.015625-3.632813 1.105469-7.394532 4.738281-8.40625 3.628906-1.023438 7.402344 1.105468 8.410156 4.738281 6.644532 23.820312-16.476562 49.671875-17.46875 50.757812-1.339843 1.488281-3.191406 2.242188-5.050781 2.242188zm0 0"/><path d="m294.03125 125.1875c-3.183594 0-6.039062-2.238281-6.683594-5.488281-6.855468-34.234375 6.792969-55.214844 7.378906-56.09375 2.078126-3.140625 6.3125-3.980469 9.464844-1.890625 3.128906 2.078125 3.980469 6.296875 1.914063 9.433594-.480469.738281-11.046875 17.527343-5.371094 45.871093.738281 3.699219-1.660156 7.292969-5.355469 8.035157-.453125.09375-.90625.132812-1.347656.132812zm0 0"/></g><path d="m346.058594 99.953125c0 6.378906-5.171875 11.550781-11.550782 11.550781-6.382812 0-11.554687-5.171875-11.554687-11.550781s5.171875-11.550781 11.554687-11.550781c6.378907 0 11.550782 5.171875 11.550782 11.550781zm0 0" fill="#fff"/></svg>