<svg height="398pt" viewBox="0 0 398 398.5152" width="398pt" xmlns="http://www.w3.org/2000/svg"><path d="m373.625 124.433594c10.132812 23.324218 15.753906 49.058594 15.753906 76.109375 0 105.566406-85.582031 191.144531-191.148437 191.144531-105.566407 0-191.144531-85.578125-191.144531-191.144531 0-105.570313 85.578124-191.148438 191.144531-191.148438 53.820312 0 102.441406 22.242188 137.179687 58.035157" fill="#fff"/><path d="m198.230469 398.515625c-109.160157 0-197.972657-88.808594-197.972657-197.972656 0-109.164063 88.8125-197.972657 197.972657-197.972657 54 0 104.453125 21.34375 142.082031 60.105469 2.625 2.703125 2.558594 7.027344-.148438 9.652344-2.707031 2.625-7.019531 2.5625-9.652343-.144531-35.027344-36.089844-82.007813-55.960938-132.28125-55.960938-101.632813 0-184.320313 82.683594-184.320313 184.320313 0 101.632812 82.6875 184.320312 184.320313 184.320312 101.632812 0 184.320312-82.6875 184.320312-184.320312 0-25.503907-5.105469-50.195313-15.1875-73.386719-1.503906-3.457031.082031-7.480469 3.542969-8.980469 3.464844-1.511719 7.480469.078125 8.980469 3.539063 10.824219 24.921875 16.316406 51.441406 16.316406 78.828125 0 109.164062-88.8125 197.972656-197.972656 197.972656zm0 0" fill="#602f75"/><path d="m358.578125 200.542969c0 88.554687-71.789063 160.34375-160.347656 160.34375-88.554688 0-160.347657-71.789063-160.347657-160.34375 0-88.558594 71.792969-160.347657 160.347657-160.347657 88.558593 0 160.347656 71.789063 160.347656 160.347657zm0 0" fill="#ea3457"/><path d="m198.230469 367.714844c-92.179688 0-167.171875-74.992188-167.171875-167.171875 0-92.179688 74.992187-167.175781 167.171875-167.175781 92.179687 0 167.171875 74.996093 167.171875 167.175781 0 92.179687-74.992188 167.171875-167.171875 167.171875zm0-320.691406c-84.652344 0-153.519531 68.871093-153.519531 153.519531 0 84.648437 68.867187 153.519531 153.519531 153.519531 84.652343 0 153.519531-68.871094 153.519531-153.519531 0-84.648438-68.863281-153.519531-153.519531-153.519531zm0 0" fill="#602f75"/><path d="m274.710938 202.386719 3.09375-20.128907c2.6875-17.472656-4.363282-35.117187-18.582032-45.621093-12.8125-9.464844-33.898437-19.8125-61.75-19.8125-27.851562 0-45.34375 10.347656-58.15625 19.8125-14.222656 10.503906-21.273437 28.148437-18.585937 45.621093l3.097656 20.128907c.964844 6.273437-.042969 12.691406-2.878906 18.367187l-4.257813 8.515625c-1.9375 3.875-2.070312 8.410157-.363281 12.394531l4.679687 10.914063c2.554688 5.96875 8.71875 9.5625 15.175782 8.84375l24.164062-2.683594v19.464844l19.695313 5.90625c12.542969 3.765625 25.914062 3.765625 38.457031 0l19.695312-5.90625v-19.464844l24.164063 2.683594c6.457031.71875 12.617187-2.871094 15.175781-8.84375l4.679688-10.914063c1.707031-3.984374 1.574218-8.519531-.363282-12.394531l-4.257812-8.515625c-2.84375-5.679687-3.851562-12.09375-2.882812-18.367187zm0 0" fill="#fff"/><path d="m199.269531 293.765625c-7.132812 0-14.257812-1.039063-21.191406-3.117187l-19.695313-5.90625c-2.886718-.867188-4.867187-3.527344-4.867187-6.539063v-11.839844l-16.585937 1.839844c-9.621094 1.078125-18.433594-4.144531-22.199219-12.933594l-4.679688-10.914062c-2.507812-5.847657-2.308593-12.457031.53125-18.144531l4.257813-8.511719c2.214844-4.4375 2.988281-9.375 2.234375-14.273438l-3.089844-20.132812c-3.109375-20.179688 5.046875-40.160157 21.277344-52.144531 13.324219-9.851563 32.433593-21.15625 62.207031-21.15625 32.359375 0 55.121094 13.253906 65.8125 21.15625 16.226562 11.984374 24.378906 31.96875 21.269531 52.148437l-3.09375 20.125v.003906c-.753906 4.898438.019531 9.835938 2.238281 14.273438l4.253907 8.519531c2.839843 5.679688 3.039062 12.289062.53125 18.136719l-4.679688 10.914062c-3.753906 8.792969-12.667969 14.015625-22.199219 12.933594l-16.585937-1.839844v11.839844c0 3.011719-1.980469 5.671875-4.867187 6.539063l-19.695313 5.90625c-6.921875 2.078124-14.054687 3.117187-21.183594 3.117187zm-32.097656-20.644531 14.828125 4.445312c11.292969 3.390625 23.246094 3.390625 34.539062 0l14.828126-4.445312v-14.382813c0-1.945312.824218-3.792969 2.273437-5.085937 1.453125-1.296875 3.378906-1.925782 5.304687-1.695313l24.167969 2.679688c3.492188.390625 6.765625-1.523438 8.140625-4.742188l4.683594-10.917969c.921875-2.144531.847656-4.566406-.199219-6.648437l-4.253906-8.519531c-3.492187-6.980469-4.707031-14.75-3.515625-22.457032l3.089844-20.128906c2.332031-15.148437-3.753906-30.128906-15.886719-39.089844-9.339844-6.90625-29.253906-18.480468-57.699219-18.480468-25.636718 0-41.734375 9.34375-54.09375 18.480468-12.140625 8.960938-18.226562 23.941407-15.898437 39.089844l3.089843 20.128906c1.1875 7.703126-.027343 15.464844-3.511718 22.453126l-4.261719 8.519531c-1.046875 2.085937-1.117187 4.511719-.199219 6.652343l4.679688 10.914063c1.382812 3.222656 4.628906 5.097656 8.148437 4.75l24.164063-2.683594c1.933594-.226562 3.859375.398438 5.304687 1.695313 1.449219 1.296875 2.273438 3.144531 2.273438 5.085937v14.382813zm107.539063-70.734375h.066406zm0 0" fill="#602f75"/><path d="m207.050781 244.5625c-1.746093 0-3.492187-.667969-4.828125-2l-2.949218-2.957031-2.960938 2.957031c-2.664062 2.664062-6.988281 2.664062-9.652344 0-2.667968-2.667969-2.667968-6.988281 0-9.652344l7.785156-7.789062c1.28125-1.277344 3.015626-2 4.828126-2s3.546874.722656 4.824218 2l7.78125 7.789062c2.667969 2.667969 2.667969 6.988282 0 9.65625-1.335937 1.328125-3.082031 1.996094-4.828125 1.996094zm0 0" fill="#602f75"/><path d="m241.324219 182.832031-21.6875 21.6875" fill="#ea3457"/><path d="m219.636719 211.34375c-1.746094 0-3.492188-.664062-4.824219-2-2.667969-2.664062-2.667969-6.984375 0-9.652344l21.683594-21.6875c2.667968-2.664062 6.988281-2.664062 9.65625 0 2.664062 2.667969 2.664062 6.988282 0 9.65625l-21.6875 21.683594c-1.332032 1.335938-3.082032 2-4.828125 2zm0 0" fill="#00e7ff"/><path d="m241.324219 204.519531-21.6875-21.6875" fill="#ea3457"/><path d="m241.324219 211.34375c-1.746094 0-3.492188-.664062-4.828125-2l-21.683594-21.683594c-2.667969-2.667968-2.667969-6.988281 0-9.65625 2.664062-2.664062 6.984375-2.664062 9.652344 0l21.6875 21.6875c2.664062 2.667969 2.664062 6.988282 0 9.652344-1.335938 1.335938-3.082032 2-4.828125 2zm0 0" fill="#00e7ff"/><path d="m180.597656 182.832031-21.683594 21.6875" fill="#ea3457"/><path d="m158.910156 211.34375c-1.746094 0-3.492187-.664062-4.824218-2-2.667969-2.664062-2.667969-6.984375 0-9.652344l21.683593-21.6875c2.667969-2.664062 6.988281-2.664062 9.65625 0 2.664063 2.667969 2.664063 6.988282 0 9.65625l-21.6875 21.683594c-1.332031 1.335938-3.082031 2-4.828125 2zm0 0" fill="#00e7ff"/><path d="m180.597656 204.519531-21.683594-21.6875" fill="#ea3457"/><path d="m180.597656 211.34375c-1.746094 0-3.492187-.664062-4.828125-2l-21.683593-21.683594c-2.667969-2.667968-2.667969-6.988281 0-9.65625 2.664062-2.664062 6.984374-2.664062 9.652343 0l21.6875 21.6875c2.664063 2.667969 2.664063 6.988282 0 9.652344-1.335937 1.335938-3.082031 2-4.828125 2zm0 0" fill="#00e7ff"/><path d="m211.882812 77.660156c0 7.542969-6.113281 13.65625-13.652343 13.65625-7.539063 0-13.652344-6.113281-13.652344-13.65625 0-7.539062 6.113281-13.652344 13.652344-13.652344 7.539062 0 13.652343 6.113282 13.652343 13.652344zm0 0" fill="#ea3457"/><path d="m198.230469 98.140625c-11.292969 0-20.480469-9.1875-20.480469-20.480469 0-11.292968 9.1875-20.476562 20.480469-20.476562s20.480469 9.183594 20.480469 20.476562c0 11.292969-9.1875 20.480469-20.480469 20.480469zm0-27.304687c-3.765625 0-6.828125 3.0625-6.828125 6.824218 0 3.765625 3.0625 6.828125 6.828125 6.828125s6.828125-3.0625 6.828125-6.828125c0-3.761718-3.0625-6.824218-6.828125-6.824218zm0 0" fill="#ffe600"/><path d="m205.058594 330.25c0 7.539062-6.113282 13.652344-13.65625 13.652344-7.539063 0-13.652344-6.113282-13.652344-13.652344 0-7.542969 6.113281-13.65625 13.652344-13.65625 7.542968 0 13.65625 6.113281 13.65625 13.65625zm0 0" fill="#ea3457"/><path d="m191.402344 350.730469c-11.292969 0-20.476563-9.1875-20.476563-20.480469s9.183594-20.480469 20.476563-20.480469c11.296875 0 20.480468 9.1875 20.480468 20.480469s-9.183593 20.480469-20.480468 20.480469zm0-27.308594c-3.765625 0-6.824219 3.0625-6.824219 6.828125 0 3.761719 3.058594 6.824219 6.824219 6.824219 3.769531 0 6.828125-3.0625 6.828125-6.824219 0-3.765625-3.058594-6.828125-6.828125-6.828125zm0 0" fill="#ffe600"/><path d="m89.003906 200.542969c0 7.539062-6.113281 13.652343-13.652344 13.652343-7.542968 0-13.652343-6.113281-13.652343-13.652343 0-7.542969 6.109375-13.65625 13.652343-13.65625 7.539063 0 13.652344 6.113281 13.652344 13.65625zm0 0" fill="#ea3457"/><path d="m75.351562 221.023438c-11.292968 0-20.480468-9.1875-20.480468-20.480469s9.1875-20.480469 20.480468-20.480469c11.292969 0 20.480469 9.1875 20.480469 20.480469s-9.1875 20.480469-20.480469 20.480469zm0-27.308594c-3.765624 0-6.828124 3.0625-6.828124 6.828125 0 3.761719 3.0625 6.824219 6.828124 6.824219 3.765626 0 6.824219-3.0625 6.824219-6.824219 0-3.765625-3.058593-6.828125-6.824219-6.828125zm0 0" fill="#ffe600"/><path d="m334.765625 200.542969c0 7.539062-6.113281 13.652343-13.65625 13.652343-7.539063 0-13.652344-6.113281-13.652344-13.652343 0-7.542969 6.113281-13.65625 13.652344-13.65625 7.542969 0 13.65625 6.113281 13.65625 13.65625zm0 0" fill="#ea3457"/><path d="m321.109375 221.023438c-11.292969 0-20.476563-9.1875-20.476563-20.480469s9.183594-20.480469 20.476563-20.480469 20.480469 9.1875 20.480469 20.480469-9.1875 20.480469-20.480469 20.480469zm0-27.308594c-3.765625 0-6.824219 3.0625-6.824219 6.828125 0 3.761719 3.058594 6.824219 6.824219 6.824219 3.769531 0 6.828125-3.0625 6.828125-6.824219 0-3.765625-3.058594-6.828125-6.828125-6.828125zm0 0" fill="#ffe600"/><path d="m124.285156 101.460938c-5.148437-5.507813-13.789062-5.796876-19.296875-.648438-5.511719 5.148438-5.800781 13.789062-.652343 19.296875 5.148437 5.507813 13.789062 5.800781 19.296874.652344 5.511719-5.152344 5.800782-13.792969.652344-19.300781zm0 0" fill="#ea3457"/><path d="m114.316406 131.246094c-5.472656 0-10.9375-2.171875-14.964844-6.480469-7.714843-8.253906-7.273437-21.242187.976563-28.953125 3.996094-3.730469 9.015625-5.769531 14.675781-5.503906 5.464844.183594 10.535156 2.484375 14.265625 6.480468 3.734375 3.996094 5.695313 9.207032 5.511719 14.675782-.183594 5.464844-2.484375 10.535156-6.484375 14.273437-3.9375 3.6875-8.964844 5.507813-13.980469 5.507813zm-.011718-27.292969c-1.734376 0-3.378907.648437-4.65625 1.839844-2.75 2.570312-2.890626 6.898437-.324219 9.652343 2.574219 2.746094 6.894531 2.882813 9.652343.320313 1.328126-1.246094 2.097657-2.9375 2.160157-4.757813.058593-1.820312-.59375-3.554687-1.839844-4.890624-1.246094-1.332032-2.933594-2.097657-4.753906-2.164063-.078125 0-.160157 0-.238281 0zm0 0" fill="#ffe600"/><path d="m292.117188 280.992188c-5.148438-5.507813-13.789063-5.800782-19.296876-.652344-5.507812 5.152344-5.800781 13.792968-.648437 19.300781 5.148437 5.507813 13.789063 5.796875 19.296875.648437 5.507812-5.148437 5.796875-13.789062.648438-19.296874zm0 0" fill="#ea3457"/><path d="m282.164062 310.785156c-.234374 0-.464843-.003906-.707031-.011718-5.464843-.183594-10.53125-2.488282-14.265625-6.484376-3.734375-3.992187-5.691406-9.203124-5.511718-14.671874.1875-5.464844 2.488281-10.535157 6.488281-14.273438 8.246093-7.707031 21.230469-7.28125 28.945312.96875v.003906c7.714844 8.253906 7.273438 21.242188-.980469 28.953125-3.820312 3.570313-8.753906 5.515625-13.96875 5.515625zm-.019531-27.300781c-1.667969 0-3.339843.605469-4.660156 1.835937-1.324219 1.246094-2.097656 2.9375-2.160156 4.753907-.058594 1.824219.59375 3.558593 1.839843 4.890625 1.246094 1.332031 2.933594 2.097656 4.753907 2.164062 1.792969-.054687 3.550781-.589844 4.890625-1.835937 2.746094-2.570313 2.894531-6.898438.328125-9.648438-1.339844-1.4375-3.167969-2.160156-4.992188-2.160156zm0 0" fill="#ffe600"/><path d="m123.636719 280.320312c-5.507813-5.148437-14.148438-4.859374-19.296875.648438-5.152344 5.511719-4.859375 14.148438.648437 19.300781 5.507813 5.148438 14.148438 4.855469 19.296875-.652343 5.148438-5.507813 4.859375-14.148438-.648437-19.296876zm0 0" fill="#ea3457"/><path d="m114.296875 310.785156c-5.214844 0-10.144531-1.945312-13.96875-5.519531-8.25-7.707031-8.691406-20.691406-.976563-28.945313 7.710938-8.261718 20.707032-8.683593 28.945313-.972656 4 3.734375 6.300781 8.804688 6.488281 14.273438.179688 5.464844-1.78125 10.679687-5.515625 14.671875-3.730469 3.996093-8.796875 6.296875-14.265625 6.480469-.238281.007812-.472656.011718-.707031.011718zm.019531-27.300781c-1.824218 0-3.652344.726563-4.992187 2.160156-2.566407 2.746094-2.425781 7.078125.324219 9.644531 1.335937 1.25 3.007812 1.785157 4.894531 1.839844 1.820312-.0625 3.507812-.828125 4.753906-2.160156 0-.003906 0-.003906 0-.003906 1.246094-1.332032 1.898437-3.066406 1.839844-4.890625-.0625-1.816407-.832031-3.507813-2.160157-4.753907-1.3125-1.230468-2.992187-1.835937-4.660156-1.835937zm0 0" fill="#ffe600"/><path d="m291.46875 100.796875c-5.511719-5.148437-14.148438-4.859375-19.300781.652344-5.148438 5.507812-4.855469 14.144531.652343 19.296875 5.507813 5.148437 14.148438 4.855468 19.296876-.652344 5.148437-5.507812 4.859374-14.148438-.648438-19.296875zm0 0" fill="#ea3457"/><path d="m282.144531 131.246094c-5.019531 0-10.039062-1.820313-13.980469-5.507813-4-3.738281-6.296874-8.808593-6.484374-14.273437-.179688-5.46875 1.777343-10.679688 5.511718-14.675782 3.730469-3.992187 8.796875-6.292968 14.265625-6.480468 5.59375-.273438 10.6875 1.773437 14.671875 5.507812 8.253906 7.707032 8.695313 20.695313.980469 28.949219-4.023437 4.304687-9.492187 6.480469-14.964844 6.480469zm9.980469-11.140625h.066406zm-9.96875-16.152344c-.078125 0-.160156 0-.238281 0-1.820313.066406-3.507813.832031-4.753907 2.164063-1.246093 1.335937-1.898437 3.070312-1.839843 4.890624.058593 1.820313.832031 3.511719 2.160156 4.757813 2.753906 2.578125 7.09375 2.417969 9.652344-.324219 2.566406-2.75 2.421875-7.078125-.324219-9.644531-1.273438-1.195313-2.921875-1.84375-4.65625-1.84375zm0 0" fill="#ffe600"/><path d="m343.308594 52.863281 48.632812 14.847657-48.746094 14.410156-12.132812 45.890625-11.671875-46.03125-48.632813-14.847657 48.75-14.410156 12.132813-45.890625zm0 0" fill="#ffe600"/><path d="m331.0625 134.84375c-.011719 0-.019531 0-.03125 0-3.113281-.019531-5.820312-2.136719-6.585938-5.152344l-10.726562-42.304687-44.953125-13.726563c-2.882813-.878906-4.847656-3.546875-4.835937-6.558594.015624-3.015624 2-5.664062 4.894531-6.515624l45.058593-13.320313 11.152344-42.179687c.792969-3 3.5-5.085938 6.601563-5.085938h.035156c3.109375.015625 5.816406 2.132812 6.585937 5.152344l10.726563 42.300781 44.953125 13.726563c2.878906.882812 4.84375 3.546874 4.832031 6.5625-.015625 3.011718-2 5.660156-4.894531 6.515624l-45.058594 13.320313-11.152344 42.179687c-.792968 2.996094-3.5 5.085938-6.601562 5.085938zm-36.585938-67.605469 26.910157 8.214844c2.285156.695313 4.039062 2.535156 4.625 4.851563l5.195312 20.480468 5.390625-20.40625c.605469-2.308594 2.382813-4.125 4.667969-4.800781l26.960937-7.972656-26.910156-8.210938c-2.285156-.695312-4.039062-2.535156-4.625-4.855469l-5.195312-20.480468-5.390625 20.40625c-.605469 2.308594-2.382813 4.128906-4.667969 4.804687zm0 0" fill="#602f75"/></svg>