<svg height="396pt" viewBox="0 0 396.93586 396" width="396pt" xmlns="http://www.w3.org/2000/svg"><path d="m389.3125 52.566406c4.214844-20.355468-8.871094-40.269531-29.222656-44.480468-20.351563-4.214844-40.269532 8.867187-44.480469 29.21875-4.214844 20.355468 8.867187 40.269531 29.222656 44.480468 20.351563 4.214844 40.265625-8.867187 44.480469-29.21875zm-40.039062 7.765625c-8.503907-1.761719-13.96875-10.082031-12.210938-18.585937 1.761719-8.503906 10.082031-13.96875 18.585938-12.207032 8.503906 1.757813 13.972656 10.078126 12.210937 18.585938-1.761719 8.503906-10.082031 13.96875-18.585937 12.207031zm0 0" fill="#fff"/><path d="m352.550781 89.410156c-3.023437 0-6.074219-.308594-9.105469-.941406-11.625-2.40625-21.621093-9.195312-28.140624-19.121094-6.519532-9.925781-8.785157-21.796875-6.378907-33.425781 4.972657-24.007813 28.527344-39.503906 52.554688-34.523437 11.625 2.40625 21.621093 9.199218 28.140625 19.125 6.519531 9.921874 8.785156 21.792968 6.378906 33.421874-2.40625 11.628907-9.203125 21.628907-19.128906 28.148438-7.339844 4.820312-15.738282 7.316406-24.320313 7.316406zm-.097656-75.28125c-14.292969 0-27.148437 10.027344-30.15625 24.558594-1.664063 8.0625-.097656 16.289062 4.421875 23.164062 4.515625 6.875 11.441406 11.582032 19.5 13.253907 8.046875 1.664062 16.273438.101562 23.160156-4.421875 6.871094-4.519532 11.578125-11.445313 13.246094-19.503906 1.667969-8.058594.101562-16.28125-4.414062-23.15625-4.519532-6.878907-11.445313-11.585938-19.507813-13.253907-2.09375-.433593-4.183594-.640625-6.25-.640625zm.011719 53.363282c-1.511719 0-3.039063-.152344-4.574219-.46875-.003906-.003907-.003906-.003907-.003906-.003907-12.175781-2.523437-20.027344-14.480469-17.507813-26.652343 2.523438-12.179688 14.5-20.039063 26.652344-17.515626 12.179688 2.523438 20.03125 14.480469 17.511719 26.65625-2.203125 10.640626-11.609375 17.984376-22.078125 17.984376zm-1.8125-13.84375c4.832031 1.019531 9.53125-2.105469 10.519531-6.90625.992187-4.808594-2.101563-9.523438-6.90625-10.519532-4.78125-.992187-9.519531 2.109375-10.515625 6.910156-.992188 4.800782 2.101562 9.519532 6.902344 10.515626zm0 0" fill="#602f75"/><path d="m299.207031 99.617188c-4.863281-4.863282-4.863281-12.757813 0-17.621094l27.433594-27.433594c4.867187-4.863281 12.757813-4.863281 17.621094 0 4.867187 4.867188 4.867187 12.757812 0 17.625l-27.429688 27.429688c-4.867187 4.867187-12.757812 4.867187-17.625 0zm0 0" fill="#fff"/><path d="m308.019531 110.09375c-5.148437 0-9.992187-2.007812-13.632812-5.652344-3.648438-3.640625-5.648438-8.484375-5.648438-13.636718 0-5.152344 2-9.992188 5.648438-13.636719l27.425781-27.429688c7.28125-7.289062 20-7.289062 27.277344 0 3.648437 3.644531 5.648437 8.488281 5.648437 13.640625 0 5.148438-2 9.992188-5.648437 13.632813l-27.429688 27.429687c-3.640625 3.648438-8.488281 5.652344-13.640625 5.652344zm27.433594-52.347656c-1.449219 0-2.886719.546875-3.988281 1.644531l-27.425782 27.429687c-2.191406 2.199219-2.191406 5.773438 0 7.972657 2.199219 2.199219 5.765626 2.183593 7.964844 0l27.433594-27.433594c2.195312-2.195313 2.195312-5.773437 0-7.96875-1.101562-1.097656-2.539062-1.644531-3.984375-1.644531zm0 0" fill="#602f75"/><path d="m218.710938 40.546875c-95.253907-19.71875-188.457032 41.515625-208.175782 136.769531-19.714844 95.253906 41.515625 188.457032 136.773438 208.175782 95.253906 19.71875 188.457031-41.515626 208.175781-136.769532 19.714844-95.253906-41.519531-188.457031-136.773437-208.175781zm0 0" fill="#00e7ff"/><path d="m183.40625 396.039062c-12.453125 0-24.996094-1.273437-37.476562-3.859374-47.851563-9.90625-88.984376-37.855469-115.816407-78.703126-26.84375-40.84375-36.164062-89.691406-26.253906-137.550781 20.457031-98.792969 117.464844-162.554687 216.265625-142.066406 47.855469 9.90625 88.988281 37.855469 115.820312 78.703125 26.832032 40.84375 36.152344 89.695312 26.246094 137.550781s-37.859375 88.992188-78.707031 115.824219c-30.191406 19.835938-64.765625 30.101562-100.078125 30.101562zm-.421875-352.347656c-78.566406 0-149.214844 55.113282-165.753906 135.003906-9.164063 44.285157-.542969 89.492188 24.289062 127.285157 24.832031 37.800781 62.898438 63.664062 107.183594 72.835937 44.273437 9.160156 89.488281.542969 127.289063-24.289062 37.792968-24.832032 63.660156-62.894532 72.824218-107.183594 9.175782-44.28125.546875-89.488281-24.285156-127.285156-24.824219-37.796875-62.894531-63.664063-107.179688-72.832032-11.527343-2.390624-23.03125-3.535156-34.367187-3.535156zm0 0" fill="#00e7ff"/><path d="m56.792969 287.441406c-17.851563-30.265625-24.945313-67.011718-17.257813-104.128906 16.40625-79.25 93.953125-130.195312 173.199219-113.785156 79.25 16.40625 130.195313 93.949218 113.785156 173.199218-16.40625 79.25-93.949219 130.195313-173.199219 113.785157-29.003906-6.003907-54.21875-20.199219-73.726562-39.671875" fill="#ffe600"/><path d="m183.066406 366.402344c-10.273437 0-20.6875-1.039063-31.132812-3.203125-29.355469-6.078125-56.042969-20.4375-77.160156-41.527344-2.675782-2.664063-2.675782-6.984375-.015626-9.652344 2.667969-2.675781 7-2.675781 9.652344-.007812 19.242188 19.203125 43.546875 32.28125 70.296875 37.820312 75.40625 15.609375 149.511719-33.042969 165.125-108.488281 15.621094-75.433594-33.046875-149.511719-108.480469-165.132812-36.546874-7.558594-73.847656-.445313-105.03125 20.039062-31.191406 20.492188-52.535156 51.902344-60.101562 88.445312-7.054688 34.078126-1.207031 69.335938 16.453125 99.277344 1.914063 3.246094.835937 7.429688-2.410156 9.347656-3.246094 1.910157-7.433594.832032-9.347657-2.410156-19.386718-32.871094-25.808593-71.574218-18.066406-108.980468 8.304688-40.117188 31.730469-74.59375 65.972656-97.085938 34.246094-22.492188 75.191407-30.300781 115.304688-22 82.800781 17.144531 136.21875 98.460938 119.078125 181.269531-14.976563 72.359375-78.976563 122.28125-150.136719 122.289063zm0 0" fill="#602f75"/><path d="m204.335938 110.003906c-56.894532-11.777344-112.5625 24.796875-124.339844 81.691406-11.777344 56.890626 24.796875 112.558594 81.6875 124.335938 56.894531 11.777344 112.5625-24.796875 124.339844-81.6875 11.777343-56.894531-24.796876-112.5625-81.6875-124.339844zm0 0" fill="#fff"/><path d="m183.050781 325.058594c-7.5 0-15.105469-.757813-22.738281-2.339844-60.488281-12.523438-99.507812-71.921875-86.988281-132.410156 12.535156-60.488282 71.941406-99.507813 132.421875-86.988282 29.300781 6.0625 54.484375 23.175782 70.914062 48.1875 16.433594 25.007813 22.140625 54.921876 16.070313 84.222657-10.945313 52.859375-57.691407 89.328125-109.679688 89.328125zm-.046875-210.421875c-45.652344 0-86.699218 32.023437-96.304687 78.4375-11 53.121093 23.265625 105.28125 76.386719 116.28125 53.09375 10.972656 105.273437-23.269531 116.273437-76.390625 5.324219-25.730469.320313-51.996094-14.109375-73.960938-14.433594-21.957031-36.546875-36.988281-62.277344-42.316406-6.695312-1.386719-13.382812-2.050781-19.96875-2.050781zm0 0" fill="#602f75"/><path d="m158.664062 184.339844-43.769531 99.59375 99.59375-43.769532zm0 0" fill="#ea3457"/><path d="m114.890625 290.757812c-1.773437 0-3.515625-.691406-4.824219-2-1.992187-1.988281-2.554687-4.996093-1.421875-7.574218l43.773438-99.589844c.90625-2.0625 2.773437-3.546875 4.988281-3.964844 2.210938-.410156 4.492188.289063 6.085938 1.886719l55.820312 55.820313c1.59375 1.59375 2.300781 3.871093 1.878906 6.085937-.414062 2.21875-1.890625 4.085937-3.957031 4.992187l-99.59375 43.765626c-.890625.390624-1.820313.578124-2.75.578124zm46.007813-94.53125-32.699219 74.402344 74.402343-32.695312zm0 0" fill="#602f75"/><path d="m214.488281 240.164062 43.765625-99.589843-99.589844 43.765625zm0 0" fill="#ea3457"/><g fill="#602f75"><path d="m214.484375 246.992188c-1.792969 0-3.53125-.707032-4.824219-2l-55.820312-55.824219c-1.59375-1.59375-2.300782-3.871094-1.882813-6.085938.414063-2.21875 1.894531-4.085937 3.960938-4.992187l99.585937-43.769532c2.589844-1.125 5.585938-.5625 7.574219 1.425782 1.992187 1.988281 2.554687 4.996094 1.421875 7.574218l-43.769531 99.589844c-.90625 2.066406-2.773438 3.546875-4.984375 3.964844-.421875.078125-.839844.117188-1.261719.117188zm-43.933594-60.417969 41.703125 41.703125 32.699219-74.402344zm0 0"/><path d="m196.226562 202.597656c-5.332031-5.332031-13.976562-5.332031-19.308593 0-5.332031 5.332032-5.332031 13.976563 0 19.308594s13.976562 5.332031 19.308593 0c5.332032-5.332031 5.332032-13.976562 0-19.308594zm0 0"/><path d="m272.253906 130.976562c-1.746094 0-3.496094-.664062-4.828125-2-2.664062-2.664062-2.664062-6.988281 0-9.652343l14.585938-14.578125c2.667969-2.667969 6.988281-2.667969 9.652343 0 2.667969 2.664062 2.667969 6.988281 0 9.652344l-14.585937 14.578124c-1.332031 1.335938-3.078125 2-4.824219 2zm0 0"/><path d="m79.164062 324.066406c-1.746093 0-3.492187-.667968-4.824218-2-2.667969-2.664062-2.667969-6.988281 0-9.652344l14.578125-14.582031c2.667969-2.667969 6.988281-2.667969 9.652343 0 2.667969 2.664063 2.667969 6.984375 0 9.652344l-14.578124 14.582031c-1.332032 1.335938-3.082032 2-4.828126 2zm0 0"/><path d="m286.839844 324.066406c-1.746094 0-3.496094-.667968-4.828125-2l-14.585938-14.582031c-2.664062-2.664063-2.664062-6.988281 0-9.652344 2.664063-2.667969 6.988281-2.667969 9.652344 0l14.585937 14.582031c2.667969 2.664063 2.667969 6.988282 0 9.652344-1.332031 1.335938-3.078124 2-4.824218 2zm0 0"/><path d="m93.746094 130.976562c-1.746094 0-3.496094-.664062-4.828125-2l-14.578125-14.578124c-2.667969-2.667969-2.667969-6.988282 0-9.652344 2.664062-2.667969 6.984375-2.667969 9.652344 0l14.578124 14.578125c2.667969 2.667969 2.667969 6.988281 0 9.652343-1.332031 1.335938-3.078124 2-4.824218 2zm0 0"/><path d="m184.09375 367.070312c-3.746094 0-6.800781-3.019531-6.828125-6.777343l-.152344-20.617188c-.027343-3.769531 3.007813-6.851562 6.773438-6.878906h.050781c3.746094 0 6.800781 3.023437 6.828125 6.777344l.152344 20.621093c.027343 3.769532-3.007813 6.851563-6.773438 6.875-.019531 0-.039062 0-.050781 0zm0 0"/><path d="m182.066406 94.015625c-3.746094 0-6.800781-3.023437-6.828125-6.777344l-.152343-20.625c-.027344-3.769531 3.007812-6.847656 6.773437-6.875h.050781c3.746094 0 6.800782 3.023438 6.828125 6.777344l.152344 20.625c.027344 3.769531-3.007813 6.847656-6.773437 6.875-.019532 0-.039063 0-.050782 0zm0 0"/><path d="m329.839844 221.320312c-.015625 0-.035156 0-.054688 0l-20.621094-.152343c-3.765624-.027344-6.796874-3.105469-6.773437-6.878907.027344-3.75 3.082031-6.773437 6.828125-6.773437h.050781l20.621094.152344c3.765625.027343 6.800781 3.105469 6.773437 6.875-.027343 3.753906-3.078124 6.777343-6.824218 6.777343zm0 0"/><path d="m56.777344 219.292969c-.011719 0-.03125 0-.050782 0l-20.621093-.152344c-3.765625-.027344-6.800781-3.105469-6.773438-6.875.027344-3.753906 3.082031-6.777344 6.828125-6.777344h.050782l20.621093.152344c3.765625.027344 6.800781 3.105469 6.773438 6.878906-.027344 3.75-3.082031 6.773438-6.828125 6.773438zm0 0"/></g></svg>