<svg height="418pt" viewBox="0 -45 418.83514 418" width="418pt" xmlns="http://www.w3.org/2000/svg"><path d="m320.386719 281.769531-90.347657 41.945313c-13.078124 6.070312-28.167968 6.070312-41.246093 0l-90.34375-41.945313c-12.34375-5.730469-19.273438-19.066406-16.871094-32.460937l13.480469-75.097656c2.5625-14.277344 14.980468-24.664063 29.484375-24.664063h169.75c14.5 0 26.917969 10.386719 29.480469 24.664063l13.480468 75.097656c2.40625 13.394531-4.523437 26.730468-16.867187 32.460937zm0 0" fill="#ffe600"/><path d="m230.042969 289.773438c-13.082031 6.070312-28.171875 6.070312-41.25 0l-90.34375-41.945313c-12.34375-5.730469-19.273438-19.066406-16.871094-32.460937l13.480469-75.097657c2.5625-14.277343 14.980468-24.664062 29.484375-24.664062h169.75c14.5 0 26.917969 10.386719 29.480469 24.664062l13.480468 75.097657c2.40625 13.394531-4.523437 26.730468-16.867187 32.460937l-50.082031 23.25" fill="#ea3457"/><g fill="#602f75"><path d="m209.417969 301.167969c-8.019531 0-16.03125-1.734375-23.5-5.203125l-90.347657-41.945313c-15.144531-7.03125-23.664062-23.425781-20.714843-39.859375l13.480469-75.101562c3.148437-17.542969 18.375-30.277344 36.199218-30.277344h169.753906c17.828126 0 33.054688 12.734375 36.199219 30.277344l13.480469 75.101562c2.953125 16.4375-5.566406 32.828125-20.714844 39.859375l-50.078125 23.253907c-3.425781 1.585937-7.472656.09375-9.066406-3.320313-1.585937-3.417969-.101563-7.476563 3.320313-9.066406l50.078124-23.253907c9.519532-4.417968 14.882813-14.722656 13.023438-25.058593l-13.480469-75.101563c-1.980469-11.03125-11.554687-19.039062-22.761719-19.039062h-169.753906c-11.203125 0-20.777344 8.007812-22.757812 19.039062l-13.480469 75.101563c-1.859375 10.332031 3.5 20.640625 13.019531 25.058593l90.347656 41.949219c11.28125 5.238281 24.21875 5.234375 35.5.003907 3.429688-1.59375 7.480469-.097657 9.066407 3.3125 1.585937 3.417968.101562 7.480468-3.320313 9.0625-7.457031 3.472656-15.476562 5.207031-23.492187 5.207031zm0 0"/><path d="m251.820312 87.339844c0 5.203125-4.21875 9.421875-9.421874 9.421875-5.207032 0-9.421876-4.21875-9.421876-9.421875 0-5.207032 4.214844-9.425782 9.421876-9.425782 5.203124 0 9.421874 4.21875 9.421874 9.425782zm0 0"/><path d="m185.859375 87.339844c0 5.203125-4.21875 9.421875-9.421875 9.421875s-9.421875-4.21875-9.421875-9.421875c0-5.207032 4.21875-9.425782 9.421875-9.425782s9.421875 4.21875 9.421875 9.425782zm0 0"/><path d="m291.867188 75.320312c-20.65625 0-37.453126-16.800781-37.453126-37.453124 0-3.769532 3.054688-6.828126 6.828126-6.828126 3.773437 0 6.824218 3.058594 6.824218 6.828126 0 13.121093 10.675782 23.800781 23.800782 23.800781s23.800781-10.679688 23.800781-23.800781c0-13.121094-10.675781-23.796876-23.800781-23.796876-3.773438 0-6.828126-3.054687-6.828126-6.824218 0-3.773438 3.054688-6.828125 6.828126-6.828125 20.652343 0 37.453124 16.800781 37.453124 37.449219 0 20.652343-16.800781 37.453124-37.453124 37.453124zm0 0"/><path d="m325.917969 159.0625c-1.199219 0-2.40625-.3125-3.503907-.972656-3.234374-1.941406-4.28125-6.136719-2.339843-9.367188l8.113281-13.503906c8.71875-14.515625 7.785156-32.65625-2.375-46.207031l-18.519531-24.699219c-2.265625-3.015625-1.652344-7.296875 1.367187-9.554688 3.015625-2.273437 7.289063-1.652343 9.554688 1.363282l18.519531 24.695312c13.507813 18.019532 14.746094 42.128906 3.160156 61.429688l-8.113281 13.507812c-1.28125 2.128906-3.542969 3.308594-5.863281 3.308594zm0 0"/><path d="m412 211.945312c-1.375 0-2.761719-.410156-3.960938-1.269531l-18.03125-12.878906c-8.347656-5.960937-18.566406-8.855469-28.792968-8.085937l-28.914063 2.105468c-3.707031.21875-7.027343-2.554687-7.300781-6.3125-.273438-3.761718 2.554688-7.03125 6.316406-7.304687l28.90625-2.109375c13.339844-.972656 26.792969 2.789062 37.71875 10.59375l18.035156 12.882812c3.066407 2.191406 3.777344 6.453125 1.585938 9.523438-1.335938 1.863281-3.429688 2.855468-5.5625 2.855468zm0 0"/><path d="m397.878906 277.90625c-2.078125 0-4.125-.945312-5.464844-2.730469l-17.761718-23.679687c-5.710938-7.613282-14.03125-12.640625-23.425782-14.152344l-12.6875-2.042969c-3.722656-.597656-6.253906-4.101562-5.652343-7.824219.601562-3.722656 4.097656-6.265624 7.828125-5.652343l12.6875 2.042969c12.898437 2.074218 24.324218 8.976562 32.171875 19.4375l17.761719 23.679687c2.265624 3.015625 1.652343 7.296875-1.367188 9.554687-1.230469.925782-2.664062 1.367188-4.089844 1.367188zm0 0"/><path d="m336.625 325.019531c-3.773438 0-6.824219-3.054687-6.824219-6.824219v-11.863281c0-6.066406-2.015625-12.074219-5.667969-16.917969l-23.320312-30.917968c-2.265625-3.011719-1.667969-7.289063 1.339844-9.5625 3.03125-2.28125 7.300781-1.65625 9.566406 1.339844l23.320312 30.917968c5.425782 7.199219 8.414063 16.125 8.414063 25.140625v11.863281c0 3.769532-3.054687 6.824219-6.828125 6.824219zm0 0"/><path d="m126.964844 75.320312c-20.648438 0-37.445313-16.800781-37.445313-37.453124 0-20.652344 16.800781-37.449219 37.445313-37.449219 3.773437 0 6.828125 3.054687 6.828125 6.828125 0 3.769531-3.054688 6.824218-6.828125 6.824218-13.121094 0-23.792969 10.675782-23.792969 23.796876 0 13.121093 10.675781 23.800781 23.792969 23.800781 13.125 0 23.800781-10.679688 23.800781-23.800781 0-3.769532 3.050781-6.828126 6.824219-6.828126 3.773437 0 6.828125 3.058594 6.828125 6.828126 0 20.652343-16.796875 37.453124-37.453125 37.453124zm0 0"/><path d="m92.917969 159.0625c-2.320313 0-4.578125-1.175781-5.859375-3.308594l-8.113282-13.503906c-11.59375-19.300781-10.359374-43.414062 3.152344-61.429688l18.523438-24.699218c2.257812-3.011719 6.539062-3.628906 9.550781-1.363282 3.023437 2.257813 3.636719 6.539063 1.367187 9.558594l-18.519531 24.695313c-10.160156 13.546875-11.09375 31.6875-2.367187 46.207031l8.113281 13.5c1.941406 3.234375.894531 7.429688-2.339844 9.367188-1.101562.664062-2.3125.976562-3.507812.976562zm0 0"/><path d="m6.832031 211.945312c-2.132812 0-4.230469-.992187-5.558593-2.859374-2.195313-3.070313-1.480469-7.332032 1.585937-9.523438l18.039063-12.878906c10.925781-7.808594 24.414062-11.550782 37.722656-10.59375l28.898437 2.105468c3.761719.277344 6.585938 3.546876 6.3125 7.308594-.273437 3.757813-3.566406 6.523438-7.296875 6.3125l-28.902344-2.105468c-10.304687-.800782-20.457031 2.121093-28.800781 8.082031l-18.039062 12.882812c-1.199219.859375-2.585938 1.269531-3.960938 1.269531zm0 0"/><path d="m20.957031 277.90625c-1.425781 0-2.859375-.445312-4.085937-1.367188-3.019532-2.257812-3.632813-6.539062-1.367188-9.558593l17.761719-23.679688c7.839844-10.460937 19.265625-17.359375 32.164063-19.4375l12.695312-2.042969c3.707031-.609374 7.226562 1.933594 7.828125 5.65625.601563 3.722657-1.933594 7.222657-5.652344 7.824219l-12.695312 2.042969c-9.394531 1.511719-17.707031 6.535156-23.421875 14.148438l-17.757813 23.683593c-1.339843 1.789063-3.386719 2.730469-5.46875 2.730469zm0 0"/><path d="m82.210938 325.019531c-3.773438 0-6.824219-3.054687-6.824219-6.824219v-11.863281c0-9.023437 2.984375-17.953125 8.421875-25.140625l23.304687-30.917968c2.273438-3 6.546875-3.621094 9.5625-1.339844 3.011719 2.273437 3.609375 6.550781 1.34375 9.5625l-23.3125 30.917968c-3.652343 4.84375-5.664062 10.847657-5.664062 16.917969v11.863281c-.003907 3.769532-3.058594 6.824219-6.832031 6.824219zm0 0"/></g><path d="m179.890625 258.773438c-1.027344 0-2.066406-.230469-3.042969-.71875l-68.269531-34.132813c-3.371094-1.6875-4.738281-5.789063-3.050781-9.160156 1.691406-3.378907 5.777344-4.742188 9.160156-3.054688l68.265625 34.132813c3.375 1.6875 4.738281 5.789062 3.050781 9.160156-1.199218 2.394531-3.605468 3.773438-6.113281 3.773438zm0 0" fill="#ffe600"/><path d="m152.585938 217.816406c-1.027344 0-2.066407-.230468-3.046876-.722656l-27.304687-13.652344c-3.375-1.6875-4.742187-5.789062-3.054687-9.160156 1.691406-3.375 5.792968-4.742188 9.160156-3.054688l27.304687 13.65625c3.375 1.683594 4.742188 5.785157 3.054688 9.160157-1.199219 2.390625-3.605469 3.773437-6.113281 3.773437zm0 0" fill="#ffe600"/><path d="m309.597656 224.640625c-3.183594 0-6.039062-2.242187-6.683594-5.488281l-3.695312-18.457032c-.742188-3.695312 1.660156-7.292968 5.355469-8.035156 3.75-.738281 7.296875 1.660156 8.03125 5.355469l3.695312 18.460937c.738281 3.695313-1.660156 7.289063-5.355469 8.03125-.453124.089844-.90625.132813-1.347656.132813zm0 0" fill="#ffe600"/></svg>