<svg height="401pt" viewBox="0 -2 401.05523 401" width="401pt" xmlns="http://www.w3.org/2000/svg"><path d="m275.25 278.929688c-1.746094 0-3.492188-.667969-4.824219-2l-161.980469-161.980469c-2.667968-2.664063-2.667968-6.988281 0-9.652344 2.664063-2.667969 6.988282-2.667969 9.652344 0l161.980469 161.980469c2.664063 2.664062 2.664063 6.984375 0 9.652344-1.335937 1.332031-3.082031 2-4.828125 2zm0 0" fill="#602f75"/><path d="m141.804688 82.207031 43.769531-43.769531s-77.46875-43.039062-147.347657-28.59375c-15.480468 3.199219-27.121093 16.003906-29.480468 31.636719-4.234375 28.054687-3.980469 78.726562 30.171875 143.613281l74.660156-74.664062" fill="#ffe600"/><path d="m38.917969 191.917969c-.339844 0-.679688-.027344-1.023438-.074219-2.144531-.328125-4.011719-1.652344-5.019531-3.570312-34.164062-64.910157-35.652344-116.207032-30.886719-147.808594 2.808594-18.582032 16.816407-33.574219 34.863281-37.308594 71.546876-14.78125 148.792969 27.507812 152.039063 29.316406 1.875 1.039063 3.152344 2.898438 3.445313 5.019532.300781 2.117187-.417969 4.257812-1.933594 5.773437l-43.769532 43.765625c-2.667968 2.667969-6.988281 2.667969-9.65625 0-2.664062-2.664062-2.664062-6.984375 0-9.652344l37.09375-37.089844c-21.351562-10.175781-80.777343-34.855468-134.457031-23.757812-12.46875 2.578125-22.160156 13.015625-24.117187 25.972656-4.265625 28.242188-3.105469 73.445313 25.242187 131.117188l68.011719-68.019532c2.667969-2.664062 6.988281-2.664062 9.65625 0 2.664062 2.667969 2.664062 6.988282 0 9.65625l-74.660156 74.660157c-1.289063 1.292969-3.027344 2-4.828125 2zm0 0" fill="#602f75"/><g fill="#ea3457"><path d="m68.25 221.253906c-1.746094 0-3.492188-.667968-4.824219-2-2.667969-2.667968-2.667969-6.988281 0-9.652344l149.320313-149.328124c2.664062-2.664063 6.984375-2.664063 9.652344 0 2.664062 2.667968 2.664062 6.988281 0 9.652343l-149.320313 149.328125c-1.335937 1.332032-3.082031 2-4.828125 2zm0 0"/><path d="m97.578125 250.582031c-1.746094 0-3.496094-.667969-4.828125-2-2.664062-2.664062-2.664062-6.988281 0-9.652343l146.660156-146.65625c2.667969-2.667969 6.988282-2.667969 9.652344 0 2.667969 2.664062 2.667969 6.984374 0 9.652343l-146.660156 146.65625c-1.332032 1.332031-3.078125 2-4.824219 2zm0 0"/><path d="m132.246094 269.25c-1.746094 0-3.496094-.667969-4.828125-2-2.667969-2.664062-2.667969-6.988281 0-9.652344l133.328125-133.328125c2.664062-2.664062 6.984375-2.664062 9.652344 0 2.664062 2.667969 2.664062 6.988281 0 9.652344l-133.328126 133.328125c-1.335937 1.332031-3.082031 2-4.824218 2zm0 0"/><path d="m174.910156 285.25c-1.746094 0-3.492187-.667969-4.824218-2-2.667969-2.664062-2.667969-6.988281 0-9.652344l103.992187-103.996094c2.667969-2.667968 6.988281-2.667968 9.652344 0 2.667969 2.664063 2.667969 6.984376 0 9.652344l-103.992188 103.996094c-1.335937 1.332031-3.082031 2-4.828125 2zm0 0"/><path d="m228.238281 290.582031c-1.746093 0-3.496093-.664062-4.828125-2-2.664062-2.664062-2.664062-6.984375 0-9.652343l53.335938-53.332032c2.664062-2.667968 6.984375-2.667968 9.652344 0 2.664062 2.664063 2.664062 6.988282 0 9.652344l-53.335938 53.332031c-1.332031 1.335938-3.078125 2-4.824219 2zm0 0"/></g><path d="m278.902344 270.421875 80.453125-40.226563c9.28125-4.640624 20.492187-2.820312 27.828125 4.515626 9.414062 9.414062 9.414062 24.675781 0 34.09375l-38.84375 38.84375c-10.367188 10.367187-37.542969 0-37.542969 0 10.367187 10.367187 10.367187 27.175781 0 37.542968l-38.847656 38.847656c-9.414063 9.414063-24.675781 9.414063-34.089844 0-7.339844-7.339843-9.15625-18.546874-4.515625-27.828124l40.226562-80.453126zm0 0" fill="#00e7ff"/><path d="m254.902344 397.910156c-7.917969 0-15.839844-3.019531-21.871094-9.046875-9.425781-9.429687-11.753906-23.78125-5.792969-35.707031l40.226563-80.453125c.324218-.660156.757812-1.253906 1.277344-1.773437l5.335937-5.335938c.519531-.519531 1.117187-.949219 1.773437-1.277344l80.453126-40.226562c11.910156-5.964844 26.277343-3.644532 35.707031 5.792968 12.058593 12.0625 12.058593 31.6875 0 43.746094l-38.847657 38.84375c-7.207031 7.214844-19.058593 7.335938-28.785156 5.78125 2.757813 11.011719-.160156 23.167969-8.753906 31.761719l-38.847656 38.847656c-6.035156 6.03125-13.953125 9.046875-21.875 9.046875zm24.28125-118.109375-39.734375 79.460938c-3.332031 6.664062-2.03125 14.683593 3.234375 19.949219 6.734375 6.738281 17.707031 6.738281 24.441406 0l38.847656-38.847657c7.683594-7.6875 7.683594-20.199219 0-27.890625-2.273437-2.277344-2.648437-5.828125-.902344-8.53125 1.742188-2.699218 5.136719-3.816406 8.152344-2.675781 9.316406 3.523437 25.367188 6.457031 30.289063 1.554687l38.847656-38.84375c6.730469-6.734374 6.730469-17.699218 0-24.4375-5.261719-5.265624-13.28125-6.574218-19.949219-3.234374l-79.460937 39.726562zm0 0" fill="#602f75"/><path d="m87.003906 86.304688h-30.648437c-3.773438 0-6.824219-3.054688-6.824219-6.824219s3.050781-6.828125 6.824219-6.828125h30.648437c3.773438 0 6.828125 3.058594 6.828125 6.828125s-3.054687 6.824219-6.828125 6.824219zm0 0" fill="#ea3457"/><path d="m71.683594 101.625c-3.773438 0-6.828125-3.054688-6.828125-6.824219v-30.644531c0-3.769531 3.054687-6.824219 6.828125-6.824219 3.773437 0 6.824218 3.054688 6.824218 6.824219v30.644531c0 3.769531-3.050781 6.824219-6.824218 6.824219zm0 0" fill="#ea3457"/></svg>