<svg height="389pt" viewBox="0 -10 389.12 389" width="389pt" xmlns="http://www.w3.org/2000/svg"><path d="m341.699219 327.738281c-14.953125 0-27.121094-12.164062-27.121094-27.121093v-19.929688c0-3.769531 3.054687-6.824219 6.828125-6.824219s6.828125 3.054688 6.828125 6.824219v19.929688c0 7.425781 6.039063 13.46875 13.464844 13.46875 7.429687 0 13.476562-6.042969 13.476562-13.46875v-293.730469c0-3.769531 3.050781-6.8281252 6.824219-6.8281252s6.828125 3.0585942 6.828125 6.8281252v293.730469c-.003906 14.957031-12.167969 27.121093-27.128906 27.121093zm0 0" fill="#602f75"/><path d="m369.046875 143.695312h-14.097656c-7.316407 0-13.246094-5.929687-13.246094-13.246093v-42.046875c0-7.316406 5.929687-13.25 13.246094-13.25h14.097656c7.316406 0 13.246094 5.933594 13.246094 13.25v42.046875c0 7.316406-5.929688 13.246093-13.246094 13.246093zm0 0" fill="#ffe600"/><path d="m369.046875 150.523438h-14.101563c-11.066406 0-20.074218-9.003907-20.074218-20.074219v-42.046875c0-11.070313 9.007812-20.074219 20.074218-20.074219h14.101563c11.066406 0 20.074219 9 20.074219 20.074219v42.046875c0 11.070312-9.007813 20.074219-20.074219 20.074219zm-14.097656-68.542969c-3.542969 0-6.421875 2.878906-6.421875 6.421875v42.046875c0 3.539062 2.878906 6.421875 6.421875 6.421875h14.097656c3.539063 0 6.421875-2.882813 6.421875-6.421875v-42.046875c0-3.542969-2.882812-6.421875-6.421875-6.421875zm0 0" fill="#602f75"/><path d="m382.292969 260.398438c0 11.207031-9.085938 20.292968-20.296875 20.292968-11.207032 0-20.292969-9.085937-20.292969-20.292968 0-11.210938 9.085937-20.296876 20.292969-20.296876 11.210937 0 20.296875 9.085938 20.296875 20.296876zm0 0" fill="#ea3457"/><path d="m362 287.515625c-14.960938 0-27.128906-12.164063-27.128906-27.117187 0-14.960938 12.167968-27.125 27.128906-27.125 14.953125 0 27.121094 12.164062 27.121094 27.125 0 14.953124-12.167969 27.117187-27.121094 27.117187zm0-40.589844c-7.429688 0-13.476562 6.042969-13.476562 13.472657 0 7.425781 6.046874 13.464843 13.476562 13.464843 7.425781 0 13.464844-6.039062 13.464844-13.464843 0-7.429688-6.039063-13.472657-13.464844-13.472657zm0 0" fill="#ea3457"/><path d="m209.214844 252.035156c-13.207032-1.925781-28.195313-2.726562-45.097656-1.785156l-50.738282-30.445312 10.144532 35.519531-71.03125 20.292969-45.664063-30.441407s0 31.105469 6.808594 45.664063c-6.808594 14.558594-6.808594 45.664062-6.808594 45.664062l45.664063-30.445312 71.035156 20.296875-10.148438 35.519531 50.738282-30.445312c91.328124 5.074218 126.84375-40.589844 126.84375-40.589844s-11.921876-15.328125-39.710938-27.238282" fill="#00e7ff"/><path d="m113.378906 368.699219c-1.472656 0-2.933594-.472657-4.152344-1.410157-2.226562-1.707031-3.179687-4.59375-2.414062-7.292968l8.273438-28.949219-61.433594-17.558594-43.039063 28.695313c-2.09375 1.398437-4.792969 1.527344-7.003906.335937-2.222656-1.1875-3.609375-3.5-3.609375-6.015625 0-1.253906.0742188-29.253906 6.242188-45.664062-6.1679692-16.414063-6.242188-44.414063-6.242188-45.667969 0-2.515625 1.386719-4.828125 3.605469-6.019531 2.214843-1.183594 4.914062-1.0625 7.007812.339844l43.039063 28.695312 61.433594-17.554688-8.273438-28.953124c-.765625-2.695313.183594-5.585938 2.414062-7.292969 2.21875-1.710938 5.257813-1.875 7.664063-.4375l48.953125 29.375c15.488281-.75 30.402344-.085938 44.355469 1.953125 3.726562.546875 6.3125 4.011718 5.765625 7.742187-.546875 3.726563-4.019532 6.285157-7.738282 5.769531-13.683593-1.996093-28.402343-2.570312-43.726562-1.726562-1.363281.089844-2.714844-.261719-3.894531-.960938l-35.914063-21.546874 5.402344 18.890624c1.03125 3.628907-1.066406 7.410157-4.695312 8.441407l-71.03125 20.292969c-1.921876.554687-3.996094.230468-5.660157-.882813l-34.519531-23.011719c.730469 10.144532 2.34375 22.644532 5.632812 29.664063.851563 1.832031.851563 3.949219 0 5.78125-3.289062 7.019531-4.902343 19.519531-5.632812 29.664062l34.519531-23.011719c1.667969-1.113281 3.738281-1.4375 5.660157-.882812l71.03125 20.296875c3.628906 1.035156 5.726562 4.8125 4.695312 8.4375l-5.402344 18.890625 35.914063-21.546875c1.179687-.703125 2.53125-1.03125 3.894531-.964844 69.644531 3.917969 105.707031-23.125 117.050781-33.789062-5.3125-5.027344-16.011719-13.667969-32.984375-20.945313-3.46875-1.484375-5.074218-5.496094-3.589844-8.964844 1.488282-3.46875 5.519532-5.0625 8.960938-3.582031 29.074219 12.457031 41.886719 28.636719 42.414062 29.316407 1.921876 2.464843 1.921876 5.921874 0 8.382812-1.519531 1.964844-38.226562 47.761719-130.507812 43.324219l-48.953125 29.375c-1.085937.648437-2.296875.96875-3.511719.96875zm0 0" fill="#602f75"/></svg>