<svg height="416pt" viewBox="0 -82 416.42667 416" width="416pt" xmlns="http://www.w3.org/2000/svg"><path d="m368.640625 245.972656h-320.855469c-22.621094 0-40.957031-18.335937-40.957031-40.960937 0-22.621094 18.335937-40.957031 40.957031-40.957031h320.855469c22.621094 0 40.960937 18.335937 40.960937 40.957031 0 22.625-18.339843 40.960937-40.960937 40.960937zm0 0" fill="#00e7ff"/><path d="m368.640625 252.800781h-320.855469c-26.347656 0-47.785156-21.4375-47.785156-47.789062 0-26.347657 21.4375-47.785157 47.785156-47.785157h320.855469c26.347656 0 47.785156 21.4375 47.785156 47.785157 0 26.351562-21.4375 47.789062-47.785156 47.789062zm-320.855469-81.921875c-18.816406 0-34.132812 15.316406-34.132812 34.132813 0 18.820312 15.316406 34.136719 34.132812 34.136719h320.855469c18.820313 0 34.132813-15.316407 34.132813-34.136719 0-18.816407-15.3125-34.132813-34.132813-34.132813zm0 0" fill="#00e7ff"/><path d="m409.601562 193.082031-85.136718-85.136719 85.136718-85.132812zm0 0" fill="#ffe600"/><path d="m409.601562 199.910156c-1.777343 0-3.519531-.691406-4.828124-2l-85.136719-85.136718c-2.667969-2.667969-2.667969-6.988282 0-9.652344l85.136719-85.136719c1.949218-1.957031 4.882812-2.539063 7.441406-1.480469 2.546875 1.054688 4.210937 3.546875 4.210937 6.304688v170.273437c0 2.761719-1.664062 5.25-4.210937 6.308594-.847656.347656-1.734375.519531-2.613282.519531zm-75.484374-91.964844 68.65625 68.660157v-137.316407zm0 0" fill="#602f75"/><path d="m118.46875 14.484375c-77.527344 23.289063-102.617188 93.460937-102.617188 93.460937s25.515626 71.503907 104.730469 94.121094c22.542969-24.347656 36.429688-56.824218 36.429688-92.625 0-36.933594-14.722657-70.378906-38.542969-94.957031zm0 0" fill="#ea3457"/><path d="m120.578125 208.894531c-.625 0-1.253906-.085937-1.871094-.261719-81.652343-23.316406-108.199219-95.335937-109.289062-98.390624-.53125-1.484376-.53125-3.109376.003906-4.59375 1.070313-2.996094 27.171875-73.699219 107.082031-97.695313 2.433594-.75 5.085938-.042969 6.863282 1.785156 26.097656 26.925781 40.472656 62.335938 40.472656 99.703125 0 36.078125-13.582032 70.621094-38.25 97.265625-1.308594 1.414063-3.136719 2.1875-5.011719 2.1875zm-97.375-100.953125c5.039063 11.84375 31.261719 66.167969 95.191406 86.34375 20.53125-23.652344 31.792969-53.613281 31.792969-84.84375 0-32.410156-11.957031-63.195312-33.761719-87.152344-62.664062 20.695313-88.253906 73.917969-93.222656 85.652344zm0 0" fill="#602f75"/><path d="m118.46875 14.484375c23.820312 24.578125 38.542969 58.023437 38.542969 94.957031 0 35.800782-13.886719 68.277344-36.429688 92.628906 14.882813 4.25 31.648438 6.785157 50.507813 6.785157 119.253906 0 155.242187-100.90625 155.242187-100.90625s-35.984375-100.910157-155.242187-100.910157" fill="#fff"/><path d="m171.09375 215.679688c-18.390625 0-36.019531-2.371094-52.386719-7.046876-2.285156-.648437-4.058593-2.441406-4.699219-4.722656-.640624-2.285156-.046874-4.738281 1.5625-6.476562 22.324219-24.113282 34.617188-55.363282 34.617188-87.992188 0-33.800781-13.007812-65.835937-36.625-90.207031-2.621094-2.707031-2.554688-7.023437.15625-9.652344 2.699219-2.617187 7.023438-2.558593 9.652344.15625 26.09375 26.925781 40.46875 62.335938 40.46875 99.703125 0 32.316406-10.898438 63.398438-30.898438 88.679688 12.125 2.59375 24.910156 3.90625 38.152344 3.90625 103.3125 0 141.746094-79.566406 147.902344-94.113282-6.191406-15.066406-43.621094-94.046874-147.902344-94.046874-3.769531 0-6.828125-3.058594-6.828125-6.828126 0-3.769531 3.058594-6.824218 6.828125-6.824218 122.644531 0 161.292969 104.386718 161.671875 105.4375.53125 1.484375.53125 3.101562 0 4.589844-.378906 1.050781-39.027344 105.4375-161.671875 105.4375zm0 0" fill="#602f75"/><g fill="#ffe600"><path d="m102.398438 88.960938c0 7.539062-6.109376 13.652343-13.652344 13.652343-7.539063 0-13.652344-6.113281-13.652344-13.652343 0-7.542969 6.113281-13.652344 13.652344-13.652344 7.542968 0 13.652344 6.109375 13.652344 13.652344zm0 0"/><path d="m88.746094 109.441406c-11.292969 0-20.480469-9.1875-20.480469-20.480468 0-11.292969 9.1875-20.480469 20.480469-20.480469 11.292968 0 20.480468 9.1875 20.480468 20.480469 0 11.292968-9.1875 20.480468-20.480468 20.480468zm0-27.308594c-3.761719 0-6.824219 3.0625-6.824219 6.828126 0 3.761718 3.0625 6.824218 6.824219 6.824218 3.765625 0 6.828125-3.0625 6.828125-6.824218 0-3.765626-3.0625-6.828126-6.828125-6.828126zm0 0"/></g></svg>