<svg height="416pt" viewBox="0 -78 416.42667 416" width="416pt" xmlns="http://www.w3.org/2000/svg"><path d="m368.640625 252.746094h-320.855469c-22.621094 0-40.957031-18.335938-40.957031-40.960938 0-22.621094 18.335937-40.957031 40.957031-40.957031h320.855469c22.621094 0 40.960937 18.335937 40.960937 40.957031 0 22.625-18.339843 40.960938-40.960937 40.960938zm0 0" fill="#00e7ff"/><path d="m368.640625 259.574219h-320.855469c-26.347656 0-47.785156-21.4375-47.785156-47.789063 0-26.347656 21.4375-47.785156 47.785156-47.785156h320.855469c26.347656 0 47.785156 21.4375 47.785156 47.785156 0 26.351563-21.4375 47.789063-47.785156 47.789063zm-320.855469-81.921875c-18.816406 0-34.132812 15.316406-34.132812 34.132812 0 18.820313 15.316406 34.136719 34.132812 34.136719h320.855469c18.820313 0 34.132813-15.316406 34.132813-34.136719 0-18.816406-15.3125-34.132812-34.132813-34.132812zm0 0" fill="#00e7ff"/><path d="m318.984375 109.242188 83.789063 83.789062v-170.273438l-83.789063 83.789063c.34375.855469.523437 1.347656.523437 1.347656s-.179687.492188-.523437 1.347657zm0 0" fill="#ffe600"/><path d="m402.773438 199.855469c-1.777344 0-3.519532-.691407-4.828126-2l-83.785156-83.785157c-1.636718-1.632812-2.3125-3.960937-1.867187-6.171874-.449219-2.21875.230469-4.542969 1.867187-6.179688l83.785156-83.789062c1.957032-1.957032 4.875-2.546876 7.441407-1.480469 2.550781 1.058593 4.214843 3.546875 4.214843 6.308593v170.273438c0 2.757812-1.664062 5.25-4.214843 6.304688-.847657.351562-1.734375.519531-2.613281.519531zm-75.480469-91.960938 68.652343 68.65625v-137.316406zm0 0" fill="#602f75"/><path d="m185.066406 179.324219 2.648438-3.53125c5.824218-7.765625 6.367187-18.285157 1.371094-26.609375l-6.503907-10.839844c-4.996093-8.324219-4.449219-18.84375 1.371094-26.609375l2.648437-3.527344c6.367188-8.488281 6.367188-20.164062 0-28.652343l-1.535156-2.046876c-6.367187-8.488281-6.367187-20.164062 0-28.652343 7.066406-9.421875 6.207032-22.589844-2.019531-31.011719l-10.390625-10.636719c-2.765625-.109375-5.53125-.21875-8.390625-.21875-12.515625 0-23.996094 1.230469-34.71875 3.230469l7.449219 7.625c8.230468 8.425781 9.089844 21.589844 2.023437 31.011719-6.367187 8.488281-6.367187 20.164062 0 28.652343l1.535157 2.046876c6.367187 8.488281 6.367187 20.164062 0 28.65625l-2.644532 3.527343c-5.824218 7.765625-6.367187 18.285157-1.375 26.609375l6.503906 10.839844c4.996094 8.324219 4.453126 18.84375-1.371093 26.609375l-2.644531 3.527344c-6.160157 8.207031-6.304688 19.371093-.554688 27.777343 8.140625 1.085938 16.714844 1.699219 25.796875 1.699219 7.1875 0 14.054687-.382812 20.648437-1.074219-6.195312-8.46875-6.15625-19.992187.152344-28.402343zm0 0" fill="#fff"/><path d="m164.265625 215.625c-8.96875 0-17.953125-.59375-26.703125-1.757812-1.917969-.257813-3.636719-1.3125-4.726562-2.914063-7.4375-10.871094-7.148438-25.230469.726562-35.726563l2.644531-3.53125c4.179688-5.570312 4.5625-13.023437.980469-19.003906l-6.503906-10.832031c-6.449219-10.757813-5.757813-24.191406 1.761718-34.222656l2.652344-3.527344c4.515625-6.023437 4.515625-14.4375 0-20.460937l-1.539062-2.046876c-8.132813-10.84375-8.132813-25.996093.003906-36.84375 5.082031-6.773437 4.472656-16.089843-1.445312-22.144531l-7.445313-7.625c-1.761719-1.800781-2.386719-4.425781-1.628906-6.824219.761719-2.40625 2.78125-4.191406 5.257812-4.65625 14.992188-2.800781 30.050781-3.71875 44.640625-3.121093 1.738282.070312 3.382813.804687 4.601563 2.050781l10.390625 10.632812c10.65625 10.910157 11.746094 27.679688 2.59375 39.875-4.515625 6.023438-4.515625 14.4375 0 20.460938l1.539062 2.050781c8.136719 10.84375 8.136719 25.996094-.003906 36.84375l-2.640625 3.523438c-4.183594 5.570312-4.566406 13.03125-.984375 19.003906l6.503906 10.839844c6.453125 10.761719 5.761719 24.191406-1.765625 34.21875l-2.644531 3.53125s0 0-.003906 0c-4.519532 6.027343-4.5625 14.179687-.105469 20.277343 1.445313 1.972657 1.722656 4.566407.730469 6.796876-.988282 2.234374-3.097656 3.765624-5.527344 4.019531-7.042969.742187-14.222656 1.113281-21.359375 1.113281zm-21.585937-14.882812c10.453124 1.203124 21.195312 1.515624 31.847656.957031-2.460938-8.9375-.761719-18.683594 5.082031-26.472657l2.640625-3.53125c4.179688-5.566406 4.570312-13.023437.984375-19.003906l-6.503906-10.832031c-6.453125-10.757813-5.761719-24.191406 1.765625-34.222656l2.640625-3.523438c4.523437-6.027343 4.523437-14.441406.003906-20.464843l-1.535156-2.046876c-8.136719-10.84375-8.136719-25.996093.003906-36.84375 5.078125-6.773437 4.472656-16.089843-1.445313-22.144531l-8.492187-8.691406c-8.566406-.304687-17.410156.070313-26.0625 1.070313 9.019531 10.882812 9.5 26.453124.871094 37.957031-4.515625 6.023437-4.515625 14.4375 0 20.460937l1.535156 2.046875c8.136719 10.84375 8.136719 25.996094 0 36.84375l-2.648437 3.527344c-4.175782 5.570313-4.5625 13.035156-.980469 19.007813l6.507812 10.832031c6.449219 10.761719 5.753907 24.191406-1.769531 34.222656l-2.640625 3.527344c-3.785156 5.046875-4.402344 11.703125-1.804687 17.324219zm42.386718-21.417969h.066406zm0 0" fill="#602f75"/><path d="m86.460938 24.382812c-57.894532 28.847657-77.4375 83.511719-77.4375 83.511719s25.519531 71.5 104.730468 94.121094c7.714844 2.203125 15.960938 3.914063 24.714844 5.082031-5.75-8.40625-5.605469-19.566406.550781-27.773437l2.648438-3.53125c5.824219-7.765625 6.367187-18.285157 1.371093-26.609375l-6.503906-10.839844c-4.996094-8.324219-4.453125-18.84375 1.371094-26.609375l2.644531-3.527344c6.371094-8.488281 6.371094-20.164062 0-28.652343l-1.53125-2.046876c-6.367187-8.488281-6.367187-20.164062 0-28.652343 7.0625-9.421875 6.207031-22.589844-2.023437-31.011719l-7.449219-7.625m-47.625 92.339844c-7.542969 0-13.65625-6.113282-13.65625-13.652344s6.113281-13.652344 13.65625-13.652344c7.539063 0 13.652344 6.113282 13.652344 13.652344s-6.113281 13.652344-13.652344 13.652344zm0 0" fill="#ea3457"/><path d="m138.46875 213.925781c-.296875 0-.601562-.019531-.90625-.058593-8.929688-1.191407-17.570312-2.96875-25.683594-5.289063-81.648437-23.316406-108.195312-95.335937-109.285156-98.390625-.53125-1.484375-.53125-3.105469.003906-4.589844.832032-2.339844 21.152344-57.59375 80.820313-87.324218 3.371093-1.683594 7.472656-.304688 9.152343 3.066406 1.679688 3.375.308594 7.476562-3.066406 9.15625-47.996094 23.914062-68.695312 66.988281-73.125 77.398437 5.152344 12.109375 32.375 68.460938 99.246094 87.5625 3.9375 1.121094 8.015625 2.109375 12.203125 2.953125-1.277344-8.019531.644531-16.40625 5.730469-23.183594l2.640625-3.527343c4.179687-5.570313 4.566406-13.027344.984375-19.003907l-6.503906-10.835937c-6.453126-10.753906-5.757813-24.1875 1.761718-34.222656l2.648438-3.527344c4.515625-6.019531 4.515625-14.433594 0-20.457031l-1.535156-2.050782c-8.132813-10.84375-8.132813-25.996093.003906-36.84375 5.082031-6.773437 4.472656-16.085937-1.445313-22.144531l-7.449219-7.621093c-2.632812-2.699219-2.582031-7.019532.113282-9.652344 2.695312-2.636719 7.023437-2.589844 9.652344.109375l7.445312 7.625c10.660156 10.90625 11.753906 27.679687 2.601562 39.875-4.515624 6.023437-4.515624 14.4375 0 20.460937l1.535157 2.050782c8.132812 10.84375 8.132812 25.996093-.003907 36.84375l-2.644531 3.523437c-4.179687 5.570313-4.5625 13.035156-.980469 19.007813l6.503907 10.835937c6.449219 10.757813 5.757812 24.1875-1.765625 34.21875l-2.644532 3.53125c-4.363281 5.8125-4.515624 13.78125-.382812 19.824219 1.523438 2.222656 1.59375 5.136718.179688 7.429687-1.246094 2.039063-3.457032 3.25-5.804688 3.25zm-56.546875-104.539062c-11.292969 0-20.480469-9.1875-20.480469-20.480469s9.1875-20.480469 20.480469-20.480469 20.476563 9.1875 20.476563 20.480469-9.183594 20.480469-20.476563 20.480469zm0-27.308594c-3.765625 0-6.828125 3.066406-6.828125 6.828125s3.0625 6.828125 6.828125 6.828125c3.761719 0 6.824219-3.066406 6.824219-6.828125s-3.0625-6.828125-6.824219-6.828125zm0 0" fill="#602f75"/><path d="m231.113281 179.324219 2.648438-3.53125c5.824219-7.765625 6.367187-18.285157 1.371093-26.609375l-6.503906-10.839844c-4.992187-8.324219-4.453125-18.84375 1.375-26.609375l2.644532-3.527344c6.367187-8.488281 6.367187-20.164062 0-28.652343l-1.535157-2.046876c-6.367187-8.488281-6.367187-20.164062 0-28.652343 6.773438-9.03125 6.1875-21.457031-1.109375-29.894531-16.339844-6.488282-35.359375-10.851563-57.347656-11.753907l10.386719 10.636719c8.230469 8.421875 9.089843 21.589844 2.023437 31.011719-6.367187 8.488281-6.367187 20.160156 0 28.652343l1.535156 2.046876c6.367188 8.488281 6.367188 20.160156 0 28.652343l-2.648437 3.527344c-5.824219 7.769531-6.367187 18.289063-1.371094 26.609375l6.503907 10.839844c4.996093 8.324218 4.453124 18.847656-1.375 26.609375l-2.644532 3.53125c-6.308594 8.410156-6.347656 19.933593-.15625 28.402343 15.550782-1.625 29.4375-5.066406 41.875-9.699218-1.195312-6.421875.21875-13.222656 4.328125-18.703125zm0 0" fill="#ea3457"/><path d="m184.910156 214.554688c-2.164062 0-4.21875-1.03125-5.511718-2.796876-8.023438-10.984374-7.945313-25.660156.207031-36.53125l2.644531-3.53125c4.179688-5.566406 4.566406-13.023437.984375-19.003906l-6.503906-10.832031c-6.453125-10.757813-5.761719-24.191406 1.765625-34.222656l2.640625-3.523438c4.519531-6.027343 4.519531-14.441406.003906-20.464843l-1.539063-2.046876c-8.132812-10.84375-8.132812-25.996093.003907-36.84375 5.082031-6.773437 4.472656-16.089843-1.441407-22.144531l-10.390624-10.632812c-1.957032-2-2.492188-4.992188-1.355469-7.546875 1.136719-2.554688 3.804687-4.085938 6.515625-4.042969 21.300781.871094 41.351562 4.988281 59.589844 12.230469 1.023437.402344 1.929687 1.046875 2.644531 1.875 9.386719 10.859375 9.976562 27.027344 1.402343 38.453125-4.515624 6.023437-4.515624 14.4375 0 20.460937l1.535157 2.042969c8.140625 10.847656 8.140625 26.003906 0 36.851563l-2.644531 3.523437c-4.175782 5.570313-4.5625 13.035156-.980469 19.007813l6.503906 10.835937c6.457031 10.753906 5.765625 24.1875-1.765625 34.21875l-2.644531 3.53125h-.003907c-2.832031 3.777344-3.953124 8.644531-3.074218 13.351563.605468 3.261718-1.21875 6.488281-4.328125 7.648437-13.722657 5.113281-28.375 8.511719-43.550781 10.09375-.238282.023437-.472657.039063-.707032.039063zm5.242188-198.949219c8.542968 10.855469 8.839844 26.058593.375 37.34375-4.515625 6.023437-4.515625 14.4375 0 20.460937l1.535156 2.050782c8.136719 10.84375 8.136719 25.996093-.003906 36.84375l-2.640625 3.519531c-4.179688 5.574219-4.566407 13.035156-.980469 19.007812l6.503906 10.839844c6.453125 10.761719 5.757813 24.191406-1.765625 34.21875l-2.644531 3.53125c-3.757812 5.003906-4.425781 11.46875-1.992188 17.007813 10.714844-1.390626 21.109376-3.765626 31.015626-7.085938.054687-6.5 2.167968-12.875 6.09375-18.117188l2.648437-3.527343c4.183594-5.570313 4.566406-13.027344.984375-19l-6.503906-10.839844c-6.449219-10.753906-5.757813-24.1875 1.761718-34.222656l2.652344-3.527344c4.515625-6.019531 4.515625-14.433594 0-20.457031l-1.539062-2.042969c-8.136719-10.851563-8.136719-26.003906 0-36.851563 4.511718-6.007812 4.515625-14.070312.160156-20.101562-11.183594-4.285156-23.117188-7.3125-35.660156-9.050781zm40.960937 163.71875h.066407zm0 0" fill="#602f75"/><path d="m317.636719 107.894531 1.347656-1.347656c-2.496094-6.25-14.476563-33.601563-41.585937-58.078125-.089844.121094-.144532.261719-.238282.386719-6.367187 8.488281-6.367187 20.160156 0 28.652343l1.535156 2.046876c6.367188 8.488281 6.367188 20.160156 0 28.652343l-2.648437 3.527344c-5.824219 7.769531-6.367187 18.289063-1.371094 26.609375l6.503907 10.839844c2.101562 3.5 3.164062 7.386718 3.324218 11.296875 22.105469-22.519531 32.214844-45.566407 34.480469-51.238281zm0 0" fill="#ea3457"/><path d="m284.507812 167.304688c-.824218 0-1.65625-.148438-2.453124-.457032-2.539063-.976562-4.253907-3.367187-4.371094-6.085937-.121094-2.949219-.914063-5.660157-2.359375-8.066407l-6.5-10.839843c-6.453125-10.75-5.765625-24.183594 1.757812-34.222657l2.652344-3.523437c4.515625-6.023437 4.515625-14.4375 0-20.460937l-1.535156-2.050782c-8.070313-10.757812-8.136719-25.753906-.195313-36.578125.117188-.1875.246094-.390625.332032-.507812 1.125-1.589844 2.878906-2.621094 4.816406-2.832031 1.929687-.230469 3.871094.40625 5.320312 1.71875 27.769532 25.074218 40.203125 52.734374 43.351563 60.613281.503906 1.261719.609375 2.605469.351562 3.882812.257813 1.273438.152344 2.621094-.351562 3.878907-2.671875 6.675781-13.148438 30.261718-35.945313 53.488281-1.308594 1.332031-3.074218 2.042969-4.871094 2.042969zm-4.917968-107.28125c-.894532 4.699218.144531 9.53125 3.03125 13.386718l1.539062 2.050782c8.132813 10.84375 8.132813 25.996093-.003906 36.84375l-2.648438 3.523437c-4.175781 5.570313-4.558593 13.03125-.976562 19.003906l6.5 10.839844c.234375.386719.453125.773437.667969 1.171875 13.015625-15.386719 20.390625-29.859375 23.488281-36.714844-.25-.714844-.378906-1.472656-.378906-2.238281 0-.769531.128906-1.519531.378906-2.230469-3.722656-8.257812-13.46875-27.183594-31.597656-45.636718zm0 0" fill="#602f75"/><path d="m274.679688 138.34375c-4.996094-8.324219-4.453126-18.84375 1.371093-26.609375l2.644531-3.527344c6.371094-8.488281 6.371094-20.164062 0-28.652343l-1.53125-2.046876c-6.367187-8.488281-6.367187-20.164062 0-28.652343.089844-.125.148438-.265625.238282-.386719-12.433594-11.226562-28.054688-21.828125-47.398438-29.507812 7.300782 8.4375 7.882813 20.863281 1.109375 29.894531-6.367187 8.488281-6.367187 20.160156 0 28.652343l1.535157 2.046876c6.367187 8.488281 6.367187 20.160156 0 28.652343l-2.644532 3.527344c-5.824218 7.769531-6.367187 18.289063-1.371094 26.609375l6.503907 10.839844c4.996093 8.324218 4.453125 18.847656-1.371094 26.609375l-2.648437 3.53125c-4.113282 5.480469-5.527344 12.28125-4.332032 18.703125 24.800782-9.238282 43.6875-23.257813 57.722656-37.546875-.164062-3.910157-1.226562-7.796875-3.324218-11.296875zm0 0" fill="#fff"/><path d="m226.785156 204.851562c-1.164062 0-2.320312-.296874-3.359375-.882812-1.753906-.992188-2.980469-2.710938-3.347656-4.691406-1.582031-8.453125.449219-17.21875 5.574219-24.050782l2.644531-3.53125c4.183594-5.570312 4.566406-13.027343.984375-19l-6.503906-10.835937c-6.449219-10.757813-5.757813-24.191406 1.761718-34.226563l2.652344-3.523437c4.515625-6.023437 4.515625-14.4375 0-20.460937l-1.539062-2.042969c-8.136719-10.847657-8.136719-26.003907 0-36.851563 4.824218-6.429687 4.492187-15.199218-.808594-21.324218-2.058594-2.382813-2.222656-5.859376-.398438-8.421876 1.816407-2.570312 5.152344-3.558593 8.082032-2.390624 18.191406 7.222656 34.828125 17.582031 49.449218 30.78125 2.570313 2.320312 2.992188 6.195312.988282 9.019531-4.859375 6.554687-4.859375 14.96875-.339844 20.992187l1.535156 2.046875c8.132813 10.84375 8.132813 25.996094-.003906 36.84375l-2.648438 3.527344c-4.175781 5.570313-4.558593 13.03125-.972656 19.003906v.003907l6.5 10.835937c2.59375 4.320313 4.074219 9.339844 4.292969 14.523437.082031 1.882813-.625 3.722657-1.949219 5.066407-17.195312 17.511719-37.449218 30.6875-60.207031 39.160156-.777344.289063-1.582031.429687-2.386719.429687zm15.75-172.582031c.554688 7.226563-1.414062 14.617188-5.960937 20.679688-4.515625 6.023437-4.515625 14.4375 0 20.460937l1.535156 2.042969c8.136719 10.847656 8.136719 26 0 36.847656l-2.648437 3.527344c-4.175782 5.570313-4.558594 13.035156-.980469 19.007813l6.507812 10.832031c6.453125 10.757812 5.761719 24.191406-1.769531 34.222656l-2.640625 3.527344c-.953125 1.261719-1.710937 2.65625-2.265625 4.117187 15.914062-7.242187 30.347656-17.152344 43.042969-29.5625-.375-1.886718-1.054688-3.65625-2.027344-5.277344l-6.5-10.839843c-6.453125-10.753907-5.765625-24.183594 1.757813-34.222657l2.652343-3.523437c4.515625-6.023437 4.515625-14.4375 0-20.460937l-1.535156-2.050782c-6.921875-9.230468-7.953125-21.578125-3.09375-31.734375-8.097656-6.792969-16.820313-12.675781-26.074219-17.59375zm0 0" fill="#602f75"/><path d="m318.984375 109.242188c.34375-.855469.523437-1.347657.523437-1.347657s-.179687-.492187-.523437-1.347656l-1.347656 1.347656zm0 0" fill="#ea3457"/><path d="m318.984375 116.070312c-1.792969 0-3.53125-.707031-4.824219-2l-1.351562-1.351562c-1.28125-1.277344-2-3.019531-2-4.828125 0-1.8125.726562-3.550781 2.007812-4.832031l1.351563-1.34375c1.621093-1.621094 3.980469-2.296875 6.199219-1.855469 2.25.464844 4.113281 2.027344 4.960937 4.160156l.59375 1.535157c.542969 1.503906.542969 3.171874 0 4.679687l-.589844 1.527344c-.847656 2.136719-2.710937 3.703125-4.964843 4.167969-.457032.09375-.921876.140624-1.382813.140624zm0 0" fill="#602f75"/><g fill="#ffe600"><path d="m95.574219 88.90625c0 7.539062-6.113281 13.652344-13.652344 13.652344-7.542969 0-13.65625-6.113282-13.65625-13.652344s6.113281-13.652344 13.65625-13.652344c7.539063 0 13.652344 6.113282 13.652344 13.652344zm0 0"/><path d="m81.921875 109.386719c-11.292969 0-20.480469-9.1875-20.480469-20.480469s9.1875-20.480469 20.480469-20.480469 20.476563 9.1875 20.476563 20.480469-9.183594 20.480469-20.476563 20.480469zm0-27.308594c-3.765625 0-6.828125 3.066406-6.828125 6.828125s3.0625 6.828125 6.828125 6.828125c3.761719 0 6.824219-3.066406 6.824219-6.828125s-3.0625-6.828125-6.824219-6.828125zm0 0"/></g></svg>