<svg height="430pt" viewBox="0 -61 430.08 430" width="430pt" xmlns="http://www.w3.org/2000/svg"><path d="m382.292969 219.191406h-334.507813c-22.621094 0-40.957031 18.335938-40.957031 40.960938 0 22.621094 18.335937 40.957031 40.957031 40.957031h334.507813c22.621093 0 40.960937-18.335937 40.960937-40.957031s-18.339844-40.960938-40.960937-40.960938zm0 0" fill="#00e7ff"/><path d="m382.292969 307.9375h-334.507813c-26.347656 0-47.785156-21.4375-47.785156-47.785156 0-26.351563 21.4375-47.789063 47.785156-47.789063h334.507813c26.347656 0 47.785156 21.4375 47.785156 47.789063 0 26.347656-21.4375 47.785156-47.785156 47.785156zm-334.507813-81.921875c-18.816406 0-34.132812 15.316406-34.132812 34.136719 0 18.816406 15.316406 34.132812 34.132812 34.132812h334.507813c18.820312 0 34.132812-15.316406 34.132812-34.132812 0-18.820313-15.3125-34.136719-34.132812-34.136719zm0 0" fill="#00e7ff"/><path d="m207.753906 66.371094-1.691406 1.691406c-6.453125 6.453125-16.914062 6.453125-23.367188 0l-31.304687-31.304688c-6.453125-6.453124-6.453125-16.914062 0-23.367187l1.691406-1.691406c6.453125-6.453125 16.914063-6.453125 23.367188 0l31.304687 31.304687c6.453125 6.453125 6.453125 16.914063 0 23.367188zm0 0" fill="#ea3457"/><path d="m194.378906 79.71875c-5.976562 0-11.957031-2.277344-16.511718-6.832031l-31.308594-31.300781c-9.105469-9.105469-9.105469-23.921876 0-33.027344l1.703125-1.695313c9.089843-9.101562 23.90625-9.097656 33.011719.007813l31.308593 31.308594c9.105469 9.101562 9.105469 23.914062 0 33.019531 0 .003906 0 .003906-.007812.007812l-1.695313 1.6875c-4.546875 4.546875-10.523437 6.824219-16.5 6.824219zm13.375-13.347656h.066406zm-42.988281-52.6875c-2.59375 0-5.023437 1.011718-6.859375 2.839844l-1.699219 1.695312c-1.828125 1.828125-2.835937 4.261719-2.835937 6.855469 0 2.589843 1.007812 5.023437 2.84375 6.855469l31.304687 31.304687c3.667969 3.660156 10.046875 3.664063 13.714844 0l1.691406-1.6875c1.832031-1.835937 2.839844-4.269531 2.839844-6.859375s-1.007813-5.023438-2.839844-6.855469l-31.308593-31.308593c-1.832032-1.828126-4.261719-2.839844-6.851563-2.839844zm0 0" fill="#602f75"/><path d="m181.980469 92.144531-1.691407 1.691407c-6.453124 6.453124-16.914062 6.453124-23.367187 0l-31.304687-31.304688c-6.453126-6.453125-6.453126-16.914062 0-23.367188l1.691406-1.691406c6.453125-6.453125 16.914062-6.453125 23.367187 0l31.304688 31.304688c6.453125 6.453125 6.453125 16.914062 0 23.367187zm0 0" fill="#ea3457"/><path d="m168.601562 105.492188c-5.976562 0-11.957031-2.277344-16.507812-6.824219l-31.308594-31.308594c-9.105468-9.105469-9.105468-23.921875 0-33.023437l1.699219-1.699219c9.09375-9.097657 23.910156-9.097657 33.015625.007812l31.304688 31.308594c9.109374 9.101563 9.109374 23.917969 0 33.019531l-1.691407 1.691406c-4.554687 4.550782-10.535156 6.828126-16.511719 6.828126zm-29.609374-66.035157c-2.59375 0-5.027344 1.011719-6.859376 2.839844l-1.699218 1.699219c-1.828125 1.824218-2.835938 4.257812-2.835938 6.851562 0 2.589844 1.007813 5.023438 2.839844 6.859375l31.308594 31.304688c3.792968 3.78125 9.933594 3.769531 13.714844-.003907l1.691406-1.6875c1.832031-1.832031 2.839844-4.265624 2.839844-6.859374 0-2.589844-1.007813-5.019532-2.839844-6.855469l-31.308594-31.308594c-1.832031-1.828125-4.265625-2.839844-6.851562-2.839844zm0 0" fill="#602f75"/><path d="m315.46875 28.023438c-35.574219-19.601563-79.054688-19.601563-114.632812 0-36.4375 20.078124-69.046876 53.027343-97.964844 98.375-7.695313 12.058593-7.703125 27.511718-.070313 39.605468 30.566407 48.425782 64.671875 83.113282 102.753907 102.386719 32.914062 16.652344 72.285156 16.652344 105.195312 0 15.390625-7.789063 30.117188-18.136719 44.238281-30.847656-20.941406-25.296875-33.515625-57.667969-33.515625-92.960938 0-34.058593 11.742188-65.382812 31.386719-90.269531" fill="#fff"/><path d="m258.152344 287.714844c-19.125 0-38.246094-4.410156-55.679688-13.234375-38.292968-19.375-73.765625-54.644531-105.445312-104.828125-9.011719-14.285156-8.980469-32.699219.082031-46.921875 29.585937-46.394531 63.378906-80.265625 100.4375-100.6875 37.382813-20.601563 83.835937-20.59375 121.214844 0 3.308593 1.820312 4.507812 5.976562 2.683593 9.277343-1.816406 3.300782-5.957031 4.496094-9.273437 2.683594-33.316406-18.367187-74.71875-18.367187-108.039063 0-35.03125 19.304688-67.164062 51.625-95.515624 96.066406-6.230469 9.785157-6.25 22.460938-.042969 32.296876 30.339843 48.066406 64.003906 81.6875 100.058593 99.933593 31.015626 15.6875 68.027344 15.6875 99.039063 0 12.886719-6.519531 25.621094-15.121093 37.933594-25.613281-20.011719-26.441406-30.960938-58.890625-30.960938-92.101562 0-34.59375 11.359375-67.273438 32.855469-94.503907 2.332031-2.957031 6.640625-3.460937 9.585938-1.128906 2.960937 2.335937 3.464843 6.628906 1.132812 9.589844-19.574219 24.796875-29.917969 54.550781-29.917969 86.042969 0 32.25 11.34375 63.71875 31.945313 88.605468 2.332031 2.820313 2.027344 6.976563-.691406 9.425782-14.6875 13.222656-30.066407 23.945312-45.722657 31.863281-17.433593 8.824219-36.550781 13.234375-55.679687 13.234375zm0 0" fill="#602f75"/><path d="m408.222656 156.402344c-3.691406 2.804687-9.011718.890625-10.128906-3.640625-.519531-2.089844.019531-4.308594 1.433594-5.921875l13.929687-15.851563c-.699219-1.570312-1.503906-3.105469-2.429687-4.585937-18.28125-29.234375-38.074219-53.285156-59.398438-72.085938-19.261718 24.882813-30.777344 56.207032-30.777344 90.269532 0 35.289062 12.332032 67.660156 32.863282 92.960937 20.414062-18.746094 39.519531-42.683594 57.375-71.539063 3.019531-4.878906 4.757812-10.304687 5.335937-15.828124zm0 0" fill="#ffe600"/><path d="m353.714844 244.371094c-.167969 0-.335938-.007813-.5-.015625-1.882813-.140625-3.613282-1.046875-4.800782-2.511719-22.175781-27.324219-34.386718-61.867188-34.386718-97.257812 0-34.566407 11.132812-67.226563 32.199218-94.449219 1.152344-1.496094 2.875-2.441407 4.753907-2.621094 1.871093-.1875 3.738281.429687 5.15625 1.675781 21.683593 19.113282 42.09375 43.871094 60.675781 73.589844 1.101562 1.753906 2.058594 3.582031 2.886719 5.445312 1.074219 2.429688.640625 5.265626-1.121094 7.261719l-11.804687 13.449219 5.523437-4.195312c2.175781-1.652344 5.109375-1.851563 7.480469-.511719 2.367187 1.332031 3.722656 3.953125 3.433594 6.660156-.710938 6.796875-2.832032 13.09375-6.3125 18.710937-18.257813 29.5-37.964844 54.054688-58.566407 72.972657-1.265625 1.160156-2.910156 1.796875-4.617187 1.796875zm-1.074219-179.90625c-16.355469 23.554687-24.960937 51.097656-24.960937 80.121094 0 29.789062 9.480468 58.910156 26.835937 82.800781 17.246094-16.851563 33.851563-37.949219 49.453125-62.851563-1.347656-.039062-2.707031-.289062-4.019531-.75-4.226563-1.5-7.402344-5.003906-8.480469-9.378906-1.054688-4.253906.035156-8.761719 2.925781-12.0625l10.835938-12.335938c-16.277344-26.03125-33.945313-48.046874-52.589844-65.542968zm0 0" fill="#602f75"/><path d="m103.859375 144.097656h-32.214844s-51.546875 2.992188-57.992187-61.441406h48.328125s41.878906 13.117188 41.878906 61.441406zm0 0" fill="#ea3457"/><path d="m70.78125 150.941406c-7.21875 0-57.402344-2.433594-63.921875-67.601562-.191406-1.921875.441406-3.832032 1.734375-5.261719s3.132812-2.246094 5.0625-2.246094h48.324219c.695312 0 1.382812.105469 2.039062.3125.46875.144531 46.667969 15.222657 46.667969 67.953125 0 3.769532-3.054688 6.828125-6.828125 6.828125h-32.214844c-.011719 0-.3125.015625-.863281.015625zm-49.316406-61.457031c8.582031 49.230469 48.035156 47.898437 49.816406 47.796875l25.433594-.007812c-3.253906-34-30.414063-45.757813-35.886719-47.789063zm0 0" fill="#602f75"/><path d="m103.859375 144.097656h-32.214844s-51.546875-2.992187-57.992187 61.441406h48.328125s41.878906-13.117187 41.878906-61.441406zm0 0" fill="#ea3457"/><path d="m61.980469 212.363281h-48.328125c-1.925782 0-3.765625-.816406-5.058594-2.246093-1.292969-1.429688-1.925781-3.339844-1.734375-5.257813 7.011719-70.125 64.613281-67.605469 65.179687-67.578125l31.820313-.011719c3.773437 0 6.828125 3.058594 6.828125 6.828125 0 52.730469-46.199219 67.808594-46.667969 67.953125-.660156.207031-1.34375.3125-2.039062.3125zm-40.515625-13.652343h39.359375c5.421875-2.011719 32.628906-13.757813 35.886719-47.785157h-25.066407c-2.0625-.070312-41.59375-1.445312-50.179687 47.785157zm0 0" fill="#602f75"/><g fill="#ea3457"><path d="m250.742188 198.710938h49.632812v25.808593c0 12.136719-8.945312 21.976563-19.976562 21.976563h-63.777344s0-40.957032 34.121094-47.785156zm0 0"/><path d="m280.398438 253.324219h-63.777344c-3.773438 0-6.828125-3.058594-6.828125-6.828125 0-16.101563 8.28125-48.210938 39.605469-54.480469.441406-.089844.894531-.132813 1.339843-.132813h49.636719c3.773438 0 6.824219 3.058594 6.824219 6.828126v25.804687c0 15.886719-12.019531 28.808594-26.800781 28.808594zm-56.34375-13.652344h56.34375c7.25 0 13.148437-6.796875 13.148437-15.15625v-18.976563h-42.101563c-20.183593 4.40625-25.820312 23.640626-27.390624 34.132813zm0 0"/><path d="m405.757812 92.898438c0 11.074218-8.976562 20.050781-20.050781 20.050781s-20.050781-8.976563-20.050781-20.050781c0-11.074219 8.976562-20.054688 20.050781-20.054688s20.050781 8.980469 20.050781 20.054688zm0 0"/></g><path d="m385.707031 119.773438c-14.820312 0-26.878906-12.054688-26.878906-26.875 0-14.820313 12.058594-26.878907 26.878906-26.878907 14.820313 0 26.878907 12.058594 26.878907 26.878907 0 14.820312-12.058594 26.875-26.878907 26.875zm0-40.097657c-7.292969 0-13.226562 5.933594-13.226562 13.222657 0 7.289062 5.933593 13.222656 13.226562 13.222656s13.226563-5.933594 13.226563-13.222656c0-7.289063-5.933594-13.222657-13.226563-13.222657zm0 0" fill="#602f75"/></svg>