<svg height="416pt" viewBox="0 -90 416.42701 416" width="416pt" xmlns="http://www.w3.org/2000/svg"><path d="m6.828125 66.824219h34.613281s34.613282 12.589843 31.464844 47.199219c.003906 0-62.929688 18.882812-66.078125-47.199219zm0 0" fill="#ffe600"/><path d="m53.875 123.351562c-10.023438 0-22.046875-1.976562-32.324219-9.253906-13.253906-9.378906-20.5-25.175781-21.5390622-46.949218-.0898438-1.863282.5937502-3.683594 1.8789062-5.03125 1.289063-1.355469 3.074219-2.117188 4.941406-2.117188h34.613281c.792969 0 1.585938.140625 2.332032.410156 13.679687 4.976563 38.800781 22.710938 35.933594 54.230469-.25 2.777344-2.167969 5.121094-4.839844 5.925781-.675782.199219-9.535156 2.785156-20.996094 2.785156zm-39.59375-49.699218c1.800781 13.582031 6.867188 23.410156 15.101562 29.261718 12.1875 8.671876 28.839844 7.085938 36.878907 5.617188-.6875-22.644531-21.171875-32.757812-26.140625-34.878906zm0 0" fill="#602f75"/><path d="m361.816406 148.265625h-314.027344c-22.621093 0-40.960937 18.339844-40.960937 40.960937 0 22.621094 18.339844 40.960938 40.960937 40.960938h314.027344c22.621094 0 40.957032-18.339844 40.957032-40.960938 0-22.621093-18.335938-40.960937-40.957032-40.960937zm0 0" fill="#00e7ff"/><path d="m361.816406 237.011719h-314.027344c-26.347656 0-47.78515575-21.4375-47.78515575-47.785157 0-26.347656 21.43749975-47.785156 47.78515575-47.785156h314.027344c26.347656 0 47.785156 21.4375 47.785156 47.785156 0 26.347657-21.4375 47.785157-47.785156 47.785157zm-314.027344-81.917969c-18.820312 0-34.132812 15.3125-34.132812 34.132812 0 18.820313 15.3125 34.132813 34.132812 34.132813h314.027344c18.820313 0 34.132813-15.3125 34.132813-34.132813 0-18.820312-15.3125-34.132812-34.132813-34.132812zm0 0" fill="#00e7ff"/><path d="m6.828125 161.226562h34.613281s34.613282-12.585937 31.464844-47.199218c.003906-.003906-62.929688-18.882813-66.078125 47.199218zm0 0" fill="#ffe600"/><path d="m41.441406 168.054688h-34.613281c-1.867187 0-3.652344-.765626-4.941406-2.117188-1.285157-1.351562-1.964844-3.167969-1.8789065-5.035156 1.0390625-21.773438 8.2851565-37.570313 21.5390625-46.949219 22.03125-15.59375 52.066406-6.839844 53.320313-6.464844 2.671874.800781 4.585937 3.144531 4.839843 5.921875 2.867188 31.519532-22.253906 49.257813-35.933593 54.234375-.746094.269531-1.539063.410157-2.332032.410157zm-27.160156-13.65625h25.839844c4.929687-2.101563 25.453125-12.21875 26.140625-34.882813-8.007813-1.457031-24.6875-3.054687-36.878907 5.621094-8.234374 5.851562-13.300781 15.679687-15.101562 29.261719zm0 0" fill="#602f75"/><path d="m192.480469 142.347656s-6.292969 44.050782-31.464844 47.199219h-53.492187s6.292968-34.613281 40.90625-47.199219zm0 0" fill="#ffe600"/><path d="m161.015625 196.371094h-53.492187c-2.027344 0-3.945313-.894532-5.242188-2.453125-1.300781-1.554688-1.839844-3.601563-1.472656-5.59375.28125-1.574219 7.429687-38.625 45.289062-52.394531.746094-.269532 1.539063-.410157 2.332032-.410157h44.054687c1.980469 0 3.859375.859375 5.160156 2.351563 1.292969 1.5 1.878907 3.480468 1.597657 5.441406-.285157 2.007812-7.378907 49.257812-37.378907 53.007812-.28125.035157-.566406.050782-.847656.050782zm-44.320313-13.652344h43.851563c13.707031-2.066406 20.660156-22.152344 23.527344-33.546875h-34.414063c-20.097656 7.757813-29.164062 23.789063-32.964844 33.546875zm0 0" fill="#602f75"/><path d="m192.480469 7.039062s-18.878907 37.761719 18.878906 59.785157h54.28125c.003906 0 11.800781-34.609375-73.160156-59.785157zm0 0" fill="#ffe600"/><path d="m265.644531 73.652344h-54.28125c-1.207031 0-2.394531-.320313-3.441406-.929688-34.238281-19.972656-29.066406-53.695312-21.546875-68.734375 1.480469-2.960937 4.871094-4.429687 8.046875-3.496093 39.714844 11.769531 64.78125 27.261718 74.488281 46.042968 6.359375 12.308594 3.539063 21.488282 3.191406 22.496094-.9375 2.761719-3.539062 4.621094-6.457031 4.621094zm-52.382812-13.652344h45.894531c-1.359375-8.667969-10.601562-27.976562-62.585938-44.558594-2.949218 9.726563-5.796874 30.472656 16.691407 44.558594zm0 0" fill="#602f75"/><path d="m284.085938 65.195312c-8.207032 13.84375-12.9375 29.996094-12.9375 47.257813 0 18.4375 5.398437 35.601563 14.664062 50.042969 41.113281-8.382813 82.378906-24.664063 123.789062-48.46875-24.992187-14.367188-49.929687-26-74.816406-34.808594" fill="#ffe600"/><path d="m285.808594 169.324219c-2.292969 0-4.472656-1.160157-5.746094-3.140625-10.300781-16.050782-15.742188-34.628906-15.742188-53.730469 0-17.867187 4.800782-35.414063 13.890626-50.738281 1.917968-3.242188 6.105468-4.308594 9.351562-2.394532 3.246094 1.925782 4.3125 6.109376 2.390625 9.355469-7.839844 13.222657-11.980469 28.363281-11.980469 43.777344 0 14.921875 3.847656 29.46875 11.167969 42.359375 34.953125-7.652344 70.691406-21.347656 106.472656-40.785156-21.152343-11.492188-42.332031-21.019532-63.113281-28.375-3.550781-1.257813-5.410156-5.15625-4.152344-8.710938 1.246094-3.558594 5.152344-5.425781 8.710938-4.160156 25.019531 8.859375 50.574218 20.746094 75.941406 35.324219 2.121094 1.222656 3.425781 3.476562 3.425781 5.921875 0 2.445312-1.304687 4.699218-3.425781 5.917968-42.171875 24.25-84.515625 40.820313-125.828125 49.242188-.457031.089844-.910156.136719-1.363281.136719zm0 0" fill="#602f75"/><path d="m271.148438 112.453125c0-17.265625 4.730468-33.414063 12.9375-47.261719-81.492188-16.171875-162.398438-1.128906-242.644532 48.832032.0625.039062.121094.070312.179688.109374h229.589844c-.011719-.5625-.0625-1.117187-.0625-1.679687zm0 0" fill="#fff"/><path d="m271.207031 120.960938h-229.585937c-1.25 0-2.484375-.347657-3.558594-1-2.019531-1.238282-3.347656-3.484376-3.355469-5.855469-.011719-2.367188 1.113281-4.625 3.128907-5.875 79.898437-49.742188 163.199218-66.464844 247.570312-49.734375 2.175781.433594 4.007812 1.890625 4.910156 3.914062.90625 2.023438.765625 4.355469-.363281 6.261719-7.839844 13.222656-11.980469 28.363281-11.980469 43.78125l.0625 1.597656c.019532 1.824219-.6875 3.582031-1.976562 4.882813-1.277344 1.296875-3.023438 2.027344-4.851563 2.027344zm-204.660156-13.65625h197.910156c.664063-12.863282 3.8125-25.457032 9.25-37.078126-70.285156-11.871093-139.8125.585938-207.160156 37.078126zm0 0" fill="#602f75"/><path d="m41.621094 114.132812c80.753906 50.222657 162.171875 65.082032 244.191406 48.363282-8.984375-14.003906-14.28125-30.570313-14.601562-48.363282zm0 0" fill="#ea3457"/><path d="m222.222656 175.824219c-62.675781 0-124.386718-18.691407-184.207031-55.894531-2.589844-1.609376-3.792969-4.742188-2.960937-7.671876.839843-2.933593 3.519531-4.953124 6.566406-4.953124h229.585937c3.722657 0 6.761719 2.984374 6.828125 6.707031.285156 15.960937 4.960938 31.457031 13.519532 44.796875 1.214843 1.898437 1.421874 4.273437.539062 6.34375-.871094 2.074218-2.71875 3.585937-4.917969 4.035156-21.734375 4.429688-43.40625 6.636719-64.953125 6.636719zm-155.265625-54.863281c67.660157 36.554687 137.519531 48.84375 208.171875 36.605468-5.777344-11.386718-9.3125-23.808594-10.398437-36.605468zm0 0" fill="#602f75"/></svg>