<svg height="402pt" viewBox="-47 0 402 402.77333" width="402pt" xmlns="http://www.w3.org/2000/svg"><path d="m301.699219 211.625h-177.492188v-129.703125h177.492188l-38.375 64.851563zm0 0" fill="#ffe600"/><path d="m301.699219 218.453125h-177.492188c-3.773437 0-6.828125-3.054687-6.828125-6.828125v-129.703125c0-3.773437 3.054688-6.828125 6.828125-6.828125h177.492188c2.457031 0 4.714843 1.316406 5.933593 3.445312 1.214844 2.132813 1.195313 4.746094-.058593 6.859376l-36.320313 61.375 36.320313 61.375c1.25 2.109374 1.273437 4.730468.058593 6.859374-1.21875 2.128907-3.480468 3.445313-5.933593 3.445313zm-170.664063-13.652344h158.691406l-32.28125-54.550781c-1.273437-2.144531-1.273437-4.808594 0-6.953125l32.28125-54.550781h-158.691406zm0 0" fill="#602f75"/><path d="m14.980469 61.441406h163.839843v122.878906h-163.839843zm0 0" fill="#ea3457"/><path d="m178.820312 191.148438h-163.839843c-3.773438 0-6.828125-3.058594-6.828125-6.828126v-122.878906c0-3.769531 3.054687-6.828125 6.828125-6.828125h163.839843c3.773438 0 6.828126 3.058594 6.828126 6.828125v122.878906c0 3.769532-3.054688 6.828126-6.828126 6.828126zm-157.011718-13.65625h150.183594v-109.226563h-150.183594zm0 0" fill="#602f75"/><path d="m36.179688 218.28125v177.664062h-21.199219v-355.324218h21.199219v143.695312" fill="#fff"/><path d="m36.179688 402.773438h-21.199219c-3.773438 0-6.828125-3.058594-6.828125-6.828126v-355.324218c0-3.769532 3.054687-6.828125 6.828125-6.828125h21.199219c3.773437 0 6.828124 3.058593 6.828124 6.828125v143.695312c0 3.769532-3.054687 6.828125-6.828124 6.828125-3.773438 0-6.824219-3.058593-6.824219-6.828125v-136.871094h-7.546875v341.675782h7.546875v-170.839844c0-3.769531 3.050781-6.824219 6.824219-6.824219 3.773437 0 6.828124 3.054688 6.828124 6.824219v177.664062c0 3.769532-3.054687 6.828126-6.828124 6.828126zm0 0" fill="#602f75"/><path d="m45.835938 26.136719c0 10.664062-8.644532 19.3125-19.308594 19.3125-10.667969 0-19.3125-8.648438-19.3125-19.3125 0-10.664063 8.644531-19.308594 19.3125-19.308594 10.664062 0 19.308594 8.644531 19.308594 19.308594zm0 0" fill="#00e7ff"/><path d="m26.527344 52.273438c-14.414063 0-26.140625-11.722657-26.140625-26.136719 0-14.410157 11.726562-26.136719 26.140625-26.136719 14.410156 0 26.132812 11.722656 26.132812 26.136719 0 14.410156-11.71875 26.136719-26.132812 26.136719zm0-38.621094c-6.886719 0-12.488282 5.601562-12.488282 12.484375 0 6.882812 5.601563 12.480469 12.488282 12.480469 6.878906 0 12.476562-5.597657 12.476562-12.480469 0-6.882813-5.597656-12.484375-12.476562-12.484375zm0 0" fill="#602f75"/></svg>