<svg height="404pt" viewBox="-18 0 404 404.21769" width="404pt" xmlns="http://www.w3.org/2000/svg"><path d="m324.855469 89.417969c-35.835938 20.445312-87.617188 18.03125-119.421875-5.5625l-21.003906-15.582031-21.003907 15.582031c-31.800781 23.59375-83.585937 26.003906-119.417969 5.5625l-37.070312-21.144531 80.273438 257.570312c0 38.011719 41.605468 69.015625 94.101562 71.324219v.226562c1.050781 0 2.070312-.089843 3.117188-.113281 1.046874.019531 2.066406.113281 3.121093.113281l-.003906-.226562c52.496094-2.308594 94.105469-33.3125 94.105469-71.324219l80.273437-257.570312zm0 0" fill="#ea3457"/><path d="m187.550781 404.21875c-.71875 0-1.425781-.035156-2.132812-.066406l-1.140625-.050782-.832032.050782c-1.414062.066406-2.894531.164062-4.203124-.25-55.089844-3.085938-98.097657-36.5625-98.851563-76.988282l-79.972656-256.609374c-.832031-2.675782.050781-5.59375 2.238281-7.351563s5.226562-1.996094 7.660156-.609375l37.066406 21.148438c33.316407 18.992187 82.480469 16.75 111.972657-5.117188l21.007812-15.582031c2.414063-1.792969 5.722657-1.792969 8.132813 0l21.007812 15.582031c29.480469 21.875 78.667969 24.117188 111.972656 5.117188l37.066407-21.148438c2.433593-1.382812 5.476562-1.144531 7.660156.609375 2.1875 1.757813 3.074219 4.675781 2.242187 7.351563l-79.976562 256.609374c-.75 40.441407-43.796875 73.929688-98.933594 76.988282-.625.203125-1.292968.316406-1.984375.316406zm-3.273437-13.765625 1.785156.054687c.382812-.089843.78125-.144531 1.1875-.160156 49.105469-2.164062 87.574219-30.496094 87.574219-64.503906 0-.691406.105469-1.375.304687-2.03125l75.121094-241.019531-22.011719 12.558593c-38.28125 21.824219-92.828125 19.242188-126.867187-6.011718l-16.941406-12.566406-16.941407 12.566406c-34.042969 25.253906-88.597656 27.84375-126.863281 6.011718l-22.015625-12.558593 75.121094 241.023437c.199219.65625.308593 1.339844.308593 2.027344 0 34.011719 38.464844 62.34375 87.570313 64.503906.421875.015625.828125.074219 1.222656.164063zm140.578125-301.03125h.066406zm0 0" fill="#ea3457"/><path d="m296.855469 176.769531 37.761719-169.933593-31.363282 25.089843c-30.324218 24.261719-74.140625 21.398438-101.050781-6.601562l-17.773437-18.488281-17.773438 18.488281c-26.90625 27.996093-70.726562 30.859375-101.046875 6.601562l-31.367187-25.089843 67.925781 305.652343c0 45.109375 35.203125 81.898438 79.625 84.636719l-.003907.265625c.890626 0 1.753907-.105469 2.640626-.132813.886718.027344 1.75.132813 2.640624.132813v-.265625c44.417969-2.738281 79.625-39.527344 79.625-84.636719l19.707032-88.679687" fill="#fff"/><path d="m187.070312 404.21875c-.671874 0-1.324218-.039062-1.984374-.089844l-.863282-.046875-.445312.046875c-1.488282.105469-3.027344.164063-4.347656-.332031-47.058594-3.894531-83.699219-43.226563-84.09375-90.546875l-67.757813-304.9375c-.625-2.824219.601563-5.742188 3.054687-7.273438 2.457032-1.539062 5.609376-1.355468 7.878907.464844l31.367187 25.089844c27.738282 22.199219 67.226563 19.621094 91.859375-6.003906l17.773438-18.488282c2.570312-2.679687 7.265625-2.679687 9.839843 0l17.773438 18.488282c24.621094 25.617187 64.117188 28.199218 91.859375 6.003906l31.367187-25.089844c2.257813-1.820312 5.40625-2.003906 7.878907-.460937 2.453125 1.53125 3.679687 4.445312 3.054687 7.273437l-37.769531 169.933594c-.8125 3.683594-4.457031 5.996094-8.144531 5.179688-3.679688-.816407-6-4.460938-5.1875-8.140626l33.566406-151.015624-16.234375 12.984374c-33.292969 26.632813-80.683594 23.542969-110.230469-7.203124l-12.855468-13.371094-12.851563 13.371094c-29.535156 30.75-76.925781 33.84375-110.234375 7.203124l-16.234375-12.984374 63.722656 286.738281c.105469.484375.160157.980469.160157 1.476562 0 41.113281 32.160156 75.292969 73.21875 77.824219.390624.023438.777343.085938 1.160156.171875l.851562-.046875 1.28125.054688c.367188-.09375.753906-.15625 1.148438-.179688 41.058594-2.527344 73.21875-36.710938 73.21875-77.824219 0-.496093.050781-.992187.160156-1.476562l19.699219-88.683594c.820312-3.679687 4.480469-5.992187 8.144531-5.179687 3.679688.816406 6.003906 4.460937 5.1875 8.140624l-19.539062 87.964844c-.390626 47.355469-37.085938 86.710938-84.199219 90.554688-.707031.261718-1.464844.410156-2.253907.410156zm0 0" fill="#602f75"/><path d="m191.050781 327.6875h-13.242187c-15.195313 0-27.511719-12.316406-27.511719-27.511719v-61.03125c0-15.195312 12.316406-27.511719 27.511719-27.511719h13.242187c15.195313 0 27.511719 12.316407 27.511719 27.511719v61.03125c0 15.195313-12.316406 27.511719-27.511719 27.511719zm0 0" fill="#ffe600"/><g fill="#602f75"><path d="m191.050781 334.515625h-13.242187c-18.933594 0-34.339844-15.402344-34.339844-34.339844v-61.03125c0-18.933593 15.40625-34.335937 34.339844-34.335937h13.242187c18.933594 0 34.339844 15.402344 34.339844 34.335937v61.03125c0 18.9375-15.40625 34.339844-34.339844 34.339844zm-13.242187-116.054687c-11.40625 0-20.683594 9.28125-20.683594 20.683593v61.03125c0 11.40625 9.28125 20.683594 20.683594 20.683594h13.242187c11.40625 0 20.6875-9.28125 20.6875-20.683594v-61.03125c0-11.40625-9.28125-20.683593-20.6875-20.683593zm0 0"/><path d="m184.429688 218.460938c-3.773438 0-6.824219-3.058594-6.824219-6.828126v-204.796874c0-3.773438 3.050781-6.8281255 6.824219-6.8281255 3.773437 0 6.828124 3.0546875 6.828124 6.8281255v204.796874c0 3.769532-3.054687 6.828126-6.828124 6.828126zm0 0"/></g></svg>