<svg height="376pt" viewBox="0 -6 376.95639 376" width="376pt" xmlns="http://www.w3.org/2000/svg"><path d="m213.539062 214.160156 20.605469-20.605468-67.234375-67.234376c-8.734375-8.734374-24.957031-6.984374-32.988281 2.398438-.800781.941406-1.644531 1.855469-2.527344 2.75-19.699219 19.988281-52.890625 20.628906-73.308593 1.378906-21.609376-20.378906-21.988282-54.425781-1.136719-75.28125 17.40625-17.402344 44-20.015625 64.164062-7.84375 6.664063 4.023438 15.300781 2.554688 20.804688-2.949218 7.933593-7.933594 6.59375-21.417969-3.035157-27.179688-34.699218-20.765625-80.699218-15.355469-109.511718 16.238281-30.027344 32.921875-30.027344 84.722657.003906 117.648438 30.851562 33.828125 81.414062 37.636719 116.707031 11.421875 6.027344-4.476563 14.445313-3.757813 19.753907 1.550781l8.199218 8.199219" fill="#ffe600"/><path d="m213.542969 220.984375c-1.746094 0-3.492188-.667969-4.828125-2-2.664063-2.664063-2.664063-6.988281 0-9.652344l15.773437-15.777343-62.40625-62.40625c-2.53125-2.53125-6.363281-3.804688-10.527343-3.671876-4.910157.191407-9.5625 2.316407-12.445313 5.683594-.914063 1.0625-1.859375 2.097656-2.847656 3.101563-22.445313 22.765625-59.621094 23.472656-82.859375 1.550781-11.78125-11.105469-18.394532-26.117188-18.632813-42.277344-.242187-16.164062 5.925781-31.363281 17.351563-42.792968 19.328125-19.324219 49.15625-22.972657 72.515625-8.863282 3.8125 2.300782 9.046875 1.480469 12.453125-1.929687 2.378906-2.375 3.5-5.664063 3.085937-9.019531-.386719-3.15625-2.140625-5.878907-4.796875-7.472657-32.703125-19.578125-75.183594-13.289062-100.960937 14.976563-27.734375 30.410156-27.734375 78.046875.007812 108.449218 28.027344 30.746094 74.292969 35.277344 107.585938 10.542969 8.652343-6.425781 20.972656-5.480469 28.652343 2.203125l8.199219 8.203125c2.667969 2.664063 2.667969 6.984375 0 9.652344-2.664062 2.664063-6.984375 2.664063-9.652343 0l-8.199219-8.199219c-2.933594-2.9375-7.605469-3.320312-10.851563-.898437-38.953125 28.933593-93.050781 23.640625-125.828125-12.300781-32.441406-35.5625-32.441406-91.28125-.007812-126.851563 30.140625-33.039063 79.792969-40.402344 118.066406-17.488281 6.296875 3.765625 10.425781 10.144531 11.339844 17.507812.933593 7.5625-1.609375 14.976563-6.984375 20.351563-7.929688 7.921875-19.921875 9.542969-29.160156 3.960937-17.960938-10.847656-40.921876-8.046875-55.808594 6.832032-8.792969 8.796874-13.539063 20.496093-13.351563 32.941406.179688 12.433594 5.273438 23.992187 14.339844 32.542968 17.578125 16.566407 46.78125 16.027344 63.773437-1.203124.765626-.777344 1.5-1.582032 2.207032-2.40625 5.304687-6.199219 13.636718-10.101563 22.285156-10.433594 8.082031-.269532 15.453125 2.40625 20.707031 7.660156l67.234375 67.230469c2.667969 2.667969 2.667969 6.988281 0 9.65625l-20.597656 20.601562c-1.339844 1.328125-3.085938 1.996094-4.832031 1.996094zm0 0" fill="#602f75"/><path d="m266.597656 128.136719-126.714844 126.714843 18.988282 38.699219 146.425781-146.421875zm0 0" fill="#fff"/><path d="m158.871094 300.378906c-.375 0-.75-.027344-1.121094-.09375-2.171875-.359375-4.039062-1.746094-5.007812-3.726562l-18.988282-38.703125c-1.285156-2.621094-.765625-5.769531 1.300782-7.832031l126.714843-126.714844c2.058594-2.066406 5.214844-2.578125 7.832031-1.304688l38.703126 18.992188c1.976562.972656 3.367187 2.835937 3.726562 5.011718.359375 2.171876-.347656 4.386719-1.90625 5.945313l-146.425781 146.425781c-1.296875 1.292969-3.035157 2-4.828125 2zm-10.707032-44.152344 12.632813 25.75 132.917969-132.925781-25.746094-12.632812zm0 0" fill="#602f75"/><path d="m212.613281 280.476562 3.671875.457032c14.253906 1.785156 26.371094-10.335938 24.589844-24.585938l-.109375-.882812c-1.710937-13.664063 9.398437-25.527344 23.148437-24.71875l3.789063.222656c14.40625.847656 25.722656-12.15625 22.890625-26.308594-2.550781-12.761718 6.457031-24.941406 19.40625-26.234375l37.507812-3.75-42.210937-27.546875-146.425781 146.425782 27.222656 41.71875 1.792969-34.09375c.671875-12.773438 12.039062-22.289063 24.726562-20.703126zm0 0" fill="#ea3457"/><path d="m186.089844 342.09375c-2.265625 0-4.433594-1.132812-5.722656-3.097656l-27.21875-41.714844c-1.757813-2.703125-1.390626-6.273438.894531-8.558594l146.425781-146.421875c2.289062-2.285156 5.855469-2.652343 8.5625-.890625l42.210938 27.546875c2.421874 1.578125 3.589843 4.519531 2.902343 7.332031-.691406 2.8125-3.074219 4.886719-5.953125 5.175782l-37.507812 3.75c-4.328125.433594-8.128906 2.59375-10.714844 6.085937-2.578125 3.492188-3.53125 7.761719-2.679688 12.015625 1.765626 8.839844-.613281 17.808594-6.53125 24.605469-5.90625 6.792969-14.449218 10.410156-23.453124 9.859375l-3.789063-.222656c-4.480469-.25-8.890625 1.472656-11.992187 4.789062-3.089844 3.308594-4.546876 7.777344-3.984376 12.269532l.109376.859374c1.113281 8.925782-1.882813 17.664063-8.230469 24.003907-6.335938 6.34375-15.054688 9.351562-23.980469 8.226562l-3.667969-.460937c-4.191406-.519532-8.363281.679687-11.644531 3.429687-3.273438 2.738281-5.199219 6.59375-5.421875 10.855469l-1.792969 34.09375c-.160156 2.949219-2.191406 5.464844-5.046875 6.234375-.585937.160156-1.1875.234375-1.773437.234375zm-18.472656-47.632812 12.753906 19.550781.691406-13.199219c.421875-7.972656 4.171875-15.480469 10.292969-20.605469 6.128906-5.117187 14.152343-7.511719 22.105469-6.503906l3.667968.457031c4.707032.59375 9.296875-.996094 12.632813-4.332031 3.347656-3.339844 4.925781-7.945313 4.339843-12.632813l-.113281-.859374c-1.066406-8.554688 1.691407-17.042969 7.566407-23.320313 5.878906-6.277344 14.066406-9.65625 22.761718-9.082031l3.785156.222656c4.761719.28125 9.242188-1.617188 12.359376-5.195312 3.113281-3.582032 4.367187-8.308594 3.441406-12.964844-1.59375-7.964844.261718-16.28125 5.09375-22.8125 4.832031-6.535156 12.238281-10.746094 20.324218-11.554688l18.234376-1.824218-21.351563-13.933594zm0 0" fill="#ea3457"/><path d="m310 178.421875c-12.949219 1.296875-21.957031 13.476563-19.40625 26.238281 2.832031 14.152344-8.484375 27.15625-22.890625 26.308594l-3.789063-.226562c-13.746093-.808594-24.855468 11.058593-23.148437 24.722656l.109375.878906c1.78125 14.253906-10.335938 26.371094-24.589844 24.589844l-3.671875-.460938c-12.6875-1.582031-24.054687 7.929688-24.726562 20.699219l-1.792969 34.09375 15.082031 23.117187 168.953125-168.953124-22.621094-14.761719zm0 0" fill="#00e7ff"/><path d="m201.175781 365.214844c-.234375 0-.472656-.015625-.707031-.035156-2.046875-.214844-3.886719-1.339844-5.011719-3.0625l-15.089843-23.121094c-.785157-1.207032-1.171876-2.640625-1.101563-4.085938l1.796875-34.097656c.417969-7.972656 4.171875-15.480469 10.292969-20.605469 6.132812-5.125 14.179687-7.488281 22.105469-6.503906l3.664062.457031c4.707031.59375 9.300781-.996094 12.632812-4.332031 3.347657-3.339844 4.929688-7.945313 4.339844-12.632813l-.109375-.859374c-1.070312-8.554688 1.691407-17.042969 7.566407-23.320313 5.878906-6.277344 14.066406-9.65625 22.757812-9.082031l3.789062.222656c4.757813.28125 9.238282-1.617188 12.359376-5.195312 3.113281-3.582032 4.367187-8.308594 3.441406-12.964844-1.59375-7.964844.257812-16.28125 5.089844-22.8125 4.835937-6.535156 12.242187-10.746094 20.328124-11.554688l37.507813-3.75c1.558594-.15625 3.113281.226563 4.414063 1.078125l22.621093 14.761719c1.71875 1.121094 2.84375 2.960938 3.058594 5.011719.207031 2.042969-.515625 4.078125-1.964844 5.53125l-168.953125 168.953125c-1.289062 1.285156-3.027344 2-4.828125 2zm-8.152343-31.8125 9.273437 14.210937 157.058594-157.058593-13.558594-8.851563-35.113281 3.511719c-4.324219.433594-8.125 2.59375-10.710938 6.085937-2.582031 3.492188-3.535156 7.761719-2.679687 12.015625 1.765625 8.839844-.613281 17.808594-6.535157 24.605469-5.90625 6.792969-14.445312 10.410156-23.453124 9.859375l-3.785157-.222656c-4.480469-.25-8.894531 1.472656-11.992187 4.789062-3.09375 3.308594-4.546875 7.777344-3.988282 12.269532l.113282.859374c1.113281 8.925782-1.886719 17.664063-8.234375 24.003907-6.332031 6.34375-15.050781 9.351562-23.980469 8.226562l-3.664062-.460937c-4.226563-.503906-8.375.691406-11.648438 3.429687s-5.199219 6.59375-5.417969 10.855469zm0 0" fill="#602f75"/></svg>