<svg height="414pt" viewBox="0 -1 414.34887 414" width="414pt" xmlns="http://www.w3.org/2000/svg"><path d="m24.75 230.117188c-30.945312-57.3125-22.210938-130.386719 26.207031-178.808594 59.078125-59.078125 154.863281-59.078125 213.9375 0l35.65625 35.65625-213.933593 213.941406-35.65625-35.65625" fill="#ea3457"/><path d="m86.613281 307.734375c-1.8125 0-3.546875-.722656-4.824219-2l-35.65625-35.660156c-2.664062-2.664063-2.664062-6.984375 0-9.652344 2.667969-2.664063 6.988282-2.664063 9.652344 0l30.828125 30.828125 204.285157-204.285156-30.832032-30.828125c-27.277344-27.285157-63.550781-42.308594-102.140625-42.308594-38.585937 0-74.859375 15.023437-102.140625 42.308594-44.8125 44.816406-55.105468 115.023437-25.023437 170.738281 1.792969 3.316406.550781 7.460938-2.769531 9.25-3.300782 1.792969-7.457032.554688-9.246094-2.761719-32.925782-60.984375-21.664063-137.832031 27.386718-186.882812 29.859376-29.863281 69.5625-46.304688 111.792969-46.304688 42.234375 0 81.933594 16.441407 111.792969 46.304688l35.664062 35.660156c1.277344 1.277344 2 3.015625 2 4.824219s-.722656 3.546875-2 4.828125l-213.941406 213.941406c-1.28125 1.277344-3.015625 2-4.828125 2zm0 0" fill="#602f75"/><path d="m84.359375 251.574219c-15.917969-15.917969-15.917969-41.722657 0-57.636719 15.914063-15.917969 41.71875-15.917969 57.636719 0l9.605468 9.605469-57.636718 57.636719zm0 0" fill="#ffe600"/><path d="m93.960938 268.003906c-1.8125 0-3.546876-.71875-4.828126-2l-9.601562-9.605468c-8.992188-8.992188-13.9375-20.9375-13.9375-33.644532 0-12.707031 4.953125-24.660156 13.9375-33.644531 8.988281-8.988281 20.9375-13.9375 33.640625-13.9375 12.714844 0 24.660156 4.949219 33.648437 13.9375l9.605469 9.605469c1.28125 1.28125 2 3.015625 2 4.824218 0 1.8125-.71875 3.546876-2 4.828126l-57.636719 57.636718c-1.28125 1.28125-3.015624 2-4.828124 2zm19.210937-79.179687c-9.058594 0-17.578125 3.53125-23.984375 9.9375-6.410156 6.410156-9.941406 14.929687-9.941406 23.996093 0 9.058594 3.53125 17.578126 9.941406 23.988282l4.773438 4.777344 47.984374-47.980469-4.78125-4.777344c-6.402343-6.410156-14.921874-9.941406-23.992187-9.941406zm0 0" fill="#ffe600"/><path d="m407.511719 272.074219c-1.25 0-2.519531-.34375-3.660157-1.066407l-30.210937-19.230468c-17.875-11.375-31.902344-28.527344-39.507813-48.296875-8.527343-22.171875-26.054687-39.988281-48.078124-48.875l-35.175782-14.195313c-3.5-1.410156-5.183594-5.386718-3.777344-8.882812 1.410157-3.5 5.417969-5.191406 8.886719-3.777344l35.171875 14.195312c25.527344 10.296876 45.832032 30.9375 55.71875 56.636719 6.558594 17.058594 18.667969 31.859375 34.09375 41.675781l30.214844 19.230469c3.179688 2.027344 4.117188 6.242188 2.09375 9.425781-1.300781 2.046876-3.515625 3.160157-5.769531 3.160157zm0 0" fill="#602f75"/><path d="m267.886719 411.714844c-2.253907 0-4.46875-1.117188-5.769531-3.160156l-19.226563-30.214844c-9.820313-15.425782-24.621094-27.53125-41.679687-34.097656-25.6875-9.875-46.332032-30.1875-56.636719-55.714844l-14.195313-35.171875c-1.40625-3.492188.28125-7.472657 3.78125-8.882813 3.464844-1.421875 7.472656.277344 8.886719 3.777344l14.191406 35.167969c8.886719 22.03125 26.707031 39.558593 48.882813 48.082031 19.765625 7.605469 36.914062 21.640625 48.292968 39.507812l19.226563 30.210938c2.027344 3.183594 1.085937 7.40625-2.09375 9.429688-1.140625.722656-2.40625 1.066406-3.660156 1.066406zm0 0" fill="#602f75"/><path d="m331.121094 338.292969c-1.960938 0-3.902344-.835938-5.253906-2.457031l-30.660157-36.792969c-13.113281-15.734375-28.074219-29.949219-44.460937-42.242188-10.488282-7.867187-20.507813-16.554687-29.773438-25.820312l-32.214844-32.21875c-2.664062-2.664063-2.664062-6.988281 0-9.652344 2.667969-2.664063 6.988282-2.664063 9.65625 0l32.210938 32.21875c8.8125 8.808594 18.339844 17.066406 28.308594 24.550781 17.238281 12.929688 32.972656 27.878906 46.765625 44.421875l30.660156 36.796875c2.414063 2.894532 2.019531 7.199219-.875 9.613282-1.277344 1.0625-2.824219 1.582031-4.363281 1.582031zm0 0" fill="#602f75"/><g fill="#00e7ff"><path d="m137.550781 46.21875c-8.4375-8.441406-22.121093-8.441406-30.5625 0-8.441406 8.4375-8.441406 22.121094 0 30.5625 8.441407 8.4375 22.125 8.4375 30.5625 0 8.441407-8.441406 8.441407-22.125 0-30.5625zm0 0"/><path d="m122.273438 89.921875c-7.289063 0-14.566407-2.769531-20.113282-8.316406-11.078125-11.089844-11.078125-29.125 0-40.214844 11.074219-11.078125 29.117188-11.101563 40.21875 0 11.085938 11.085937 11.085938 29.128906 0 40.214844-5.546875 5.546875-12.824218 8.316406-20.105468 8.316406zm-.007813-43.203125c-3.785156 0-7.574219 1.441406-10.453125 4.324219-5.757812 5.761719-5.757812 15.144531 0 20.910156 5.773438 5.765625 15.140625 5.765625 20.914062 0 5.765626-5.769531 5.765626-15.144531 0-20.910156-2.878906-2.882813-6.667968-4.324219-10.460937-4.324219zm0 0"/><path d="m200.003906 55.074219c-6.359375-6.359375-16.671875-6.359375-23.035156 0-6.359375 6.359375-6.359375 16.675781 0 23.035156 6.363281 6.359375 16.675781 6.359375 23.035156 0 6.363282-6.359375 6.363282-16.675781 0-23.035156zm0 0"/><path d="m188.492188 89.707031c-6.179688 0-11.980469-2.402343-16.34375-6.769531-9.015626-9.011719-9.015626-23.679688 0-32.6875 8.730468-8.726562 23.953124-8.734375 32.683593 0 4.367188 4.363281 6.769531 10.167969 6.769531 16.34375 0 6.171875-2.402343 11.980469-6.769531 16.34375-4.363281 4.363281-10.164062 6.769531-16.339843 6.769531zm0-32.578125c-2.523438 0-4.90625.988282-6.691407 2.773438-3.6875 3.691406-3.6875 9.691406 0 13.378906 3.691407 3.6875 9.6875 3.679688 13.378907 0 3.6875-3.6875 3.6875-9.6875 0-13.378906-1.785157-1.785156-4.164063-2.773438-6.6875-2.773438zm0 0"/><path d="m169.441406 106.011719c-6.359375-6.359375-16.671875-6.359375-23.035156 0-6.359375 6.359375-6.359375 16.675781 0 23.035156 6.363281 6.359375 16.675781 6.359375 23.035156 0s6.359375-16.675781 0-23.035156zm0 0"/><path d="m157.933594 140.644531c-6.179688 0-11.980469-2.40625-16.347656-6.773437-4.367188-4.363282-6.773438-10.167969-6.773438-16.34375 0-6.175782 2.40625-11.980469 6.773438-16.34375 8.734374-8.722656 23.953124-8.734375 32.6875 0 4.367187 4.367187 6.765624 10.171875 6.765624 16.34375 0 6.175781-2.398437 11.980468-6.765624 16.34375-4.367188 4.367187-10.167969 6.773437-16.339844 6.773437zm-.007813-32.574219c-2.417969 0-4.839843.925782-6.683593 2.769532-1.796876 1.789062-2.773438 4.160156-2.773438 6.6875s.976562 4.902344 2.773438 6.6875c3.566406 3.574218 9.796874 3.585937 13.378906.003906 3.6875-3.691406 3.6875-9.691406 0-13.378906-1.847656-1.84375-4.265625-2.769532-6.695313-2.769532zm0 0"/></g></svg>