<svg height="423.25333pt" viewBox="0 0 423.25333 423.25333" width="423.25333pt" xmlns="http://www.w3.org/2000/svg"><path d="m232.105469 27.308594h-47.785157v-3.171875c0-9.558594 7.75-17.308594 17.308594-17.308594h13.167969c9.558594 0 17.308594 7.75 17.308594 17.308594zm0 0" fill="#ea3457"/><path d="m232.105469 34.132812h-47.785157c-3.769531 0-6.828124-3.054687-6.828124-6.824218v-3.171875c0-13.308594 10.828124-24.136719 24.136718-24.136719h13.171875c13.304688 0 24.132813 10.828125 24.132813 24.136719v3.171875c0 3.769531-3.054688 6.824218-6.828125 6.824218zm-40.296875-13.652343h32.8125c-1.488282-3.984375-5.328125-6.828125-9.820313-6.828125h-13.171875c-4.496094 0-8.335937 2.84375-9.820312 6.828125zm0 0" fill="#602f75"/><path d="m40.960938 232.105469v-47.785157h-15.324219c-10.386719 0-18.808594 8.421876-18.808594 18.8125v10.164063c0 10.386719 8.421875 18.808594 18.808594 18.808594zm0 0" fill="#ea3457"/><path d="m40.960938 238.933594h-15.324219c-14.136719 0-25.636719-11.5-25.636719-25.636719v-10.164063c0-14.140624 11.5-25.640624 25.636719-25.640624h15.324219c3.769531 0 6.824218 3.058593 6.824218 6.828124v47.785157c0 3.769531-3.054687 6.828125-6.824218 6.828125zm-15.324219-47.785156c-6.605469 0-11.984375 5.375-11.984375 11.980468v10.167969c0 6.605469 5.378906 11.980469 11.984375 11.980469h8.496093v-34.132813h-8.496093zm0 0" fill="#602f75"/><path d="m184.320312 395.945312h47.785157v1.179688c0 10.660156-8.640625 19.300781-19.300781 19.300781h-9.1875c-10.65625 0-19.300782-8.640625-19.300782-19.300781v-1.179688zm0 0" fill="#ea3457"/><path d="m212.804688 423.253906h-9.1875c-14.402344 0-26.125-11.71875-26.125-26.128906v-1.179688c0-3.769531 3.054687-6.824218 6.824218-6.824218h47.789063c3.773437 0 6.824219 3.054687 6.824219 6.824218v1.179688c.003906 14.410156-11.714844 26.128906-26.125 26.128906zm-20.304688-20.480468c2.058594 4.046874 6.273438 6.828124 11.121094 6.828124h9.1875c4.847656 0 9.058594-2.78125 11.121094-6.828124zm0 0" fill="#602f75"/><path d="m395.945312 184.320312v47.785157h1.617188c10.417969 0 18.863281-8.445313 18.863281-18.863281v-10.058594c0-10.417969-8.445312-18.863282-18.863281-18.863282zm0 0" fill="#ea3457"/><path d="m397.558594 238.933594h-1.613282c-3.773437 0-6.824218-3.058594-6.824218-6.828125v-47.785157c0-3.769531 3.050781-6.828124 6.824218-6.828124h1.613282c14.167968 0 25.695312 11.523437 25.695312 25.691406v10.0625c0 14.164062-11.527344 25.6875-25.695312 25.6875zm5.214844-46.601563v31.761719c4.03125-1.949219 6.828124-6.082031 6.828124-10.851562v-10.058594c0-4.769532-2.796874-8.902344-6.828124-10.851563zm0 0" fill="#602f75"/><path d="m307.265625 54.609375c-27.992187-17.316406-60.964844-27.300781-96.261719-27.300781-101.453125 0-183.695312 82.519531-183.695312 184.316406 0 101.800781 82.242187 184.320312 183.695312 184.320312 101.457032 0 183.699219-82.519531 183.699219-184.320312 0-48.097656-18.363281-91.898438-48.4375-124.71875m-135.261719 226.34375c-55.9375 0-101.28125-45.496094-101.28125-101.625 0-56.125 45.34375-101.625 101.28125-101.625s101.285156 45.5 101.285156 101.625c0 56.128906-45.347656 101.625-101.285156 101.625zm0 0" fill="#fff"/><path d="m211.007812 402.773438c-105.058593 0-190.527343-85.746094-190.527343-191.148438 0-105.398438 85.46875-191.144531 190.527343-191.144531 35.367188 0 69.890626 9.792969 99.851563 28.320312 3.207031 1.984375 4.195313 6.191407 2.214844 9.398438-1.988281 3.210937-6.199219 4.195312-9.398438 2.214843-27.796875-17.195312-59.84375-26.28125-92.667969-26.28125-97.527343 0-176.875 79.625-176.875 177.492188 0 97.871094 79.347657 177.496094 176.875 177.496094 97.527344 0 176.875-79.625 176.875-177.496094 0-44.625-16.570312-87.277344-46.648437-120.105469-2.546875-2.78125-2.359375-7.097656.417969-9.644531 2.78125-2.546875 7.101562-2.355469 9.648437.417969 32.390625 35.355469 50.234375 81.285156 50.234375 129.332031-.003906 105.402344-85.46875 191.148438-190.527344 191.148438zm0-82.691407c-59.613281 0-108.109374-48.65625-108.109374-108.457031 0-59.796875 48.496093-108.453125 108.109374-108.453125 59.613282 0 108.105469 48.65625 108.105469 108.453125 0 59.800781-48.492187 108.457031-108.105469 108.457031zm0-203.253906c-52.085937 0-94.457031 42.523437-94.457031 94.796875s42.371094 94.800781 94.457031 94.800781c52.078126 0 94.453126-42.527343 94.453126-94.800781s-42.375-94.796875-94.453126-94.796875zm0 0" fill="#602f75"/><path d="m153.457031 36.308594 12.074219 84.230468c13.542969-6.683593 28.730469-10.539062 44.855469-10.539062 12.066406 0 23.585937 2.210938 34.324219 6.070312l11.882812-82.921874c-14.765625-3.8125-30.25-5.839844-46.207031-5.839844-19.875 0-38.996094 3.179687-56.929688 9zm0 0" fill="#00e7ff"/><path d="m165.53125 127.367188c-1.09375 0-2.1875-.261719-3.183594-.789063-1.933594-1.019531-3.265625-2.90625-3.574218-5.070313l-12.074219-84.230468c-.472657-3.289063 1.492187-6.433594 4.652343-7.460938 34.496094-11.199218 72.050782-12.28125 106.949219-3.277344 3.367188.871094 5.546875 4.132813 5.054688 7.578126l-11.886719 82.925781c-.296875 2.027343-1.480469 3.820312-3.242188 4.878906-1.75 1.054687-3.898437 1.257813-5.832031.574219-24.5625-8.835938-50.808593-7.203125-73.84375 4.164062-.953125.472656-1.988281.707032-3.019531.707032zm-4.488281-86.242188 9.964843 69.523438c21.566407-8.496094 45.359376-9.84375 68.085938-3.519532l9.859375-68.792968c-28.847656-6.382813-59.414063-5.457032-87.910156 2.789062zm0 0" fill="#602f75"/><path d="m256.59375 390.101562-11.882812-82.917968c-10.738282 3.859375-22.257813 6.070312-34.324219 6.070312-16.125 0-31.3125-3.855468-44.855469-10.539062l-12.074219 84.230468c17.933594 5.820313 37.054688 9 56.929688 9 15.957031 0 31.441406-2.03125 46.207031-5.84375zm0 0" fill="#00e7ff"/><path d="m210.386719 402.773438c-20.085938 0-39.945313-3.140626-59.039063-9.335938-3.160156-1.027344-5.121094-4.175781-4.648437-7.464844l12.070312-84.230468c.3125-2.164063 1.640625-4.050782 3.574219-5.070313 1.9375-1.015625 4.242188-1.046875 6.203125-.082031 23.039063 11.371094 49.285156 13 73.847656 4.164062 1.933594-.695312 4.078125-.488281 5.832031.574219 1.757813 1.054687 2.945313 2.847656 3.238282 4.878906l11.886718 82.921875c.492188 3.449219-1.683593 6.710938-5.050781 7.582032-15.585937 4.023437-31.707031 6.0625-47.914062 6.0625zm-49.34375-20.644532c28.492187 8.246094 59.0625 9.171875 87.910156 2.789063l-9.859375-68.792969c-22.71875 6.328125-46.511719 4.980469-68.085938-3.523438zm0 0" fill="#602f75"/><path d="m108.867188 211.625c0-13.773438 2.730468-26.890625 7.628906-38.871094l-82.136719-11.9375c-4.558594 16.148438-7.050781 33.179688-7.050781 50.808594 0 17.632812 2.492187 34.664062 7.050781 50.808594l82.136719-11.9375c-4.898438-11.976563-7.628906-25.097656-7.628906-38.871094zm0 0" fill="#00e7ff"/><path d="m34.351562 269.261719c-3.007812 0-5.722656-1.996094-6.5625-4.972657-4.851562-17.171874-7.308593-34.894531-7.308593-52.664062s2.457031-35.488281 7.308593-52.660156c.929688-3.296875 4.15625-5.378906 7.554688-4.902344l82.132812 11.9375c2.078126.304688 3.898438 1.546875 4.941407 3.371094 1.042969 1.824218 1.1875 4.027344.394531 5.96875-4.726562 11.554687-7.121094 23.765625-7.121094 36.289062 0 12.523438 2.394532 24.734375 7.121094 36.285156.792969 1.945313.648438 4.148438-.394531 5.972657-1.042969 1.820312-2.867188 3.066406-4.941407 3.371093l-82.132812 11.933594c-.332031.046875-.664062.070313-.992188.070313zm5.046876-100.8125c-3.496094 14.152343-5.265626 28.644531-5.265626 43.175781 0 14.535156 1.769532 29.027344 5.265626 43.179688l67.816406-9.855469c-3.4375-10.75-5.175782-21.921875-5.175782-33.320313 0-11.398437 1.738282-22.570312 5.175782-33.320312zm0 0" fill="#602f75"/><path d="m312.011719 211.625c0 14.359375-3.011719 27.996094-8.382813 40.378906l83.492188 11.96875c4.90625-16.601562 7.585937-34.15625 7.585937-52.347656s-2.679687-35.746094-7.585937-52.347656l-83.492188 11.96875c5.371094 12.382812 8.382813 26.023437 8.382813 40.378906zm0 0" fill="#00e7ff"/><path d="m387.125 270.800781c-.324219 0-.644531-.023437-.972656-.070312l-83.492188-11.96875c-2.105468-.300781-3.953125-1.570313-4.992187-3.425781-1.039063-1.859376-1.148438-4.09375-.300781-6.046876 5.1875-11.964843 7.820312-24.632812 7.820312-37.664062 0-13.027344-2.632812-25.699219-7.820312-37.660156-.847657-1.953125-.742188-4.1875.300781-6.046875 1.039062-1.859375 2.882812-3.128907 4.992187-3.425781l83.492188-11.96875c3.386718-.460938 6.554687 1.574218 7.515625 4.820312 5.21875 17.660156 7.863281 35.921875 7.863281 54.28125 0 18.363281-2.644531 36.625-7.863281 54.285156-.867188 2.933594-3.5625 4.890625-6.542969 4.890625zm-74.039062-24.335937 69.0625 9.898437c3.804687-14.625 5.730468-29.644531 5.730468-44.738281 0-15.089844-1.925781-30.109375-5.730468-44.734375l-69.0625 9.894531c3.820312 11.214844 5.753906 22.898438 5.753906 34.839844 0 11.945312-1.933594 23.628906-5.753906 34.839844zm0 0" fill="#602f75"/><g fill="#ffe600"><path d="m259.414062 211.625c0 26.394531-21.394531 47.789062-47.789062 47.789062-26.390625 0-47.785156-21.394531-47.785156-47.789062 0-26.390625 21.394531-47.785156 47.785156-47.785156 26.394531 0 47.789062 21.394531 47.789062 47.785156zm0 0"/><path d="m211.625 266.238281c-30.113281 0-54.613281-24.496093-54.613281-54.613281 0-30.113281 24.5-54.613281 54.613281-54.613281 30.117188 0 54.613281 24.5 54.613281 54.613281 0 30.117188-24.496093 54.613281-54.613281 54.613281zm0-95.570312c-22.585938 0-40.957031 18.371093-40.957031 40.957031s18.371093 40.960938 40.957031 40.960938 40.960938-18.375 40.960938-40.960938-18.375-40.957031-40.960938-40.957031zm0 0"/></g></svg>