<svg height="423pt" viewBox="-123 0 423 423.25333" width="423pt" xmlns="http://www.w3.org/2000/svg"><path d="m120.933594 68.265625h-64.113282v-30.71875c0-16.964844 13.753907-30.71875 30.71875-30.71875h2.671876c16.96875 0 30.722656 13.753906 30.722656 30.71875zm0 0" fill="#00e7ff"/><path d="m120.929688 75.09375h-64.105469c-3.773438 0-6.828125-3.058594-6.828125-6.828125v-30.71875c0-20.703125 16.847656-37.546875 37.546875-37.546875h2.664062c20.703125 0 37.546875 16.84375 37.546875 37.546875v30.71875c0 3.769531-3.050781 6.828125-6.824218 6.828125zm-57.28125-13.652344h50.453124v-23.894531c0-13.175781-10.71875-23.894531-23.894531-23.894531h-2.664062c-13.175781 0-23.894531 10.71875-23.894531 23.894531zm0 0" fill="#00e7ff"/><path d="m124.992188 68.265625h-72.234376l-3.394531 95.574219h79.023438zm0 0" fill="#ea3457"/><path d="m128.386719 170.667969h-79.027344c-1.851563 0-3.625-.753907-4.910156-2.089844-1.289063-1.332031-1.976563-3.128906-1.90625-4.980469l3.398437-95.574218c.125-3.671876 3.148438-6.582032 6.820313-6.582032h72.226562c3.671875 0 6.691407 2.910156 6.820313 6.582032l3.398437 95.574218c.066407 1.851563-.621093 3.648438-1.90625 4.980469-1.289062 1.335937-3.058593 2.089844-4.914062 2.089844zm-71.953125-13.65625h64.882812l-2.914062-81.917969h-59.054688zm0 0" fill="#602f75"/><path d="m170.796875 416.425781h-163.839844l16.800781-61.4375h130.234376zm0 0" fill="#eaeaea"/><path d="m170.796875 423.253906h-163.839844c-2.128906 0-4.136719-.992187-5.429687-2.683594-1.292969-1.691406-1.71875-3.890624-1.160156-5.941406l16.808593-61.441406c.8125-2.96875 3.511719-5.027344 6.585938-5.027344h130.226562c3.074219 0 5.773438 2.058594 6.585938 5.027344l16.808593 61.441406c.558594 2.050782.132813 4.25-1.160156 5.941406-1.292968 1.691407-3.300781 2.683594-5.425781 2.683594zm-154.894531-13.652344h145.945312l-13.070312-47.789062h-119.800782zm0 0" fill="#602f75"/><path d="m128.140625 167.207031h-79.125c-1.820313 0-3.566406-.726562-4.847656-2.019531-1.285157-1.292969-1.992188-3.046875-1.976563-4.867188l.042969-3.851562c.28125-21.25.421875-31.914062-23.972656-40.832031-3.105469-1.136719-4.953125-4.339844-4.371094-7.601563.570313-3.257812 3.40625-5.636718 6.71875-5.636718h135.9375c3.320313 0 6.152344 2.386718 6.726563 5.652343.566406 3.269531-1.292969 6.476563-4.414063 7.597657-18.003906 6.480468-25.160156 19.753906-23.898437 44.382812.09375 1.867188-.582032 3.695312-1.875 5.050781-1.285157 1.355469-3.070313 2.125-4.945313 2.125zm-72.21875-13.652343h65.265625c.253906-16.019532 4.386719-28.457032 12.507812-37.5h-88.378906c10.21875 10.445312 10.746094 23.300781 10.605469 37.5zm0 0" fill="#602f75"/><path d="m134 321.839844-.519531-14.640625h-89.210938l-1.695312 47.789062h92.601562" fill="#ea3457"/><path d="m135.175781 361.8125h-92.601562c-1.851563 0-3.625-.75-4.914063-2.085938-1.285156-1.335937-1.972656-3.128906-1.90625-4.984374l1.695313-47.785157c.125-3.675781 3.144531-6.582031 6.820312-6.582031h89.210938c3.671875 0 6.695312 2.90625 6.820312 6.582031l.519531 14.636719c.132813 3.769531-2.804687 6.929688-6.578124 7.066406-3.5.171875-6.925782-2.808594-7.0625-6.578125l-.285157-8.054687h-76.039062l-1.207031 34.132812h85.527343c3.773438 0 6.824219 3.054688 6.824219 6.828125 0 3.769531-3.050781 6.824219-6.824219 6.824219zm0 0" fill="#602f75"/><path d="m46.9375 232.105469-2.667969 75.09375h89.210938l-2.667969-75.09375zm0 0" fill="#fff"/><path d="m133.484375 314.027344h-89.214844c-1.851562 0-3.625-.753906-4.914062-2.089844-1.285157-1.332031-1.972657-3.128906-1.90625-4.980469l2.667969-75.09375c.125-3.671875 3.144531-6.582031 6.820312-6.582031h83.878906c3.671875 0 6.691406 2.910156 6.820313 6.582031l2.664062 75.09375c.066407 1.851563-.621093 3.648438-1.90625 4.980469-1.285156 1.335938-3.058593 2.089844-4.910156 2.089844zm-82.140625-13.652344h75.066406l-2.179687-61.441406h-70.707031zm0 0" fill="#602f75"/><path d="m128.386719 163.839844h-79.023438l-2.425781 68.265625h83.875zm0 0" fill="#ffe600"/><g fill="#602f75"><path d="m130.816406 238.933594h-83.878906c-1.855469 0-3.628906-.753906-4.914062-2.085938-1.289063-1.335937-1.972657-3.132812-1.90625-4.984375l2.425781-68.265625c.125-3.675781 3.148437-6.585937 6.820312-6.585937h79.027344c3.671875 0 6.691406 2.910156 6.820313 6.585937l2.425781 68.265625c.066406 1.851563-.621094 3.648438-1.90625 4.984375-1.285157 1.332032-3.0625 2.085938-4.914063 2.085938zm-76.808594-13.652344h69.734376l-1.941407-54.613281h-65.855469zm0 0"/><path d="m95.703125 197.972656c0 3.769532-3.058594 6.828125-6.828125 6.828125s-6.828125-3.058593-6.828125-6.828125c0-3.769531 3.058594-6.824218 6.828125-6.824218s6.828125 3.054687 6.828125 6.824218zm0 0"/><path d="m95.703125 279.894531c0 3.769531-3.058594 6.824219-6.828125 6.824219s-6.828125-3.054688-6.828125-6.824219 3.058594-6.828125 6.828125-6.828125 6.828125 3.058594 6.828125 6.828125zm0 0"/><path d="m69.25 167.207031c-3.773438 0-6.828125-3.054687-6.828125-6.828125v-51.152344c0-3.769531 3.054687-6.828124 6.828125-6.828124s6.824219 3.058593 6.824219 6.828124v51.152344c0 3.773438-3.050781 6.828125-6.824219 6.828125zm0 0"/><path d="m103.382812 167.207031c-3.773437 0-6.828124-3.054687-6.828124-6.828125v-51.152344c0-3.769531 3.054687-6.828124 6.828124-6.828124 3.773438 0 6.824219 3.058593 6.824219 6.828124v51.152344c0 3.773438-3.050781 6.828125-6.824219 6.828125zm0 0"/><path d="m88.574219 75.09375c-3.773438 0-6.824219-3.058594-6.824219-6.828125v-27.304687c0-3.769532 3.050781-6.828126 6.824219-6.828126 3.773437 0 6.828125 3.058594 6.828125 6.828126v27.304687c0 3.769531-3.054688 6.828125-6.828125 6.828125zm0 0"/></g></svg>