<svg height="416pt" viewBox="0 0 416 416.71416" width="416pt" xmlns="http://www.w3.org/2000/svg"><path d="m121.871094 70.78125 38.371094-63.957031 58.566406 43.476562 58.78125 27.953125 64.097656 40.3125 68.554688 26.011719-147.957032 265.308594-81.632812-25.511719-45.917969-45.917969-72.9375-21.917969-54.613281-54.613281 94.207031-157.011719" fill="#ffe600"/><path d="m262.28125 416.714844c-.679688 0-1.359375-.101563-2.03125-.3125l-81.632812-25.507813c-1.054688-.328125-2.015626-.910156-2.792969-1.691406l-44.699219-44.703125-71.292969-21.421875c-1.082031-.324219-2.0625-.910156-2.863281-1.710937l-54.613281-54.613282c-2.210938-2.214844-2.636719-5.652344-1.027344-8.339844l94.207031-157.011718c1.941406-3.230469 6.132813-4.285156 9.367188-2.339844 3.234375 1.9375 4.28125 6.132812 2.339844 9.363281l-91.46875 152.445313 49.636718 49.625 71.289063 21.425781c1.082031.320313 2.0625.90625 2.863281 1.707031l44.726562 44.734375 74.730469 23.355469 141.40625-253.558594-61.160156-23.210937c-.425781-.160157-.832031-.363281-1.210937-.601563l-63.761719-40.101562-58.417969-27.777344c-.398438-.195312-.78125-.421875-1.132812-.6875l-52.519532-38.988281-34.5 57.5c-1.941406 3.234375-6.132812 4.285156-9.367187 2.339843-3.234375-1.941406-4.28125-6.132812-2.339844-9.367187l38.375-63.957031c.992187-1.652344 2.632813-2.808594 4.523437-3.183594 1.90625-.363281 3.855469.070312 5.394532 1.21875l58.03125 43.074219 58.183594 27.667969c.238281.117187.472656.246093.699218.386718l63.527344 39.953125 67.910156 25.769531c1.863282.703126 3.316406 2.179688 3.996094 4.042969s.511719 3.933594-.453125 5.667969l-147.960937 265.304688c-1.226563 2.210937-3.539063 3.503906-5.960938 3.503906zm0 0" fill="#602f75"/><path d="m34.152344 254.757812 132.578125-220.964843 44.816406 43.570312 56.828125 18.300781 48.609375 39.773438 66.289063 17.675781-128.160157 229.804688-70.707031-22.097657-39.773438-39.773437-63.175781-18.984375zm0 0" fill="#fff"/><path d="m255.117188 389.742188c-.679688 0-1.359376-.097657-2.035157-.308594l-70.707031-22.097656c-1.050781-.328126-2.011719-.910157-2.792969-1.6875l-38.558593-38.558594-61.535157-18.488282c-1.082031-.324218-2.058593-.910156-2.859375-1.710937l-47.308594-47.308594c-2.214843-2.210937-2.640624-5.652343-1.027343-8.339843l132.582031-220.964844c1.074219-1.785156 2.90625-2.984375 4.972656-3.253906 2.074219-.25 4.140625.421874 5.640625 1.875l43.667969 42.453124 55.3125 17.816407c.8125.257812 1.566406.671875 2.226562 1.210937l47.464844 38.84375 64.875 17.296875c2.03125.542969 3.707032 1.992188 4.527344 3.933594.816406 1.9375.699219 4.148437-.328125 5.988281l-128.160156 229.804688c-1.226563 2.203125-3.539063 3.496094-5.957031 3.496094zm-67.066407-34.9375 63.804688 19.941406 121.1875-217.296875-57.820313-15.414063c-.941406-.25-1.8125-.695312-2.558594-1.316406l-47.609374-38.949219-55.605469-17.910156c-1-.320313-1.914063-.867187-2.664063-1.601563l-38.636718-37.558593-125.40625 209.003906 42.328124 42.320313 61.535157 18.488281c1.078125.324219 2.058593.910156 2.859375 1.710937zm0 0" fill="#602f75"/><path d="m355.664062 145.75-16.847656 24.339844-81.632812 25.511718 20.40625 71.425782 23.273437 33.855468 82.410157-147.769531zm0 0" fill="#ea3457"/><path d="m300.863281 307.710938c-2.242187 0-4.347656-1.101563-5.628906-2.960938l-23.273437-33.851562c-.417969-.609376-.734376-1.28125-.941407-1.992188l-20.40625-71.429688c-1.011719-3.5625.992188-7.289062 4.535157-8.394531l79.386718-24.808593 15.511719-22.40625c1.640625-2.367188 4.589844-3.449219 7.375-2.710938l27.613281 7.359375c2.03125.542969 3.707032 1.992187 4.527344 3.933594.816406 1.941406.699219 4.148437-.328125 5.988281l-82.414063 147.773438c-1.144531 2.058593-3.277343 3.378906-5.640624 3.492187-.105469.003906-.210938.007813-.316407.007813zm-17.011719-43.628907 16.40625 23.871094 72.785157-130.503906-14.5-3.863281-14.113281 20.390624c-.867188 1.246094-2.128907 2.175782-3.582032 2.628907l-75.273437 23.523437zm54.964844-93.992187h.066406zm0 0" fill="#602f75"/><path d="m113.613281 122.324219-53.542969 89.238281 44.050782 60.566406 66.324218 20.410156 35.71875-30.613281-28.316406-56.121093v-63.773438zm0 0" fill="#ea3457"/><g fill="#602f75"><path d="m170.449219 299.367188c-.675781 0-1.347657-.101563-2.007813-.304688l-66.324218-20.410156c-1.414063-.433594-2.648438-1.3125-3.515626-2.507813l-44.050781-60.566406c-1.613281-2.21875-1.742187-5.179687-.335937-7.53125l53.542968-89.238281c1.617188-2.695313 4.859376-3.941406 7.851563-3.011719l64.242187 19.707031c2.867188.878906 4.824219 3.523438 4.824219 6.527344v62.148438l27.582031 54.671874c1.410157 2.804688.734376 6.214844-1.65625 8.257813l-35.710937 30.613281c-1.253906 1.074219-2.835937 1.644532-4.441406 1.644532zm-62.148438-33.09375 60.5625 18.636718 28.792969-24.683594-25.902344-51.351562c-.480468-.953125-.734375-2.003906-.734375-3.074219v-58.722656l-54.304687-16.664063-48.464844 80.78125zm0 0"/><path d="m63.335938 323.300781c-1.167969 0-2.351563-.300781-3.433594-.933593-3.257813-1.902344-4.351563-6.082032-2.453125-9.339844l155.464843-266.171875c1.902344-3.253907 6.085938-4.355469 9.335938-2.449219 3.257812 1.898438 4.351562 6.078125 2.453125 9.335938l-155.464844 266.175781c-1.269531 2.171875-3.554687 3.382812-5.902343 3.382812zm0 0"/><path d="m134.730469 345.285156c-1.113281 0-2.234375-.269531-3.28125-.84375-3.308594-1.8125-4.515625-5.964844-2.699219-9.273437l142.851562-260.203125c1.828126-3.304688 5.960938-4.507813 9.273438-2.695313 3.308594 1.8125 4.515625 5.964844 2.703125 9.269531l-142.855469 260.203126c-1.246094 2.261718-3.578125 3.542968-5.992187 3.542968zm0 0"/></g><path d="m239.289062 350.671875-34.132812-47.785156 13.652344-27.308594 47.785156 27.308594v34.132812zm0 0" fill="#ea3457"/><path d="m239.296875 357.5c-2.148437 0-4.242187-1.015625-5.5625-2.859375l-34.132813-47.789063c-1.472656-2.054687-1.6875-4.753906-.550781-7.019531l13.652344-27.304687c.839844-1.675782 2.332031-2.9375 4.125-3.480469 1.800781-.539063 3.746094-.324219 5.367187.605469l47.789063 27.308594c2.125 1.210937 3.4375 3.476562 3.4375 5.925781v34.132812c0 2.585938-1.457031 4.949219-3.773437 6.105469l-27.304688 13.65625c-.976562.484375-2.019531.71875-3.046875.71875zm-26.195313-55.238281 28.351563 39.699219 18.3125-9.160157v-25.953125l-38.078125-21.761718zm0 0" fill="#602f75"/><path d="m180.640625 391.203125c-1.171875 0-2.367187-.304687-3.449219-.945313-3.253906-1.910156-4.335937-6.089843-2.429687-9.34375l153.070312-260.203124c1.90625-3.25 6.089844-4.335938 9.347657-2.421876 3.25 1.910157 4.332031 6.09375 2.425781 9.34375l-153.066407 260.203126c-1.277343 2.164062-3.558593 3.367187-5.898437 3.367187zm0 0" fill="#602f75"/><path d="m218.808594 139.046875c-3.773438 0-6.828125-3.058594-6.828125-6.828125v-27.304688c0-3.769531 3.054687-6.828124 6.828125-6.828124 3.773437 0 6.828125 3.058593 6.828125 6.828124v27.304688c0 3.769531-3.054688 6.828125-6.828125 6.828125zm0 0" fill="#00e7ff"/><path d="m232.460938 125.394531h-27.304688c-3.773438 0-6.828125-3.058593-6.828125-6.828125 0-3.769531 3.054687-6.828125 6.828125-6.828125h27.304688c3.773437 0 6.828124 3.058594 6.828124 6.828125 0 3.769532-3.054687 6.828125-6.828124 6.828125zm0 0" fill="#00e7ff"/></svg>