<svg height="402pt" viewBox="-61 0 402 402.0224" width="402pt" xmlns="http://www.w3.org/2000/svg"><path d="m139.792969 170.667969 78.671875-40.960938h-163.839844zm0 0" fill="#fff"/><path d="m139.792969 177.492188c-1.011719 0-2.023438-.222657-2.960938-.671876l-85.167969-40.960937c-2.871093-1.382813-4.402343-4.5625-3.695312-7.671875.707031-3.105469 3.46875-5.308594 6.65625-5.308594h163.839844c3.144531 0 5.882812 2.152344 6.628906 5.203125.75 3.058594-.6875 6.226563-3.476562 7.679688l-78.671876 40.960937c-.984374.511719-2.066406.769532-3.152343.769532zm-55.222657-40.957032 55.101563 26.496094 50.898437-26.496094zm0 0" fill="#602f75"/><path d="m54.625 88.746094h163.839844v40.800781h-163.839844zm0 0" fill="#ffe600"/><path d="m218.464844 136.371094h-163.839844c-3.769531 0-6.828125-3.054688-6.828125-6.824219v-40.800781c0-3.769532 3.058594-6.824219 6.828125-6.824219h163.839844c3.769531 0 6.824218 3.054687 6.824218 6.824219v40.800781c0 3.769531-3.054687 6.824219-6.824218 6.824219zm-157.015625-13.652344h150.1875v-27.144531h-150.1875zm0 0" fill="#602f75"/><path d="m54.625 47.785156h163.839844v40.960938h-163.839844zm0 0" fill="#00e7ff"/><path d="m218.464844 95.574219h-163.839844c-3.769531 0-6.828125-3.058594-6.828125-6.828125v-40.960938c0-3.769531 3.058594-6.824218 6.828125-6.824218h163.839844c3.769531 0 6.824218 3.054687 6.824218 6.824218v40.960938c0 3.769531-3.054687 6.828125-6.824218 6.828125zm-157.015625-13.652344h150.1875v-27.308594h-150.1875zm0 0" fill="#602f75"/><path d="m27.316406 6.828125h218.453125v40.957031h-218.453125zm0 0" fill="#ffe600"/><path d="m245.769531 54.613281h-218.453125c-3.769531 0-6.824218-3.054687-6.824218-6.828125v-40.957031c0-3.773437 3.054687-6.828125 6.824218-6.828125h218.453125c3.769531 0 6.828125 3.054688 6.828125 6.828125v40.957031c0 3.773438-3.058594 6.828125-6.828125 6.828125zm-211.625-13.652343h204.800781v-27.308594h-204.800781zm0 0" fill="#602f75"/><path d="m238.304688 298.683594c-19.191407 34.09375-55.726563 57.121094-97.636719 57.121094-61.832031 0-111.960938-50.125-111.960938-111.960938s50.125-111.960938 111.960938-111.960938c60.328125 0 109.507812 47.707032 111.875 107.453126" fill="#ea3457"/><path d="m140.671875 362.632812c-65.5 0-118.792969-53.289062-118.792969-118.792968 0-65.5 53.292969-118.789063 118.792969-118.789063 64.027344 0 116.160156 50.082031 118.691406 114.015625.152344 3.765625-2.78125 6.941406-6.550781 7.085938-3.894531.191406-6.941406-2.777344-7.089844-6.546875-2.242187-56.582031-48.386718-100.902344-105.050781-100.902344-57.976563 0-105.140625 47.164063-105.140625 105.136719 0 57.976562 47.164062 105.140625 105.140625 105.140625 37.925781 0 73.058594-20.558594 91.683594-53.648438 1.847656-3.289062 5.996093-4.453125 9.296875-2.597656 3.285156 1.847656 4.449218 6.011719 2.601562 9.296875-21.039062 37.382812-60.730468 60.601562-103.582031 60.601562zm0 0" fill="#602f75"/><path d="m176.058594 177.246094 92.988281-12.621094-53.394531 77.167969 57.425781 74.21875-93.53125-7.660157-35.558594 86.84375-40.132812-84.828124-92.988281 12.625 53.394531-77.167969-57.425781-74.21875 93.53125 7.65625 35.558593-86.839844zm0 0" fill="#fff"/><path d="m143.988281 402.023438c-2.636719 0-5.042969-1.519532-6.171875-3.90625l-37.992187-80.3125-88.042969 11.949218c-2.675781.375-5.316406-.886718-6.734375-3.191406-1.414063-2.308594-1.332031-5.230469.207031-7.453125l50.550782-73.0625-54.367188-70.265625c-1.652344-2.140625-1.890625-5.054688-.601562-7.429688 1.289062-2.382812 3.851562-3.808593 6.558593-3.550781l88.546875 7.25 33.667969-82.21875c1.027344-2.5 3.433594-4.164062 6.140625-4.234375 2.757812-.121094 5.191406 1.460938 6.347656 3.902344l37.996094 80.3125 88.035156-11.953125c2.734375-.386719 5.328125.886719 6.738282 3.191406 1.414062 2.308594 1.335937 5.230469-.203126 7.453125l-50.554687 73.0625 54.371094 70.265625c1.652343 2.140625 1.886719 5.054688.597656 7.429688-1.292969 2.378906-3.902344 3.777343-6.554687 3.550781l-88.546876-7.246094-33.671874 82.214844c-1.023438 2.503906-3.429688 4.167969-6.136719 4.238281-.058594.003907-.121094.003907-.179688.003907zm-40.128906-98.480469c2.609375 0 5.027344 1.5 6.167969 3.90625l33.511718 70.832031 29.695313-72.515625c1.125-2.753906 3.898437-4.488281 6.871094-4.214844l78.097656 6.390625-47.953125-61.972656c-1.820312-2.351562-1.90625-5.613281-.214844-8.058594l44.585938-64.441406-77.644532 10.542969c-2.957031.40625-5.820312-1.15625-7.089843-3.84375l-33.511719-70.832031-29.695312 72.511718c-1.128907 2.753906-3.957032 4.476563-6.871094 4.21875l-78.097656-6.394531 47.953124 61.972656c1.820313 2.355469 1.90625 5.613281.214844 8.0625l-44.589844 64.4375 77.652344-10.539062c.304688-.042969.613282-.0625.917969-.0625zm0 0" fill="#602f75"/><g fill="#00e7ff"><path d="m208.238281 243.84375c0 37.316406-30.253906 67.566406-67.570312 67.566406-37.316407 0-67.566407-30.25-67.566407-67.566406s30.25-67.570312 67.566407-67.570312c37.316406 0 67.570312 30.253906 67.570312 67.570312zm0 0"/><path d="m140.671875 318.238281c-41.023437 0-74.398437-33.375-74.398437-74.398437 0-41.019532 33.375-74.394532 74.398437-74.394532 41.019531 0 74.390625 33.375 74.390625 74.394532 0 41.023437-33.371094 74.398437-74.390625 74.398437zm0-135.136719c-33.496094 0-60.746094 27.25-60.746094 60.742188s27.25 60.742188 60.746094 60.742188c33.492187 0 60.738281-27.25 60.738281-60.742188s-27.246094-60.742188-60.738281-60.742188zm0 0"/></g></svg>