<svg height="424pt" viewBox="0 -11 424.83776 424" width="424pt" xmlns="http://www.w3.org/2000/svg"><path d="m353.15625 138.886719h-266.238281c-35.816407 0-64.855469-29.035157-64.855469-64.851563s29.039062-64.851562 64.855469-64.851562h266.238281c35.820312 0 64.855469 29.035156 64.855469 64.851562s-29.035157 64.851563-64.855469 64.851563zm0 0" fill="#00e7ff"/><path d="m353.15625 145.714844h-266.238281c-39.527344 0-71.679688-32.15625-71.679688-71.679688 0-39.523437 32.152344-71.679687 71.679688-71.679687h266.238281c39.527344 0 71.679688 32.15625 71.679688 71.679687 0 39.523438-32.152344 71.679688-71.679688 71.679688zm-266.238281-129.707032c-31.992188 0-58.027344 26.03125-58.027344 58.027344s26.035156 58.027344 58.027344 58.027344h266.238281c31.996094 0 58.027344-26.03125 58.027344-58.027344s-26.03125-58.027344-58.027344-58.027344zm0 0" fill="#00e7ff"/><path d="m166.660156 130.992188-35.382812 35.382812-57.660156-25.640625c-13.0625-5.808594-24.941407-13.96875-35.050782-24.078125l-26.859375-26.859375c-4.453125-4.453125-6.003906-11.046875-4.003906-17.019531l5.550781-16.558594c.574219-1.707031 1.378906-3.300781 2.457032-4.742188 9.761718-13.015624 22.914062-26.175781 35.933593-35.960937 1.515625-1.140625 3.210938-1.976563 5.023438-2.546875l15.691406-4.949219c5.902344-1.859375 12.355469-.28125 16.734375 4.097657l27.566406 27.566406c9.742188 9.742187 17.679688 21.136718 23.445313 33.648437zm0 0" fill="#ea3457"/><path d="m131.277344 173.203125c-.941406 0-1.878906-.191406-2.773438-.589844l-57.660156-25.644531c-13.871094-6.164062-26.359375-14.742188-37.097656-25.488281l-26.871094-26.859375c-6.324219-6.320313-8.484375-15.527344-5.644531-24.011719l5.550781-16.558594c.835938-2.464843 1.996094-4.707031 3.46875-6.667969 10.160156-13.542968 23.753906-27.144531 37.292969-37.320312 2.082031-1.5625 4.460937-2.773438 7.066406-3.601562l15.695313-4.945313c8.371093-2.644531 17.410156-.425781 23.617187 5.773437l27.570313 27.570313c10.351562 10.347656 18.699218 22.332031 24.8125 35.621094l26.558593 57.65625c1.195313 2.59375.648438 5.660156-1.375 7.679687l-35.382812 35.382813c-1.308594 1.308593-3.054688 2.003906-4.828125 2.003906zm-53.914063-159.128906c-.984375 0-1.980469.152343-2.953125.457031l-15.683594 4.945312c-1.148437.363282-2.121093.855469-2.972656 1.5-12.5625 9.433594-25.164062 22.046876-34.582031 34.597657-.601563.804687-1.074219 1.730469-1.449219 2.820312l-5.546875 16.550781c-1.1875 3.542969-.285156 7.382813 2.355469 10.023438l26.867188 26.859375c9.554687 9.554687 20.652343 17.179687 32.992187 22.667969l53.371094 23.734375 28.707031-28.703125-24.566406-53.339844c-5.441406-11.816406-12.859375-22.472656-22.066406-31.675781l-27.566407-27.570313c-1.867187-1.867187-4.351562-2.867187-6.90625-2.867187zm0 0" fill="#602f75"/><path d="m139.042969 158.609375 19.308593-19.308594 217.222657 217.222657-19.308594 19.308593-182.320313-182.320312" fill="#ffe600"/><path d="m356.265625 382.660156c-1.746094 0-3.496094-.667968-4.828125-2l-182.320312-182.324218c-2.664063-2.667969-2.664063-6.988282 0-9.652344 2.667968-2.667969 6.988281-2.667969 9.652343 0l177.496094 177.496094 9.65625-9.652344-207.570313-207.570313-14.480468 14.480469c-2.664063 2.664062-6.988282 2.664062-9.652344 0-2.667969-2.667969-2.667969-6.988281 0-9.65625l19.304688-19.304688c2.667968-2.664062 6.988281-2.664062 9.652343 0l217.226563 217.222657c1.28125 1.28125 2 3.019531 2 4.828125s-.71875 3.546875-2 4.824218l-19.3125 19.308594c-1.332032 1.332032-3.078125 2-4.824219 2zm0 0" fill="#602f75"/><path d="m392.472656 368.59375-24.136718 24.132812c-4 4-10.484376 4-14.480469 0-4-3.996093-4-10.480468 0-14.480468l24.132812-24.136719c4-3.996094 10.484375-3.996094 14.484375 0 3.996094 4 3.996094 10.484375 0 14.484375zm0 0" fill="#00e7ff"/><path d="m361.089844 402.542969c-4.367188 0-8.738282-1.664063-12.066406-4.984375-6.648438-6.660156-6.648438-17.484375-.007813-24.136719l24.148437-24.140625c6.652344-6.660156 17.480469-6.648438 24.132813 0 3.226563 3.222656 5 7.507812 5 12.066406s-1.773437 8.84375-5 12.066406l-24.132813 24.136719c-3.328124 3.332031-7.699218 4.992188-12.074218 4.992188zm24.140625-44.605469c-.527344 0-1.539063.132812-2.414063 1l-24.140625 24.136719c-1.324219 1.328125-1.324219 3.5.007813 4.832031 1.328125 1.332031 3.5 1.320312 4.828125-.007812l24.132812-24.132813c.875-.871094 1-1.886719 1-2.414063 0-.53125-.125-1.542968-1-2.410156-.875-.871094-1.886719-1.003906-2.414062-1.003906zm0 0" fill="#602f75"/><path d="m68.558594 68.910156 79.011718 79.007813" fill="#fff"/><path d="m147.570312 154.746094c-1.746093 0-3.492187-.667969-4.824218-2l-79.015625-79.011719c-2.664063-2.664063-2.664063-6.988281 0-9.652344 2.667969-2.664062 6.988281-2.664062 9.652343 0l79.015626 79.011719c2.664062 2.664062 2.664062 6.984375 0 9.652344-1.332032 1.332031-3.082032 2-4.828126 2zm0 0" fill="#602f75"/></svg>