<svg height="416pt" viewBox="-7 0 416 416.42667" width="416pt" xmlns="http://www.w3.org/2000/svg"><path d="m225.492188 109.226562c0 60.324219-48.902344 109.226563-109.226563 109.226563s-109.226563-48.902344-109.226563-109.226563c0-60.324218 48.902344-109.226562 109.226563-109.226562s109.226563 48.902344 109.226563 109.226562zm0 0" fill="#ea3457"/><path d="m379.050781 324.644531c-19.332031-19.332031-50.902343-18.582031-69.296875 1.648438l-8.722656 9.597656c-18.390625 20.230469-49.960938 20.980469-69.296875 1.648437l-10.988281-10.992187c-20.035156-20.03125-52.984375-18.386719-70.925782 3.539063-18.519531 22.632812-52.820312 23.527343-72.496093 1.886718l-3.511719-3.863281c-17.699219-19.46875-47.425781-20.78125-66.773438-3.972656v64.984375h389.121094v-47.363282zm0 0" fill="#00e7ff"/><path d="m396.160156 395.945312h-389.121094c-3.773437 0-6.824218-3.050781-6.824218-6.824218v-64.980469c0-1.972656.859375-3.855469 2.34375-5.15625 22.242187-19.324219 56.460937-17.285156 76.308594 4.535156l3.507812 3.859375c8.046875 8.839844 19.3125 13.820313 31.460938 13.425782 11.945312-.3125 23.140624-5.792969 30.699218-15.039063 9.773438-11.9375 24.214844-19.234375 39.621094-20 15.324219-.746094 30.511719 5.039063 41.417969 15.953125l10.988281 10.996094c8.019531 8.019531 18.605469 12.179687 30.015625 12.011718 11.332031-.265624 21.777344-5.039062 29.402344-13.425781l8.722656-9.601562c10.164063-11.179688 24.085937-17.53125 39.191406-17.886719 15.332031-.511719 29.308594 5.328125 39.988281 16.007812l17.105469 17.105469c1.28125 1.28125 2 3.015625 2 4.828125v47.367188c0 3.773437-3.054687 6.824218-6.828125 6.824218zm-382.292968-13.652343h375.464843v-37.714844l-15.105469-15.105469c-8.027343-8.027344-18.746093-12.261718-30.015624-12.015625-11.332032.269531-21.777344 5.042969-29.40625 13.429688l-8.71875 9.589843c-10.164063 11.1875-24.085938 17.542969-39.191407 17.894532-15.273437.441406-29.316406-5.328125-39.988281-16.007813l-10.988281-10.992187c-8.1875-8.179688-19.550781-12.535156-31.085938-11.972656-11.558593.578124-22.398437 6.050781-29.726562 15.003906-10.085938 12.328125-24.996094 19.636718-40.914063 20.054687-15.925781.222657-31.199218-6.105469-41.917968-17.890625l-3.507813-3.863281c-14.207031-15.617187-38.238281-17.738281-54.902344-5.304687v54.894531zm0 0" fill="#00e7ff"/><path d="m218.621094 186.171875s-20.433594 161.988281 9.714844 223.429687h-64.28125s-10.195313-207.242187 38.375-223.429687zm0 0" fill="#ffe600"/><path d="m228.332031 416.425781h-64.277343c-3.640626 0-6.640626-2.851562-6.820313-6.492187-1.066406-21.742188-8.945313-212.914063 43.039063-230.242188.699218-.230468 1.425781-.351562 2.160156-.351562h16.1875c1.957031 0 3.824218.839844 5.121094 2.3125 1.292968 1.464844 1.898437 3.425781 1.652343 5.367187-.199219 1.601563-19.832031 160.675781 9.066407 219.574219 1.039062 2.113281.914062 4.617188-.332032 6.621094-1.246094 2-3.433594 3.210937-5.796875 3.210937zm-57.753906-13.652343h47.472656c-21.757812-59.78125-10.605469-178.1875-7.105469-209.78125h-7.292968c-30.117188 12.441406-36.253906 132.066406-33.074219 209.78125zm0 0" fill="#602f75"/><path d="m125.855469 155.902344-95.046875-5s3.238281-64.761719 74.480468-55.050782c71.238282 9.714844 123.046876 55.050782 123.046876 55.050782l-12.953126 9.714844-33.796874-1.78125" fill="#fff"/><path d="m215.386719 167.4375c-.121094 0-.242188 0-.359375-.003906l-33.800782-1.78125c-3.765624-.199219-6.652343-3.414063-6.460937-7.179688.199219-3.761718 3.449219-6.738281 7.179687-6.460937l31.328126 1.65625 3.882812-2.921875c-15.933594-12-58.898438-40.78125-112.792969-48.125-20.277343-2.773438-36.347656.640625-47.839843 10.121094-11.632813 9.597656-16.152344 23.519531-17.871094 31.738281l87.558594 4.605469c3.765624.203124 6.652343 3.414062 6.460937 7.179687-.199219 3.761719-3.320313 6.648437-7.179687 6.460937l-95.042969-5.007812c-3.757813-.199219-6.644531-3.398438-6.457031-7.160156.058593-1.21875 1.738281-30.003906 23.71875-48.246094 14.558593-12.078125 34.25-16.535156 58.492187-13.226562 72.4375 9.878906 124.445313 54.765624 126.617187 56.671874 1.554688 1.363282 2.40625 3.339844 2.328126 5.394532-.074219 2.058594-1.082032 3.972656-2.722657 5.207031l-12.945312 9.714844c-1.179688.886719-2.621094 1.363281-4.09375 1.363281zm0 0" fill="#602f75"/><path d="m215.382812 160.617188 165.144532 55.046874s16.191406-48.570312-42.09375-74.476562c-58.289063-25.90625-129.527344 0-129.527344 0zm0 0" fill="#fff"/><path d="m380.527344 222.492188c-.714844 0-1.441406-.113282-2.160156-.351563l-165.140626-55.054687c-2.039062-.675782-3.632812-2.273438-4.3125-4.3125l-6.480468-19.425782c-1.175782-3.507812.667968-7.3125 4.140625-8.574218 3.019531-1.105469 74.527343-26.539063 134.632812.175781 63.21875 28.097656 45.980469 82.332031 45.792969 82.878906-.953125 2.859375-3.613281 4.664063-6.472656 4.664063zm-159.746094-67.28125 154.644531 51.5625c1.625-12.992188.054688-41.652344-39.765625-59.347657-45.355468-20.171875-99.808594-7.207031-118.085937-1.832031zm0 0" fill="#602f75"/><path d="m216.734375 161.09375-139.089844-121.71875s42.574219-48.910156 92.570313 2.757812c49.996094 51.667969 62.707031 119.328126 62.707031 119.328126zm0 0" fill="#fff"/><path d="m232.921875 168.285156c-.054687 0-.101563 0-.15625 0l-16.183594-.367187c-1.601562-.039063-3.140625-.632813-4.339843-1.683594l-139.085938-121.722656c-2.835938-2.476563-3.128906-6.785157-.65625-9.617188.800781-.921875 19.914062-22.515625 48.46875-23.269531 18.816406-.472656 37.132812 8.167969 54.152344 25.761719 50.839844 52.53125 63.972656 119.964843 64.503906 122.8125.382812 2.019531-.171875 4.105469-1.5 5.679687-1.296875 1.527344-3.207031 2.40625-5.203125 2.40625zm-13.554687-13.957031 4.867187.105469c-5.113281-19.28125-21.101563-68.46875-58.925781-107.554688-14.253906-14.742187-29.074219-21.828125-43.980469-21.605468-15.132813.398437-27.203125 8.503906-33.566406 13.878906zm0 0" fill="#602f75"/><path d="m215.382812 160.617188 84.191407-142.480469s-48.570313-16.1875-77.714844 12.953125c-29.140625 29.144531-27.667969 128.410156-27.667969 128.410156zm0 0" fill="#fff"/><path d="m215.386719 167.4375c-.121094 0-.242188 0-.359375-.003906l-21.195313-1.113282c-3.585937-.195312-6.414062-3.128906-6.464843-6.722656-.058594-4.164062-1.167969-102.503906 29.667968-133.332031 31.765625-31.757813 82.542969-15.324219 84.699219-14.601563 1.953125.648438 3.511719 2.15625 4.230469 4.089844.726562 1.925782.535156 4.085938-.511719 5.859375l-84.1875 142.472657c-1.230469 2.085937-3.472656 3.351562-5.878906 3.351562zm-14.386719-14.417969 10.613281.558594 77.425781-131.03125c-14.234374-2.828125-43.394531-5.59375-62.351562 13.375-20.660156 20.65625-25.433594 86.390625-25.6875 117.097656zm0 0" fill="#602f75"/><path d="m231.574219 160.617188 155.429687-58.289063s-12.953125-45.332031-68-38.855469c-55.050781 6.476563-103.621094 87.429688-103.621094 87.429688zm0 0" fill="#fff"/><path d="m231.574219 167.4375c-1.222657 0-2.441407-.324219-3.515625-.972656l-16.1875-9.710938c-3.234375-1.941406-4.277344-6.132812-2.339844-9.367187 2.054688-3.417969 50.953125-83.90625 108.667969-90.691407 60.121093-7.109374 75.226562 43.246094 75.375 43.757813.972656 3.421875-.839844 7.015625-4.167969 8.269531l-155.433594 58.285156c-.777344.285157-1.59375.429688-2.398437.429688zm-6.640625-18.769531 7.328125 4.398437 145.800781-54.671875c-5.355469-10.847656-20.953125-32.523437-58.261719-28.140625-42.808593 5.03125-82.792969 60.246094-94.867187 78.414063zm0 0" fill="#602f75"/><path d="m270.429688 181.3125c0 15.199219-12.320313 27.523438-27.523438 27.523438-15.199219 0-27.523438-12.324219-27.523438-27.523438s12.324219-27.523438 27.523438-27.523438c15.203125 0 27.523438 12.324219 27.523438 27.523438zm0 0" fill="#ea3457"/><path d="m242.90625 215.667969c-18.941406 0-34.347656-15.414063-34.347656-34.355469s15.40625-34.351562 34.347656-34.351562 34.355469 15.410156 34.355469 34.351562-15.414063 34.355469-34.355469 34.355469zm0-55.054688c-11.414062 0-20.691406 9.285157-20.691406 20.699219s9.277344 20.699219 20.691406 20.699219 20.699219-9.285157 20.699219-20.699219-9.285157-20.699219-20.699219-20.699219zm0 0" fill="#602f75"/><path d="m215.382812 165.121094c0 15.203125-12.324218 27.523437-27.523437 27.523437s-27.523437-12.320312-27.523437-27.523437c0-15.199219 12.324218-27.523438 27.523437-27.523438s27.523437 12.324219 27.523437 27.523438zm0 0" fill="#ea3457"/><path d="m187.859375 199.472656c-18.941406 0-34.351563-15.410156-34.351563-34.351562s15.410157-34.347656 34.351563-34.347656 34.355469 15.40625 34.355469 34.347656-15.414063 34.351562-34.355469 34.351562zm0-55.046875c-11.414063 0-20.699219 9.28125-20.699219 20.695313 0 11.410156 9.285156 20.699218 20.699219 20.699218s20.699219-9.285156 20.699219-20.699218c0-11.414063-9.285156-20.695313-20.699219-20.695313zm0 0" fill="#602f75"/></svg>