<svg height="423.25333pt" viewBox="0 0 423.25333 423.25333" width="423.25333pt" xmlns="http://www.w3.org/2000/svg"><path d="m269.734375 390.34375c-11.757813-7.347656-26.90625-6.316406-37.558594 2.558594-11.902343 9.921875-29.195312 9.921875-41.09375 0l-.953125-.789063c-10.183594-8.492187-24.542968-9.84375-36.132812-3.402343l-20.632813 11.464843c-.277343.152344-.570312.25-.851562.394531 24.34375 10.207032 51.066406 15.855469 79.113281 15.855469 27.417969 0 53.554688-5.425781 77.453125-15.199219-2.429687-.796874-4.8125-1.800781-7.046875-3.199218zm0 0" fill="#00e7ff"/><path d="m211.625 423.253906c-28.3125 0-55.816406-5.511718-81.75-16.386718-2.449219-1.027344-4.082031-3.382813-4.179688-6.039063-.101562-2.652344 1.34375-5.125 3.707032-6.335937.132812-.066407.640625-.300782.765625-.355469l20.511719-11.394531c13.949218-7.757813 31.570312-6.089844 43.824218 4.125l.929688.777343c9.394531 7.820313 23.003906 7.835938 32.367187.015625 12.960938-10.789062 31.269531-12.027344 45.554688-3.105468l12.300781 7.683593c1.53125.960938 3.34375 1.777344 5.550781 2.5 2.722657.890625 4.59375 3.382813 4.695313 6.246094.105468 2.859375-1.585938 5.480469-4.234375 6.5625-25.496094 10.421875-52.421875 15.707031-80.042969 15.707031zm-62.835938-23.839844c39.625 13.277344 83.683594 13.554688 123.613282.644532l-6.289063-3.925782c-9.285156-5.808593-21.164062-4.984374-29.566406 2.015626-14.441406 12.03125-35.398437 12.039062-49.839844 0l-.933593-.777344c-7.972657-6.644532-19.40625-7.734375-28.464844-2.691406zm0 0" fill="#602f75"/><path d="m34.960938 107.96875c-17.878907 30.40625-28.132813 65.835938-28.132813 103.65625 0 39.332031 11.105469 76.058594 30.324219 107.253906l15.019531-10.726562c11.160156-7.972656 26.152344-7.972656 37.308594 0l9.636719 6.882812c10.082031 7.203125 23.414062 7.957032 34.242187 1.9375l20.636719-11.460937c11.589844-6.4375 25.945312-5.085938 36.132812 3.398437l.949219.792969c11.902344 9.917969 29.191406 9.917969 41.09375 0 10.65625-8.875 25.804687-9.910156 37.558594-2.558594l12.300781 7.683594c11.507812 7.195313 26.300781 6.371094 36.941406-2.058594l2.34375-1.859375c11.050782-8.75 26.519532-9.269531 38.128906-1.277344l22.605469 15.5625c21.703125-32.507812 34.375-71.550781 34.375-113.570312 0-113.105469-91.691406-204.796875-204.800781-204.796875-53.964844 0-103.058594 20.871094-139.640625 54.984375" fill="#fff"/><path d="m382.050781 332.019531c-1.371093 0-2.726562-.414062-3.871093-1.203125l-22.609376-15.558594c-9.207031-6.335937-21.273437-5.929687-30.011718 1.003907l-2.347656 1.859375c-12.871094 10.203125-30.871094 11.207031-44.800782 2.5l-12.296875-7.6875c-9.289062-5.808594-21.167969-4.988282-29.574219 2.015625-14.425781 12.03125-35.394531 12.039062-49.832031 0l-.933593-.777344c-7.976563-6.644531-19.40625-7.726563-28.46875-2.691406l-20.632813 11.460937c-13.058594 7.261719-29.367187 6.339844-41.519531-2.351562l-9.640625-6.878906c-8.785157-6.277344-20.585938-6.277344-29.371094 0l-15.023437 10.726562c-1.539063 1.105469-3.445313 1.527344-5.316407 1.136719-1.855469-.375-3.46875-1.503907-4.460937-3.113281-20.5-33.28125-31.339844-71.609376-31.339844-110.835938 0-37.730469 10.054688-74.769531 29.074219-107.117188 1.910156-3.246093 6.089843-4.339843 9.347656-2.421874 3.25 1.910156 4.332031 6.09375 2.425781 9.34375-17.792968 30.25-27.195312 64.894531-27.195312 100.195312 0 34.246094 8.828125 67.753906 25.59375 97.375l8.960937-6.402344c13.519531-9.660156 31.707031-9.671875 45.238281.003906l9.640626 6.875c7.894531 5.640626 18.472656 6.242188 26.960937 1.53125l20.632813-11.464843c13.945312-7.765625 31.566406-6.082031 43.820312 4.125l.933594.777343c9.394531 7.820313 23 7.832032 32.367187.015626 12.960938-10.792969 31.265625-12.035157 45.550781-3.109376l12.300782 7.6875c9.035156 5.652344 20.722656 5 29.082031-1.617187l2.34375-1.863281c13.480469-10.679688 32.0625-11.296875 46.242187-1.546875l16.800782 11.566406c19.304687-31.222656 29.480468-67.011719 29.480468-103.953125 0-109.160156-88.816406-197.972656-197.976562-197.972656-50.292969 0-98.226562 18.878906-134.984375 53.15625-2.753906 2.574218-7.066406 2.414062-9.648437-.335938-2.574219-2.757812-2.417969-7.078125.339843-9.652344 39.289063-36.640624 90.535157-56.820312 144.292969-56.820312 116.695312 0 211.628906 94.9375 211.628906 211.625 0 41.96875-12.285156 82.550781-35.519531 117.359375-1.019531 1.519531-2.597656 2.570313-4.394531 2.914063-.425782.082031-.859375.121093-1.289063.121093zm0 0" fill="#602f75"/><path d="m321.316406 349.3125-2.34375 1.859375c-10.640625 8.425781-25.433594 9.25-36.941406 2.058594l-12.300781-7.6875c-11.753907-7.347657-26.902344-6.316407-37.558594 2.5625-11.902344 9.917969-29.191406 9.917969-41.09375 0l-.949219-.792969c-10.1875-8.488281-24.542968-9.839844-36.132812-3.402344l-20.636719 11.464844c-10.828125 6.015625-24.160156 5.261719-34.242187-1.941406l-9.636719-6.882813c-10.007813-7.148437-23.078125-7.832031-33.722657-2.152343 20.6875 24.265624 46.910157 43.660156 76.753907 56.171874.277343-.144531.574219-.242187.847656-.394531l20.636719-11.464843c11.589844-6.4375 25.945312-5.085938 36.132812 3.402343l.949219.789063c11.902344 9.921875 29.191406 9.921875 41.09375 0 10.65625-8.875 25.804687-9.910156 37.558594-2.558594l12.300781 7.683594c2.234375 1.398437 4.617188 2.402344 7.046875 3.199218 28.140625-11.507812 53.152344-29.074218 73.394531-51.109374l-3.027344-2.085938c-11.609374-7.992188-27.078124-7.472656-38.128906 1.28125zm0 0" fill="#fff"/><path d="m289.082031 408.054688c-.714843 0-1.433593-.113282-2.128906-.339844-3.257813-1.066406-6.054687-2.34375-8.539063-3.898438l-12.300781-7.683594c-9.285156-5.808593-21.164062-4.980468-29.566406 2.015626-14.441406 12.035156-35.398437 12.039062-49.839844 0l-.933593-.777344c-7.972657-6.644532-19.40625-7.730469-28.464844-2.6875l-20.636719 11.457031c-.191406.109375-.859375.433594-1.066406.523437-1.707031.734376-4.019531.917969-5.730469.207032-30.359375-12.730469-57.785156-32.800782-79.316406-58.042969-1.339844-1.574219-1.898438-3.667969-1.511719-5.703125.386719-2.027344 1.671875-3.777344 3.492187-4.75 13.148438-7.015625 28.820313-6.007812 40.90625 2.628906l9.640626 6.875c7.894531 5.640625 18.472656 6.238282 26.960937 1.527344l20.632813-11.460938c13.945312-7.765624 31.566406-6.082031 43.820312 4.125l.933594.777344c9.394531 7.824219 23 7.828125 32.367187.011719 12.960938-10.785156 31.265625-12.03125 45.550781-3.105469l12.300782 7.6875c9.035156 5.652344 20.722656 5 29.082031-1.621094l2.34375-1.859374c13.480469-10.683594 32.054687-11.300782 46.242187-1.550782l3.027344 2.085938c1.625 1.121094 2.683594 2.890625 2.910156 4.855468.222657 1.964844-.417968 3.933594-1.757812 5.382813-20.972656 22.839844-47.191406 41.097656-75.835938 52.8125-.824218.335937-1.703124.507813-2.582031.507813zm-36.367187-29.433594c7.125 0 14.277344 1.957031 20.636718 5.933594l12.300782 7.6875c.96875.605468 2.046875 1.15625 3.265625 1.660156 23.316406-9.910156 44.847656-24.46875 62.808593-42.433594-8.539062-3.917969-18.59375-2.804688-26.167968 3.195312l-2.34375 1.859376c-12.875 10.199218-30.875 11.203124-44.800782 2.5l-12.300781-7.6875c-9.285156-5.808594-21.164062-4.988282-29.566406 2.015624-14.441406 12.03125-35.398437 12.039063-49.839844 0l-.933593-.777343c-7.972657-6.648438-19.40625-7.730469-28.464844-2.691407l-20.636719 11.460938c-13.058594 7.261719-29.363281 6.339844-41.519531-2.351562l-9.636719-6.878907c-5.253906-3.75-11.535156-5.28125-17.707031-4.507812 18.238281 19.261719 40.28125 34.816406 64.390625 45.40625l18.480469-10.265625c13.945312-7.753906 31.566406-6.089844 43.820312 4.128906l.933594.777344c9.394531 7.816406 23 7.832031 32.367187.011718 7.191407-5.992187 16.027344-9.042968 24.914063-9.042968zm0 0" fill="#602f75"/><path d="m211.242188 142.8125 82.335937 82.335938-82.628906 82.628906-82.335938-82.335938zm0 0" fill="#ea3457"/><path d="m210.949219 314.609375c-1.8125 0-3.546875-.71875-4.828125-2l-82.332032-82.339844c-2.667968-2.664062-2.667968-6.988281 0-9.652343l82.625-82.628907c2.558594-2.5625 7.09375-2.5625 9.652344 0l82.339844 82.339844c1.28125 1.277344 2 3.015625 2 4.824219s-.71875 3.546875-2 4.828125l-82.632812 82.628906c-1.28125 1.28125-3.011719 2-4.824219 2zm-72.683594-89.164063 72.683594 72.683594 72.980469-72.976562-72.6875-72.6875zm0 0" fill="#602f75"/><path d="m210.949219 301.363281c-3.773438 0-6.828125-3.058593-6.828125-6.828125v-146.070312c0-3.769532 3.054687-6.824219 6.828125-6.824219 3.773437 0 6.824219 3.054687 6.824219 6.824219v146.070312c0 3.769532-3.054688 6.828125-6.824219 6.828125zm0 0" fill="#602f75"/><path d="m50.273438 225.152344 48.296874 93.335937 112.378907-93.335937zm0 0" fill="#fff"/><path d="m98.574219 325.316406c-.453125 0-.90625-.042968-1.359375-.136718-2.023438-.410157-3.753906-1.71875-4.703125-3.554688l-48.296875-93.335938c-1.101563-2.113281-1.015625-4.648437.226562-6.683593 1.238282-2.035157 3.449219-3.277344 5.832032-3.277344h160.675781c2.871093 0 5.445312 1.804687 6.417969 4.507813.980468 2.707031.15625 5.730468-2.058594 7.570312l-112.375 93.335938c-1.234375 1.023437-2.78125 1.574218-4.359375 1.574218zm-37.082031-93.335937 39.246093 75.835937 91.308594-75.835937zm0 0" fill="#602f75"/><path d="m98.570312 318.488281.355469.6875h224.046875l.355469-.6875-112.378906-93.335937zm0 0" fill="#fff"/><path d="m322.972656 326.003906h-224.046875c-2.558593 0-4.898437-1.429687-6.074219-3.703125l-.351562-.6875c-1.460938-2.84375-.753906-6.328125 1.714844-8.371093l112.371094-93.335938c2.523437-2.101562 6.203124-2.101562 8.71875 0l112.382812 93.335938c2.464844 2.042968 3.171875 5.527343 1.710938 8.371093l-.351563.6875c-1.175781 2.273438-3.515625 3.703125-6.074219 3.703125zm-206.324218-13.652344h188.597656l-94.296875-78.324218zm0 0" fill="#602f75"/><path d="m210.949219 225.152344 112.378906 93.335937 48.296875-93.335937zm0 0" fill="#fff"/><path d="m323.328125 325.316406c-1.582031 0-3.128906-.546875-4.363281-1.578125l-112.378906-93.335937c-2.214844-1.835938-3.039063-4.863282-2.0625-7.570313.972656-2.703125 3.546874-4.507812 6.421874-4.507812h160.679688c2.378906 0 4.59375 1.246093 5.832031 3.277343 1.242188 2.035157 1.328125 4.570313.226563 6.6875l-48.296875 93.335938c-.945313 1.835938-2.679688 3.144531-4.699219 3.554688-.453125.09375-.90625.136718-1.359375.136718zm-93.472656-93.335937 91.304687 75.839843 39.246094-75.839843zm0 0" fill="#602f75"/><path d="m359.445312 309.632812c-11.609374-7.992187-27.078124-7.472656-38.125 1.277344l-2.347656 1.859375c-10.640625 8.429688-25.429687 9.253907-36.941406 2.058594l-12.296875-7.683594c-11.757813-7.351562-26.90625-6.316406-37.558594 2.558594-11.902343 9.917969-29.195312 9.917969-41.09375 0l-.953125-.792969c-10.183594-8.488281-24.542968-9.839844-36.132812-3.398437l-20.632813 11.460937c-10.832031 6.019532-24.160156 5.265625-34.242187-1.9375l-9.636719-6.882812c-11.160156-7.972656-26.152344-7.972656-37.3125 0l-15.019531 10.726562c5.542968 8.996094 11.78125 17.511719 18.605468 25.515625 10.644532-5.675781 23.714844-4.992187 33.722657 2.15625l9.636719 6.882813c10.082031 7.203125 23.414062 7.957031 34.242187 1.9375l20.636719-11.460938c11.589844-6.4375 25.945312-5.085937 36.132812 3.398438l.949219.792968c11.902344 9.917969 29.191406 9.917969 41.09375 0 10.65625-8.875 25.804687-9.910156 37.558594-2.558593l12.300781 7.683593c11.507812 7.195313 26.300781 6.371094 36.941406-2.058593l2.34375-1.859375c11.050782-8.75 26.519532-9.269532 38.128906-1.277344l3.027344 2.082031c7.144532-7.777343 13.695313-16.109375 19.578125-24.921875zm0 0" fill="#00e7ff"/><path d="m117.800781 366.210938c-7.988281 0-15.949219-2.429688-22.648437-7.222657l-9.640625-6.878906c-7.839844-5.59375-18.007813-6.25-26.546875-1.6875-2.832032 1.507813-6.324219.847656-8.40625-1.597656-7.132813-8.371094-13.601563-17.242188-19.222656-26.363281-1.878907-3.054688-1.070313-7.050782 1.847656-9.136719l15.019531-10.726563c13.523437-9.660156 31.707031-9.671875 45.242187.003906l9.640626 6.875c7.890624 5.640626 18.472656 6.242188 26.957031 1.53125l20.636719-11.464843c13.945312-7.765625 31.566406-6.082031 43.820312 4.125l.933594.777343c9.390625 7.820313 23 7.832032 32.367187.015626 12.957031-10.792969 31.265625-12.035157 45.550781-3.109376l12.300782 7.6875c9.03125 5.652344 20.71875 5 29.078125-1.617187l2.347656-1.863281c13.480469-10.679688 32.058594-11.296875 46.242187-1.546875l22.605469 15.558593c3.074219 2.117188 3.878907 6.308594 1.808594 9.417969-6.0625 9.0625-12.867187 17.726563-20.234375 25.746094-2.308594 2.515625-6.09375 2.933594-8.898438 1.007813l-3.027343-2.085938c-9.207031-6.339844-21.273438-5.925781-30.015625 1.003906l-2.34375 1.859375c-12.875 10.203125-30.875 11.207031-44.800782 2.5l-12.300781-7.683593c-9.285156-5.8125-21.164062-4.988282-29.566406 2.011718-14.441406 12.035156-35.398437 12.042969-49.839844 0l-.933593-.777344c-7.972657-6.648437-19.40625-7.726562-28.464844-2.6875l-20.636719 11.460938c-5.859375 3.253906-12.371094 4.863281-18.871094 4.867188zm-46.867187-32.46875c7.914062 0 15.773437 2.441406 22.511718 7.257812l9.640626 6.875c7.890624 5.640625 18.472656 6.242188 26.957031 1.53125l20.636719-11.464844c13.945312-7.761718 31.566406-6.082031 43.820312 4.128906l.933594.773438c9.390625 7.824219 23 7.832031 32.367187.015625 12.957031-10.785156 31.265625-12.035156 45.550781-3.105469l12.300782 7.6875c9.03125 5.648438 20.71875 5 29.078125-1.621094l2.347656-1.859374c12.867187-10.191407 30.359375-11.222657 44.261719-2.828126 3.941406-4.554687 7.6875-9.300781 11.199218-14.199218l-16.96875-11.675782c-9.207031-6.335937-21.273437-5.929687-30.011718 1.003907l-2.347656 1.859375c-12.871094 10.203125-30.871094 11.207031-44.800782 2.5l-12.296875-7.6875c-9.289062-5.808594-21.167969-4.988282-29.566406 2.015625-14.441406 12.03125-35.402344 12.039062-49.839844 0l-.933593-.777344c-7.976563-6.644531-19.40625-7.726563-28.46875-2.691406l-20.632813 11.460937c-13.058594 7.261719-29.367187 6.339844-41.519531-2.351562l-9.640625-6.878906c-8.785157-6.277344-20.585938-6.277344-29.371094 0l-9.75 6.957031c3.496094 5.265625 7.277344 10.417969 11.320313 15.402343 4.296874-1.558593 8.769531-2.328124 13.222656-2.328124zm0 0" fill="#602f75"/><g fill="#ffe600"><path d="m333.226562 102.828125c0 21.207031-17.191406 38.398437-38.398437 38.398437-21.210937 0-38.402344-17.191406-38.402344-38.398437 0-21.210937 17.191407-38.402344 38.402344-38.402344 21.207031 0 38.398437 17.191407 38.398437 38.402344zm0 0"/><path d="m294.828125 148.054688c-24.941406 0-45.226563-20.292969-45.226563-45.226563 0-24.9375 20.285157-45.226563 45.226563-45.226563 24.9375 0 45.226563 20.289063 45.226563 45.226563 0 24.933594-20.289063 45.226563-45.226563 45.226563zm0-76.800782c-17.40625 0-31.574219 14.164063-31.574219 31.574219s14.167969 31.570313 31.574219 31.570313 31.570313-14.160157 31.570313-31.570313-14.164063-31.574219-31.570313-31.574219zm0 0"/></g></svg>