<svg height="430pt" viewBox="0 -10 430.08094 430" width="430pt" xmlns="http://www.w3.org/2000/svg"><path d="m27.308594 54.652344h368.636718l-40.957031 20.480468 20.476563 13.65625-20.476563 13.652344 68.265625 6.824219-88.746094 27.308594 54.613282 20.480469-54.613282 20.480468 68.265626 34.132813h-68.265626l40.957032 20.480469-20.476563 13.652343 47.785157 13.652344h-375.464844zm0 0" fill="#ea3457"/><path d="m402.773438 266.28125h-375.464844c-3.773438 0-6.828125-3.058594-6.828125-6.828125v-204.800781c0-3.769532 3.054687-6.824219 6.828125-6.824219h368.636718c3.167969 0 5.914063 2.175781 6.648438 5.253906.726562 3.085938-.757812 6.261719-3.59375 7.679688l-30.4375 15.21875 10.691406 7.125c1.898438 1.269531 3.039063 3.398437 3.039063 5.683593 0 2.28125-1.140625 4.410157-3.039063 5.679688l-4.613281 3.074219 49.292969 4.929687c3.234375.324219 5.792968 2.882813 6.113281 6.117188s-1.679687 6.246094-4.785156 7.203125l-69.613281 21.417969 35.871093 13.453124c2.660157.996094 4.425781 3.542969 4.425781 6.390626 0 2.847656-1.765624 5.390624-4.425781 6.390624l-39.960937 14.984376 54.269531 27.128906c2.832031 1.417968 4.316406 4.59375 3.589844 7.675781-.734375 3.082031-3.480469 5.257813-6.644531 5.257813h-39.347657l15.09375 7.546874c2.171875 1.089844 3.605469 3.253907 3.757813 5.683594.152344 2.425782-1 4.753906-3.023438 6.101563l-8.203125 5.464843 33.59375 9.597657c3.273438.933593 5.363281 4.140625 4.886719 7.511719-.46875 3.375-3.351562 5.882812-6.757812 5.882812zm-368.640626-13.652344h319.898438l-.917969-.265625c-2.558593-.730469-4.460937-2.878906-4.875-5.511719-.402343-2.628906.75-5.253906 2.960938-6.730468l10.695312-7.128906-30.441406-15.21875c-2.832031-1.417969-4.320313-4.59375-3.59375-7.675782.734375-3.082031 3.480469-5.257812 6.648437-5.257812h39.347657l-42.398438-21.199219c-2.429687-1.214844-3.910156-3.753906-3.769531-6.464844.148438-2.710937 1.882812-5.082031 4.421875-6.035156l37.570313-14.085937-37.574219-14.085938c-2.734375-1.027344-4.515625-3.679688-4.425781-6.601562.09375-2.921876 2.027343-5.460938 4.816406-6.316407l56.410156-17.355469-34.601562-3.460937c-2.867188-.285156-5.246094-2.347656-5.945313-5.144531-.691406-2.796875.441406-5.726563 2.839844-7.328125l11.960937-7.972657-11.960937-7.976562c-2.027344-1.347656-3.179688-3.675781-3.027344-6.101562.15625-2.429688 1.589844-4.59375 3.761719-5.683594l15.09375-7.546875h-332.894532zm0 0" fill="#ea3457"/><path d="m27.308594 409.640625c-3.773438 0-6.828125-3.058594-6.828125-6.828125v-368.640625c0-3.769531 3.054687-6.824219 6.828125-6.824219 3.773437 0 6.824218 3.054688 6.824218 6.824219v368.640625c0 3.769531-3.050781 6.828125-6.824218 6.828125zm0 0" fill="#602f75"/><path d="m235.753906 131.375 1.789063-11.625c1.550781-10.089844-2.519531-20.277344-10.734375-26.347656-7.398438-5.464844-19.578125-11.441406-35.660156-11.441406-16.085938 0-26.1875 5.976562-33.589844 11.441406-8.210938 6.070312-12.285156 16.257812-10.730469 26.347656l1.785156 11.625c.558594 3.625-.023437 7.332031-1.660156 10.609375l-2.460937 4.917969c-1.117188 2.238281-1.195313 4.855468-.207032 7.15625l2.699219 6.304687c1.480469 3.445313 5.035156 5.519531 8.765625 5.105469l13.953125-1.550781v11.238281l11.375 3.414062c7.242187 2.171876 14.964844 2.171876 22.210937 0l11.375-3.414062v-11.238281l13.953126 1.550781c3.726562.414062 7.289062-1.660156 8.765624-5.105469l2.699219-6.304687c.988281-2.300782.910157-4.917969-.207031-7.15625l-2.460938-4.917969c-1.636718-3.277344-2.21875-6.984375-1.660156-10.609375zm0 0" fill="#ffe600"/><path d="m192.1875 187.035156c-4.402344 0-8.792969-.640625-13.066406-1.921875l-11.375-3.414062c-2.886719-.867188-4.867188-3.527344-4.867188-6.539063v-3.613281l-6.378906.707031c-6.8125.777344-13.113281-2.945312-15.792969-9.207031l-2.699219-6.296875c-1.78125-4.15625-1.640624-8.859375.378907-12.902344l2.460937-4.917968c1.011719-2.023438 1.367188-4.277344 1.019532-6.511719l-1.789063-11.628907c-1.957031-12.714843 3.1875-25.316406 13.429687-32.875 8.050782-5.949218 19.605469-12.78125 37.640626-12.78125 19.503906 0 33.25 8.007813 39.710937 12.78125 10.242187 7.558594 15.390625 20.160157 13.429687 32.875l-1.789062 11.621094v.007813c-.347656 2.230469.015625 4.484375 1.027344 6.511719l2.453125 4.925781c2.023437 4.039062 2.160156 8.742187.382812 12.894531l-2.699219 6.300781c-2.6875 6.269531-9.054687 9.964844-15.800781 9.203125l-6.367187-.707031v3.613281c0 3.015625-1.980469 5.675782-4.867188 6.542969l-11.378906 3.410156c-4.277344 1.28125-8.667969 1.921875-13.0625 1.921875zm-15.65625-16.953125 6.507812 1.953125c5.972657 1.792969 12.289063 1.800782 18.289063 0l6.511719-1.953125v-6.160156c0-1.945313.824218-3.789063 2.273437-5.085937 1.453125-1.296876 3.398438-1.925782 5.304688-1.695313l13.953125 1.546875c.753906.082031 1.457031-.335938 1.742187-1.015625l2.699219-6.296875c.195312-.457031.179688-.972656-.046875-1.417969l-2.453125-4.925781c-2.285156-4.570312-3.085938-9.652344-2.308594-14.691406l1.789063-11.625c1.179687-7.6875-1.898438-15.28125-8.039063-19.820313-5.113281-3.773437-16.011718-10.105469-31.605468-10.105469-13.96875 0-22.769532 5.109376-29.535157 10.105469-6.140625 4.539063-9.21875 12.132813-8.039062 19.816407l1.785156 11.625c.78125 5.042968-.011719 10.128906-2.300781 14.699218l-2.457032 4.917969c-.230468.445313-.242187.960937-.046874 1.414063l2.707031 6.300781c.292969.683593.984375 1.082031 1.726562 1.015625l13.964844-1.546875c1.941406-.230469 3.855469.398437 5.308594 1.695312 1.445312 1.296875 2.273437 3.144531 2.273437 5.085938v6.164062zm59.222656-38.707031h.066406zm0 0" fill="#602f75"/><path d="m196.679688 158.617188c-1.605469 0-3.214844-.5625-4.492188-1.691407-2.679688 2.355469-6.769531 2.253907-9.328125-.308593-2.667969-2.667969-2.667969-6.992188 0-9.65625l4.5-4.496094c1.28125-1.277344 3.019531-2 4.828125-2 1.8125 0 3.546875.722656 4.824219 2.003906l4.496093 4.496094c2.664063 2.664062 2.664063 6.988281 0 9.65625-1.335937 1.328125-3.082031 1.996094-4.828124 1.996094zm0 0" fill="#602f75"/><path d="m47.785156 27.347656c0 11.308594-9.167968 20.480469-20.476562 20.480469-11.3125 0-20.480469-9.171875-20.480469-20.480469 0-11.3125 9.167969-20.480468 20.480469-20.480468 11.308594 0 20.476562 9.167968 20.476562 20.480468zm0 0" fill="#00e7ff"/><path d="m27.308594 54.652344c-15.0625 0-27.308594-12.25-27.308594-27.304688 0-15.058594 12.246094-27.3085935 27.308594-27.3085935 15.058594 0 27.304687 12.2499995 27.304687 27.3085935 0 15.054688-12.246093 27.304688-27.304687 27.304688zm0-40.957032c-7.527344 0-13.65625 6.121094-13.65625 13.652344 0 7.527344 6.128906 13.652344 13.65625 13.652344 7.523437 0 13.652344-6.125 13.652344-13.652344 0-7.53125-6.128907-13.652344-13.652344-13.652344zm0 0" fill="#602f75"/><path d="m129.707031 184.359375 122.878907 47.789063" fill="#fff"/><path d="m252.585938 238.976562c-.824219 0-1.660157-.148437-2.472657-.464843l-122.878906-47.785157c-3.515625-1.367187-5.253906-5.324218-3.886719-8.839843 1.359375-3.519531 5.332032-5.25 8.832032-3.890625l122.882812 47.789062c3.511719 1.367188 5.253906 5.324219 3.886719 8.835938-1.050781 2.699218-3.628907 4.355468-6.363281 4.355468zm0 0" fill="#602f75"/><path d="m129.707031 232.148438 122.878907-47.789063" fill="#fff"/><path d="m129.707031 238.976562c-2.734375 0-5.3125-1.652343-6.359375-4.355468-1.367187-3.515625.371094-7.472656 3.882813-8.839844l122.882812-47.785156c3.5-1.351563 7.464844.371094 8.832031 3.890625 1.367188 3.511719-.375 7.46875-3.886718 8.835937l-122.878906 47.785156c-.8125.320313-1.648438.46875-2.472657.46875zm0 0" fill="#602f75"/></svg>