<svg height="401pt" viewBox="0 -16 401.81518 401" width="401pt" xmlns="http://www.w3.org/2000/svg"><path d="m326.488281 362.1875c-5.652343 0-10.238281-4.582031-10.238281-10.238281v-163.839844c0-5.65625 4.585938-10.242187 10.238281-10.242187 5.65625 0 10.242188 4.585937 10.242188 10.242187v163.839844c0 5.65625-4.585938 10.238281-10.242188 10.238281zm0 0" fill="#ffe600"/><path d="m326.488281 369.015625c-9.414062 0-17.066406-7.65625-17.066406-17.066406v-163.839844c0-9.410156 7.652344-17.066406 17.066406-17.066406 9.414063 0 17.066407 7.65625 17.066407 17.066406v163.839844c0 9.410156-7.652344 17.066406-17.066407 17.066406zm0-184.320313c-1.878906 0-3.410156 1.53125-3.410156 3.414063v163.839844c0 1.882812 1.53125 3.414062 3.410156 3.414062 1.882813 0 3.414063-1.53125 3.414063-3.414062v-163.839844c0-1.882813-1.535156-3.414063-3.414063-3.414063zm0 0" fill="#ffe600"/><path d="m79.597656 232.988281c-1.75 6.027344-.535156 12.507813 3.285156 17.523438l8.960938 11.769531c2.640625 3.46875 4.066406 7.683594 4.066406 12.019531v4.625c0 11.0625 9.105469 20.03125 20.339844 20.03125 8.753906 0 16.527344 5.519531 19.292969 13.699219l14.457031 42.707031h101.8125l14.453125-42.707031c2.769531-8.179688 10.542969-13.699219 19.296875-13.699219 11.234375 0 20.339844-8.96875 20.339844-20.03125v-4.625c0-4.335937 1.425781-8.554687 4.066406-12.019531l8.960938-11.769531c3.816406-5.011719 5.03125-11.496094 3.285156-17.523438l-29.042969-100.109375-92.265625 25.066406-92.265625-25.066406-9.894531 34.105469" fill="#fff"/><path d="m251.816406 362.1875h-101.8125c-2.925781 0-5.527344-1.867188-6.46875-4.636719l-14.457031-42.703125c-1.835937-5.421875-6.988281-9.0625-12.828125-9.0625-14.980469 0-27.167969-12.050781-27.167969-26.859375v-4.625c0-2.820312-.945312-5.621093-2.671875-7.886719l-8.960937-11.765624c-5.09375-6.695313-6.746094-15.5-4.414063-23.558594 1.054688-3.621094 4.828125-5.710938 8.460938-4.660156 3.621094 1.050781 5.707031 4.835937 4.660156 8.457031-1.140625 3.925781-.332031 8.21875 2.152344 11.484375l8.96875 11.769531c3.519531 4.628906 5.457031 10.367187 5.457031 16.15625v4.628906c0 7.28125 6.0625 13.203125 13.515625 13.203125 11.699219 0 22.050781 7.371094 25.757812 18.335938l12.890626 38.070312h92.019531l12.886719-38.070312c3.707031-10.964844 14.058593-18.335938 25.757812-18.335938 7.453125 0 13.515625-5.921875 13.515625-13.203125v-4.628906c0-5.789063 1.941406-11.527344 5.457031-16.152344l8.960938-11.769531c2.496094-3.265625 3.300781-7.5625 2.160156-11.484375l-27.164062-93.664063-85.796876 23.304688c-1.160156.320312-2.410156.320312-3.570312 0l-85.804688-23.304688-8.023437 27.660157c-1.039063 3.617187-4.8125 5.707031-8.453125 4.65625-3.621094-1.050781-5.707031-4.835938-4.65625-8.460938l9.894531-34.105469c1.03125-3.578124 4.792969-5.667968 8.339844-4.683593l90.488281 24.578125 90.480469-24.578125c3.558594-.980469 7.3125 1.105469 8.339844 4.683593l29.042969 100.109376c2.339843 8.0625.683593 16.871093-4.414063 23.5625l-8.953125 11.769531c-1.726562 2.261719-2.671875 5.0625-2.671875 7.882812v4.625c0 14.8125-12.1875 26.859375-27.167969 26.859375-5.839844 0-10.992187 3.640625-12.828125 9.058594l-14.453125 42.710938c-.941406 2.765624-3.542968 4.632812-6.46875 4.632812zm0 0" fill="#602f75"/><path d="m318.628906 104.242188c-20.921875-124.886719-200.980468-129.328126-232.648437-12.644532l35.386719 41.28125-43.824219-9.894531c-19.019531 41.800781-70.71875 41.710937-70.71875 41.710937l12.730469 47.726563c120.898437-30.09375 241.804687-30.09375 362.707031 0l12.726562-47.726563s-66.207031.152344-76.359375-60.453124zm0 0" fill="#00e7ff"/><path d="m19.550781 219.246094c-3.023437 0-5.773437-2.019532-6.585937-5.066406l-12.734375-47.726563c-.546875-2.042969-.105469-4.230469 1.179687-5.910156 1.292969-1.679688 3.292969-2.671875 5.414063-2.675781.472656 0 47.585937-.527344 64.503906-37.710938 1.339844-2.941406 4.507813-4.550781 7.722656-3.835938l23.722657 5.363282-21.976563-25.644532c-1.464844-1.714843-1.992187-4.050781-1.398437-6.230468 17.683593-65.171875 77.253906-91.679688 128.34375-89.25 46.722656 2.316406 105.554687 30.5625 117.621093 102.558594 3.800781 22.675781 16.554688 38.757812 37.914063 47.792968 16.300781 6.894532 31.453125 6.960938 31.691406 6.960938h.007812.015626c2.117187 0 4.109374.980468 5.40625 2.660156 1.300781 1.683594 1.734374 3.875 1.183593 5.925781l-12.726562 47.726563c-.957031 3.589844-4.640625 5.773437-8.238281 4.863281-119.261719-29.683594-240.179688-29.683594-359.414063 0-.554687.136719-1.109375.199219-1.652344.199219zm-4-48.328125 8.878907 33.28125c117.140624-28.097657 235.804687-28.101563 352.957031 0l8.902343-33.367188c-19.527343-2.472656-65.734374-13.777343-74.394531-65.460937-10.71875-63.996094-63.175781-89.113282-104.828125-91.175782-44.917968-2.214843-96.671875 20.402344-113.503906 75.75l32.984375 38.492188c1.914063 2.238281 2.179687 5.445312.660156 7.964844-1.519531 2.527344-4.441406 3.796875-7.351562 3.136718l-38.609375-8.71875c-16.871094 30.683594-49.902344 38.238282-65.695313 40.097657zm0 0" fill="#602f75"/><path d="m227.503906 75.46875-47.789062 47.785156" fill="#fff"/><path d="m179.714844 130.082031c-1.746094 0-3.492188-.667969-4.824219-2-2.667969-2.664062-2.667969-6.988281 0-9.652343l47.785156-47.789063c2.667969-2.664063 6.988281-2.664063 9.652344 0 2.667969 2.667969 2.667969 6.988281 0 9.65625l-47.785156 47.785156c-1.332031 1.332031-3.082031 2-4.828125 2zm0 0" fill="#ea3457"/><path d="m227.503906 123.253906-47.789062-47.785156" fill="#fff"/><path d="m227.503906 130.082031c-1.746094 0-3.496094-.667969-4.828125-2l-47.785156-47.785156c-2.667969-2.667969-2.667969-6.988281 0-9.65625 2.664063-2.664063 6.988281-2.664063 9.652344 0l47.785156 47.789063c2.667969 2.664062 2.667969 6.988281 0 9.652343-1.332031 1.332031-3.078125 2-4.824219 2zm0 0" fill="#ea3457"/><path d="m179.714844 293.921875 20.480468-20.480469 20.480469 20.480469" fill="#fff"/><path d="m220.675781 300.75c-1.746093 0-3.492187-.667969-4.824219-2l-15.65625-15.65625-15.652343 15.65625c-2.664063 2.664062-6.988281 2.664062-9.652344 0-2.667969-2.667969-2.667969-6.988281 0-9.652344l20.480469-20.480468c2.664062-2.667969 6.984375-2.667969 9.652344 0l20.480468 20.480468c2.664063 2.664063 2.664063 6.984375 0 9.652344-1.332031 1.332031-3.082031 2-4.828125 2zm0 0" fill="#602f75"/><path d="m254.261719 219.816406c-14.355469-4.625-28.800781.351563-32.273438 11.117188-3.46875 10.765625 5.355469 23.242187 19.710938 27.867187s28.804687-.351562 32.273437-11.117187-5.355468-23.242188-19.710937-27.867188zm0 0" fill="#ea3457"/><path d="m252.308594 267.328125c-4.125 0-8.425782-.648437-12.699219-2.027344-17.914063-5.773437-28.734375-22.132812-24.121094-36.460937 4.621094-14.328125 22.960938-21.304688 40.867188-15.519532 17.914062 5.773438 28.734375 22.128907 24.121093 36.460938-3.527343 10.910156-14.992187 17.546875-28.167968 17.546875zm-8.8125-42.40625c-7.253906 0-13.367188 3.015625-15.007813 8.105469-2.273437 7.042968 4.742188 15.871094 15.308594 19.277344 10.5625 3.386718 21.40625.324218 23.679687-6.714844 2.265626-7.046875-4.738281-15.871094-15.308593-19.277344-2.933594-.945312-5.882813-1.390625-8.671875-1.390625zm30.480468 22.761719h.066407zm0 0" fill="#602f75"/><path d="m178.398438 230.933594c-3.46875-10.765625-17.917969-15.746094-32.273438-11.117188-14.351562 4.625-23.175781 17.101563-19.707031 27.867188s17.917969 15.742187 32.269531 11.117187c14.355469-4.625 23.179688-17.101562 19.710938-27.867187zm0 0" fill="#ea3457"/><g fill="#602f75"><path d="m148.082031 267.328125c-13.179687 0-24.640625-6.636719-28.164062-17.546875-4.613281-14.332031 6.207031-30.6875 24.117187-36.460938 17.914063-5.792968 36.234375 1.1875 40.867188 15.515626 4.613281 14.332031-6.207032 30.691406-24.121094 36.464843-4.273438 1.378907-8.570312 2.027344-12.699219 2.027344zm-15.164062-21.734375c2.273437 7.042969 13.113281 10.113281 23.679687 6.714844 10.566406-3.40625 17.578125-12.238282 15.304688-19.28125-2.265625-7.039063-13.105469-10.109375-23.679688-6.714844-10.566406 3.40625-17.574218 12.234375-15.304687 19.28125zm0 0"/><path d="m172.890625 355.363281c-3.773437 0-6.828125-3.058593-6.828125-6.828125v-20.480468c0-3.769532 3.054688-6.824219 6.828125-6.824219s6.824219 3.054687 6.824219 6.824219v20.480468c0 3.769532-3.050782 6.828125-6.824219 6.828125zm0 0"/><path d="m227.503906 355.363281c-3.773437 0-6.828125-3.058593-6.828125-6.828125v-20.480468c0-3.769532 3.054688-6.824219 6.828125-6.824219 3.773438 0 6.824219 3.054687 6.824219 6.824219v20.480468c0 3.769532-3.050781 6.828125-6.824219 6.828125zm0 0"/><path d="m200.195312 355.363281c-3.773437 0-6.824218-3.058593-6.824218-6.828125v-20.480468c0-3.769532 3.050781-6.824219 6.824218-6.824219 3.773438 0 6.828126 3.054687 6.828126 6.824219v20.480468c0 3.769532-3.054688 6.828125-6.828126 6.828125zm0 0"/></g></svg>