<svg height="403pt" viewBox="0 0 403.5381 403" width="403pt" xmlns="http://www.w3.org/2000/svg"><path d="m243.109375 7.097656-20.339844 71.246094h40.679688zm0 0" fill="#fff"/><path d="m263.449219 85.167969h-40.679688c-2.140625 0-4.164062-1.007813-5.449219-2.714844-1.292968-1.707031-1.707031-3.925781-1.117187-5.984375l20.339844-71.246094c.839843-2.933594 3.519531-4.953125 6.566406-4.953125s5.726563 2.019531 6.566406 4.953125l20.339844 71.246094c.589844 2.058594.175781 4.277344-1.117187 5.984375-1.289063 1.707031-3.308594 2.714844-5.449219 2.714844zm-31.632813-13.652344h22.585938l-11.292969-39.554687zm0 0" fill="#602f75"/><path d="m243.109375 7.097656-20.339844 71.246094h40.679688zm0 0" fill="#00e7ff"/><path d="m263.449219 85.167969h-40.679688c-2.140625 0-4.164062-1.007813-5.449219-2.714844-1.292968-1.707031-1.707031-3.925781-1.117187-5.984375l20.339844-71.246094c.839843-2.933594 3.519531-4.953125 6.566406-4.953125s5.726563 2.019531 6.566406 4.953125l20.339844 71.246094c.589844 2.058594.175781 4.277344-1.117187 5.984375-1.289063 1.707031-3.308594 2.714844-5.449219 2.714844zm-31.632813-13.652344h22.585938l-11.292969-39.554687zm0 0" fill="#602f75"/><path d="m243.109375 395.636719 20.339844-71.246094h-40.679688zm0 0" fill="#00e7ff"/><path d="m243.109375 402.464844c-3.046875 0-5.726563-2.019532-6.570313-4.953125l-20.339843-71.246094c-.585938-2.058594-.171875-4.277344 1.121093-5.984375 1.285157-1.707031 3.308594-2.714844 5.445313-2.714844h40.679687c2.140626 0 4.160157 1.007813 5.445313 2.714844 1.296875 1.707031 1.707031 3.925781 1.121094 5.984375l-20.339844 71.246094c-.835937 2.933593-3.519531 4.953125-6.5625 4.953125zm-11.292969-71.246094 11.292969 39.554688 11.292969-39.554688zm0 0" fill="#602f75"/><path d="m326.652344 376.753906-49-55.570312 36.726562-17.496094zm0 0" fill="#00e7ff"/><path d="m326.652344 383.582031c-1.910156 0-3.792969-.804687-5.117188-2.3125l-49-55.570312c-1.421875-1.605469-2-3.785157-1.566406-5.878907.425781-2.101562 1.816406-3.878906 3.75-4.800781l36.722656-17.492187c1.925782-.921875 4.1875-.882813 6.085938.105468 1.898437.992188 3.226562 2.8125 3.582031 4.929688l12.277344 73.0625c.507812 3.003906-1.046875 5.984375-3.800781 7.292969-.9375.449219-1.9375.664062-2.933594.664062zm-37.890625-60.125 27.199219 30.84375-6.820313-40.558593zm0 0" fill="#602f75"/><path d="m159.5625 25.980469 49 55.570312-36.726562 17.496094zm0 0" fill="#00e7ff"/><path d="m171.839844 105.871094c-1.078125 0-2.167969-.253906-3.152344-.769532-1.898438-.988281-3.226562-2.8125-3.582031-4.925781l-12.277344-73.066406c-.507813-3.003906 1.046875-5.984375 3.800781-7.292969 2.746094-1.308594 6.039063-.636718 8.050782 1.652344l49 55.570312c1.421874 1.605469 2.003906 3.785157 1.570312 5.878907-.429688 2.101562-1.820312 3.878906-3.753906 4.800781l-36.722656 17.492188c-.925782.441406-1.933594.660156-2.933594.660156zm-1.585938-57.4375 6.820313 40.558594 20.378906-9.710938zm0 0" fill="#602f75"/><path d="m391.328125 334.589844-37.90625-63.660156-27.894531 29.609374zm0 0" fill="#00e7ff"/><path d="m391.328125 341.417969c-1.066406 0-2.148437-.246094-3.140625-.761719l-65.800781-34.050781c-1.898438-.984375-3.226563-2.804688-3.585938-4.917969-.359375-2.109375.285157-4.269531 1.757813-5.828125l27.894531-29.609375c1.464844-1.558594 3.546875-2.347656 5.714844-2.105469 2.125.234375 4.019531 1.453125 5.121093 3.292969l37.90625 63.664062c1.558594 2.621094 1.191407 5.957032-.902343 8.171876-1.320313 1.40625-3.132813 2.144531-4.964844 2.144531zm-54.625-42.78125 36.523437 18.902343-21.039062-35.34375zm0 0" fill="#602f75"/><path d="m101.714844 68.144531 37.902344 63.660157 27.898437-29.609376zm0 0" fill="#00e7ff"/><path d="m139.621094 138.632812c-.246094 0-.492188-.015624-.746094-.039062-2.128906-.234375-4.019531-1.457031-5.121094-3.296875l-37.90625-63.660156c-1.558594-2.621094-1.191406-5.957031.898438-8.175781 2.089844-2.222657 5.40625-2.78125 8.109375-1.382813l65.800781 34.050781c1.898438.984375 3.226562 2.804688 3.585938 4.917969.359374 2.109375-.285157 4.269531-1.757813 5.828125l-27.894531 29.609375c-1.292969 1.378906-3.09375 2.148437-4.96875 2.148437zm-19.804688-53.4375 21.039063 35.34375 15.484375-16.441406zm0 0" fill="#602f75"/><path d="m391.328125 61.316406-37.90625 63.660156-27.894531-29.605468zm0 0" fill="#00e7ff"/><path d="m353.421875 131.804688c-1.875 0-3.671875-.769532-4.964844-2.144532l-27.894531-29.613281c-1.472656-1.554687-2.121094-3.714844-1.761719-5.824219.359375-2.113281 1.6875-3.933594 3.589844-4.917968l65.800781-34.054688c2.707032-1.394531 6.019532-.835938 8.105469 1.386719 2.09375 2.214843 2.457031 5.550781.898437 8.171875l-37.90625 63.664062c-1.101562 1.839844-2.992187 3.058594-5.121093 3.292969-.253907.027344-.5.039063-.746094.039063zm-16.71875-34.53125 15.484375 16.4375 21.039062-35.339844zm0 0" fill="#602f75"/><path d="m101.714844 334.589844 37.902344-63.660156 27.898437 29.609374zm0 0" fill="#00e7ff"/><path d="m101.714844 341.417969c-1.832032 0-3.648438-.738281-4.96875-2.144531-2.09375-2.21875-2.457032-5.554688-.898438-8.175782l37.90625-63.660156c1.101563-1.839844 2.996094-3.0625 5.121094-3.296875 2.1875-.234375 4.246094.546875 5.714844 2.105469l27.894531 29.613281c1.472656 1.554687 2.117187 3.714844 1.757813 5.824219-.359376 2.113281-1.6875 3.933594-3.585938 4.917968l-65.800781 34.054688c-.996094.511719-2.074219.761719-3.140625.761719zm39.140625-59.222657-21.039063 35.34375 36.523438-18.902343zm0 0" fill="#602f75"/><path d="m164.628906 379.082031 47.386719-56.957031-37.210937-16.433594zm0 0" fill="#00e7ff"/><path d="m164.628906 385.90625c-.933594 0-1.867187-.191406-2.761718-.585938-2.785157-1.230468-4.417969-4.160156-4-7.179687l10.175781-73.386719c.292969-2.125 1.566406-3.984375 3.433593-5.027344 1.878907-1.046874 4.125-1.152343 6.085938-.28125l37.214844 16.433594c1.957031.863282 3.398437 2.601563 3.882812 4.683594.488282 2.085938-.027344 4.28125-1.398437 5.925781l-47.386719 56.957031c-1.328125 1.597657-3.265625 2.460938-5.246094 2.460938zm15.691406-70.316406-5.644531 40.742187 26.304688-31.617187zm0 0" fill="#602f75"/><path d="m321.585938 16.828125-47.386719 56.957031 37.210937 16.433594zm0 0" fill="#00e7ff"/><path d="m311.414062 97.046875c-.9375 0-1.878906-.195313-2.757812-.585937l-37.214844-16.433594c-1.957031-.863282-3.398437-2.597656-3.886718-4.683594-.484376-2.085938.027343-4.277344 1.402343-5.925781l47.386719-56.957031c1.953125-2.347657 5.21875-3.101563 8.003906-1.875 2.789063 1.230468 4.421875 4.160156 4 7.179687l-10.171875 73.386719c-.292969 2.125-1.566406 3.984375-3.433593 5.027344-1.035157.574218-2.179688.867187-3.328126.867187zm-26.179687-25.851563 20.660156 9.125 5.648438-40.746093zm0 0" fill="#602f75"/><path d="m115.394531 201.222656h-65.140625s-43.425781-15.511718-43.425781-68.242187h49.628906s10.027344.714843 22.164063 8.683593" fill="#ffe600"/><path d="m115.394531 208.050781h-65.140625c-.78125 0-1.558594-.136719-2.292968-.398437-.480469-.171875-47.960938-17.785156-47.960938-74.671875 0-3.769531 3.054688-6.828125 6.828125-6.828125h49.632813c.964843.054687 12.433593.964844 25.90625 9.808594 3.152343 2.070312 4.027343 6.296874 1.960937 9.453124-2.074219 3.15625-6.300781 4.027344-9.453125 1.957032-10.316406-6.773438-18.867188-7.578125-18.953125-7.585938l-41.992187.015625c3.132812 37.953125 31.925781 52.144531 37.640624 54.59375h63.824219c3.773438 0 6.828125 3.058594 6.828125 6.828125 0 3.769532-3.054687 6.828125-6.828125 6.828125zm0 0" fill="#602f75"/><path d="m6.828125 269.464844h49.628906s43.429688-3.101563 58.9375-68.242188h-65.140625s-43.425781 15.507813-43.425781 68.242188zm0 0" fill="#00e7ff"/><path d="m6.828125 276.292969c-3.773437 0-6.828125-3.058594-6.828125-6.828125 0-56.886719 47.480469-74.5 47.960938-74.671875.734374-.265625 1.515624-.398438 2.296874-.398438h65.136719c2.085938 0 4.058594.957031 5.359375 2.597657 1.296875 1.636718 1.769532 3.78125 1.28125 5.808593-16.472656 69.21875-63.105468 73.332031-65.085937 73.472657zm7.101563-13.65625h42.53125c.988281-.109375 34.632812-3.621094 50.027343-54.585938h-54.933593c-5.882813 2.46875-34.527344 16.425781-37.625 54.585938zm0 0" fill="#602f75"/><path d="m288.484375 196.714844c0-43.214844 23.570313-81.089844 58.929687-102.261719-26.007812-22.335937-60.210937-35.921875-97.703124-35.921875-81.378907 0-147.34375 63.886719-147.34375 142.691406 0 78.804688 65.964843 142.691406 147.34375 142.691406 40.515624 0 77.203124-15.84375 103.839843-41.472656-38.75-20.328125-65.066406-60.050781-65.066406-105.726562zm0 0" fill="#fff"/><path d="m249.707031 350.738281c-85.007812 0-154.167969-67.074219-154.167969-149.515625s69.160157-149.515625 154.167969-149.515625c37.667969 0 73.945313 13.34375 102.152344 37.570313 1.667969 1.429687 2.539063 3.574218 2.355469 5.757812-.1875 2.1875-1.414063 4.152344-3.296875 5.277344-34.816407 20.851562-55.613281 56.886719-55.613281 96.402344 0 41.617187 23.535156 79.808594 61.421874 99.679687 1.941407 1.019531 3.273438 2.90625 3.585938 5.082031.308594 2.171876-.445312 4.359376-2.027344 5.882813-29.078125 27.972656-67.636718 43.378906-108.578125 43.378906zm0-285.378906c-77.480469 0-140.511719 60.945313-140.511719 135.863281 0 74.914063 63.03125 135.863282 140.511719 135.863282 34.265625 0 66.6875-11.796876 92.28125-33.402344-37.449219-23.261719-60.335937-63.429688-60.335937-106.96875 0-41.1875 20.0625-78.976563 54.132812-102.851563-24.570312-18.441406-54.792968-28.503906-86.078125-28.503906zm0 0" fill="#602f75"/><path d="m321.613281 201.222656c0 41.472656-33.621093 75.09375-75.09375 75.09375-41.472656 0-75.089843-33.621094-75.089843-75.09375s33.617187-75.09375 75.089843-75.09375c41.472657 0 75.09375 33.621094 75.09375 75.09375zm0 0" fill="#ea3457"/><path d="m246.519531 283.140625c-45.171875 0-81.917969-36.75-81.917969-81.917969 0-45.171875 36.746094-81.921875 81.917969-81.921875 45.175781 0 81.921875 36.75 81.921875 81.921875 0 45.167969-36.746094 81.917969-81.921875 81.917969zm0-150.183594c-37.640625 0-68.265625 30.621094-68.265625 68.265625 0 37.644532 30.625 68.265625 68.265625 68.265625s68.269531-30.621093 68.269531-68.265625c0-37.644531-30.628906-68.265625-68.269531-68.265625zm0 0" fill="#ea3457"/><path d="m372.238281 210.527344c1.929688-11.582032 14.671875-19.558594 24.023438-23.933594-3.851563-36.566406-21.949219-69.039062-48.847657-92.140625-35.359374 21.171875-58.929687 59.046875-58.929687 102.261719 0 45.675781 26.316406 85.398437 65.066406 105.726562 24.738281-23.804687 40.769531-56.058594 43.15625-91.914062zm0 0" fill="#ffe600"/><path d="m353.554688 309.265625c-1.082032 0-2.167969-.253906-3.171876-.78125-42.394531-22.234375-68.726562-65.0625-68.726562-111.769531 0-44.359375 23.273438-84.777344 62.253906-108.117188 2.523438-1.507812 5.722656-1.238281 7.953125.675782 29.078125 24.972656 47.253907 59.277343 51.183594 96.601562.308594 2.898438-1.25 5.664062-3.890625 6.902344-4.65625 2.179687-11.546875 5.960937-15.988281 10.925781h13.542969c1.882812 0 3.691406.78125 4.984374 2.164063 1.289063 1.378906 1.957032 3.230468 1.828126 5.117187-2.429688 36.410156-18.488282 70.636719-45.234376 96.375-1.300781 1.253906-3.007812 1.90625-4.734374 1.90625zm-6.855469-206.308594c-32.273438 21.171875-51.390625 55.867188-51.390625 93.757813 0 39.992187 21.730468 76.824218 57.054687 97.273437 20.445313-21.148437 33.324219-47.972656 36.84375-76.632812h-16.964843c-2.007813 0-3.914063-.882813-5.207032-2.410157-1.300781-1.53125-1.859375-3.554687-1.527344-5.535156 2.074219-12.472656 13.054688-21.1875 23.386719-26.757812-4.300781-30.425782-19.121093-58.414063-42.195312-79.695313zm0 0" fill="#602f75"/><path d="m355.871094 179.507812c0 11.175782-9.058594 20.234376-20.234375 20.234376s-20.234375-9.058594-20.234375-20.234376c0-11.175781 9.058594-20.234374 20.234375-20.234374s20.234375 9.058593 20.234375 20.234374zm0 0" fill="#ea3457"/></svg>