<svg height="404pt" viewBox="0 0 404.21695 404" width="404pt" xmlns="http://www.w3.org/2000/svg"><path d="m229.226562 266.097656c0 49.011719-39.730468 88.746094-88.746093 88.746094-49.011719 0-88.746094-39.734375-88.746094-88.746094 0-49.015625 39.734375-88.746094 88.746094-88.746094 49.015625 0 88.746093 39.730469 88.746093 88.746094zm0 0" fill="#ea3457"/><path d="m140.480469 361.671875c-52.699219 0-95.570313-42.875-95.570313-95.574219 0-52.699218 42.871094-95.574218 95.570313-95.574218 52.703125 0 95.574219 42.875 95.574219 95.574218 0 52.699219-42.871094 95.574219-95.574219 95.574219zm0-177.496094c-45.171875 0-81.917969 36.75-81.917969 81.921875 0 45.167969 36.746094 81.917969 81.917969 81.917969 45.175781 0 81.921875-36.75 81.921875-81.917969 0-45.171875-36.75-81.921875-81.921875-81.921875zm0 0" fill="#ea3457"/><path d="m330.800781 313.667969c9.101563 8.234375 19.296875 16.628906 30.84375 25.191406 8.894531 6.59375 21.339844 5.589844 29.167969-2.238281 9.558594-9.5625 8.550781-25.28125-2.101562-33.605469-9.636719-7.527344-21.472657-17.617187-33.5625-29.414063-.527344 1.347657-.917969 2.710938-1.507813 4.050782-5.683594 12.972656-13.527344 25.09375-22.839844 36.015625zm0 0" fill="#00e7ff"/><path d="m374.847656 350c-6.066406 0-12.144531-1.859375-17.265625-5.65625-11.246093-8.339844-21.792969-16.957031-31.359375-25.617188-2.742187-2.476562-3.007812-6.679687-.613281-9.492187 9.191406-10.777344 16.519531-22.324219 21.78125-34.320313.273437-.625.492187-1.261718.710937-1.898437.222657-.636719.441407-1.269531.6875-1.902344.832032-2.132812 2.679688-3.703125 4.921876-4.183593 2.242187-.488282 4.570312.1875 6.207031 1.785156 13.320312 13 25.292969 22.90625 33 28.921875 6.632812 5.183593 10.730469 12.96875 11.246093 21.347656.507813 8.355469-2.59375 16.539063-8.519531 22.464844-5.664062 5.652343-13.222656 8.550781-20.796875 8.550781zm-34.613281-37.078125c7.921875 6.90625 16.464844 13.769531 25.480469 20.457031 6.128906 4.539063 14.839844 3.847656 20.273437-1.589844 3.207031-3.203124 4.820313-7.457031 4.539063-11.96875-.273438-4.484374-2.464844-8.648437-6.019532-11.421874-6.550781-5.121094-16.085937-12.953126-26.914062-23.035157-4.632812 9.539063-10.453125 18.769531-17.359375 27.558594zm0 0" fill="#602f75"/><path d="m107.703125 124.828125c2.011719-2.804687 4.167969-5.578125 6.59375-8.285156 3.40625-3.808594 7.011719-7.238281 10.753906-10.324219-11.117187-8.894531-22.59375-19.652344-34.410156-32.707031-6.125 5.222656-11.863281 10.898437-17.097656 17.019531 13.347656 11.765625 24.625 23.210938 34.160156 34.296875zm0 0" fill="#fff"/><path d="m107.703125 131.652344c-1.988281 0-3.875-.863282-5.175781-2.375-9.652344-11.222656-20.917969-22.535156-33.492188-33.628906-2.800781-2.464844-3.097656-6.71875-.675781-9.554688 5.355469-6.261719 11.355469-12.242188 17.847656-17.78125 2.808594-2.394531 7.019531-2.125 9.492188.613281 11.007812 12.164063 22.3125 22.917969 33.621093 31.960938 1.605469 1.28125 2.546876 3.222656 2.558594 5.28125.015625 2.054687-.898437 4.007812-2.484375 5.320312-3.5625 2.933594-6.929687 6.160157-10.007812 9.605469-2.039063 2.28125-4.046875 4.800781-6.140625 7.714844-1.21875 1.699218-3.160156 2.746094-5.246094 2.835937-.097656.007813-.199219.007813-.296875.007813zm-24.515625-41.644532c8.738281 7.972657 16.832031 16.046876 24.164062 24.121094.621094-.734375 1.242188-1.445312 1.863282-2.140625 1.710937-1.917969 3.507812-3.777343 5.367187-5.574219-8.214843-7-16.386719-14.816406-24.414062-23.347656-2.421875 2.253906-4.753907 4.570313-6.980469 6.941406zm0 0" fill="#602f75"/><path d="m273.320312 355.300781c11.90625 12.046875 22.082032 23.851563 29.648438 33.542969 8.308594 10.636719 24.019531 11.601562 33.566406 2.054688 7.832032-7.832032 8.828125-20.277344 2.230469-29.175782-8.480469-11.441406-16.808594-21.683594-24.984375-30.957031-9.21875 7.882813-19.292969 14.71875-30.035156 20.070313-3.4375 1.710937-6.921875 3.144531-10.425782 4.464843zm0 0" fill="#00e7ff"/><path d="m320.65625 404.308594c-.597656 0-1.195312-.019532-1.789062-.054688-8.359376-.511718-16.121094-4.597656-21.28125-11.210937-5.914063-7.566407-15.757813-19.425781-29.117188-32.949219-1.628906-1.640625-2.3125-4-1.8125-6.257812.492188-2.257813 2.097656-4.113282 4.257812-4.929688 3.886719-1.457031 6.996094-2.789062 9.789063-4.179688 9.9375-4.953124 19.578125-11.398437 28.644531-19.152343 2.820313-2.417969 7.085938-2.125 9.554688.675781 8.597656 9.757812 17.125 20.324219 25.347656 31.402344 8.546875 11.511718 7.296875 27.878906-2.886719 38.070312-5.507812 5.511719-12.976562 8.585938-20.707031 8.585938zm-35.496094-46.570313c10.320313 10.953125 18.132813 20.433594 23.1875 26.898438 2.800782 3.585937 6.828125 5.710937 11.351563 5.988281 4.488281.257812 8.785156-1.339844 12.007812-4.554688 5.441407-5.441406 6.121094-14.160156 1.578125-20.285156-6.613281-8.914062-13.425781-17.476562-20.3125-25.53125-8.363281 6.585938-17.144531 12.1875-26.179687 16.6875-.53125.269532-1.078125.53125-1.632813.796875zm0 0" fill="#602f75"/><path d="m165.542969 238.769531c-16.636719-4.773437-31.273438-9.003906-43.640625-16.421875-6.328125-3.796875-11.679688-8.488281-16.054688-13.800781-5.203125-6.320313-8.925781-13.570313-11.167968-21.371094-12.59375-20.632812-29.320313-40.027343-45.671876-56.183593-22.574218 59.988281 11.78125 128.011718 74.5625 147.589843.523438.164063 1.128907.332031 1.664063.496094 12.796875 3.929687 28.269531 7.980469 46.847656 11.695313 7.898438 1.578124 15.824219 4.289062 23.679688 7.6875 7.214843 3.125 14.359375 6.890624 21.371093 11.167968 19.238282 5.53125 41.820313 1.734375 62.347657-13.019531-44.085938-37.914063-82.582031-48.847656-113.9375-57.839844zm0 0" fill="#00e7ff"/><path d="m234.421875 318.855469c-6.511719 0-12.945313-.875-19.171875-2.664063-.589844-.167968-1.148438-.414062-1.667969-.734375-6.902343-4.210937-13.808593-7.820312-20.535156-10.734375-8.085937-3.5-15.378906-5.871094-22.304687-7.257812-16.886719-3.378906-32.875-7.367188-47.511719-11.859375l-1.679688-.503907c-32.289062-10.066406-59.289062-33.238281-74.09375-63.5625-14.5-29.695312-16.214843-62.703124-4.828125-92.953124.816406-2.167969 2.667969-3.769532 4.929688-4.265626 2.265625-.484374 4.613281.1875 6.257812 1.8125 19.148438 18.925782 35.292969 38.804688 46.691406 57.488282.324219.523437.570313 1.082031.734376 1.671875 2.027343 7.054687 5.355468 13.417969 9.882812 18.914062 3.992188 4.859375 8.796875 8.992188 14.292969 12.289063 11.699219 7.019531 25.746093 11.046875 42.003906 15.707031l-1.878906 6.566406 2.285156-6.449219c31.667969 9.085938 71.074219 20.386719 116.105469 59.113282 1.589844 1.367187 2.460937 3.382812 2.367187 5.472656-.089843 2.089844-1.132812 4.023438-2.832031 5.246094-15.265625 10.972656-32.40625 16.703125-49.046875 16.703125zm-14.546875-15.546875c15.332031 4.136718 32.4375 1.4375 48.078125-7.414063-39.863281-32.089843-75.191406-42.21875-103.886719-50.449219l1.472656-6.679687-1.878906 6.566406c-16.472656-4.730469-32.035156-9.1875-45.273437-17.132812-6.832031-4.101563-12.828125-9.253907-17.8125-15.3125-5.519531-6.710938-9.621094-14.414063-12.1875-22.914063-9.203125-14.929687-21.636719-30.703125-36.300781-46.109375-6.148438 23.722657-3.539063 48.800781 7.632812 71.679688 13.167969 26.96875 37.179688 47.570312 65.878906 56.519531l1.667969.496094c14.175781 4.351562 29.707031 8.230468 46.15625 11.515625 7.878906 1.574219 16.070313 4.230469 25.050781 8.121093 7.035156 3.046876 14.234375 6.785157 21.402344 11.113282zm0 0" fill="#602f75"/><path d="m130.710938 49.164062c14.410156 14.769532 31.417968 29.863282 49.625 41.902344 10.378906 2.367188 20.878906 7.800782 31.164062 16.582032 3.933594 3.359374 7.84375 7.097656 11.695312 11.496093 10.523438 12.03125 16.546876 25.566407 21.464844 40.503907 10.933594 33.179687 16.398438 73.328124 53.429688 119.609374 13.453125-16.328124 19.652344-35.558593 15.152344-55.28125-6.683594-10.113281-12.429688-20.566406-16.582032-31.167968-2.6875-6.851563-4.761718-13.75-5.976562-20.640625-3.296875-18.667969-6.855469-33.902344-10.359375-46.269531-.136719-.488282-.34375-.941407-.488281-1.425782-18.910157-63.601562-87.8125-99.367187-149.125-75.308594zm0 0" fill="#00e7ff"/><path d="m298.09375 286.082031c-.011719 0-.035156 0-.046875 0-2.058594-.011719-4-.957031-5.285156-2.558593-30.492188-38.101563-40.042969-71.667969-48.46875-101.277344-2.019531-7.089844-3.957031-13.914063-6.117188-20.460938-3.953125-12.015625-9.441406-25.945312-20.121093-38.144531-3.308594-3.78125-6.898438-7.3125-10.988282-10.796875-9.191406-7.855469-18.699218-12.941406-28.253906-15.121094-.800781-.179687-1.558594-.507812-2.246094-.960937-16.738281-11.066407-33.8125-25.476563-50.746094-42.832031-1.601562-1.636719-2.265624-3.964844-1.785156-6.203126.480469-2.238281 2.050782-4.082031 4.179688-4.917968 30.644531-12.023438 64.101562-10.554688 94.179687 4.113281 30.851563 15.058594 54.179688 42.613281 63.992188 75.601563.25.683593.386719 1.082031.507812 1.496093 3.90625 13.800781 7.445313 29.59375 10.511719 46.960938 1.074219 6.070312 2.960938 12.578125 5.609375 19.339843 3.707031 9.453126 9.0625 19.511719 15.917969 29.890626.453125.683593.78125 1.445312.960937 2.242187 4.730469 20.742187-1.140625 42.453125-16.535156 61.144531-1.292969 1.578125-3.226563 2.484375-5.265625 2.484375zm-114.992188-201.371093c11.292969 2.8125 22.324219 8.78125 32.832032 17.75 4.585937 3.914062 8.644531 7.898437 12.394531 12.1875 12.292969 14.042968 18.433594 29.542968 22.820313 42.863281 2.210937 6.71875 4.207031 13.722656 6.277343 21 7.542969 26.496093 16.023438 56.292969 40.546875 89.40625 6.820313-10.46875 12.253906-24.671875 8.867188-41.257813-7.054688-10.800781-12.613282-21.347656-16.535156-31.359375-2.984376-7.605469-5.117188-14.988281-6.339844-21.949219-2.992188-16.90625-6.425782-32.25-10.203125-45.589843-.226563-.605469-.367188-1-.480469-1.402344-8.707031-29.277344-29.449219-53.777344-56.875-67.160156-23.320312-11.375-48.886719-13.785157-73.050781-7.074219 13.339843 12.90625 26.671875 23.835938 39.746093 32.585938zm0 0" fill="#602f75"/><path d="m73.546875 90.53125c-9.273437-8.175781-19.515625-16.503906-30.957031-24.988281-8.894532-6.597657-21.34375-5.597657-29.175782 2.230469-9.546874 9.550781-8.582031 25.257812 2.054688 33.570312 9.691406 7.5625 21.496094 17.738281 33.542969 29.644531 16.347656 16.160157 33.074219 35.550781 45.667969 56.1875 4.28125 7.011719 8.046874 14.15625 11.171874 21.371094 4.371094 5.3125 9.722657 10 16.054688 13.796875 12.367188 7.421875 27.003906 11.652344 43.636719 16.421875-8.992188-31.355469-19.925781-69.851563-57.839844-113.941406-9.535156-11.082031-20.8125-22.527344-34.15625-34.292969zm0 0" fill="#fff"/><path d="m165.328125 245.5625c-.554687 0-1.113281-.074219-1.667969-.230469-16.472656-4.730469-32.035156-9.1875-45.273437-17.132812-6.832031-4.101563-12.828125-9.253907-17.8125-15.3125-.402344-.492188-.742188-1.039063-.996094-1.625-2.917969-6.75-6.53125-13.65625-10.726563-20.527344-10.832031-17.75-26.265624-36.730469-44.636718-54.886719-13.554688-13.398437-25.394532-23.230468-32.949219-29.121094-6.613281-5.164062-10.699219-12.921874-11.2109375-21.28125-.5078125-8.363281 2.5976565-16.5625 8.5312505-22.5 10.1875-10.183593 26.558593-11.425781 38.066406-2.882812 11.101562 8.226562 21.667968 16.753906 31.40625 25.347656 13.050781 11.503906 24.761718 23.273438 34.8125 34.96875 38.726562 45.027344 50.035156 84.4375 59.117187 116.101563.675781 2.382812.078125 5.15625-1.679687 6.910156-1.347656 1.347656-3.140625 2.171875-4.980469 2.171875zm-53.621094-40.644531c3.878907 4.542969 8.488281 8.4375 13.707031 11.574219 8.738282 5.242187 18.792969 8.820312 30.101563 12.238281-8.5-28.441407-20.828125-62.054688-52.988281-99.453125-9.652344-11.222656-20.921875-22.535156-33.492188-33.628906-9.460937-8.335938-19.730468-16.621094-30.515625-24.621094-6.121093-4.550782-14.839843-3.863282-20.28125 1.574218-3.210937 3.214844-4.832031 7.480469-4.550781 12.003907.273438 4.527343 2.398438 8.5625 5.980469 11.355469 7.839843 6.113281 20.125 16.316406 34.144531 30.171874 19.148438 18.925782 35.296875 38.804688 46.695312 57.488282 4.332032 7.097656 8.101563 14.257812 11.199219 21.296875zm0 0" fill="#602f75"/><path d="m211.5 107.648438c-10.597656-4.15625-21.054688-9.898438-31.164062-16.582032-18.207032-12.039062-35.214844-27.132812-49.625-41.90625-11.796876-12.089844-21.886719-23.921875-29.417969-33.558594-8.324219-10.652343-24.042969-11.664062-33.601563-2.101562-7.828125 7.828125-8.835937 20.273438-2.238281 29.164062 8.5625 11.546876 16.957031 21.742188 25.191406 30.847657 11.8125 13.054687 23.289063 23.8125 34.410157 32.707031 46.28125 37.035156 86.425781 42.5 119.609374 53.429688-4.921874-14.9375-10.945312-28.472657-21.46875-40.503907-3.851562-4.398437-7.761718-8.136719-11.695312-11.496093zm0 0" fill="#fff"/><path d="m244.660156 166.472656c-.710937 0-1.433594-.113281-2.132812-.34375-6.546875-2.15625-13.367188-4.089844-20.453125-6.109375-29.613281-8.425781-63.179688-17.976562-101.285157-48.472656-11.875-9.5-23.71875-20.753906-35.207031-33.457031-8.667969-9.578125-17.289062-20.128906-25.613281-31.359375-8.535156-11.507813-7.292969-27.875 2.890625-38.058594 5.921875-5.921875 14.082031-8.960937 22.460937-8.519531 8.386719.511718 16.167969 4.609375 21.355469 11.246094 5.992188 7.667968 15.871094 19.621093 28.917969 33 16.253906 16.65625 32.574219 30.441406 48.507812 40.976562 10.367188 6.851562 20.425782 12.210938 29.894532 15.917969.703125.277343 1.359375.671875 1.9375 1.164062 4.589844 3.917969 8.648437 7.90625 12.394531 12.191407 12.292969 14.042968 18.433594 29.546874 22.820313 42.863281.808593 2.449219.160156 5.140625-1.660157 6.964843-1.300781 1.296876-3.046875 1.996094-4.828125 1.996094zm-161.160156-152.722656c-4.144531 0-8.011719 1.601562-10.988281 4.574219-5.4375 5.441406-6.117188 14.15625-1.578125 20.273437 8.066406 10.878906 16.398437 21.082032 24.765625 30.328125 11.007812 12.164063 22.3125 22.917969 33.621093 31.960938 35.960938 28.777343 68.113282 37.929687 96.484376 46 2.601562.742187 5.167968 1.46875 7.695312 2.203125-3.582031-8.535156-8.371094-17.371094-15.445312-25.449219-3.082032-3.519531-6.410157-6.820313-10.140626-10.070313-10.027343-4.03125-20.566406-9.683593-31.347656-16.804687-16.738281-11.070313-33.8125-25.480469-50.746094-42.835937-13.476562-13.820313-23.707031-26.1875-29.90625-34.125-2.777343-3.554688-6.9375-5.75-11.417968-6.023438-.335938-.019531-.667969-.03125-.996094-.03125zm0 0" fill="#602f75"/><path d="m280.328125 125.898438c3.503906 12.367187 7.0625 27.597656 10.355469 46.265624 1.21875 6.890626 3.289062 13.792969 5.976562 20.644532 8.78125 10.285156 14.214844 20.785156 16.582032 31.164062 4.5 19.722656-1.699219 38.957032-15.148438 55.28125-3.085938 3.742188-6.519531 7.351563-10.324219 10.757813-2.710937 2.425781-5.484375 4.582031-8.285156 6.59375-20.53125 14.753906-43.113281 18.550781-62.347656 13.023437-7.800781-2.242187-15.050781-5.964844-21.375-11.171875-7.855469-3.398437-15.777344-6.109375-23.679688-7.6875-18.574219-3.714843-34.050781-7.765625-46.847656-11.695312.164063.535156.332031 1.140625.496094 1.664062 19.582031 62.78125 87.601562 97.136719 147.589843 74.558594 3.503907-1.316406 6.992188-2.753906 10.429688-4.464844 10.738281-5.351562 20.816406-12.1875 30.03125-20.066406 6.121094-5.234375 11.796875-10.972656 17.023438-17.097656 9.3125-10.921875 17.15625-23.042969 22.835937-36.011719.589844-1.339844.980469-2.707031 1.507813-4.054688 17.492187-44.578124 3.359374-93.167968-30.101563-123.640624" fill="#fff"/><path d="m235.007812 369.132812c-17.742187 0-35.515624-4.113281-52.238281-12.277343-30.328125-14.8125-53.496093-41.8125-63.5625-74.082031l-.484375-1.660157c-.761718-2.417969-.113281-5.054687 1.671875-6.851562 1.785157-1.796875 4.417969-2.457031 6.847657-1.710938 14.199218 4.359375 29.734374 8.238281 46.179687 11.527344 7.878906 1.570313 16.074219 4.230469 25.054687 8.117187.585938.253907 1.132813.589844 1.625.996094 5.5 4.523438 11.867188 7.847656 18.921876 9.878906 18.078124 5.191407 38.644531.8125 56.472656-12.007812 2.933594-2.097656 5.453125-4.105469 7.714844-6.136719 3.445312-3.082031 6.679687-6.449219 9.621093-10.011719 8.9375-10.855468 18.585938-28.246093 13.757813-49.421874-2.179688-9.542969-7.265625-19.046876-15.121094-28.25-.492188-.578126-.886719-1.234376-1.160156-1.941407-2.984375-7.609375-5.117188-14.992187-6.339844-21.949219-2.992188-16.90625-6.425781-32.25-10.203125-45.59375-1.03125-3.628906 1.078125-7.402343 4.703125-8.425781 3.59375-1.03125 7.394531 1.070313 8.429688 4.703125 3.90625 13.785156 7.445312 29.578125 10.511718 46.945313 1.023438 5.761719 2.769532 11.910156 5.207032 18.300781 8.875 10.628906 14.6875 21.785156 17.28125 33.175781 4.734374 20.738281-1.140626 42.449219-16.535157 61.140625-3.375 4.09375-7.085937 7.960938-11.039062 11.5-2.632813 2.359375-5.535157 4.667969-8.859375 7.054688-21.253906 15.269531-46.109375 20.390625-68.214844 14.039062-8.53125-2.453125-16.277344-6.429687-23.046875-11.832031-7.753906-3.304687-14.777344-5.558594-21.457031-6.894531-12.007813-2.402344-23.5625-5.109375-34.496094-8.09375 10.46875 24.15625 29.085938 43.777344 52.515625 55.21875 26.273437 12.832031 55.464844 14.367187 82.152344 4.316406 3.886719-1.457031 6.996093-2.789062 9.785156-4.179688 9.941406-4.953124 19.582031-11.398437 28.648437-19.152343 5.699219-4.871094 11.171876-10.371094 16.257813-16.335938 9.195313-10.78125 16.523437-22.328125 21.78125-34.324219.273437-.625.492187-1.261718.714844-1.898437.21875-.632813.4375-1.269531.683593-1.898437 15.863282-40.417969 4.734376-85.992188-28.335937-116.105469-2.789063-2.539063-2.988281-6.859375-.449219-9.644531 2.546875-2.785157 6.859375-2.988282 9.640625-.449219 37.292969 33.960937 49.800781 85.453125 31.859375 131.179687l-.507812 1.410156c-.339844.96875-.679688 1.933594-1.101563 2.882813-5.796875 13.226563-13.839843 25.910156-23.898437 37.707031-5.554688 6.511719-11.535156 12.519532-17.773438 17.859375-9.917968 8.476563-20.492187 15.535157-31.425781 20.988281-3.222656 1.601563-6.734375 3.113282-11.066406 4.742188-13.214844 4.96875-26.960938 7.441406-40.722657 7.445312zm0 0" fill="#602f75"/><g fill="#ea3457"><path d="m372.589844 47.644531c0 15.078125-12.226563 27.304688-27.308594 27.304688s-27.304688-12.226563-27.304688-27.304688c0-15.082031 12.222657-27.308593 27.304688-27.308593s27.308594 12.226562 27.308594 27.308593zm0 0"/><path d="m345.28125 81.777344c-18.820312 0-34.132812-15.3125-34.132812-34.132813 0-18.820312 15.3125-34.132812 34.132812-34.132812s34.132812 15.3125 34.132812 34.132812c0 18.820313-15.3125 34.132813-34.132812 34.132813zm0-54.613282c-11.292969 0-20.480469 9.1875-20.480469 20.480469s9.1875 20.480469 20.480469 20.480469 20.480469-9.1875 20.480469-20.480469-9.1875-20.480469-20.480469-20.480469zm0 0"/></g></svg>