<svg height="395pt" viewBox="-17 0 395 395.94667" width="395pt" xmlns="http://www.w3.org/2000/svg"><path d="m153.953125 51.566406h61.441406v111.90625h-61.441406zm0 0" fill="#ea3457"/><path d="m215.394531 170.300781h-61.441406c-3.773437 0-6.828125-3.058593-6.828125-6.828125v-111.90625c0-3.769531 3.054688-6.824218 6.828125-6.824218h61.441406c3.773438 0 6.824219 3.054687 6.824219 6.824218v111.90625c0 3.769532-3.054688 6.828125-6.824219 6.828125zm-54.613281-13.65625h47.785156v-98.25h-47.785156zm0 0" fill="#602f75"/><path d="m160.78125 6.828125h47.785156v27.304687h-47.785156zm0 0" fill="#00e7ff"/><path d="m208.566406 40.960938h-47.785156c-3.773438 0-6.828125-3.058594-6.828125-6.828126v-27.304687c0-3.773437 3.054687-6.828125 6.828125-6.828125h47.785156c3.773438 0 6.828125 3.054688 6.828125 6.828125v27.304687c0 3.769532-3.054687 6.828126-6.828125 6.828126zm-40.960937-13.652344h34.132812v-13.65625h-34.132812zm0 0" fill="#602f75"/><path d="m276.832031 245.230469v143.890625h-184.320312v-197.601563c0-34.140625 27.675781-61.8125 61.8125-61.8125h60.695312c34.136719 0 61.8125 27.671875 61.8125 61.8125" fill="#fff"/><path d="m276.832031 395.945312h-184.320312c-3.769531 0-6.824219-3.054687-6.824219-6.824218v-197.601563c0-37.847656 30.792969-68.640625 68.636719-68.640625h60.695312c37.847657 0 68.640625 30.792969 68.640625 68.640625 0 3.769531-3.054687 6.828125-6.828125 6.828125-3.773437 0-6.824219-3.058594-6.824219-6.828125 0-30.320312-24.667968-54.984375-54.988281-54.984375h-60.691406c-30.320313 0-54.988281 24.664063-54.988281 54.984375v190.773438h170.667968v-137.0625c0-3.769531 3.050782-6.828125 6.824219-6.828125 3.773438 0 6.828125 3.058594 6.828125 6.828125v143.890625c0 3.769531-3.054687 6.824218-6.828125 6.824218zm0 0" fill="#602f75"/><path d="m246.484375 382.292969h-123.625v-183.949219c0-34.136719 27.675781-61.808594 61.8125-61.808594 34.140625 0 61.8125 27.671875 61.8125 61.808594zm0 0" fill="#ffe600"/><path d="m211.980469 61.441406h-54.613281c-9.425782 0-17.066407-7.640625-17.066407-17.066406s7.640625-17.066406 17.066407-17.066406h54.613281c9.425781 0 17.066406 7.640625 17.066406 17.066406s-7.644531 17.066406-17.066406 17.066406zm0 0" fill="#fff"/><path d="m211.980469 68.265625h-54.613281c-13.175782 0-23.894532-10.71875-23.894532-23.890625 0-13.175781 10.71875-23.894531 23.894532-23.894531h54.613281c13.171875 0 23.894531 10.71875 23.894531 23.894531 0 13.171875-10.722656 23.890625-23.894531 23.890625zm-54.613281-34.132813c-5.648438 0-10.242188 4.59375-10.242188 10.242188 0 5.644531 4.59375 10.238281 10.242188 10.238281h54.613281c5.648437 0 10.238281-4.59375 10.238281-10.238281 0-5.648438-4.589844-10.242188-10.238281-10.242188zm0 0" fill="#602f75"/><path d="m92.511719 232.105469h184.320312v88.746093h-184.320312zm0 0" fill="#ffe600"/><path d="m276.832031 327.679688h-184.320312c-3.769531 0-6.824219-3.054688-6.824219-6.828126v-88.746093c0-3.769531 3.054688-6.824219 6.824219-6.824219h184.320312c3.773438 0 6.828125 3.054688 6.828125 6.824219v88.746093c0 3.773438-3.054687 6.828126-6.828125 6.828126zm-177.492187-13.652344h170.667968v-75.09375h-170.667968zm0 0" fill="#602f75"/><path d="m60.269531 213.9375c-.703125 2.355469-1.851562 4.4375-3.222656 6.316406l256.414063 76.632813c-.121094-2.320313.0625-4.691407.769531-7.046875 3.308593-11.074219 14.96875-17.367188 26.042969-14.058594 11.070312 3.308594 17.367187 14.96875 14.054687 26.042969-2.605469 8.714843-10.394531 14.386719-18.992187 14.824219l-.730469 2.457031c6.941406 5.085937 10.34375 14.097656 7.738281 22.816406-3.308594 11.074219-14.96875 17.367187-26.039062 14.058594-11.074219-3.308594-17.367188-14.96875-14.058594-26.042969.703125-2.355469 1.851562-4.4375 3.226562-6.316406l-256.417968-76.632813c.121093 2.320313-.0625 4.691407-.769532 7.050781-3.308594 11.070313-14.96875 17.367188-26.039062 14.054688-11.074219-3.308594-17.367188-14.96875-14.058594-26.039062 2.605469-8.71875 10.394531-14.390626 18.992188-14.828126l.734374-2.457031c-6.945312-5.085937-10.347656-14.097656-7.742187-22.816406 3.308594-11.074219 14.96875-17.367187 26.042969-14.058594 11.074218 3.3125 17.367187 14.96875 14.054687 26.042969zm0 0" fill="#eaeaea"/><path d="m322.339844 363.699219c-2.671875 0-5.359375-.390625-7.988282-1.175781-14.660156-4.382813-23.023437-19.875-18.644531-34.539063.011719-.046875.027344-.097656.039063-.140625l-240.875-71.992188c-.015625.046876-.03125.09375-.042969.144532-2.121094 7.097656-6.882813 12.949218-13.40625 16.46875-6.523437 3.523437-14.015625 4.296875-21.132813 2.167968-7.101562-2.117187-12.949218-6.878906-16.472656-13.402343-3.519531-6.523438-4.289062-14.03125-2.167968-21.136719 2.335937-7.824219 8.003906-14.050781 15.21875-17.289062-4.257813-6.664063-5.578126-14.980469-3.234376-22.808594 2.121094-7.101563 6.882813-12.949219 13.402344-16.472656 6.527344-3.519532 14.03125-4.285157 21.132813-2.167969 14.660156 4.378906 23.023437 19.875 18.644531 34.53125v.007812c-.015625.046875-.03125.09375-.042969.136719l240.882813 71.996094c.011718-.050782.027344-.101563.039062-.152344 2.121094-7.09375 6.878906-12.941406 13.40625-16.464844 6.511719-3.519531 14.027344-4.300781 21.125-2.167968 14.660156 4.378906 23.027344 19.871093 18.648438 34.535156-2.339844 7.828125-8.003906 14.054687-15.21875 17.292968 4.25 6.660157 5.574218 14.976563 3.234375 22.808594-2.121094 7.101563-6.882813 12.949219-13.40625 16.472656-4.105469 2.21875-8.601563 3.347657-13.140625 3.347657zm-273.285156-123.539063c.65625 0 1.316406.09375 1.957031.285156l256.414062 76.632813c2.128907.636719 3.808594 2.261719 4.515625 4.367187.714844 2.097657.351563 4.410157-.953125 6.203126-1.054687 1.445312-1.773437 2.835937-2.199219 4.253906-2.230468 7.4375 2.027344 15.3125 9.472657 17.539062 3.605469 1.078125 7.414062.6875 10.730469-1.105468 3.316406-1.785157 5.734374-4.757813 6.816406-8.363282 1.691406-5.65625-.414063-11.828125-5.234375-15.355468-2.324219-1.707032-3.332031-4.691407-2.507813-7.460938l.734375-2.457031c.828125-2.765625 3.308594-4.71875 6.195313-4.863281 5.964844-.308594 11.105468-4.308594 12.796875-9.96875 2.230469-7.445313-2.027344-15.320313-9.472657-17.546876-7.480468-2.242187-15.320312 2.035157-17.546874 9.476563-.417969 1.40625-.578126 2.960937-.492188 4.761719.105469 2.214844-.867188 4.339844-2.605469 5.707031-1.753906 1.371094-4.054687 1.8125-6.167969 1.167969l-256.414062-76.640625c-2.128906-.632813-3.808594-2.261719-4.515625-4.363281-.707031-2.101563-.351563-4.417969.957031-6.207032 1.054688-1.441406 1.773438-2.828125 2.199219-4.246094 2.21875-7.445312-2.03125-15.3125-9.480469-17.539062-3.597656-1.082031-7.414062-.683594-10.726562 1.101562-3.3125 1.789063-5.734375 4.761719-6.816406 8.371094-1.6875 5.652344.414062 11.824219 5.234374 15.351563 2.328126 1.703125 3.332032 4.695312 2.507813 7.460937l-.734375 2.457032c-.828125 2.765624-3.308594 4.714843-6.191406 4.863281-5.964844.304687-11.109375 4.308593-12.796875 9.960937-1.078125 3.609375-.6875 7.425782 1.101562 10.738282 1.785157 3.3125 4.757813 5.730468 8.363281 6.808593 3.613282 1.085938 7.429688.6875 10.738282-1.101562 3.3125-1.785157 5.730468-4.761719 6.808594-8.367188.425781-1.414062.585937-2.964843.496093-4.742187-.117187-2.214844.851563-4.351563 2.597657-5.71875 1.21875-.957032 2.710937-1.460938 4.21875-1.460938zm11.21875-26.222656h.066406zm0 0" fill="#602f75"/><path d="m60.269531 329.9375c-.703125-2.355469-1.851562-4.4375-3.222656-6.316406l256.414063-76.632813c-.121094 2.320313.0625 4.691407.769531 7.050781 3.308593 11.070313 14.96875 17.367188 26.042969 14.054688 11.070312-3.308594 17.367187-14.96875 14.054687-26.039062-2.605469-8.71875-10.394531-14.390626-18.992187-14.828126l-.730469-2.457031c6.941406-5.085937 10.34375-14.097656 7.738281-22.816406-3.308594-11.074219-14.96875-17.367187-26.039062-14.058594-11.074219 3.308594-17.367188 14.96875-14.058594 26.042969.703125 2.355469 1.851562 4.4375 3.226562 6.316406l-256.417968 76.632813c.121093-2.320313-.0625-4.691407-.769532-7.046875-3.308594-11.074219-14.96875-17.367188-26.039062-14.058594-11.074219 3.308594-17.367188 14.96875-14.058594 26.042969 2.605469 8.714843 10.394531 14.386719 18.992188 14.824219l.734374 2.457031c-6.945312 5.085937-10.347656 14.097656-7.742187 22.816406 3.308594 11.074219 14.96875 17.367187 26.042969 14.058594 11.074218-3.308594 17.367187-14.96875 14.054687-26.042969zm0 0" fill="#00e7ff"/><path d="m40.183594 363.699219c-4.542969 0-9.035156-1.128907-13.144532-3.34375-6.523437-3.523438-11.28125-9.375-13.40625-16.472657-2.34375-7.832031-1.023437-16.148437 3.234376-22.8125-7.214844-3.234374-12.878907-9.460937-15.21875-17.292968-2.121094-7.097656-1.351563-14.605469 2.167968-21.128906 3.523438-6.523438 9.375-11.285157 16.472656-13.40625 7.113282-2.117188 14.613282-1.347657 21.136719 2.167968 6.519531 3.523438 11.28125 9.375 13.402344 16.476563.015625.046875.03125.09375.042969.140625l240.878906-71.992188c-.015625-.042968-.027344-.09375-.039062-.136718-4.382813-14.667969 3.984374-30.160157 18.644531-34.542969 7.09375-2.117188 14.609375-1.351563 21.128906 2.167969 6.523437 3.523437 11.285156 9.375 13.40625 16.476562 2.339844 7.832031 1.019531 16.148438-3.234375 22.808594 7.210938 3.234375 12.878906 9.460937 15.21875 17.289062 2.121094 7.105469 1.351562 14.609375-2.171875 21.132813-3.519531 6.523437-9.375 11.285156-16.472656 13.40625-7.101563 2.128906-14.609375 1.34375-21.128907-2.167969-6.523437-3.523438-11.285156-9.375-13.40625-16.476562-.011718-.046876-.027343-.09375-.042968-.144532l-240.882813 71.992188c.015625.042968.027344.089844.039063.132812.003906.003906.003906.007813.003906.011719 4.378906 14.664063-3.988281 30.15625-18.644531 34.535156-2.628907.789063-5.316407 1.179688-7.984375 1.179688zm-11.953125-81.96875c-1.332031 0-2.691407.1875-4.03125.589843-3.605469 1.082032-6.578125 3.5-8.363281 6.8125-1.792969 3.3125-2.179688 7.128907-1.105469 10.734376 1.691406 5.65625 6.835937 9.660156 12.800781 9.964843 2.882812.148438 5.363281 2.097657 6.191406 4.867188l.734375 2.453125c.824219 2.765625-.179687 5.757812-2.507812 7.460937-4.820313 3.527344-6.925781 9.699219-5.234375 15.351563 1.082031 3.609375 3.5 6.585937 6.8125 8.371094 3.308594 1.785156 7.125 2.179687 10.730468 1.101562 7.449219-2.226562 11.699219-10.097656 9.476563-17.550781-.425781-1.410157-1.144531-2.796875-2.199219-4.242188-1.304687-1.789062-1.664062-4.101562-.957031-6.203125.707031-2.101562 2.390625-3.730468 4.515625-4.363281l256.414062-76.632813c2.113282-.644531 4.414063-.199218 6.164063 1.167969 1.742187 1.367188 2.714844 3.492188 2.609375 5.707031-.089844 1.800782.070312 3.355469.492188 4.757813 1.078124 3.609375 3.492187 6.585937 6.8125 8.371094 3.320312 1.789062 7.128906 2.1875 10.734374 1.101562 7.445313-2.226562 11.699219-10.09375 9.472657-17.546875-1.691407-5.652344-6.832031-9.65625-12.800781-9.960937-2.886719-.148438-5.367188-2.097657-6.191407-4.863281l-.734375-2.457032c-.828125-2.769531.179688-5.757812 2.507813-7.464844 4.816406-3.523437 6.925781-9.695312 5.230469-15.347656-1.078126-3.609375-3.5-6.582031-6.8125-8.371094-3.320313-1.789062-7.125-2.183593-10.734376-1.101562-7.445312 2.226562-11.699218 10.097656-9.472656 17.546875.425782 1.410156 1.140625 2.800781 2.195313 4.238281 1.3125 1.789063 1.671875 4.101563.964843 6.207032-.707031 2.097656-2.394531 3.730468-4.519531 4.363281l-256.417969 76.636719c-2.117187.644531-4.421874.191406-6.167968-1.175782-1.746094-1.367187-2.71875-3.5-2.601563-5.71875.09375-1.78125-.066406-3.328125-.488281-4.734375-1.828125-6.113281-7.449219-10.070312-13.519531-10.070312zm0 0" fill="#602f75"/></svg>