<svg height="423pt" viewBox="0 -3 423.25894 423" width="423pt" xmlns="http://www.w3.org/2000/svg"><path d="m6.835938 375.597656c-2.449219 0-4.8125-1.316406-6.039063-3.628906-1.765625-3.332031-.492187-7.460938 2.832031-9.230469l33.074219-17.539062c21.90625-11.613281 46.640625-13.453125 69.652344-5.195313l11.925781 4.285156c18.433594 6.613282 38.398438 5.488282 56.214844-3.175781l6.492187-3.15625c23.460938-11.398437 49.441407-11.820312 73.160157-1.171875l10.554687 4.730469c18.648437 8.367187 39.261719 8.597656 58.039063.625 22.761718-9.660156 47.683593-9.199219 70.175781 1.296875l26.398437 12.320312c3.421875 1.59375 4.894532 5.652344 3.300782 9.070313-1.59375 3.421875-5.648438 4.902344-9.074219 3.300781l-26.398438-12.320312c-18.925781-8.832032-39.90625-9.226563-59.066406-1.101563-22.320313 9.472657-46.808594 9.207031-68.960937-.734375l-10.550782-4.730468c-19.976562-8.96875-41.847656-8.605469-61.601562.992187l-6.496094 3.15625c-21.152344 10.285156-44.871094 11.609375-66.800781 3.746094l-11.925781-4.285157c-19.367188-6.953124-40.183594-5.382812-58.636719 4.40625l-33.074219 17.539063c-1.019531.542969-2.113281.800781-3.195312.800781zm0 0" fill="#00e7ff"/><path d="m6.835938 341.460938c-2.449219 0-4.8125-1.3125-6.039063-3.625-1.765625-3.332032-.492187-7.464844 2.832031-9.230469l33.074219-17.539063c21.90625-11.617187 46.640625-13.457031 69.652344-5.195312l11.925781 4.285156c18.433594 6.613281 38.398438 5.488281 56.214844-3.175781l6.492187-3.15625c23.460938-11.402344 49.441407-11.820313 73.160157-1.171875l10.554687 4.730468c18.648437 8.367188 39.261719 8.59375 58.039063.625 22.761718-9.664062 47.683593-9.199218 70.175781 1.292969l26.398437 12.320313c3.421875 1.597656 4.894532 5.65625 3.300782 9.074218-1.59375 3.421876-5.648438 4.898438-9.074219 3.300782l-26.398438-12.320313c-18.925781-8.835937-39.90625-9.226562-59.066406-1.101562-22.320313 9.472656-46.808594 9.203125-68.960937-.734375l-10.550782-4.730469c-19.976562-8.972656-41.847656-8.609375-61.601562.992187l-6.496094 3.15625c-21.152344 10.28125-44.871094 11.613282-66.800781 3.746094l-11.925781-4.285156c-19.367188-6.949219-40.183594-5.386719-58.636719 4.40625l-33.074219 17.539062c-1.019531.542969-2.113281.796876-3.195312.796876zm0 0" fill="#00e7ff"/><path d="m358.132812 273.195312h44.644532l-49.121094 81.921876h-284.148438l-49.121093-81.921876h279.304687" fill="#fff"/><path d="m353.65625 361.941406h-284.144531c-2.402344 0-4.621094-1.257812-5.855469-3.316406l-49.121094-81.917969c-1.265625-2.109375-1.300781-4.734375-.085937-6.871093 1.214843-2.140626 3.480469-3.464844 5.941406-3.464844h279.300781c3.773438 0 6.824219 3.054687 6.824219 6.824218 0 3.769532-3.050781 6.828126-6.824219 6.828126h-267.25l40.933594 68.265624h276.414062l40.933594-68.265624h-32.59375c-3.773437 0-6.828125-3.058594-6.828125-6.828126 0-3.769531 3.054688-6.824218 6.828125-6.824218h44.648438c2.457031 0 4.726562 1.320312 5.9375 3.460937 1.210937 2.140625 1.179687 4.761719-.085938 6.871094l-49.121094 81.921875c-1.230468 2.058594-3.453124 3.316406-5.851562 3.316406zm0 0" fill="#602f75"/><path d="m197.976562 245.890625v-186.683594l-142.222656 186.683594zm0 0" fill="#fff"/><path d="m197.976562 252.714844h-142.226562c-2.59375 0-4.96875-1.46875-6.121094-3.796875-1.148437-2.324219-.878906-5.101563.6875-7.164063l142.226563-186.683594c1.773437-2.332031 4.839843-3.273437 7.613281-2.332031 2.777344.9375 4.644531 3.535157 4.644531 6.46875v186.683594c0 3.769531-3.050781 6.824219-6.824219 6.824219zm-128.449218-13.652344h121.621094v-159.628906zm0 0" fill="#602f75"/><path d="m262.742188 94.488281h-44.285157v42.175781h72.464844zm0 0" fill="#fff"/><path d="m290.921875 143.488281h-72.464844c-3.773437 0-6.828125-3.054687-6.828125-6.824219v-42.179687c0-3.769531 3.054688-6.824219 6.828125-6.824219h44.285157c2.28125 0 4.40625 1.136719 5.671874 3.03125l28.179688 42.175782c1.402344 2.097656 1.535156 4.792968.347656 7.011718-1.1875 2.226563-3.5 3.609375-6.019531 3.609375zm-65.640625-13.652343h52.867188l-19.050782-28.523438h-33.816406zm0 0" fill="#602f75"/><path d="m218.457031 29.804688v65.898437h44.285157zm0 0" fill="#00e7ff"/><path d="m262.742188 102.53125h-44.285157c-3.773437 0-6.828125-3.058594-6.828125-6.828125v-65.898437c0-3.003907 1.960938-5.652344 4.832032-6.53125 2.902343-.875 5.988281.234374 7.660156 2.722656l44.289062 65.902344c1.40625 2.09375 1.546875 4.789062.359375 7.015624-1.1875 2.222657-3.507812 3.617188-6.027343 3.617188zm-37.460938-13.65625h24.648438l-24.648438-36.675781zm0 0" fill="#602f75"/><path d="m290.921875 136.664062h-72.464844v40.148438h100.644531zm0 0" fill="#00e7ff"/><path d="m319.101562 183.640625h-100.644531c-3.773437 0-6.828125-3.058594-6.828125-6.828125v-40.148438c0-3.769531 3.054688-6.828124 6.828125-6.828124h72.464844c2.226563 0 4.304687 1.082031 5.585937 2.902343l28.179688 40.148438c1.46875 2.089843 1.648438 4.816406.472656 7.074219-1.179687 2.261718-3.511718 3.679687-6.058594 3.679687zm-93.820312-13.65625h80.6875l-18.59375-26.496094h-62.09375zm0 0" fill="#602f75"/><path d="m367.410156 245.890625-24.15625-33.796875h-124.796875v33.796875zm0 0" fill="#00e7ff"/><path d="m367.410156 252.714844h-148.953125c-3.773437 0-6.828125-3.054688-6.828125-6.824219v-33.792969c0-3.773437 3.054688-6.828125 6.828125-6.828125h124.796875c2.207032 0 4.273438 1.0625 5.554688 2.855469l24.152344 33.792969c1.488281 2.082031 1.6875 4.820312.523437 7.09375-1.175781 2.273437-3.515625 3.703125-6.074219 3.703125zm-142.128906-13.652344h128.855469l-14.394531-20.140625h-114.460938zm0 0" fill="#602f75"/><path d="m319.101562 176.8125h-100.644531v35.28125h124.796875zm0 0" fill="#fff"/><path d="m343.253906 218.921875h-124.796875c-3.773437 0-6.828125-3.054687-6.828125-6.824219v-35.285156c0-3.769531 3.054688-6.828125 6.828125-6.828125h100.644531c2.253907 0 4.363282 1.109375 5.636719 2.96875l24.152344 35.285156c1.433594 2.089844 1.585937 4.800781.40625 7.039063-1.183594 2.242187-3.507813 3.644531-6.042969 3.644531zm-117.972656-13.652344h105.027344l-14.808594-21.628906h-90.21875zm0 0" fill="#602f75"/><path d="m122.882812 58.15625c0 28.277344-22.921874 51.199219-51.199218 51.199219s-51.203125-22.921875-51.203125-51.199219 22.925781-51.199219 51.203125-51.199219 51.199218 22.921875 51.199218 51.199219zm0 0" fill="#ea3457"/><path d="m71.683594 116.183594c-31.996094 0-58.027344-26.03125-58.027344-58.027344s26.03125-58.027344 58.027344-58.027344c31.992187 0 58.027344 26.03125 58.027344 58.027344s-26.035157 58.027344-58.027344 58.027344zm0-102.402344c-24.46875 0-44.375 19.90625-44.375 44.375 0 24.464844 19.90625 44.375 44.375 44.375 24.464844 0 44.371094-19.910156 44.371094-44.375 0-24.46875-19.90625-44.375-44.371094-44.375zm0 0" fill="#ea3457"/><path d="m6.835938 416.554688c-2.449219 0-4.8125-1.3125-6.039063-3.625-1.765625-3.332032-.492187-7.464844 2.832031-9.230469l33.074219-17.539063c21.90625-11.617187 46.640625-13.457031 69.652344-5.195312l11.925781 4.285156c18.433594 6.605469 38.398438 5.484375 56.214844-3.175781l6.492187-3.15625c23.460938-11.402344 49.441407-11.820313 73.160157-1.171875l10.554687 4.730468c18.648437 8.363282 39.261719 8.59375 58.039063.625 22.761718-9.664062 47.683593-9.203124 70.175781 1.292969l26.398437 12.320313c3.421875 1.59375 4.894532 5.65625 3.300782 9.074218-1.59375 3.417969-5.648438 4.90625-9.074219 3.300782l-26.398438-12.320313c-18.925781-8.835937-39.90625-9.226562-59.066406-1.101562-22.320313 9.46875-46.808594 9.207031-68.960937-.734375l-10.550782-4.730469c-19.976562-8.972656-41.847656-8.609375-61.601562.992187l-6.496094 3.15625c-21.152344 10.285157-44.871094 11.613282-66.800781 3.746094l-11.925781-4.285156c-19.367188-6.949219-40.183594-5.382812-58.636719 4.40625l-33.074219 17.539062c-1.019531.542969-2.113281.796876-3.195312.796876zm0 0" fill="#00e7ff"/><path d="m88.75 280.023438h102.398438v68.265624h-102.398438zm0 0" fill="#ffe600"/><path d="m191.148438 280.023438h27.308593v68.265624h-27.308593zm0 0" fill="#ea3457"/></svg>