<svg height="416pt" viewBox="0 -7 416.42667 416" width="416pt" xmlns="http://www.w3.org/2000/svg"><path d="m282.722656 292.652344c2.921875-8.414063 6.535156-17.148438 10.824219-26.199219h-218.453125c26.253906 55.371094 27.074219 98.984375 0 129.707031h218.453125c-9.375-10.636718-15.40625-22.820312-18.191406-36.503906" fill="#fff"/><path d="m293.546875 402.988281h-218.453125c-2.679688 0-5.121094-1.570312-6.222656-4.019531-1.105469-2.445312-.671875-5.308594 1.101562-7.324219 24.902344-28.261719 24.5625-68.253906-1.046875-122.269531-1.003906-2.113281-.851562-4.59375.402344-6.574219 1.246094-1.972656 3.425781-3.175781 5.765625-3.175781h218.453125c2.339844 0 4.519531 1.203125 5.765625 3.179688 1.253906 1.976562 1.40625 4.457031.398438 6.574218-4.160157 8.769532-7.707032 17.355469-10.546876 25.519532-1.230468 3.558593-5.140624 5.453124-8.683593 4.203124-3.5625-1.238281-5.449219-5.128906-4.207031-8.691406 1.933593-5.558594 4.171874-11.289062 6.683593-17.128906h-197.285156c20.519531 47.648438 21.527344 86.578125 3.035156 116.050781h191.230469c-5.417969-8.636719-9.199219-18.113281-11.269531-28.3125-.753907-3.695312 1.625-7.300781 5.324219-8.054687 3.679687-.734375 7.300781 1.632812 8.046874 5.328125 2.546876 12.503906 8.140626 23.722656 16.628907 33.351562 1.773437 2.015625 2.207031 4.878907 1.097656 7.324219-1.097656 2.449219-3.539063 4.019531-6.21875 4.019531zm0 0" fill="#602f75"/><path d="m307.199219 164.054688h54.613281v75.09375h-54.613281zm0 0" fill="#ea3457"/><path d="m361.8125 245.972656h-54.613281c-3.773438 0-6.824219-3.054687-6.824219-6.824218v-75.09375c0-3.769532 3.050781-6.828126 6.824219-6.828126h54.613281c3.773438 0 6.828125 3.058594 6.828125 6.828126v75.09375c0 3.769531-3.054687 6.824218-6.828125 6.824218zm-47.785156-13.652344h40.960937v-61.441406h-40.960937zm0 0" fill="#602f75"/><path d="m143.359375 75.425781v-54.730469h75.710937v54.730469zm0 0" fill="#fff"/><path d="m219.074219 82.25h-75.714844c-3.773437 0-6.824219-3.058594-6.824219-6.828125v-54.730469c0-3.769531 3.050782-6.824218 6.824219-6.824218h75.714844c3.773437 0 6.824219 3.054687 6.824219 6.824218v54.730469c0 3.769531-3.050782 6.828125-6.824219 6.828125zm-68.886719-13.652344h62.058594v-41.078125h-62.058594zm0 0" fill="#602f75"/><path d="m6.828125 164.054688h54.613281v75.09375h-54.613281zm0 0" fill="#ea3457"/><path d="m61.441406 245.972656h-54.613281c-3.773437 0-6.828125-3.054687-6.828125-6.824218v-75.09375c0-3.769532 3.054688-6.828126 6.828125-6.828126h54.613281c3.773438 0 6.824219 3.058594 6.824219 6.828126v75.09375c0 3.769531-3.050781 6.824218-6.824219 6.824218zm-47.789062-13.652344h40.960937v-61.441406h-40.960937zm0 0" fill="#602f75"/><path d="m327.679688 201.25c0-81.253906-65.710938-147.125-146.773438-147.125-81.058594 0-146.773438 65.871094-146.773438 147.125s65.714844 147.125 146.773438 147.125c81.0625 0 146.773438-65.871094 146.773438-147.125zm0 0" fill="#ffe600"/><path d="m180.90625 355.199219c-84.691406 0-153.597656-69.0625-153.597656-153.949219s68.90625-153.949219 153.597656-153.949219c84.695312 0 153.601562 69.0625 153.601562 153.949219s-68.90625 153.949219-153.601562 153.949219zm0-294.246094c-77.167969 0-139.945312 62.9375-139.945312 140.296875s62.777343 140.296875 139.945312 140.296875 139.945312-62.9375 139.945312-140.296875-62.777343-140.296875-139.945312-140.296875zm0 0" fill="#602f75"/><path d="m283.019531 201.25c0 55.296875-44.828125 100.125-100.125 100.125-55.300781 0-100.128906-44.828125-100.128906-100.125s44.828125-100.125 100.128906-100.125c55.296875 0 100.125 44.828125 100.125 100.125zm0 0" fill="#fff"/><path d="m182.894531 308.203125c-58.976562 0-106.953125-47.980469-106.953125-106.953125s47.976563-106.953125 106.953125-106.953125c58.972657 0 106.953125 47.980469 106.953125 106.953125s-47.980468 106.953125-106.953125 106.953125zm0-200.253906c-51.449219 0-93.300781 41.851562-93.300781 93.300781s41.851562 93.300781 93.300781 93.300781c51.445313 0 93.296875-41.851562 93.296875-93.300781s-41.851562-93.300781-93.296875-93.300781zm0 0" fill="#602f75"/><path d="m241.433594 201.25c0 32.332031-26.210938 58.539062-58.539063 58.539062-32.332031 0-58.539062-26.207031-58.539062-58.539062 0-32.328125 26.207031-58.539062 58.539062-58.539062 32.328125 0 58.539063 26.210937 58.539063 58.539062zm0 0" fill="#00e7ff"/><path d="m182.894531 266.613281c-36.039062 0-65.367187-29.324219-65.367187-65.363281 0-36.042969 29.328125-65.367188 65.367187-65.367188 36.039063 0 65.367188 29.324219 65.367188 65.367188 0 36.039062-29.328125 65.363281-65.367188 65.363281zm0-117.078125c-28.515625 0-51.714843 23.203125-51.714843 51.714844s23.199218 51.710938 51.714843 51.710938c28.511719 0 51.710938-23.199219 51.710938-51.710938s-23.199219-51.714844-51.710938-51.714844zm0 0" fill="#00e7ff"/><g fill="#602f75"><path d="m383.8125 205.011719h-22c-3.773438 0-6.824219-3.054688-6.824219-6.824219s3.050781-6.828125 6.824219-6.828125h22c10.453125 0 18.960938-8.503906 18.960938-18.960937v-165.359376c0-3.769531 3.054687-6.824218 6.828124-6.824218 3.773438 0 6.824219 3.054687 6.824219 6.824218v165.359376c0 17.980468-14.632812 32.613281-32.613281 32.613281zm0 0"/><path d="m189.226562 78.71875c0 4.597656-3.726562 8.320312-8.320312 8.320312s-8.320312-3.722656-8.320312-8.320312c0-4.59375 3.726562-8.320312 8.320312-8.320312s8.320312 3.726562 8.320312 8.320312zm0 0"/><path d="m189.226562 324.480469c0 4.59375-3.726562 8.320312-8.320312 8.320312s-8.320312-3.726562-8.320312-8.320312 3.726562-8.320313 8.320312-8.320313 8.320312 3.726563 8.320312 8.320313zm0 0"/><path d="m66.347656 201.601562c0 4.59375-3.726562 8.320313-8.320312 8.320313s-8.320313-3.726563-8.320313-8.320313c0-4.597656 3.726563-8.320312 8.320313-8.320312s8.320312 3.722656 8.320312 8.320312zm0 0"/><path d="m312.105469 201.601562c0 4.59375-3.722657 8.320313-8.320313 8.320313-4.59375 0-8.320312-3.726563-8.320312-8.320313 0-4.597656 3.726562-8.320312 8.320312-8.320312 4.597656 0 8.320313 3.722656 8.320313 8.320312zm0 0"/><path d="m95.25 111.898438c-3.433594-3.050782-8.691406-2.738282-11.742188.699218-3.050781 3.4375-2.738281 8.695313.699219 11.746094s8.695313 2.734375 11.746094-.699219c3.046875-3.4375 2.734375-8.695312-.703125-11.746093zm0 0"/><path d="m279.070312 275.039062c-3.4375-3.050781-8.695312-2.738281-11.746093.699219s-2.738281 8.695313.699219 11.746094 8.695312 2.734375 11.746093-.699219c3.050781-3.4375 2.734375-8.695312-.699219-11.746094zm0 0"/><path d="m95.960938 278.847656c-3.050782-3.433594-8.308594-3.75-11.746094-.699218-3.4375 3.050781-3.75 8.308593-.699219 11.746093s8.308594 3.75 11.746094.699219 3.75-8.308594.699219-11.746094zm0 0"/><path d="m279.761719 115.722656c-3.050781-3.4375-8.308594-3.75-11.746094-.699218-3.433594 3.050781-3.75 8.308593-.699219 11.746093 3.050782 3.4375 8.308594 3.75 11.746094.699219s3.75-8.308594.699219-11.746094zm0 0"/></g></svg>