<svg height="410pt" viewBox="-41 0 410 410.34982" width="410pt" xmlns="http://www.w3.org/2000/svg"><path d="m259.589844 198.722656 61.4375-40.960937v75.09375zm0 0" fill="#ea3457"/><path d="m321.027344 239.683594c-1.140625 0-2.285156-.289063-3.3125-.859375l-61.4375-34.132813c-2.082032-1.160156-3.414063-3.3125-3.507813-5.691406-.101562-2.382812 1.050781-4.636719 3.03125-5.957031l61.441407-40.960938c2.085937-1.394531 4.792968-1.527343 7.003906-.339843 2.222656 1.191406 3.605468 3.503906 3.605468 6.019531v75.09375c0 2.421875-1.277343 4.660156-3.367187 5.882812-1.0625.632813-2.257813.945313-3.457031.945313zm-48.339844-41.488282 41.515625 23.058594v-50.734375zm0 0" fill="#602f75"/><path d="m279.851562 285.484375.023438-23.015625c.007812-8.101562-5.113281-15.566406-12.90625-17.785156-20.023438-5.691406-34.6875-24.113282-34.6875-45.960938 0-21.886718 14.71875-40.335937 34.792969-45.996094 7.792969-2.195312 12.925781-9.65625 12.933593-17.753906l.058594-59.128906c-20.476562-81.921875-95.570312-68.265625-95.570312-68.265625 6.824218 47.785156-47.789063 54.613281-47.789063 54.613281v34.132813h105.816407c-54.667969 0-98.988282 44.316406-98.988282 98.984375 0 47.835937 33.929688 87.746094 79.039063 96.976562v20.324219c0 30.257813-26.308594 54.550781-56.324219 50.722656-42.082031-5.367187-63.675781-48.554687-63.675781-48.554687 0 49.015625 39.730469 88.746094 88.746093 88.746094 46.722657 0 85.011719-36.105469 88.488282-81.9375" fill="#ffe600"/><path d="m191.320312 410.351562c-52.699218 0-95.570312-42.875-95.570312-95.574218 0-3.164063 2.171875-5.90625 5.246094-6.636719 3.078125-.734375 6.257812.75 7.679687 3.574219.199219.398437 20.578125 40.015625 58.4375 44.84375 12.1875 1.570312 24.074219-2.140625 33.460938-10.414063 9.644531-8.488281 15.171875-20.714843 15.171875-33.535156v-14.902344c-46.125-12.03125-79.039063-54.226562-79.039063-102.398437 0-39.480469 21.734375-73.976563 53.863281-92.160156h-53.863281c-3.773437 0-6.824219-3.054688-6.824219-6.824219v-34.132813c0-3.445312 2.566407-6.347656 5.980469-6.773437.21875-.03125 23.824219-3.242188 35.652344-18.792969 5.722656-7.515625 7.8125-16.964844 6.222656-28.082031-.523437-3.632813 1.925781-7.027344 5.539063-7.683594.804687-.152344 81.644531-13.773437 103.414062 73.328125.136719.542969.207032 1.101562.207032 1.664062l-.0625 59.128907c-.019532 11.355469-7.386719 21.355469-17.914063 24.316406-17.550781 4.949219-29.8125 21.160156-29.8125 39.425781 0 18.21875 12.226563 34.417969 29.726563 39.394532 10.527343 2.996093 17.875 13.007812 17.867187 24.355468l-.027344 23.015625c-.007812 3.769531-3.058593 6.820313-6.824219 6.820313h-.007812c-3.773438-.003906-6.828125-3.0625-6.820312-6.832032l.027343-23.019531c.007813-5.265625-3.265625-9.875-7.945312-11.207031-23.347657-6.640625-39.648438-28.238281-39.648438-52.527344 0-24.351562 16.355469-45.96875 39.769531-52.566406 4.679688-1.316406 7.953126-5.921875 7.957032-11.195312l.058594-58.269532c-15.816407-61.601562-64.085938-64.214844-81.359376-63.089844.410157 11.980469-2.796874 22.507813-9.5625 31.371094-11.253906 14.734375-29.417968 20.679688-38.785156 22.859375v21.664063h98.984375c3.773438 0 6.828125 3.058594 6.828125 6.828125s-3.054687 6.824219-6.828125 6.824219c-50.820312 0-92.160156 41.34375-92.160156 92.160156 0 43.59375 30.949219 81.566406 73.578125 90.289062 3.179688.652344 5.460938 3.445313 5.460938 6.6875v20.324219c0 16.742187-7.21875 32.703125-19.800782 43.78125-12.195312 10.742187-28.34375 15.738281-44.210937 13.714844-22.707031-2.898438-39.753907-15.605469-51.222657-27.773438 11.339844 31.65625 41.648438 54.363281 77.152344 54.363281 42.589844 0 78.46875-33.21875 81.679688-75.628906.289062-3.757812 3.609375-6.5625 7.320312-6.289062 3.761719.28125 6.582032 3.5625 6.296875 7.324218-3.746093 49.488282-45.605469 88.25-95.292969 88.25zm0 0" fill="#602f75"/><path d="m170.847656 191.898438c-2.078125 0-4.125-.945313-5.464844-2.734376-2.265624-3.015624-1.65625-7.292968 1.367188-9.554687l27.304688-20.480469c3.015624-2.277344 7.292968-1.652344 9.554687 1.363282 2.265625 3.015624 1.652344 7.296874-1.367187 9.558593l-27.304688 20.480469c-1.230469.921875-2.664062 1.367188-4.089844 1.367188zm0 0" fill="#602f75"/><path d="m170.847656 232.855469c-2.078125 0-4.125-.941407-5.464844-2.730469-2.265624-3.015625-1.65625-7.296875 1.367188-9.554688l27.304688-20.480468c3.015624-2.269532 7.292968-1.652344 9.554687 1.363281 2.265625 3.015625 1.652344 7.296875-1.367187 9.554687l-27.304688 20.480469c-1.230469.925781-2.664062 1.367188-4.089844 1.367188zm0 0" fill="#602f75"/><g fill="#00e7ff"><path d="m109.402344 133.871094c0 16.964844-13.753906 30.71875-30.722656 30.71875-16.964844 0-30.71875-13.753906-30.71875-30.71875 0-16.96875 13.753906-30.722656 30.71875-30.722656 16.96875 0 30.722656 13.753906 30.722656 30.722656zm0 0"/><path d="m78.679688 171.417969c-20.699219 0-37.542969-16.84375-37.542969-37.546875s16.84375-37.546875 37.542969-37.546875c20.703124 0 37.546874 16.84375 37.546874 37.546875s-16.84375 37.546875-37.546874 37.546875zm0-61.441407c-13.171876 0-23.890626 10.71875-23.890626 23.894532 0 13.171875 10.71875 23.890625 23.890626 23.890625 13.175781 0 23.894531-10.71875 23.894531-23.890625 0-13.175782-10.71875-23.894532-23.894531-23.894532zm0 0"/><path d="m47.960938 75.84375c0 11.308594-9.167969 20.480469-20.480469 20.480469-11.308594 0-20.480469-9.171875-20.480469-20.480469 0-11.3125 9.171875-20.480469 20.480469-20.480469 11.3125 0 20.480469 9.167969 20.480469 20.480469zm0 0"/><path d="m27.480469 103.148438c-15.058594 0-27.304688-12.25-27.304688-27.304688 0-15.058594 12.246094-27.308594 27.304688-27.308594 15.0625 0 27.308593 12.25 27.308593 27.308594 0 15.054688-12.246093 27.304688-27.308593 27.304688zm0-40.957032c-7.523438 0-13.652344 6.121094-13.652344 13.652344 0 7.527344 6.128906 13.652344 13.652344 13.652344 7.527343 0 13.65625-6.125 13.65625-13.652344 0-7.53125-6.128907-13.652344-13.65625-13.652344zm0 0"/><path d="m82.09375 24.644531c0 9.425781-7.640625 17.066407-17.066406 17.066407-9.425782 0-17.066406-7.640626-17.066406-17.066407s7.640624-17.066406 17.066406-17.066406c9.425781 0 17.066406 7.640625 17.066406 17.066406zm0 0"/><path d="m65.027344 48.535156c-13.171875 0-23.890625-10.71875-23.890625-23.890625 0-13.175781 10.71875-23.894531 23.890625-23.894531 13.175781 0 23.894531 10.71875 23.894531 23.894531 0 13.171875-10.71875 23.890625-23.894531 23.890625zm0-34.132812c-5.644532 0-10.238282 4.59375-10.238282 10.242187 0 5.644531 4.59375 10.238281 10.238282 10.238281 5.648437 0 10.242187-4.59375 10.242187-10.238281 0-5.648437-4.59375-10.242187-10.242187-10.242187zm0 0"/></g></svg>