<svg height="418pt" viewBox="-3 0 418 418.8033" width="418pt" xmlns="http://www.w3.org/2000/svg"><path d="m310.777344 278.660156c-1.609375-14.074218 2.980468-28.71875 13.773437-39.511718 18.789063-18.789063 49.246094-18.789063 68.03125 0 11.632813 11.628906 16.0625 27.734374 13.292969 42.773437zm0 0" fill="#00e7ff"/><path d="m405.875 288.75c-.074219 0-.15625 0-.234375-.003906l-95.101563-3.261719c-3.378906-.117187-6.167968-2.691406-6.546874-6.050781-1.914063-16.757813 3.820312-33.199219 15.734374-45.113282 21.40625-21.40625 56.265626-21.421874 77.6875 0 12.777344 12.789063 18.453126 31.046876 15.171876 48.839844-.597657 3.25-3.433594 5.589844-6.710938 5.589844zm-88.574219-16.695312 82.515625 2.828124c.472656-11.449218-3.835937-22.6875-12.054687-30.910156-16.09375-16.097656-42.289063-16.082031-58.382813 0-7.566406 7.566406-11.8125 17.566406-12.078125 28.082032zm0 0" fill="#602f75"/><path d="m273.355469 316.078125c-14.070313-1.609375-28.71875 2.984375-39.511719 13.777344-18.785156 18.785156-18.785156 49.242187 0 68.03125 11.632812 11.628906 27.734375 16.0625 42.773438 13.289062zm0 0" fill="#00e7ff"/><path d="m267.875 418.804688c-14.449219 0-28.460938-5.695313-38.855469-16.09375-21.421875-21.414063-21.421875-56.265626 0-77.683594 11.90625-11.914063 28.378907-17.644532 45.109375-15.730469 3.359375.386719 5.933594 3.167969 6.042969 6.546875l3.269531 95.097656c.117188 3.378906-2.261718 6.335938-5.585937 6.945313-3.320313.617187-6.664063.917969-9.980469.917969zm-1.128906-96.199219c-10.511719.265625-20.507813 4.515625-28.070313 12.078125-16.09375 16.09375-16.09375 42.28125 0 58.375 8.210938 8.21875 19.472657 12.527344 30.90625 12.054687zm0 0" fill="#602f75"/><path d="m202.054688 114.628906c-23.703126-23.707031-22.617188-63.230468 2.433593-88.28125 25.046875-25.046875 64.570313-26.136718 88.277344-2.429687zm0 0" fill="#00e7ff"/><path d="m202.054688 121.453125c-1.8125 0-3.546876-.71875-4.828126-2-26.328124-26.332031-25.234374-70.261719 2.433594-97.929687 13.351563-13.355469 30.851563-20.988282 49.28125-21.4960942 18.492188-.5078128 35.84375 6.2539062 48.652344 19.0664062 1.28125 1.28125 2 3.015625 2 4.824219 0 1.8125-.71875 3.546875-2 4.828125l-90.710938 90.707031c-1.28125 1.28125-3.015624 2-4.828124 2zm48.824218-107.800781c-.519531 0-1.039062.007812-1.558594.027344-14.925781.40625-29.132812 6.621093-40.003906 17.5-20.609375 20.605468-23.140625 52.203124-6.933594 73.46875l80.414063-80.40625c-9.023437-6.886719-20.097656-10.589844-31.917969-10.589844zm0 0" fill="#602f75"/><path d="m24.285156 292.398438c-23.703125-23.703126-22.617187-63.230469 2.429688-88.277344 25.050781-25.050782 64.574218-26.136719 88.28125-2.429688zm0 0" fill="#00e7ff"/><path d="m24.285156 299.226562c-1.8125 0-3.546875-.71875-4.824218-2-26.335938-26.328124-25.242188-70.261718 2.425781-97.933593 27.671875-27.671875 71.601562-28.761719 97.933593-2.429688 2.664063 2.664063 2.664063 6.988281 0 9.652344l-90.707031 90.710937c-1.28125 1.28125-3.011719 2-4.828125 2zm48.800782-107.78125c-14.792969 0-29.917969 5.875-41.546876 17.5-20.605468 20.609376-23.132812 52.207032-6.925781 73.476563l80.398438-80.40625c-9.265625-7.0625-20.5-10.570313-31.925781-10.570313zm0 0" fill="#602f75"/><path d="m165.8125 103.085938-30.972656-30.972657c-9.25-9.25-21.628906-14.707031-34.695313-15.296875l-17.859375.171875c-12.664062-.570312-27.878906 7.816407-27.304687 20.480469v20.480469c.585937 13.070312 8.449219 27.070312 17.699219 36.320312l30.976562 30.976563zm0 0" fill="#00e7ff"/><path d="m103.652344 172.074219c-1.746094 0-3.492188-.667969-4.824219-2l-30.972656-30.972657c-9.042969-9.046874-18.960938-24.527343-19.695313-40.84375l-.007812-20.789062c-.285156-6.132812 2.179687-12.15625 7.140625-17.113281 6.636719-6.640625 17.421875-10.632813 27.300781-10.183594l17.488281-.179687c15.179688.675781 29.097657 6.816406 39.585938 17.296874l30.972656 30.972657c2.664063 2.664062 2.664063 6.984375 0 9.652343l-62.160156 62.160157c-1.332031 1.332031-3.078125 2-4.828125 2zm-22.277344-108.277344c-6.195312 0-12.699219 2.484375-16.425781 6.210937-2.203125 2.203126-3.261719 4.613282-3.148438 7.152344l.007813 20.792969c.453125 9.921875 6.617187 22.40625 15.699218 31.496094l26.144532 26.144531 52.507812-52.507812-26.144531-26.144532c-8.070313-8.066406-18.789063-12.789062-30.175781-13.304687l-17.484375.179687c-.328125-.011718-.65625-.019531-.980469-.019531zm0 0" fill="#602f75"/><path d="m338.753906 210.449219c1.984375 7.875 2.816406 16.070312 2.40625 24.339843l-2.4375 49.269532c-1.589844 32.09375-27.902344 57.394531-60.035156 57.722656l-45.414062.46875c-22.296876.230469-43.746094-8.523438-59.511719-24.289062l-54.03125-54.03125c-36.246094-36.246094-42.539063-94.195313-11.921875-135.308594 37.183594-49.925782 110.339844-55.40625 152.964844-12.78125l56.191406 56.191406" fill="#ffe600"/><path d="m232.441406 349.085938c-23.667968 0-46.765625-9.554688-63.507812-26.296876l-54.027344-54.03125c-39.199219-39.203124-44.605469-101.199218-12.570312-144.210937 19.039062-25.566406 48.292968-41.566406 80.246093-43.890625 31.21875-2.230469 61.453125 8.792969 83.019531 30.363281l56.195313 56.1875c2.664063 2.667969 2.664063 6.988281 0 9.652344-2.667969 2.667969-6.988281 2.667969-9.652344 0l-56.195312-56.1875c-18.757813-18.753906-45.082031-28.363281-72.375-26.402344-28 2.035157-53.621094 16.042969-70.292969 38.429688-28.015625 37.617187-23.167969 91.957031 11.277344 126.40625l54.027344 54.027343c14.199218 14.195313 33.785156 22.296876 53.847656 22.296876.257812 0 .511718 0 .765625-.003907l45.414062-.46875c28.480469-.292969 51.878907-22.796875 53.285157-51.238281l2.441406-49.265625c.375-7.523437-.375-15.039063-2.207032-22.339844-.917968-3.652343 1.300782-7.363281 4.953126-8.285156 3.648437-.910156 7.367187 1.296875 8.285156 4.957031 2.167968 8.609375 3.039062 17.46875 2.605468 26.339844l-2.4375 49.269531c-1.769531 35.640625-31.101562 63.847657-66.78125 64.214844l-45.414062.46875c-.304688.007813-.601562.007813-.902344.007813zm0 0" fill="#602f75"/><g fill="#ea3457"><path d="m194.664062 122.019531c-8.554687-8.554687-22.425781-8.554687-30.980468 0-8.554688 8.554688-8.554688 22.421875 0 30.976563 8.554687 8.554687 22.425781 8.554687 30.980468 0 8.554688-8.554688 8.554688-22.421875 0-30.976563zm0 0"/><path d="m179.171875 166.238281c-7.671875 0-14.886719-2.988281-20.3125-8.414062-11.199219-11.203125-11.199219-29.429688 0-40.636719 5.429687-5.425781 12.640625-8.414062 20.3125-8.414062 7.679687 0 14.894531 2.988281 20.320313 8.414062 11.199218 11.203125 11.199218 29.429688 0 40.636719-5.425782 5.425781-12.640626 8.414062-20.320313 8.414062zm0-43.804687c-3.859375 0-7.71875 1.46875-10.660156 4.410156-5.871094 5.878906-5.871094 15.445312 0 21.328125 5.886719 5.882813 15.457031 5.871094 21.328125 0 5.871094-5.882813 5.871094-15.449219 0-21.328125-2.9375-2.941406-6.800782-4.410156-10.667969-4.410156zm0 0"/><path d="m284.21875 173.890625c-5.707031-5.710937-14.960938-5.710937-20.667969 0-5.710937 5.707031-5.710937 14.960937 0 20.667969 5.707031 5.707031 14.960938 5.707031 20.667969 0 5.707031-5.707032 5.707031-14.960938 0-20.667969zm0 0"/><path d="m273.886719 205.667969c-5.726563 0-11.113281-2.234375-15.160157-6.285157-8.359374-8.359374-8.359374-21.960937 0-30.320312 8.09375-8.101562 22.226563-8.101562 30.320313 0 8.359375 8.359375 8.359375 21.957031 0 30.320312-4.046875 4.050782-9.433594 6.285157-15.160156 6.285157zm0-29.234375c-2.082031 0-4.03125.8125-5.507813 2.285156-3.03125 3.035156-3.03125 7.976562 0 11.011719 2.949219 2.949219 8.066406 2.949219 11.011719 0 3.035156-3.035157 3.035156-7.976563 0-11.011719-1.46875-1.476562-3.421875-2.285156-5.503906-2.285156zm0 0"/><path d="m299.730469 241.058594c-5.707031-5.707032-14.960938-5.707032-20.671875 0-5.707032 5.707031-5.707032 14.960937 0 20.667968 5.710937 5.707032 14.964844 5.707032 20.671875 0 5.707031-5.707031 5.707031-14.960937 0-20.667968zm0 0"/><path d="m289.398438 272.832031c-5.722657 0-11.113282-2.230469-15.160157-6.277343-4.046875-4.050782-6.277343-9.433594-6.277343-15.160157 0-5.730469 2.230468-11.113281 6.277343-15.160156 8.09375-8.101563 22.226563-8.101563 30.320313 0 4.054687 4.046875 6.28125 9.429687 6.28125 15.160156 0 5.726563-2.234375 11.109375-6.28125 15.160157-4.042969 4.046874-9.429688 6.277343-15.160156 6.277343zm0-29.226562c-2.078126 0-4.03125.808593-5.503907 2.28125-3.035156 3.035156-3.035156 7.976562 0 11.011719 3.039063 3.035156 7.972657 3.035156 11.011719 0 3.03125-3.035157 3.03125-7.976563 0-11.011719-1.472656-1.472657-3.425781-2.28125-5.507812-2.28125zm0 0"/><path d="m211.9375 204.867188c-5.707031-5.707032-14.964844-5.707032-20.671875 0-5.707031 5.707031-5.707031 14.960937 0 20.667968 5.707031 5.707032 14.964844 5.707032 20.671875 0 5.707031-5.707031 5.707031-14.960937 0-20.667968zm0 0"/><path d="m201.605469 236.632812c-5.492188 0-10.980469-2.089843-15.160157-6.269531-4.050781-4.046875-6.285156-9.433593-6.285156-15.160156 0-5.730469 2.234375-11.117187 6.285156-15.167969 8.09375-8.09375 22.226563-8.09375 30.324219.003906 8.359375 8.359376 8.359375 21.964844 0 30.324219-4.183593 4.179688-9.671875 6.269531-15.164062 6.269531zm0-29.214843c-1.992188 0-3.984375.757812-5.503907 2.277343-1.472656 1.472657-2.289062 3.429688-2.289062 5.507813s.816406 4.035156 2.289062 5.503906c3.039063 3.042969 7.972657 3.039063 11.011719.003907 3.03125-3.035157 3.03125-7.980469 0-11.015626-1.519531-1.519531-3.511719-2.277343-5.507812-2.277343zm0 0"/></g></svg>