<svg height="420pt" viewBox="0 -13 420.25769 420" width="420pt" xmlns="http://www.w3.org/2000/svg"><path d="m363 131.691406c-6.617188 13.132813-17.25 87.773438-17.25 87.773438s58.191406-50.671875 64.8125-63.804688c6.617188-13.132812 1.339844-29.144531-11.792969-35.765625-13.136719-6.621093-29.148437-1.339843-35.769531 11.796875zm0 0" fill="#ea3457"/><path d="m345.75 226.289062c-1.113281 0-2.238281-.273437-3.257812-.828124-2.507813-1.359376-3.902344-4.136719-3.503907-6.960938 1.109375-7.753906 10.996094-76.148438 17.921875-89.886719 4.019532-7.980469 10.90625-13.914062 19.394532-16.710937 8.492187-2.804688 17.566406-2.125 25.539062 1.894531 7.980469 4.023437 13.914062 10.914063 16.710938 19.398437 2.800781 8.488282 2.128906 17.558594-1.898438 25.539063-6.871094 13.636719-56.539062 57.269531-66.425781 65.878906-1.269531 1.105469-2.867188 1.675781-4.480469 1.675781zm41.050781-102.425781c-2.085937 0-4.179687.332031-6.21875 1.003907-5.027343 1.660156-9.101562 5.171874-11.488281 9.894531-3.578125 7.105469-9.511719 39.8125-13.804688 67.132812 20.992188-18.882812 45.640626-42.28125 49.179688-49.304687 2.378906-4.726563 2.78125-10.089844 1.117188-15.113282-1.652344-5.027343-5.164063-9.105468-9.890626-11.484374-2.804687-1.417969-5.839843-2.128907-8.894531-2.128907zm0 0" fill="#602f75"/><path d="m274.828125 340.507812h15.171875c38.195312 0 71.714844-28.421874 74.863281-66.488281 1.78125-21.492187-5.882812-41.148437-19.191406-55.484375-10.265625 26.042969-35.59375 44.503906-65.285156 44.503906-37.957031 0-58.117188-66.066406-58.117188-66.066406v-125.519531c0-54.140625-64.484375-85.089844-104.710937-48.859375-11.480469 10.34375-18.738282 24.324219-18.738282 39.511719v206.167969c0 39.894531 32.339844 72.234374 72.234376 72.234374h71.976562" fill="#fff"/><path d="m289.996094 347.335938h-15.167969c-3.773437 0-6.824219-3.058594-6.824219-6.828126 0-3.769531 3.050782-6.828124 6.824219-6.828124h15.167969c35.375 0 65.273437-26.453126 68.0625-60.226563 1.257812-15.191406-2.597656-29.84375-10.949219-42.179687-13.59375 23.761718-38.71875 38.59375-66.71875 38.59375-42.527344 0-63.765625-68.011719-64.648437-70.902344-.199219-.648438-.300782-1.316406-.300782-1.996094v-125.515625c0-23.015625-13.230468-43.203125-34.542968-52.6875-20.484376-9.117187-42.457032-5.792969-58.769532 8.902344-10.628906 9.578125-16.484375 21.808593-16.484375 34.4375v206.171875c0 36.066406 29.34375 65.40625 65.410157 65.40625h71.976562c3.773438 0 6.824219 3.054687 6.824219 6.824218 0 3.769532-3.050781 6.828126-6.824219 6.828126h-71.976562c-43.59375 0-79.0625-35.464844-79.0625-79.058594v-206.171875c0-16.550781 7.457031-32.386719 20.996093-44.585938 20.136719-18.140625 48.28125-22.449219 73.460938-11.230469 26.308593 11.707032 42.648437 36.679688 42.648437 65.164063v124.476563c5.625 17.671874 24.851563 60.285156 51.292969 60.285156 26.179687 0 49.3125-15.773438 58.925781-40.183594.859375-2.179688 2.78125-3.769531 5.085938-4.203125 2.292968-.445313 4.671875.34375 6.265625 2.058594 15.40625 16.59375 22.867187 38.148437 21 60.695312-3.371094 40.796875-39.246094 72.753907-81.671875 72.753907zm0 0" fill="#602f75"/><path d="m280.386719 263.039062c37.457031 2.199219 52.203125-16.492187 63.4375-40.285156l1.324219-5.300781-122.878907-20.480469s6.867188 63.058594 58.117188 66.066406zm0 0" fill="#00e7ff"/><path d="m286.230469 270.042969c-2.015625 0-4.09375-.0625-6.238281-.1875-45.101563-2.648438-61.914063-48.351563-64.507813-72.144531-.234375-2.121094.546875-4.230469 2.097656-5.703126 1.554688-1.464843 3.707031-2.121093 5.808594-1.769531l122.878906 20.480469c1.878907.3125 3.546875 1.394531 4.585938 2.992188 1.046875 1.59375 1.382812 3.546874.914062 5.398437l-1.324219 5.300781c-.109374.433594-.253906.855469-.449218 1.257813-10.933594 23.160156-26.3125 44.375-63.765625 44.375zm-5.441407-13.816407c30.8125 1.828126 44.402344-11.3125 55.386719-33.347656l-105.445312-17.578125c3.859375 16.316407 15.824219 48.914063 50.058593 50.925781zm0 0" fill="#602f75"/><path d="m152.078125 71.789062c0 6.683594-5.417969 12.105469-12.101563 12.105469-6.6875 0-12.105468-5.421875-12.105468-12.105469 0-6.683593 5.417968-12.101562 12.105468-12.101562 6.683594 0 12.101563 5.417969 12.101563 12.101562zm0 0" fill="#602f75"/><path d="m113.34375 141.996094h-93.445312c-7.21875 0-13.070313-5.851563-13.070313-13.074219 0-4.21875 1.984375-8.199219 5.441406-10.617187 11.566407-8.097657 42.464844-24.726563 101.078125-24.726563v48.417969zm0 0" fill="#ea3457"/><path d="m113.347656 148.820312h-93.453125c-10.96875 0-19.894531-8.925781-19.894531-19.894531 0-6.492187 3.125-12.554687 8.355469-16.21875 13.855469-9.691406 45.917969-25.957031 104.992187-25.957031 3.769532 0 6.828125 3.058594 6.828125 6.828125v48.417969c-.003906 3.769531-3.058593 6.824218-6.828125 6.824218zm-6.828125-48.335937c-52.941406 1.234375-80.648437 16.632813-90.335937 23.410156-1.585938 1.109375-2.53125 2.988281-2.53125 5.027344 0 3.445313 2.800781 6.246094 6.242187 6.246094h86.625zm0 0" fill="#602f75"/><path d="m369.960938 100.839844c0 14.707031-24.210938 118.625-24.210938 118.625s-29.050781-103.917969-29.050781-118.625c0-14.707032 11.925781-26.628906 26.632812-26.628906 14.703125 0 26.628907 11.921874 26.628907 26.628906zm0 0" fill="#ea3457"/><g fill="#602f75"><path d="m345.75 226.289062c-3.058594 0-5.746094-2.03125-6.574219-4.988281-3-10.726562-29.300781-105.257812-29.300781-120.460937 0-18.445313 15.007812-33.457032 33.457031-33.457032 18.445313 0 33.457031 15.011719 33.457031 33.457032 0 15.058594-21.894531 109.457031-24.394531 120.171875-.707031 3.039062-3.378906 5.207031-6.5 5.277343-.046875 0-.097656 0-.144531 0zm-2.417969-145.25c-10.921875 0-19.800781 8.882813-19.800781 19.804688 0 8.046875 11.371094 52.742188 21.617188 90.664062 8.675781-38.46875 17.988281-82.445312 17.988281-90.664062 0-10.921875-8.886719-19.804688-19.804688-19.804688zm0 0"/><path d="m202.074219 394.945312c-3.773438 0-6.824219-3.058593-6.824219-6.828124v-47.609376c0-3.769531 3.050781-6.824218 6.824219-6.824218 3.773437 0 6.828125 3.054687 6.828125 6.824218v47.609376c0 3.769531-3.054688 6.828124-6.828125 6.828124zm0 0"/><path d="m243.035156 394.945312c-3.773437 0-6.824218-3.058593-6.824218-6.828124v-47.609376c0-3.769531 3.050781-6.824218 6.824218-6.824218 3.773438 0 6.828125 3.054687 6.828125 6.824218v47.609376c0 3.769531-3.054687 6.828124-6.828125 6.828124zm0 0"/></g><path d="m167.65625 299.371094c-7.539062 0-13.652344-6.113282-13.652344-13.652344v-136.535156c0-7.539063 6.113282-13.652344 13.652344-13.652344s13.652344 6.113281 13.652344 13.652344v136.535156c0 7.539062-6.113282 13.652344-13.652344 13.652344zm0 0" fill="#ffe600"/></svg>