<svg height="414pt" viewBox="0 -12 414.33229 414" width="414pt" xmlns="http://www.w3.org/2000/svg"><path d="m323.535156 384.246094h-234.839844c-12.441406 0-22.523437-10.085938-22.523437-22.527344v-36.867188c0-12.441406 10.082031-22.523437 22.523437-22.523437h234.839844c12.445313 0 22.527344 10.082031 22.527344 22.523437v36.867188c0 12.441406-10.085938 22.527344-22.527344 22.527344zm0 0" fill="#ea3457"/><path d="m323.535156 391.074219h-234.839844c-16.183593 0-29.351562-13.167969-29.351562-29.355469v-36.867188c0-16.183593 13.167969-29.351562 29.351562-29.351562h234.839844c16.1875 0 29.355469 13.167969 29.355469 29.351562v36.867188c0 16.1875-13.167969 29.355469-29.355469 29.355469zm-234.839844-81.921875c-8.65625 0-15.699218 7.042968-15.699218 15.699218v36.867188c0 8.65625 7.042968 15.703125 15.699218 15.703125h234.839844c8.65625 0 15.703125-7.046875 15.703125-15.703125v-36.867188c0-8.65625-7.046875-15.699218-15.703125-15.699218zm0 0" fill="#ea3457"/><path d="m323.535156 356.941406h-234.839844c-12.441406 0-22.523437-10.085937-22.523437-22.527344v-36.867187c0-12.441406 10.082031-22.527344 22.523437-22.527344h234.839844c12.445313 0 22.527344 10.085938 22.527344 22.527344v36.867187c0 12.441407-10.085938 22.527344-22.527344 22.527344zm0 0" fill="#fff"/><path d="m323.535156 363.765625h-234.839844c-16.183593 0-29.351562-13.164063-29.351562-29.351563v-36.867187c0-16.1875 13.167969-29.351563 29.351562-29.351563h234.839844c16.1875 0 29.355469 13.164063 29.355469 29.351563v36.867187c0 16.1875-13.167969 29.351563-29.355469 29.351563zm-234.839844-81.917969c-8.65625 0-15.699218 7.042969-15.699218 15.699219v36.867187c0 8.65625 7.042968 15.699219 15.699218 15.699219h234.839844c8.65625 0 15.703125-7.042969 15.703125-15.699219v-36.867187c0-8.65625-7.046875-15.699219-15.703125-15.699219zm0 0" fill="#602f75"/><path d="m190.316406 367.925781c10.976563 3.679688 22.789063 3.679688 33.761719 0 24.652344-8.261719 72.015625-28.53125 112.929687-71.574219-33.230468-29.484374-76.941406-47.414062-124.855468-47.414062-50.457032 0-96.238282 19.890625-130.042969 52.207031 39.785156 39.742188 84.496094 58.832031 108.207031 66.78125zm0 0" fill="#ea3457"/><path d="m207.195312 377.53125c-6.410156 0-12.816406-1.042969-19.046874-3.132812-23.8125-7.980469-69.878907-27.484376-110.859376-68.425782-1.300781-1.300781-2.027343-3.066406-2.003906-4.902344.019532-1.839843.777344-3.59375 2.109375-4.863281 36.488281-34.882812 84.34375-54.097656 134.753907-54.097656 47.726562 0 93.675781 17.449219 129.386718 49.132813 1.386719 1.230468 2.214844 2.964843 2.289063 4.816406.082031 1.851562-.59375 3.648437-1.871094 4.992187-41.949219 44.128907-90.496094 64.898438-115.703125 73.347657-6.234375 2.089843-12.644531 3.132812-19.054688 3.132812zm-14.707031-16.078125c9.621094 3.226563 19.792969 3.226563 29.425781 0 22.996094-7.710937 66.402344-26.183594 105.101563-64.652344-32.371094-26.515625-72.878906-41.039062-114.867187-41.039062-44.507813 0-86.886719 16.113281-120.105469 45.515625 37.671875 35.597656 78.753906 52.90625 100.445312 60.175781zm0 0" fill="#602f75"/><path d="m7.628906 151.175781c11.015625 68.464844 41.003906 116.527344 74.484375 149.96875 9.042969-8.648437 18.972657-16.371093 29.597657-23.097656-29.304688-41.824219-60.179688-100.933594-84.582032-183.191406-15.476562 14.378906-22.855468 35.480469-19.5 56.320312zm0 0" fill="#ffe600"/><path d="m82.109375 307.972656c-1.746094 0-3.492187-.667968-4.820313-2-40.851562-40.800781-66.554687-92.519531-76.402343-153.710937-3.710938-23.0625 4.363281-46.390625 21.597656-62.40625 1.726563-1.613281 4.160156-2.203125 6.445313-1.585938 2.28125.621094 4.074218 2.378907 4.742187 4.644531 21.117187 71.179688 49.25 132.152344 83.625 181.21875 1.070313 1.527344 1.46875 3.425782 1.101563 5.257813-.367188 1.828125-1.46875 3.429687-3.042969 4.425781-10.292969 6.515625-19.890625 14.011719-28.53125 22.265625-1.316407 1.257813-3.015625 1.890625-4.714844 1.890625zm-67.742187-157.878906c9.003906 55.964844 31.867187 103.550781 67.992187 141.535156 6.210937-5.53125 12.828125-10.699218 19.765625-15.449218-31.523438-46.464844-57.710938-102.78125-77.972656-167.65625-8.539063 11.964843-12.15625 26.835937-9.785156 41.570312zm0 0" fill="#602f75"/><path d="m335.433594 55.433594c-4.675782 72.4375-32.957032 145.996094-61.796875 203.820312 11.179687 3.867188 21.867187 8.769532 31.980469 14.574219 28.421874-41.546875 58.058593-99.453125 81.648437-178.96875-11.996094-11.265625-29.003906-25.183594-51.832031-39.425781zm0 0" fill="#fff"/><path d="m305.609375 280.65625c-1.152344 0-2.320313-.292969-3.386719-.90625-9.851562-5.648438-20.21875-10.375-30.820312-14.042969-1.851563-.640625-3.34375-2.050781-4.085938-3.871093-.746094-1.820313-.667968-3.871094.210938-5.625 36.667968-73.523438 57.222656-141.222657 61.09375-201.21875.15625-2.394532 1.558594-4.535157 3.695312-5.632813 2.132813-1.09375 4.691406-.984375 6.730469.285156 19.84375 12.378907 37.640625 25.917969 52.886719 40.234375 1.882812 1.765625 2.609375 4.445313 1.871094 6.917969-20.914063 70.519531-48.6875 131.375-82.554688 180.886719-1.3125 1.921875-3.453125 2.972656-5.640625 2.972656zm-22.496094-25.179688c6.921875 2.714844 13.722657 5.84375 20.335938 9.355469 30.855469-46.429687 56.417969-102.847656 76.054687-167.851562-11.382812-10.359375-24.179687-20.292969-38.1875-29.632813-5.519531 56.996094-25.066406 120.183594-58.203125 188.128906zm0 0" fill="#602f75"/><path d="m368.882812 255.140625c17.261719-27.773437 31.011719-61.777344 37.777344-103.296875 3.433594-21.070312-3.738281-42.445312-19.394531-56.988281-23.589844 79.515625-53.226563 137.425781-81.648437 178.972656 11.234374 6.445313 21.761718 13.980469 31.390624 22.523437" fill="#ffe600"/><path d="m337.003906 303.175781c-1.609375 0-3.226562-.566406-4.527344-1.71875-9.195312-8.160156-19.378906-15.460937-30.257812-21.707031-1.652344-.949219-2.832031-2.539062-3.257812-4.398438-.425782-1.855468-.054688-3.804687 1.023437-5.375 33.054687-48.332031 60.222656-107.90625 80.738281-177.0625.671875-2.265624 2.464844-4.023437 4.746094-4.648437 2.28125-.609375 4.714844-.023437 6.445312 1.589844 17.273438 16.050781 25.304688 39.636719 21.484376 63.085937-6.378907 39.128906-19.40625 74.726563-38.71875 105.800782-1.992188 3.203124-6.195313 4.1875-9.402344 2.195312-3.203125-1.992188-4.179688-6.199219-2.191406-9.402344 18.355468-29.539062 30.75-63.449218 36.835937-100.789062 2.453125-15.042969-1.128906-30.148438-9.6875-42.203125-19.601563 62.761719-44.773437 117.554687-74.9375 163.125 9.339844 5.824219 18.140625 12.390625 26.238281 19.574219 2.820313 2.503906 3.082032 6.816406.578125 9.636718-1.351562 1.519532-3.222656 2.296875-5.109375 2.296875zm0 0" fill="#602f75"/><path d="m223.335938 249.304688c9.324218.546874 18.460937 1.78125 27.371093 3.640624 17.324219-61.078124 33.046875-140.273437 32.410157-225.109374-10.800782-4.800782-22.335938-9.460938-34.738282-13.859376-5.160156-1.832031-10.4375-3.195312-15.753906-4.316406 5.015625 74.730469-1.566406 166.871094-9.289062 239.644532zm0 0" fill="#fff"/><path d="m250.714844 259.773438c-.464844 0-.933594-.046876-1.402344-.144532-8.660156-1.808594-17.539062-2.988281-26.378906-3.511718-1.859375-.109376-3.59375-.976563-4.800782-2.402344-1.207031-1.421875-1.78125-3.277344-1.585937-5.132813 7.066406-66.539062 14.402344-161.921875 9.273437-238.46875-.144531-2.132812.71875-4.207031 2.332032-5.609375 1.613281-1.402344 3.804687-1.976562 5.882812-1.527344 6.234375 1.316407 11.675782 2.808594 16.628906 4.566407 11.835938 4.195312 23.691407 8.921875 35.230469 14.046875 2.449219 1.089844 4.03125 3.511718 4.054688 6.191406.539062 72.3125-10.453125 148.695312-32.675781 227.023438-.847657 2.992187-3.570313 4.96875-6.558594 4.96875zm-19.859375-16.734376c5.011719.480469 10.015625 1.160157 14.96875 2.027344 20.296875-73.382812 30.542969-144.90625 30.488281-212.765625-9.941406-4.300781-20.085938-8.296875-30.214844-11.890625-1.933594-.683594-3.953125-1.324218-6.101562-1.929687 3.914062 73.105469-2.542969 160.636719-9.140625 224.558593zm0 0" fill="#602f75"/><path d="m191.148438 250.140625c-7.761719-72.902344-14.414063-165.460937-9.378907-240.480469-5.316406 1.117188-10.59375 2.484375-15.753906 4.316406-12.398437 4.398438-23.933594 9.058594-34.738281 13.855469-.644532 85.835938 15.457031 165.933594 33.019531 227.296875 8.71875-2.289062 17.683594-3.964844 26.851563-4.988281zm0 0" fill="#fff"/><path d="m164.292969 261.957031c-2.976563 0-5.703125-1.957031-6.558594-4.945312-22.636719-79.078125-33.832031-156.195313-33.285156-229.222657.019531-2.679687 1.605469-5.101562 4.054687-6.1875 11.519532-5.125 23.371094-9.855468 35.226563-14.058593 4.957031-1.753907 10.398437-3.246094 16.632812-4.5625 2.097657-.445313 4.273438.125 5.882813 1.527343 1.613281 1.398438 2.476562 3.476563 2.332031 5.609376-5.152344 76.761718 2.246094 172.503906 9.355469 239.304687.402344 3.734375-2.296875 7.09375-6.03125 7.507813-8.722656.972656-17.425782 2.589843-25.875 4.804687-.578125.152344-1.160156.222656-1.734375.222656zm-26.210938-229.652343c-.058593 68.46875 10.359375 140.621093 30.996094 214.632812 4.816406-1.085938 9.6875-1.992188 14.585937-2.710938-6.660156-64.214843-13.199218-152.285156-9.265624-225.75-2.144532.605469-4.171876 1.25-6.101563 1.933594-10.148437 3.597656-20.289063 7.59375-30.214844 11.894532zm0 0" fill="#602f75"/><path d="m191.148438 250.140625c6.898437-.765625 13.898437-1.203125 21.003906-1.203125 3.757812 0 7.480468.148438 11.183594.367188 7.722656-72.773438 14.304687-164.910157 9.289062-239.644532-16.765625-3.53125-34.089844-3.53125-50.855469 0-5.035156 75.019532 1.617188 167.578125 9.378907 240.480469zm0 0" fill="#ffe600"/><path d="m191.148438 256.96875c-1.546876 0-3.054688-.527344-4.277344-1.5-1.410156-1.140625-2.316406-2.796875-2.507813-4.601562-7.175781-67.339844-14.625-163.925782-9.40625-241.664063.203125-3.050781 2.410157-5.59375 5.40625-6.222656 17.800781-3.75 35.859375-3.757813 53.667969 0 2.992188.628906 5.199219 3.171875 5.402344 6.222656 5.199218 77.515625-2.191406 173.742187-9.308594 240.820313-.386719 3.625-3.628906 6.320312-7.191406 6.09375-9.976563-.582032-20.253906-.394532-31.03125.808593-.25.03125-.5.042969-.753906.042969zm-2.898438-241.582031c-4.332031 73.269531 2.261719 162.492187 8.984375 227.324219 6.851563-.539063 13.488281-.722657 19.984375-.523438 6.679688-64.597656 13.253906-153.636719 8.925781-226.800781-12.597656-2.089844-25.308593-2.085938-37.894531 0zm0 0" fill="#602f75"/><path d="m78.960938 55.433594c-22.828126 14.242187-39.835938 28.164062-51.832032 39.425781 24.402344 82.257813 55.277344 141.367187 84.578125 183.1875 9.65625-6.113281 19.894531-11.378906 30.628907-15.679687-29.378907-58.289063-58.617188-133.171876-63.375-206.933594zm0 0" fill="#fff"/><path d="m111.714844 284.871094c-2.15625 0-4.273438-1.019532-5.597656-2.910156-35.21875-50.269532-63.996094-112.570313-85.527344-185.164063-.738282-2.472656-.011719-5.152344 1.867187-6.917969 15.253907-14.316406 33.046875-27.855468 52.890625-40.238281 2.046875-1.265625 4.597656-1.375 6.730469-.28125 2.136719 1.097656 3.539063 3.234375 3.695313 5.632813 3.929687 60.867187 25.011718 129.605468 62.660156 204.300781.863281 1.710937.96875 3.699219.292968 5.488281-.675781 1.789062-2.074218 3.210938-3.851562 3.921875-10.199219 4.089844-20.128906 9.171875-29.515625 15.113281-1.132813.714844-2.394531 1.054688-3.644531 1.054688zm-76.824219-187.890625c20.214844 66.921875 46.691406 124.695312 78.769531 171.878906 6.265625-3.679687 12.730469-7.003906 19.324219-9.945313-34.171875-69.238281-54.289063-133.585937-59.910156-191.5625-14.007813 9.339844-26.804688 19.269532-38.183594 29.628907zm0 0" fill="#602f75"/><path d="m164.292969 255.128906c-17.5625-61.363281-33.660157-141.460937-33.019531-227.292968-20.035157 8.902343-37.429688 18.3125-52.3125 27.597656 4.757812 73.761718 33.996093 148.644531 63.375 206.933594 7.117187-2.847657 14.445312-5.265626 21.957031-7.238282zm0 0" fill="#ffe600"/><path d="m142.339844 269.195312c-2.511719 0-4.90625-1.386718-6.097656-3.753906-38.480469-76.351562-60.050782-146.859375-64.09375-209.566406-.160157-2.507812 1.066406-4.90625 3.199218-6.234375 16.355469-10.203125 34.242188-19.636719 53.15625-28.042969 2.125-.941406 4.574219-.746094 6.511719.53125 1.945313 1.269532 3.101563 3.441406 3.085937 5.757813-.535156 71.722656 10.484376 147.546875 32.757813 225.363281.507813 1.769531.277344 3.664062-.628906 5.257812-.910157 1.597657-2.425781 2.761719-4.203125 3.226563-7.210938 1.894531-14.328125 4.242187-21.15625 6.972656-.828125.328125-1.6875.488281-2.53125.488281zm-56.28125-210.117187c4.472656 58.347656 24.515625 123.792969 59.625 194.710937 3.351562-1.214843 6.753906-2.339843 10.1875-3.375-20.3125-72.925781-30.867188-144.136718-31.417969-211.941406-13.488281 6.375-26.351563 13.277344-38.394531 20.605469zm0 0" fill="#602f75"/><path d="m273.636719 259.253906c28.84375-57.824218 57.121093-131.382812 61.796875-203.820312-14.882813-9.285156-32.277344-18.695313-52.316406-27.601563.636718 84.835938-15.085938 164.035157-32.410157 225.113281 7.832031 1.632813 15.488281 3.738282 22.929688 6.308594zm0 0" fill="#ffe600"/><path d="m273.636719 266.085938c-.746094 0-1.496094-.121094-2.234375-.378907-7.085938-2.453125-14.519532-4.5-22.089844-6.078125-1.851562-.386718-3.464844-1.527344-4.445312-3.148437-.980469-1.617188-1.246094-3.574219-.726563-5.398438 21.863281-77.082031 32.679687-152.175781 32.152344-223.199219-.015625-2.320312 1.144531-4.488281 3.085937-5.761718 1.9375-1.269532 4.394532-1.472656 6.515625-.527344 18.90625 8.402344 36.789063 17.839844 53.152344 28.046875 2.132813 1.328125 3.359375 3.726563 3.199219 6.230469-3.988282 61.820312-25.015625 131.269531-62.5 206.429687-1.183594 2.375-3.585938 3.785157-6.109375 3.785157zm-14.425781-18.203126c3.691406.914063 7.34375 1.929688 10.929687 3.042969 34.21875-69.824219 53.78125-134.320312 58.191406-191.847656-12.042969-7.332031-24.910156-14.238281-38.390625-20.605469-.542968 66.988282-10.867187 137.347656-30.730468 209.410156zm0 0" fill="#602f75"/></svg>