<svg height="423.25333pt" viewBox="0 0 423.25333 423.25333" width="423.25333pt" xmlns="http://www.w3.org/2000/svg"><path d="m415.507812 231.078125c.605469-6.402344.917969-12.890625.917969-19.453125 0-113.105469-91.691406-204.796875-204.800781-204.796875-113.105469 0-204.796875 91.691406-204.796875 204.796875 0 22.585938 3.707031 44.292969 10.457031 64.609375 13.933594-1.425781 27.519532-7.183594 38.574219-17.390625l8.753906-8.078125c27.304688-25.210937 69.902344-23.433594 95.011719 3.964844 24.464844 26.6875 65.683594 29.167969 93.167969 5.605469l15.179687-13.007813c27.488282-23.558594 68.707032-21.082031 93.171875 5.609375 12.25 13.363281 28.65625 20.550781 45.414063 21.542969" fill="#eaeaea"/><path d="m209.085938 283.441406c-19.984376 0-39.859376-8.136718-54.492188-24.09375-10.90625-11.910156-25.800781-18.828125-41.933594-19.5-16.035156-.753906-31.550781 4.980469-43.414062 15.933594l-8.753906 8.078125c-11.8125 10.898437-26.511719 17.527344-42.511719 19.164063-3.128907.308593-6.167969-1.597657-7.175781-4.640626-7.171876-21.574218-10.804688-44.035156-10.804688-66.757812 0-116.691406 94.933594-211.625 211.625-211.625 116.695312 0 211.628906 94.933594 211.628906 211.625 0 6.679688-.320312 13.449219-.953125 20.101562-.355469 3.753907-3.675781 6.613282-7.441406 6.148438-3.753906-.355469-6.503906-3.6875-6.148437-7.441406.589843-6.226563.890624-12.550782.890624-18.808594 0-109.160156-88.816406-197.972656-197.976562-197.972656s-197.972656 88.8125-197.972656 197.972656c0 19.347656 2.820312 38.503906 8.386718 57.007812 10.921876-2.121093 20.929688-7.179687 29.195313-14.808593l8.746094-8.070313c14.550781-13.441406 33.472656-20.332031 53.25-19.554687 19.78125.828125 38.046875 9.320312 51.429687 23.921875 22.097656 24.113281 58.871094 26.3125 83.699219 5.03125l15.167969-13.003906c30.460937-26.109376 75.539062-23.386719 102.652344 6.171874 10.578124 11.554688 25.066406 18.417969 40.78125 19.347657 3.765624.21875 6.632812 3.453125 6.414062 7.210937-.222656 3.761719-3.589844 6.621094-7.214844 6.414063-19.28125-1.132813-37.054687-9.5625-50.046875-23.746094-22.105469-24.097656-58.867187-26.320313-83.699219-5.039063l-15.167968 13.015626c-14.011719 12.007812-31.132813 17.917968-48.160156 17.917968zm0 0" fill="#602f75"/><path d="m170.667969 177.492188v122.882812h122.878906s-34.132813-116.054688-122.878906-122.882812zm0 0" fill="#ffe600"/><path d="m293.546875 307.199219h-122.878906c-3.773438 0-6.828125-3.050781-6.828125-6.824219v-122.882812c0-1.898438.792968-3.71875 2.1875-5.007813 1.390625-1.292969 3.179687-1.976563 5.164062-1.800781 38.46875 2.960937 73.015625 26.148437 99.902344 67.0625 19.949219 30.367187 28.636719 59.472656 28.996094 60.699218.609375 2.066407.207031 4.292969-1.078125 6.011719-1.285157 1.730469-3.3125 2.742188-5.464844 2.742188zm-116.054687-13.652344h106.46875c-9.5625-25.488281-42.273438-98.398437-106.46875-108.394531zm0 0" fill="#602f75"/><path d="m64.613281 298.550781c27.304688-25.207031 69.902344-23.429687 95.011719 3.96875 24.464844 26.6875 65.683594 29.167969 93.167969 5.605469l15.179687-13.007812c27.488282-23.5625 68.707032-21.082032 93.171875 5.609374 7.289063 7.953126 16.066407 13.710938 25.5 17.300782 8.257813-13.554688 14.953125-28.160156 19.914063-43.542969-16.757813-.992187-33.164063-8.179687-45.414063-21.546875-24.464843-26.6875-65.683593-29.167969-93.171875-5.605469l-15.179687 13.007813c-27.484375 23.558594-68.703125 21.078125-93.167969-5.609375-25.113281-27.394531-67.707031-29.171875-95.011719-3.964844l-8.753906 8.082031c-11.054687 10.203125-24.644531 15.960938-38.574219 17.386719 5.003906 15.050781 11.671875 29.339844 19.847656 42.617187 6.710938-2.917968 13.050782-6.980468 18.726563-12.214843zm0 0" fill="#00e7ff"/><path d="m209.085938 331.226562c-19.984376 0-39.859376-8.132812-54.492188-24.09375-10.90625-11.90625-25.800781-18.824218-41.933594-19.5-16.035156-.707031-31.550781 4.980469-43.414062 15.933594l-8.753906 8.078125c-6.121094 5.648438-13.066407 10.175781-20.640626 13.460938-3.125 1.359375-6.746093.214843-8.53125-2.679688-8.460937-13.738281-15.359374-28.558593-20.515624-44.039062-.652344-1.964844-.378907-4.121094.746093-5.859375 1.128907-1.742188 2.980469-2.875 5.042969-3.089844 13.039062-1.332031 25.011719-6.730469 34.640625-15.613281l8.746094-8.070313c14.550781-13.441406 33.472656-20.332031 53.25-19.554687 19.78125.828125 38.046875 9.320312 51.429687 23.921875 22.097656 24.113281 58.871094 26.3125 83.699219 5.03125l15.167969-13.003906c30.460937-26.109376 75.546875-23.386719 102.652344 6.171874 10.578124 11.554688 25.066406 18.417969 40.78125 19.347657 2.105468.117187 4.039062 1.210937 5.230468 2.957031 1.195313 1.742188 1.515625 3.941406.867188 5.945312-5.105469 15.828126-12.027344 30.96875-20.585938 45.007813-1.710937 2.8125-5.191406 3.988281-8.253906 2.828125-10.820312-4.113281-20.277344-10.535156-28.105469-19.074219-22.105469-24.101562-58.867187-26.328125-83.699219-5.039062l-15.167968 13.011719c-14.011719 12.015624-31.132813 17.921874-48.160156 17.921874zm-99.019532-57.304687c1.054688 0 2.105469.027344 3.164063.066406 19.78125.824219 38.046875 9.320313 51.429687 23.917969 22.097656 24.113281 58.871094 26.3125 83.699219 5.035156l15.167969-13.007812c30.460937-26.101563 75.546875-23.386719 102.652344 6.171875 5.074218 5.542969 10.992187 9.988281 17.644531 13.261719 5.269531-9.273438 9.792969-19.027344 13.523437-29.113282-15.847656-2.832031-30.25-10.71875-41.234375-22.707031-22.105469-24.101563-58.867187-26.320313-83.699219-5.039063l-15.167968 13.011719c-30.46875 26.113281-75.554688 23.378907-102.652344-6.171875-10.90625-11.910156-25.800781-18.828125-41.933594-19.5-16.035156-.753906-31.550781 4.980469-43.414062 15.933594l-8.753906 8.078125c-9.691407 8.945313-21.324219 15.011719-34.03125 17.808594 3.699218 9.785156 8.160156 19.25 13.320312 28.265625 4.113281-2.300782 7.945312-5.085938 11.453125-8.320313l8.746094-8.074219 4.632812 5.015626-4.632812-5.015626c13.773437-12.71875 31.460937-19.617187 50.085937-19.617187zm0 0" fill="#602f75"/><path d="m267.972656 349.726562-15.175781 13.011719c-27.488281 23.558594-68.707031 21.078125-93.167969-5.609375-25.113281-27.394531-67.707031-29.171875-95.015625-3.964844l-.492187.457032c37.253906 38.691406 89.550781 62.804687 147.503906 62.804687 58.027344 0 110.375-24.171875 147.640625-62.945312-24.648437-24.867188-64.480469-26.730469-91.292969-3.753907zm0 0" fill="#00e7ff"/><path d="m211.625 423.253906c-57.996094 0-112.132812-23.046875-152.425781-64.898437-1.273438-1.320313-1.957031-3.109375-1.90625-4.941407.0625-1.839843.855469-3.574218 2.207031-4.820312 15.027344-13.875 33.761719-20.753906 53.734375-19.992188 19.78125.824219 38.046875 9.320313 51.425781 23.917969 22.101563 24.109375 58.875 26.3125 83.699219 5.035157l15.167969-13.007813s.007812 0 .007812-.007813c29.246094-25.054687 73.433594-23.246093 100.582032 4.132813 2.613281 2.636719 2.636718 6.867187.070312 9.542969-40.3125 41.9375-94.496094 65.039062-152.5625 65.039062zm-137.417969-69.195312c37.09375 35.875 85.605469 55.542968 137.417969 55.542968 51.96875 0 100.613281-19.78125 137.753906-55.855468-22.285156-17.898438-54.847656-17.792969-76.964844 1.167968l-15.167968 13.003907c-30.46875 26.121093-75.554688 23.382812-102.652344-6.171875-10.90625-11.90625-25.800781-18.824219-41.933594-19.5-13.933594-.613282-27.394531 3.574218-38.453125 11.8125zm0 0" fill="#602f75"/><path d="m361.144531 300.722656c-24.464843-26.6875-65.683593-29.167968-93.171875-5.609375l-15.179687 13.011719c-27.484375 23.558594-68.703125 21.078125-93.167969-5.609375-25.113281-27.394531-67.707031-29.171875-95.011719-3.964844l-8.753906 8.082031c-5.675781 5.234376-12.015625 9.296876-18.726563 12.214844 7.734376 12.558594 16.808594 24.199219 26.984376 34.769532l.492187-.453126c27.308594-25.210937 69.902344-23.433593 95.015625 3.964844 24.464844 26.6875 65.679688 29.167969 93.167969 5.605469l15.175781-13.007813c26.8125-22.980468 66.644531-21.117187 91.292969 3.75 10.347656-10.769531 19.570312-22.628906 27.382812-35.453124-9.433593-3.585938-18.207031-9.34375-25.5-17.300782zm0 0" fill="#fff"/><path d="m209.085938 385.839844c-19.984376 0-39.859376-8.132813-54.492188-24.09375-10.90625-11.90625-25.800781-18.824219-41.933594-19.5-16.035156-.714844-31.550781 4.980468-43.414062 15.933594-.007813.007812-.507813.460937-.507813.464843-2.734375 2.523438-6.957031 2.386719-9.539062-.292969-10.601563-11.011718-19.980469-23.097656-27.878907-35.925781-1.039062-1.6875-1.296874-3.738281-.699218-5.628906.59375-1.890625 1.976562-3.425781 3.792968-4.210937 6.171876-2.679688 11.832032-6.375 16.820313-10.976563l8.746094-8.070313c14.550781-13.441406 33.472656-20.355468 53.25-19.554687 19.78125.828125 38.046875 9.320313 51.429687 23.921875 22.097656 24.113281 58.871094 26.3125 83.699219 5.03125l15.167969-13.003906c30.460937-26.101563 75.539062-23.386719 102.652344 6.171875 6.371093 6.960937 14.078124 12.1875 22.890624 15.539062 1.894532.71875 3.375 2.246094 4.035157 4.164063.652343 1.921875.425781 4.035156-.625 5.769531-7.949219 13.039063-17.46875 25.363281-28.292969 36.632813-1.273438 1.320312-3.027344 2.078124-4.871094 2.09375-1.585937.011718-3.605468-.714844-4.898437-2.019532-22.140625-22.339844-58.152344-23.820312-82.007813-3.375l-15.164062 13.007813c-14.011719 12.015625-31.132813 17.921875-48.160156 17.921875zm-99.011719-57.304688c1.046875 0 2.097656.027344 3.160156.066406 19.78125.824219 38.046875 9.320313 51.425781 23.917969 22.101563 24.109375 58.875 26.3125 83.699219 5.035157l15.167969-13.007813c27.449218-23.519531 68.027344-23.371094 95.355468-.675781 6.503907-7.222656 12.453126-14.871094 17.757813-22.839844-7.707031-3.957031-14.585937-9.21875-20.527344-15.699219-22.105469-24.097656-58.863281-26.324219-83.699219-5.039062l-15.167968 13.011719c-30.464844 26.121093-75.550782 23.386718-102.652344-6.171876-10.90625-11.90625-25.796875-18.824218-41.929688-19.5-16.035156-.707031-31.554687 4.980469-43.417968 15.933594l-8.75 8.078125c-4.148438 3.828125-8.675782 7.140625-13.515625 9.902344 5.308593 7.921875 11.234375 15.507813 17.695312 22.660156 13.242188-10.289062 28.957031-15.671875 45.398438-15.671875zm0 0" fill="#602f75"/><path d="m314.027344 95.574219c0 22.621093-18.339844 40.960937-40.960938 40.960937s-40.960937-18.339844-40.960937-40.960937c0-22.621094 18.339843-40.960938 40.960937-40.960938s40.960938 18.339844 40.960938 40.960938zm0 0" fill="#ea3457"/><path d="m273.066406 143.359375c-26.347656 0-47.785156-21.4375-47.785156-47.785156 0-26.347657 21.4375-47.789063 47.785156-47.789063s47.785156 21.441406 47.785156 47.789063c0 26.347656-21.4375 47.785156-47.785156 47.785156zm0-81.917969c-18.820312 0-34.132812 15.3125-34.132812 34.132813 0 18.820312 15.3125 34.132812 34.132812 34.132812 18.820313 0 34.132813-15.3125 34.132813-34.132812 0-18.820313-15.3125-34.132813-34.132813-34.132813zm0 0" fill="#ea3457"/><g fill="#602f75"><path d="m136.140625 137.832031c-.886719 0-1.78125-.171875-2.648437-.53125-3.324219-1.398437-4.984376-5.140625-3.800782-8.546875 3.136719-8.945312 3.253906-15.972656.363282-20.867187-3.246094-5.5-10.714844-9.273438-22.195313-11.210938-3.714844-.636719-6.21875-4.15625-5.59375-7.875.632813-3.71875 4.160156-6.1875 7.875-5.59375 15.625 2.648438 26.285156 8.613281 31.667969 17.734375 1.191406 2.015625 2.109375 4.160156 2.765625 6.429688 3.589843-3.203125 7.378906-5.378906 11.386719-6.574219 7.164062-2.128906 14.578124-.949219 22.074218 3.484375 3.246094 1.921875 4.320313 6.109375 2.398438 9.347656-1.914063 3.238282-6.105469 4.335938-9.347656 2.402344-4.152344-2.457031-7.8125-3.148438-11.238282-2.148438-5.839844 1.734376-11.925781 8.707032-17.589844 20.152344-1.183593 2.390625-3.597656 3.796875-6.117187 3.796875zm0 0"/><path d="m75.101562 184.320312c-2.507812 0-4.914062-1.382812-6.113281-3.773437l-13.65625-27.308594c-1.683593-3.371093-.320312-7.472656 3.054688-9.15625 3.367187-1.679687 7.464843-.324219 9.160156 3.050781l13.652344 27.308594c1.6875 3.371094.320312 7.472656-3.050781 9.160156-.980469.484376-2.023438.71875-3.046876.71875zm0 0"/></g></svg>