<svg height="416pt" viewBox="0 -59 416.43082 416" width="416pt" xmlns="http://www.w3.org/2000/svg"><path d="m216.265625 215.351562v75.183594s37.59375-10.742187 67.128906-59.074218zm0 0" fill="#ea3457"/><path d="m216.265625 297.363281c-1.464844 0-2.914063-.472656-4.113281-1.375-1.707032-1.292969-2.714844-3.3125-2.714844-5.453125v-75.1875c0-2.09375.960938-4.066406 2.601562-5.359375 1.632813-1.300781 3.78125-1.773437 5.820313-1.28125l67.132813 16.113281c2.125.515626 3.875 2.007813 4.714843 4.027344.832031 2.011719.660157 4.304688-.480469 6.171875-30.582031 50.035157-69.445312 61.609375-71.085937 62.082031-.617187.175782-1.25.261719-1.875.261719zm6.828125-73.355469v56.285157c11.164062-5.550781 31.25-18.324219 49.3125-44.453125zm0 0" fill="#602f75"/><path d="m168.144531 132.535156c-21.390625 4.8125-47.460937 12.664063-70.023437 25.199219 0 0-53.703125-42.960937-91.292969-53.703125 0 0 59.070313 53.703125 21.480469 139.625 0 0 16.109375 10.742188 69.816406-48.332031 0 0 80.554688 47.425781 112.773438 47.425781h145l-21.480469-34.136719h37.589843l37.589844-61.621093s-42.960937-21.480469-118.144531-21.480469c0 0-32.222656-64.445313-91.296875-64.445313l10.742188 64.445313" fill="#ffe600"/><path d="m32.039062 251.296875c-3.8125 0-6.207031-1.082031-7.519531-1.957031-2.753906-1.832032-3.792969-5.386719-2.464843-8.414063 35.21875-80.503906-19.265626-131.34375-19.820313-131.84375-2.347656-2.136719-2.914063-5.609375-1.375-8.375 1.546875-2.773437 4.800781-4.09375 7.839844-3.246093 33.234375 9.492187 77.289062 42.246093 90.117187 52.148437 18.800782-9.851563 41.589844-17.828125 67.832032-23.734375 3.660156-.832031 7.332031 1.480469 8.160156 5.160156.824218 3.679688-1.480469 7.332032-5.160156 8.160156-26.867188 6.046876-49.8125 14.285157-68.214844 24.503907-2.417969 1.347656-5.414063 1.09375-7.578125-.632813-.421875-.339844-34.152344-27.1875-65.972657-43.136718 14.277344 22.90625 29.90625 63.484374 10.804688 116.15625 8.675781-3.3125 25.59375-13.6875 54.378906-45.351563 2.179688-2.398437 5.726563-2.933594 8.515625-1.289063 21.964844 12.929688 84.417969 46.472657 109.320313 46.472657h132.632812l-14.898437-23.664063c-1.320313-2.105468-1.398438-4.765625-.195313-6.941406 1.203125-2.171875 3.488282-3.523438 5.976563-3.523438h33.757812l31.480469-51.601562c-14.746094-5.71875-52.574219-17.84375-108.199219-17.84375-2.582031 0-4.945312-1.460938-6.101562-3.769531-.292969-.570313-28.046875-54.671875-77.058594-60.21875l9.339844 56.039062c.621093 3.722657-1.890625 7.234375-5.613281 7.855469-3.710938.648438-7.238282-1.894531-7.851563-5.613281l-10.742187-64.445313c-.332032-1.980468.226562-4.003906 1.527343-5.535156 1.292969-1.53125 3.199219-2.414062 5.207031-2.414062 54.726563 0 87.160157 50.046874 95.367188 64.46875 73.40625.738281 115.347656 21.292968 117.128906 22.179687 1.707032.851563 2.976563 2.382813 3.503906 4.21875.527344 1.839844.261719 3.8125-.730468 5.441406l-37.59375 61.617188c-1.242188 2.035156-3.449219 3.273437-5.828125 3.273437h-25.226563l14.902344 23.667969c1.316406 2.105469 1.398438 4.765625.191406 6.9375-1.199218 2.175781-3.488281 3.527344-5.972656 3.527344h-145c-29.375 0-93.300781-35.238281-111.460938-45.601563-36.890624 39.65625-57.214843 47.324219-67.40625 47.324219zm0 0" fill="#602f75"/><path d="m253.859375 207.523438c-3.773437 0-6.828125-3.054688-6.828125-6.828126v-26.851562c0-3.773438 3.054688-6.828125 6.828125-6.828125s6.824219 3.054687 6.824219 6.828125v26.851562c0 3.773438-3.050782 6.828126-6.824219 6.828126zm0 0" fill="#ea3457"/><path d="m286.078125 202.15625c-3.773437 0-6.824219-3.050781-6.824219-6.824219v-21.488281c0-3.773438 3.050782-6.828125 6.824219-6.828125s6.828125 3.054687 6.828125 6.828125v21.488281c0 3.769531-3.054688 6.824219-6.828125 6.824219zm0 0" fill="#ea3457"/><path d="m350.527344 171.160156c0 4.449219-3.609375 8.054688-8.058594 8.054688s-8.054688-3.605469-8.054688-8.054688c0-4.449218 3.605469-8.054687 8.054688-8.054687s8.058594 3.605469 8.058594 8.054687zm0 0" fill="#602f75"/><g fill="#00e7ff"><path d="m409.597656 78.910156c0 11.308594-9.167968 20.480469-20.480468 20.480469-11.308594 0-20.476563-9.171875-20.476563-20.480469 0-11.3125 9.167969-20.480468 20.476563-20.480468 11.3125 0 20.480468 9.167968 20.480468 20.480468zm0 0"/><path d="m389.117188 106.214844c-15.058594 0-27.304688-12.246094-27.304688-27.304688s12.246094-27.308594 27.304688-27.308594c15.0625 0 27.308593 12.25 27.308593 27.308594s-12.246093 27.304688-27.308593 27.304688zm0-40.957032c-7.523438 0-13.652344 6.125-13.652344 13.652344s6.128906 13.652344 13.652344 13.652344c7.527343 0 13.65625-6.125 13.65625-13.652344s-6.128907-13.652344-13.65625-13.652344zm0 0"/><path d="m344.933594 31.125c0 13.296875-10.78125 24.078125-24.082032 24.078125-13.300781 0-24.082031-10.78125-24.082031-24.078125 0-13.300781 10.78125-24.082031 24.082031-24.082031 13.300782 0 24.082032 10.78125 24.082032 24.082031zm0 0"/><path d="m320.851562 62.027344c-17.039062 0-30.90625-13.863282-30.90625-30.902344 0-17.042969 13.867188-30.910156 30.90625-30.910156 17.039063 0 30.90625 13.867187 30.90625 30.90625 0 17.039062-13.863281 30.90625-30.90625 30.90625zm0-48.160156c-9.511718 0-17.253906 7.742187-17.253906 17.253906 0 9.511718 7.742188 17.253906 17.253906 17.253906 9.511719 0 17.253907-7.738281 17.253907-17.25 0-9.515625-7.738281-17.257812-17.253907-17.257812zm0 0"/></g></svg>