<svg height="402.77333pt" viewBox="0 0 402.77333 402.77333" width="402.77333pt" xmlns="http://www.w3.org/2000/svg"><path d="m202.195312 341.5625c-75.410156 0-136.761718-61.351562-136.761718-136.761719 0-75.410156 61.351562-136.765625 136.761718-136.765625 75.414063 0 136.765626 61.355469 136.765626 136.765625 0 75.410157-61.355469 136.761719-136.765626 136.761719zm0-259.871094c-67.878906 0-123.109374 55.222656-123.109374 123.109375 0 67.882813 55.226562 123.109375 123.109374 123.109375 67.882813 0 123.113282-55.226562 123.113282-123.109375 0-67.886719-55.230469-123.109375-123.113282-123.109375zm0 0" fill="#602f75"/><path d="m358.84375 204.800781c0-86.515625-70.132812-156.652343-156.648438-156.652343-86.515624 0-156.648437 70.136718-156.648437 156.652343 0 86.511719 70.132813 156.648438 156.652344 156.648438 72.160156 0 132.925781-48.792969 151.101562-115.1875m-151.105469 88.476562c-71.761718 0-129.9375-58.175781-129.9375-129.9375s58.175782-129.9375 129.9375-129.9375c71.761719 0 129.9375 58.175781 129.9375 129.9375s-58.175781 129.9375-129.9375 129.9375zm0 0" fill="#00e7ff"/><g fill="#602f75"><path d="m202.195312 368.277344c-90.140624 0-163.472656-73.339844-163.472656-163.476563 0-90.140625 73.332032-163.476562 163.472656-163.476562 90.136719 0 163.476563 73.335937 163.476563 163.476562 0 3.769531-3.050781 6.824219-6.824219 6.824219-3.773437 0-6.828125-3.054688-6.828125-6.824219 0-82.613281-67.210937-149.824219-149.824219-149.824219-82.613281 0-149.820312 67.210938-149.820312 149.824219s67.207031 149.824219 149.820312 149.824219c67.339844 0 126.765626-45.304688 144.519532-110.167969 1-3.640625 4.78125-5.785156 8.386718-4.78125 3.640626.992188 5.78125 4.75 4.785157 8.386719-19.371094 70.78125-84.222657 120.214844-157.691407 120.214844zm0-26.714844c-75.410156 0-136.761718-61.351562-136.761718-136.761719 0-75.410156 61.351562-136.765625 136.761718-136.765625 75.414063 0 136.765626 61.355469 136.765626 136.765625 0 75.410157-61.355469 136.761719-136.765626 136.761719zm0-259.871094c-67.878906 0-123.109374 55.222656-123.109374 123.109375 0 67.882813 55.226562 123.109375 123.109374 123.109375 67.882813 0 123.113282-55.226562 123.113282-123.109375 0-67.886719-55.230469-123.109375-123.113282-123.109375zm0 0"/><path d="m345.007812 352.078125c-1.714843 0-3.429687-.640625-4.753906-1.929687l-294.066406-285.121094c-2.707031-2.625-2.773438-6.945313-.148438-9.652344 2.632813-2.707031 6.953126-2.769531 9.652344-.148438l294.066406 285.125c2.707032 2.621094 2.773438 6.945313.148438 9.652344-1.339844 1.378906-3.121094 2.074219-4.898438 2.074219zm0 0"/><path d="m50.941406 352.078125c-1.78125 0-3.5625-.695313-4.902344-2.074219-2.625-2.707031-2.558593-7.03125.148438-9.652344l294.066406-285.125c2.707032-2.625 7.027344-2.558593 9.652344.144532 2.625 2.707031 2.558594 7.03125-.148438 9.65625l-294.0625 285.121094c-1.328124 1.289062-3.042968 1.929687-4.753906 1.929687zm0 0"/><path d="m395.945312 211.625h-389.117187c-3.773437 0-6.828125-3.054688-6.828125-6.824219s3.054688-6.828125 6.828125-6.828125h389.117187c3.773438 0 6.828126 3.058594 6.828126 6.828125s-3.054688 6.824219-6.828126 6.824219zm0 0"/><path d="m197.972656 402.773438c-3.773437 0-6.824218-3.058594-6.824218-6.828126v-389.117187c0-3.773437 3.050781-6.828125 6.824218-6.828125 3.773438 0 6.828125 3.054688 6.828125 6.828125v389.117187c0 3.769532-3.054687 6.828126-6.828125 6.828126zm0 0"/></g><path d="m250.757812 207.40625c0 26.816406-21.742187 48.558594-48.5625 48.558594-26.820312 0-48.5625-21.742188-48.5625-48.558594 0-26.820312 21.742188-48.5625 48.5625-48.5625 26.820313 0 48.5625 21.742188 48.5625 48.5625zm0 0" fill="#ea3457"/><path d="m202.195312 262.789062c-30.542968 0-55.386718-24.84375-55.386718-55.382812s24.847656-55.386719 55.386718-55.386719c30.542969 0 55.390626 24.847657 55.390626 55.386719s-24.847657 55.382812-55.390626 55.382812zm0-97.121093c-23.015624 0-41.734374 18.722656-41.734374 41.734375 0 23.011718 18.71875 41.734375 41.734374 41.734375 23.011719 0 41.738282-18.722657 41.738282-41.734375 0-23.011719-18.726563-41.734375-41.738282-41.734375zm0 0" fill="#602f75"/></svg>