<svg height="416pt" viewBox="0 -17 416.4247 416" width="416pt" xmlns="http://www.w3.org/2000/svg"><path d="m218.914062 315.253906c-3.773437 0-6.824218-3.058594-6.824218-6.828125v-301.386719c0-3.769531 3.050781-6.828124 6.824218-6.828124 3.773438 0 6.828126 3.058593 6.828126 6.828124v301.386719c0 3.769531-3.054688 6.828125-6.828126 6.828125zm0 0" fill="#602f75"/><path d="m375.1875 286.097656 34.414062-11.160156v-27.90625l-112.550781 27.90625-33.488281 32.476562h-83.71875l-22.324219-34.132812h-50.230469l-11.160156-20.667969-66.976562-11.160156-22.324219 44.644531 33.488281 27.90625v20.355469c0 22.664063 18.371094 41.039063 41.035156 41.039063h249.1875l27.167969-54.332032" fill="#ffe600"/><path d="m330.535156 382.226562h-249.179687c-26.394531 0-47.867188-21.46875-47.867188-47.863281v-17.160156l-31.035156-25.859375c-2.4335938-2.027344-3.144531-5.464844-1.734375-8.296875l22.328125-44.652344c1.347656-2.675781 4.300781-4.15625 7.226563-3.675781l66.972656 11.160156c2.078125.347656 3.886718 1.632813 4.886718 3.492188l9.226563 17.082031h46.160156c2.304688 0 4.453125 1.164063 5.710938 3.089844l20.308593 31.042969h77.253907l31.5-30.546876c.867187-.839843 1.941406-1.4375 3.113281-1.726562l112.550781-27.90625c2.015625-.503906 4.195313-.046875 5.847657 1.25 1.652343 1.292969 2.621093 3.277344 2.621093 5.375v27.90625c0 2.957031-1.90625 5.578125-4.722656 6.492188l-34.414063 11.164062c-3.605468 1.175781-7.4375-.804688-8.597656-4.386719-1.167968-3.585937.800782-7.4375 4.386719-8.601562l29.695313-9.632813v-14.210937l-102.292969 25.359375-32.164063 31.191406c-1.273437 1.238281-2.980468 1.925781-4.753906 1.925781h-83.714844c-2.308594 0-4.453125-1.164062-5.714844-3.089843l-20.304687-31.042969h-46.539063c-2.507812 0-4.8125-1.378907-6.007812-3.582031l-9.574219-17.730469-58.699219-9.78125-17.65625 35.304687 29.335938 24.445313c1.550781 1.296875 2.453125 3.21875 2.453125 5.242187v20.359375c0 18.863281 15.347656 34.210938 34.214844 34.210938h244.957031l25.289062-50.5625c1.691407-3.375 5.785157-4.734375 9.160157-3.050781 3.371093 1.683593 4.738281 5.785156 3.050781 9.15625l-27.171875 54.335937c-1.160156 2.3125-3.519531 3.773437-6.105469 3.773437zm0 0" fill="#602f75"/><path d="m341.703125 269.746094c-3.773437 0-6.828125-3.054688-6.828125-6.828125v-172.160157c0-3.773437 3.054688-6.828124 6.828125-6.828124s6.824219 3.054687 6.824219 6.828124v172.160157c0 3.773437-3.050782 6.828125-6.824219 6.828125zm0 0" fill="#602f75"/><path d="m319.375 118.664062h44.648438c23.949218 33.835938 27.113281 69.226563 11.164062 106.042969l-66.976562 5.578125c16.125-37.207031 19.847656-74.414062 11.164062-111.621094zm0 0" fill="#fff"/><path d="m308.214844 237.113281c-2.1875 0-4.257813-1.050781-5.546875-2.847656-1.398438-1.949219-1.671875-4.488281-.71875-6.691406 15.453125-35.664063 19.078125-71.78125 10.777343-107.359375-.472656-2.027344.007813-4.164063 1.300782-5.796875 1.292968-1.632813 3.265625-2.582031 5.347656-2.582031h44.652344c2.214844 0 4.296875 1.074218 5.574218 2.882812 24.972657 35.285156 28.960938 73.203125 11.855469 112.699219-1.003906 2.308593-3.195312 3.878906-5.703125 4.089843l-66.972656 5.578126c-.1875.019531-.378906.027343-.566406.027343zm19.558594-111.625c5.953124 32.277344 2.902343 64.847657-9.089844 97.074219l51.800781-4.3125c13.046875-32.804688 9.753906-63.222656-10.042969-92.761719zm0 0" fill="#602f75"/><path d="m168.683594 34.945312 89.300781 22.324219c29.765625 59.535157 33.484375 119.066407 11.160156 178.597657l-106.042969 22.328124c42.789063-66.976562 44.652344-141.390624 5.582032-223.25zm0 0" fill="#00e7ff"/><path d="m163.101562 265.019531c-2.214843 0-4.328124-1.078125-5.613281-2.945312-1.566406-2.261719-1.621093-5.242188-.140625-7.558594 41.238282-64.539063 42.980469-137.425781 5.171875-216.632813-1.140625-2.382812-.800781-5.214843.875-7.257812 1.671875-2.050781 4.398438-2.933594 6.9375-2.304688l89.300781 22.324219c1.933594.480469 3.558594 1.785157 4.453126 3.570313 30.511718 61.023437 34.359374 122.945312 11.445312 184.046875-.816406 2.1875-2.699219 3.804687-4.984375 4.285156l-106.042969 22.324219c-.460937.101562-.933594.148437-1.402344.148437zm17.628907-220.027343c31.445312 73.351562 30.160156 141.609374-3.8125 203.316406l87.117187-18.339844c19.753906-55.339844 16.132813-111.433594-10.777344-166.84375zm0 0" fill="#00e7ff"/><path d="m78.808594 79.59375c.691406 70.125-17.125 107.363281-44.074219 128.367188l88.148437 22.324218v-132.085937zm0 0" fill="#fff"/><path d="m122.882812 237.113281c-.5625 0-1.121093-.070312-1.675781-.210937l-88.144531-22.324219c-2.523438-.636719-4.472656-2.664063-5.007812-5.210937-.539063-2.550782.425781-5.183594 2.480468-6.789063 28.484375-22.207031 42.046875-62.414063 41.445313-122.914063-.019531-2.300781 1.113281-4.457031 3.027343-5.738281 1.90625-1.285156 4.328126-1.519531 6.453126-.617187l44.074218 18.601562c2.523438 1.066406 4.171875 3.546875 4.171875 6.289063v132.089843c0 2.105469-.972656 4.089844-2.632812 5.386719-1.214844.941407-2.691407 1.4375-4.191407 1.4375zm-74.054687-32.625 67.226563 17.027344v-118.789063l-30.453126-12.855468c-.90625 52.523437-12.992187 90.242187-36.773437 114.617187zm0 0" fill="#602f75"/><path d="m189.441406 314.238281h-46.078125c-3.773437 0-6.828125-3.054687-6.828125-6.824219 0-3.773437 3.054688-6.828124 6.828125-6.828124h46.078125c3.773438 0 6.828125 3.054687 6.828125 6.828124 0 3.769532-3.054687 6.824219-6.828125 6.824219zm0 0" fill="#602f75"/><path d="m116.90625 280.105469h-41.8125c-3.773438 0-6.824219-3.054688-6.824219-6.828125 0-3.769532 3.050781-6.824219 6.824219-6.824219h41.8125c3.773438 0 6.828125 3.054687 6.828125 6.824219 0 3.773437-3.054687 6.828125-6.828125 6.828125zm0 0" fill="#602f75"/><g fill="#ea3457"><path d="m102.402344 338.132812c0 5.65625-4.585938 10.238282-10.242188 10.238282-5.652344 0-10.238281-4.582032-10.238281-10.238282s4.585937-10.242187 10.238281-10.242187c5.65625 0 10.242188 4.585937 10.242188 10.242187zm0 0"/><path d="m157.015625 338.132812c0 5.65625-4.585937 10.238282-10.242187 10.238282-5.652344 0-10.238282-4.582032-10.238282-10.238282s4.585938-10.242187 10.238282-10.242187c5.65625 0 10.242187 4.585937 10.242187 10.242187zm0 0"/><path d="m218.453125 338.132812c0 5.65625-4.582031 10.238282-10.238281 10.238282s-10.238282-4.582032-10.238282-10.238282 4.582032-10.242187 10.238282-10.242187 10.238281 4.585937 10.238281 10.242187zm0 0"/><path d="m286.722656 338.132812c0 5.65625-4.585937 10.238282-10.242187 10.238282s-10.238281-4.582032-10.238281-10.238282 4.582031-10.242187 10.238281-10.242187 10.242187 4.585937 10.242187 10.242187zm0 0"/></g><path d="m122.882812 280.675781c-3.773437 0-6.828124-3.058593-6.828124-6.828125v-219.023437c0-3.769531 3.054687-6.824219 6.828124-6.824219 3.773438 0 6.824219 3.054688 6.824219 6.824219v219.023437c0 3.769532-3.050781 6.828125-6.824219 6.828125zm0 0" fill="#602f75"/></svg>