<svg height="407pt" viewBox="-28 0 407 407.03317" width="407pt" xmlns="http://www.w3.org/2000/svg"><path d="m92.503906 159.023438c0 18.851562-15.28125 34.132812-34.132812 34.132812-18.851563 0-34.136719-15.28125-34.136719-34.132812 0-18.851563 15.285156-34.132813 34.136719-34.132813 18.851562 0 34.132812 15.28125 34.132812 34.132813zm0 0" fill="#00e7ff"/><path d="m58.371094 199.984375c-22.585938 0-40.960938-18.375-40.960938-40.960937 0-22.585938 18.375-40.960938 40.960938-40.960938 22.585937 0 40.957031 18.375 40.957031 40.960938 0 22.585937-18.371094 40.960937-40.957031 40.960937zm0-68.265625c-15.0625 0-27.308594 12.25-27.308594 27.304688 0 15.054687 12.246094 27.308593 27.308594 27.308593 15.058594 0 27.304687-12.253906 27.304687-27.308593 0-15.054688-12.246093-27.304688-27.304687-27.304688zm0 0" fill="#00e7ff"/><path d="m263.613281 329.683594 40.886719 12.222656c-.117188-2.257812.0625-4.566406.746094-6.855469 3.21875-10.765625 14.554687-16.882812 25.320312-13.667969 10.765625 3.21875 16.882813 14.554688 13.667969 25.320313-2.535156 8.476563-10.109375 13.988281-18.464844 14.414063l-.714843 2.386718c6.75 4.941406 10.058593 13.707032 7.527343 22.183594-3.21875 10.765625-14.554687 16.882812-25.320312 13.667969-10.765625-3.21875-16.882813-14.554688-13.664063-25.320313.683594-2.289062 1.800782-4.316406 3.132813-6.140625l-249.289063-74.503906c.113282 2.257813-.066406 4.5625-.75 6.851563-3.214844 10.765624-14.550781 16.886718-25.316406 13.667968-10.765625-3.214844-16.886719-14.550781-13.667969-25.316406 2.53125-8.476562 10.105469-13.988281 18.464844-14.417969l.714844-2.386719c-6.753907-4.941406-10.0625-13.707031-7.527344-22.183593 3.214844-10.765625 14.550781-16.882813 25.316406-13.664063 10.765625 3.214844 16.886719 14.550782 13.667969 25.316406-.683594 2.289063-1.800781 4.316407-3.136719 6.140626l139.878907 41.804687" fill="#eaeaea"/><path d="m313.070312 407.03125c-2.566406 0-5.179687-.363281-7.761718-1.136719-6.953125-2.078125-12.6875-6.742187-16.132813-13.128906-3.441406-6.371094-4.199219-13.703125-2.132812-20.640625l-233.828125-69.882812c-2.078125 6.929687-6.730469 12.644531-13.105469 16.085937-6.386719 3.449219-13.742187 4.207031-20.6875 2.121094-6.953125-2.074219-12.6875-6.738281-16.132813-13.125-3.445312-6.386719-4.199218-13.734375-2.121093-20.6875 2.265625-7.589844 7.734375-13.644531 14.699219-16.839844-4.074219-6.492187-5.320313-14.550781-3.050782-22.140625 4.292969-14.351562 19.480469-22.558594 33.8125-18.253906 6.953125 2.078125 12.6875 6.738281 16.132813 13.125 3.441406 6.371094 4.199219 13.703125 2.132812 20.644531l132.140625 39.492187c3.613282 1.082032 5.664063 4.882813 4.585938 8.496094-1.078125 3.613282-4.867188 5.683594-8.492188 4.585938l-139.875-41.800782c-2.125-.632812-3.804687-2.261718-4.511718-4.363281-.714844-2.097656-.355469-4.414062.953124-6.203125 1.011719-1.386718 1.699219-2.71875 2.105469-4.078125 1.03125-3.453125.660157-7.109375-1.054687-10.289062-1.71875-3.175781-4.566406-5.496094-8.023438-6.527344-7.136718-2.132813-14.6875 1.9375-16.828125 9.082031-1.617187 5.417969.398438 11.332032 5.019531 14.71875 2.332032 1.707032 3.332032 4.695313 2.507813 7.460938l-.714844 2.386718c-.824219 2.769532-3.304687 4.714844-6.191406 4.863282-5.714844.292968-10.648437 4.132812-12.269531 9.554687-1.03125 3.457031-.660156 7.117188 1.054687 10.292969 1.71875 3.175781 4.566407 5.496094 8.027344 6.527344 3.445313 1.027344 7.105469.660156 10.292969-1.054688 3.171875-1.714844 5.492187-4.5625 6.523437-8.023437.40625-1.355469.5625-2.847657.472657-4.558594-.105469-2.214844.863281-4.34375 2.605468-5.710937 1.742188-1.375 4.046875-1.8125 6.167969-1.171876l249.285156 74.503907c2.128907.632812 3.808594 2.257812 4.515625 4.359375.710938 2.097656.351563 4.414062-.953125 6.203125-1.015625 1.386719-1.703125 2.722656-2.109375 4.078125-1.03125 3.457031-.660156 7.109375 1.054688 10.289062 1.71875 3.175782 4.566406 5.496094 8.027344 6.53125 7.140624 2.125 14.683593-1.941406 16.824218-9.085937 1.621094-5.417969-.398437-11.335938-5.019531-14.714844-2.332031-1.707031-3.332031-4.695313-2.503906-7.464844l.710937-2.382812c.828125-2.773438 3.308594-4.71875 6.195313-4.867188 5.710937-.292969 10.644531-4.132812 12.265625-9.550781 1.035156-3.460938.660156-7.117188-1.050782-10.292969-1.722656-3.175781-4.570312-5.5-8.027343-6.53125-3.46875-1.035156-7.113281-.664062-10.292969 1.054688-3.171875 1.71875-5.496094 4.566406-6.527344 8.023437-.40625 1.359375-.558594 2.847656-.472656 4.558594.105469 2.214844-.859375 4.347656-2.605469 5.714844-1.742187 1.367187-4.054687 1.804687-6.167969 1.167968l-40.878906-12.21875c-3.613281-1.078124-5.664062-4.882812-4.585937-8.496093 1.078125-3.609375 4.859375-5.675781 8.492187-4.585938l33.15625 9.910157c2.078125-6.929688 6.730469-12.644532 13.113282-16.085938 6.386718-3.445312 13.734374-4.203125 20.679687-2.121094 6.953125 2.074219 12.6875 6.738282 16.132813 13.125 3.445312 6.386719 4.199218 13.734375 2.121093 20.6875-2.269531 7.589844-7.734375 13.644532-14.703125 16.835938 4.074219 6.492187 5.328125 14.550781 3.054688 22.144531-3.519532 11.769531-14.351563 19.390625-26.050782 19.390625zm0 0" fill="#602f75"/><path d="m285.117188 129.46875 4.53125-29.464844c3.9375-25.578125-6.386719-51.40625-27.203126-66.78125-18.757812-13.859375-46.996093-26.394531-87.765624-26.394531-40.773438 0-69.007813 12.535156-87.769532 26.394531-20.816406 15.378906-31.136718 41.203125-27.203125 66.78125l4.535157 29.464844c1.410156 9.183594-.0625 18.582031-4.21875 26.890625l-6.230469 12.464844c-2.839844 5.675781-3.035157 12.316406-.535157 18.148437l6.847657 15.976563c3.746093 8.738281 12.765625 13.992187 22.214843 12.945312l35.375-3.933593v28.492187l28.832032 8.652344c18.363281 5.507812 37.9375 5.507812 56.296875 0l28.835937-8.652344v-28.488281l35.375 3.929687c9.445313 1.050781 18.46875-4.207031 22.214844-12.945312l6.847656-15.976563c2.5-5.832031 2.304688-12.472656-.535156-18.148437l-6.230469-12.460938c-4.15625-8.316406-5.628906-17.710937-4.214843-26.894531zm0 0" fill="#ffe600"/><path d="m174.675781 260.078125c-10.132812 0-20.261719-1.476563-30.109375-4.429687l-28.832031-8.652344c-2.886719-.867188-4.867187-3.523438-4.867187-6.539063v-20.867187l-27.792969 3.085937c-12.519531 1.390625-24.28125-5.449219-29.246094-17.035156l-6.847656-15.976563c-3.296875-7.6875-3.039063-16.394531.699219-23.890624l6.230468-12.464844c3.542969-7.078125 4.78125-14.960938 3.582032-22.804688l-4.53125-29.460937c-4.367188-28.371094 7.082031-56.460938 29.890624-73.3125 24.90625-18.398438 55.796876-27.730469 91.824219-27.730469 36.035157 0 66.929688 9.332031 91.828125 27.730469 22.800782 16.847656 34.261719 44.9375 29.894532 73.308593l-4.53125 29.46875v.003907c-1.207032 7.828125.03125 15.710937 3.578124 22.792969l6.226563 12.46875c3.746094 7.484374 4 16.191406.699219 23.890624l-6.847656 15.976563c-4.957032 11.578125-16.671876 18.429687-29.238282 17.035156l-27.792968-3.085937v20.867187c0 3.011719-1.980469 5.671875-4.867188 6.539063l-28.835938 8.648437c-9.847656 2.953125-19.980468 4.433594-30.113281 4.433594zm-50.152343-24.703125 23.964843 7.191406c17.140625 5.144532 35.253907 5.136719 52.378907 0l23.96875-7.191406v-23.414062c0-1.941407.824218-3.789063 2.273437-5.082032 1.453125-1.300781 3.398437-1.921875 5.304687-1.699218l35.375 3.929687c6.453126.683594 12.605469-2.828125 15.183594-8.84375l6.847656-15.980469c1.714844-3.996094 1.582032-8.519531-.367187-12.410156l-6.226563-12.464844c-4.816406-9.621094-6.5-20.335937-4.859374-30.980468v.003906l4.53125-29.46875c3.589843-23.347656-5.804688-46.433594-24.511719-60.257813-22.5-16.625-50.667969-25.054687-83.714844-25.054687-33.039063 0-61.203125 8.429687-83.710937 25.054687-18.707032 13.828125-28.097657 36.917969-24.503907 60.253907l4.53125 29.472656c1.632813 10.652344-.046875 21.367187-4.859375 30.984375l-6.234375 12.457031c-1.941406 3.890625-2.074219 8.414062-.367187 12.410156l6.847656 15.976563c2.582031 6.007812 8.640625 9.550781 15.191406 8.847656l35.375-3.929687c1.949219-.222657 3.855469.398437 5.308594 1.699218 1.445312 1.296875 2.273438 3.140625 2.273438 5.082032zm160.59375-105.90625h.066406zm0 0" fill="#602f75"/><path d="m186.074219 188.042969c-1.746094 0-3.492188-.667969-4.824219-2l-6.574219-6.570313-6.566406 6.570313c-2.667969 2.667969-6.988281 2.667969-9.652344 0-2.667969-2.664063-2.667969-6.988281 0-9.652344l11.390625-11.398437c2.554688-2.550782 7.085938-2.566407 9.652344 0l11.402344 11.398437c2.664062 2.664063 2.664062 6.988281 0 9.652344-1.332032 1.332031-3.082032 2-4.828125 2zm0 0" fill="#602f75"/><path d="m58.34375 374.035156c-.683594-2.289062-1.800781-4.316406-3.136719-6.140625l249.292969-74.503906c-.117188 2.257813.0625 4.5625.746094 6.851563 3.214844 10.765624 14.550781 16.886718 25.316406 13.667968 10.765625-3.214844 16.886719-14.550781 13.667969-25.316406-2.53125-8.476562-10.105469-13.988281-18.464844-14.417969l-.710937-2.386719c6.75-4.941406 10.058593-13.707031 7.523437-22.183593-3.214844-10.765625-14.550781-16.882813-25.316406-13.664063-10.765625 3.214844-16.882813 14.550782-13.667969 25.316406.683594 2.289063 1.800781 4.316407 3.136719 6.140626l-249.289063 74.507812c.113282-2.257812-.066406-4.566406-.75-6.855469-3.214844-10.765625-14.550781-16.882812-25.316406-13.667969-10.765625 3.21875-16.886719 14.554688-13.667969 25.320313 2.53125 8.476563 10.105469 13.988281 18.464844 14.414063l.714844 2.386718c-6.753907 4.941406-10.0625 13.707032-7.527344 22.183594 3.214844 10.765625 14.550781 16.882812 25.316406 13.667969 10.765625-3.21875 16.886719-14.554688 13.667969-25.320313zm0 0" fill="#fff"/><path d="m38.871094 407.03125c-11.699219 0-22.535156-7.621094-26.054688-19.386719-2.269531-7.59375-1.023437-15.65625 3.050782-22.148437-6.964844-3.191406-12.433594-9.246094-14.699219-16.84375-2.078125-6.949219-1.324219-14.296875 2.121093-20.683594 3.445313-6.386719 9.179688-11.050781 16.132813-13.125 6.945313-2.078125 14.300781-1.320312 20.6875 2.125 6.371094 3.4375 11.027344 9.148438 13.105469 16.085938l233.828125-69.882813c-2.058594-6.941406-1.308594-14.273437 2.132812-20.644531 3.449219-6.386719 9.179688-11.050782 16.132813-13.125 14.332031-4.308594 29.519531 3.902344 33.8125 18.25 2.273437 7.59375 1.019531 15.65625-3.054688 22.144531 6.96875 3.195313 12.433594 9.25 14.703125 16.84375 2.078125 6.949219 1.324219 14.296875-2.121093 20.683594-3.445313 6.386719-9.179688 11.050781-16.132813 13.125-6.945313 2.085937-14.292969 1.328125-20.679687-2.121094-6.378907-3.441406-11.035157-9.148437-13.113282-16.085937l-233.828125 69.882812c2.066407 6.9375 1.308594 14.269531-2.132812 20.640625-3.445313 6.386719-9.179688 11.050781-16.132813 13.128906-2.578125.773438-5.191406 1.136719-7.757812 1.136719zm-11.648438-79.675781c-1.300781 0-2.613281.183593-3.894531.570312-3.457031 1.03125-6.304687 3.351563-8.023437 6.527344-1.714844 3.175781-2.089844 6.835937-1.054688 10.289063 1.621094 5.425781 6.554688 9.265624 12.269531 9.558593 2.882813.148438 5.367188 2.09375 6.191407 4.863281l.714843 2.386719c.824219 2.765625-.175781 5.753907-2.507812 7.460938-4.621094 3.382812-6.640625 9.300781-5.019531 14.722656 2.140624 7.140625 9.699218 11.207031 16.824218 9.078125 3.460938-1.03125 6.308594-3.351562 8.027344-6.527344 1.714844-3.179687 2.089844-6.835937 1.054688-10.292968-.40625-1.359376-1.09375-2.6875-2.105469-4.074219-1.308594-1.792969-1.667969-4.105469-.957031-6.203125.707031-2.101563 2.386718-3.730469 4.515624-4.363282l249.285157-74.5c2.113281-.640624 4.429687-.203124 6.167969 1.167969 1.746093 1.367188 2.710937 3.496094 2.605468 5.714844-.085937 1.710937.066406 3.199219.472656 4.550781 1.03125 3.464844 3.355469 6.3125 6.527344 8.027344 3.179688 1.71875 6.832032 2.097656 10.292969 1.058594 3.457031-1.03125 6.304687-3.355469 8.023437-6.53125 1.714844-3.175782 2.089844-6.832032 1.054688-10.289063-1.621094-5.421875-6.554688-9.261719-12.265625-9.558593-2.886719-.144532-5.371094-2.09375-6.195313-4.863282l-.714843-2.382812c-.824219-2.769532.175781-5.757813 2.507812-7.464844 4.621094-3.378906 6.640625-9.296875 5.019531-14.71875-2.140624-7.140625-9.6875-11.207031-16.824218-9.082031-3.460938 1.035156-6.308594 3.355469-8.027344 6.53125-1.714844 3.179687-2.085938 6.832031-1.054688 10.292969.40625 1.351562 1.09375 2.6875 2.109376 4.074218 1.304687 1.789063 1.664062 4.101563.953124 6.203125-.707031 2.097657-2.386718 3.726563-4.515624 4.359375l-249.285157 74.5c-2.117187.636719-4.425781.203125-6.164062-1.167968-1.746094-1.367188-2.714844-3.496094-2.605469-5.714844.085938-1.710938-.066406-3.199219-.472656-4.550782-1.035156-3.464843-3.355469-6.316406-6.527344-8.027343-2.003906-1.082031-4.195312-1.625-6.402344-1.625zm0 0" fill="#602f75"/><g fill="#ea3457"><path d="m202.160156 128.476562 5.773438 6.929688c7.109375 8.535156 20.1875 8.625 27.414062.191406l13.421875-15.65625c8.570313-9.996094.648438-25.347656-12.464843-24.15625l-21.410157 1.945313c-15.085937 1.371093-22.433593 19.113281-12.734375 30.746093zm0 0"/><path d="m221.722656 148.691406c-.058594 0-.113281 0-.171875 0-7.316406-.050781-14.1875-3.300781-18.863281-8.914062l-5.773438-6.933594c-6.113281-7.335938-7.644531-17.375-3.984374-26.199219 3.652343-8.828125 11.832031-14.847656 21.34375-15.714843l21.410156-1.945313c8.890625-.816406 16.953125 3.613281 21.046875 11.546875 4.089843 7.933594 3.03125 17.070312-2.773438 23.851562l-13.429687 15.65625c-4.710938 5.503907-11.558594 8.652344-18.804688 8.652344zm16.027344-46.144531c-.265625 0-.546875.011719-.828125.039063l-21.40625 1.949218c-4.515625.40625-8.238281 3.148438-9.972656 7.335938-1.734375 4.183594-1.039063 8.757812 1.859375 12.234375h.007812l5.773438 6.933593c2.097656 2.519532 5.179687 3.976563 8.460937 4 3.171875.15625 6.382813-1.390624 8.519531-3.882812l13.425782-15.65625c3.183594-3.722656 1.578125-7.601562 1.007812-8.703125-.535156-1.035156-2.542968-4.25-6.847656-4.25zm0 0"/><path d="m147.195312 128.476562-5.773437 6.929688c-7.109375 8.535156-20.1875 8.625-27.414063.191406l-13.421874-15.65625c-8.570313-9.996094-.648438-25.347656 12.464843-24.15625l21.410157 1.945313c15.085937 1.371093 22.433593 19.113281 12.734374 30.746093zm0 0"/><path d="m127.636719 148.691406c-7.246094 0-14.09375-3.148437-18.8125-8.652344l-13.414063-15.65625c-5.8125-6.777343-6.878906-15.914062-2.785156-23.847656 4.089844-7.933594 12.144531-12.332031 21.046875-11.550781l21.414063 1.949219c9.511718.867187 17.691406 6.886718 21.34375 15.710937 3.664062 8.824219 2.128906 18.867188-3.984376 26.203125l-5.773437 6.929688c-4.679687 5.617187-11.558594 8.863281-18.867187 8.914062-.054688 0-.117188 0-.167969 0zm-16.027344-46.144531c-4.304687 0-6.320313 3.21875-6.855469 4.253906-.566406 1.101563-2.171875 4.976563 1.015625 8.695313l13.417969 15.65625c2.121094 2.472656 5.195312 3.882812 8.445312 3.882812h.074219c3.28125-.019531 6.367188-1.476562 8.46875-4l5.773438-6.929687s0 0 .007812-.003907c2.898438-3.476562 3.589844-8.050781 1.859375-12.234374-1.734375-4.183594-5.460937-6.925782-9.976562-7.335938l-21.410156-1.945312c-.28125-.027344-.5625-.039063-.820313-.039063zm0 0"/></g><path d="m147.117188 254.597656c-3.773438 0-6.828126-3.058594-6.828126-6.828125v-20.480469c0-3.769531 3.054688-6.824218 6.828126-6.824218 3.773437 0 6.824218 3.054687 6.824218 6.824218v20.480469c0 3.769531-3.050781 6.828125-6.824218 6.828125zm0 0" fill="#602f75"/><path d="m174.421875 254.597656c-3.773437 0-6.824219-3.058594-6.824219-6.828125v-20.480469c0-3.769531 3.050782-6.824218 6.824219-6.824218s6.828125 3.054687 6.828125 6.824218v20.480469c0 3.769531-3.054688 6.828125-6.828125 6.828125zm0 0" fill="#602f75"/><path d="m201.730469 254.597656c-3.773438 0-6.828125-3.058594-6.828125-6.828125v-20.480469c0-3.769531 3.054687-6.824218 6.828125-6.824218 3.773437 0 6.824219 3.054687 6.824219 6.824218v20.480469c0 3.769531-3.050782 6.828125-6.824219 6.828125zm0 0" fill="#602f75"/></svg>