<svg height="402pt" viewBox="-6 0 402 402.92729" width="402pt" xmlns="http://www.w3.org/2000/svg"><path d="m302.648438 255.65625c18.984374 0 34.375-8.976562 34.375-20.050781 0-.976563-.160157-1.925781-.390626-2.867188h-67.96875c-.230468.941407-.390624 1.890625-.390624 2.867188 0 11.074219 15.390624 20.050781 34.375 20.050781zm0 0" fill="#fff"/><path d="m302.648438 262.484375c-23.101563 0-41.203126-11.808594-41.203126-26.878906 0-1.421875.195313-2.898438.597657-4.507813.757812-3.046875 3.484375-5.183594 6.625-5.183594h67.964843c3.15625 0 5.902344 2.160157 6.636719 5.226563.390625 1.632813.578125 3.046875.578125 4.464844 0 15.070312-18.101562 26.878906-41.199218 26.878906zm-26.0625-22.917969c3.640624 4.90625 13.609374 9.265625 26.0625 9.265625 12.453124 0 22.421874-4.359375 26.058593-9.265625zm0 0" fill="#602f75"/><path d="m182.335938 348.722656c19.472656 23.796875 45.597656 44.75 93.601562 47.207032 55.171875 2.824218 106.613281-30.113282 106.914062-85.355469.105469-19.164063-5.859374-36.925781-16.085937-51.476563l-24.015625-26.359375h-6.117188c.230469.941407.390626 1.890625.390626 2.867188 0 11.074219-15.390626 20.050781-34.375 20.050781-18.984376 0-34.375-8.976562-34.375-20.050781 0-.976563.160156-1.925781.390624-2.867188h-11.847656l-17.535156 29.230469c-8.371094 13.949219-26.082031 18.710938-40.148438 11.269531l-41.519531 41.519531" fill="#ffe600"/><path d="m282.621094 402.925781c-2.332032 0-4.671875-.054687-7.027344-.175781-53.539062-2.742188-80.785156-28-98.546875-49.703125-2.386719-2.914063-1.953125-7.21875.964844-9.605469 2.914062-2.386718 7.214843-1.960937 9.609375.960938 16.960937 20.730468 40.757812 42.257812 88.664062 44.710937 30.089844 1.515625 57.988282-7.820312 76.875-25.664062 14.847656-14.03125 22.753906-32.324219 22.867188-52.914063.085937-16.992187-4.960938-33.292968-14.601563-47.164062l-18.933593-20.773438c-4.605469 11.574219-20.464844 19.882813-39.847657 19.882813-21.03125 0-37.921875-9.789063-40.773437-22.914063h-1.195313l-15.542969 25.914063c-9.273437 15.4375-28.027343 21.855469-44.480468 15.886719l-38.214844 38.214843c-2.664062 2.667969-6.984375 2.667969-9.652344 0-2.664062-2.664062-2.664062-6.984375 0-9.652343l41.511719-41.515626c2.128906-2.117187 5.363281-2.597656 8.019531-1.210937 11.007813 5.824219 24.675782 1.972656 31.109375-8.75l17.53125-29.226563c1.234375-2.054687 3.453125-3.3125 5.855469-3.3125h11.851562c2.101563 0 4.089844.96875 5.378907 2.621094 1.292969 1.65625 1.753906 3.8125 1.246093 5.851563-.132812.523437-.191406.921875-.191406 1.222656 0 6.242187 11.777344 13.222656 27.546875 13.222656s27.546875-6.980469 27.546875-13.222656c0-.304687-.066406-.71875-.191406-1.265625-.496094-2.035156-.027344-4.179688 1.273438-5.824219 1.292968-1.644531 3.265624-2.601562 5.359374-2.601562h6.113282c1.921875 0 3.753906.808593 5.046875 2.230469l24.019531 26.355468c.191406.210938.375.4375.539062.675782 11.441407 16.277343 17.433594 35.445312 17.324219 55.433593-.132812 24.410157-9.519531 46.113281-27.144531 62.761719-20.070312 18.964844-48.890625 29.550781-79.910156 29.550781zm0 0" fill="#602f75"/><path d="m113.59375 227.011719c-40.355469-16.140625-77.867188-9.542969-96.519531-4.230469-6.953125 1.980469-11.125 9.039062-9.371094 16.054688 1.546875 6.199218 7.261719 10.394531 13.644531 10.050781 21.414063-1.148438 70.359375.679687 109.433594 35.414062 2.074219 1.84375 4.015625 3.699219 5.898438 5.558594l34.203124-34.203125c-16.960937-10-36.738281-20.425781-57.289062-28.644531zm0 0" fill="#ea3457"/><path d="m136.679688 296.6875c-1.730469 0-3.457032-.652344-4.792969-1.964844-1.808594-1.78125-3.660157-3.554687-5.648438-5.324218-37.632812-33.449219-85.65625-34.691407-104.523437-33.691407-9.675782.515625-18.308594-5.882812-20.640625-15.214843-2.648438-10.601563 3.558593-21.265626 14.132812-24.277344 19.578125-5.574219 58.746094-12.414063 100.917969 4.460937 18.28125 7.308594 37.867188 17.101563 58.222656 29.101563 1.816406 1.074218 3.039063 2.925781 3.304688 5.019531.269531 2.09375-.453125 4.195313-1.945313 5.6875l-34.199219 34.203125c-1.335937 1.332031-3.082031 2-4.828124 2zm-106.8125-54.851562c24.3125 0 69.082031 5.035156 105.445312 37.363281.421875.375.839844.746093 1.246094 1.125l23.207031-23.207031c-17.003906-9.648438-33.359375-17.628907-48.703125-23.765626 0 0 0 0 0-.003906-38.421875-15.359375-74.203125-9.101562-92.121094-4.003906-3.441406.980469-5.472656 4.421875-4.621094 7.835938.753907 3.003906 3.519532 5.058593 6.660157 4.890624 2.511719-.136718 5.5-.234374 8.886719-.234374zm0 0" fill="#602f75"/><path d="m196.515625 271.691406c-7.371094-4.886718-16.066406-10.394531-25.632813-16.035156l-34.203124 34.207031c8.347656 8.242188 14.964843 16.617188 20.933593 24.894531l41.515625-41.515624c-.886718-.472657-1.761718-.980469-2.613281-1.550782zm0 0" fill="#fff"/><path d="m157.613281 321.582031c-.179687 0-.367187-.007812-.546875-.023437-1.992187-.160156-3.820312-1.1875-4.992187-2.808594-7.066407-9.8125-13.300781-17.222656-20.195313-24.035156-1.292968-1.273438-2.019531-3.015625-2.027344-4.835938-.003906-1.816406.714844-3.558594 2-4.847656l34.203126-34.203125c2.199218-2.199219 5.613281-2.625 8.292968-1.050781 8.777344 5.175781 17.511719 10.632812 25.9375 16.226562v.003906c.667969.4375 1.347656.835938 2.039063 1.199219 1.914062 1.015625 3.226562 2.875 3.554687 5.019531.320313 2.140626-.394531 4.308594-1.925781 5.839844l-41.515625 41.515625c-1.285156 1.285157-3.023438 2-4.824219 2zm-11.34375-31.652343c4.070313 4.363281 8.011719 9.050781 12.113281 14.402343l29.886719-29.886719c-5.363281-3.480468-10.820312-6.890624-16.316406-10.207031zm0 0" fill="#602f75"/><path d="m262.546875 199.464844c-3.773437 0-6.824219-3.058594-6.824219-6.828125 0-23.761719-12.113281-45.777344-31.609375-57.453125-3.273437-1.960938-6.621093-3.625-9.9375-4.957032-10.753906-4.300781-18.089843-14.742187-19.613281-27.933593-1.707031-14.683594 3.992188-28.9375 14.519531-36.316407 5.085938-3.5625 15.199219-8.097656 30.320313-3.414062 1.867187-13.753906 7.761718-38.832031 26.234375-52.761719 13.210937-9.953125 30.085937-12.339843 50.199219-7.09375 14.140624 3.695313 24.464843 11.714844 30.671874 23.84375 10.902344 21.277344 6.121094 50.285157 1.5625 67.679688 9.230469-3.183594 21.023438-5.292969 29.960938-.140625 7.71875 4.449218 11.613281 12.921875 11.566406 25.1875-.054687 13.5625-10.976562 19.472656-20.609375 24.683594-12.367187 6.683593-22.132812 11.96875-19.480469 30.527343.535157 3.734375-2.058593 7.191407-5.792968 7.722657-3.785156.507812-7.191406-2.066407-7.726563-5.792969-3.992187-27.972657 13.632813-37.507813 26.5-44.464844 9.339844-5.054687 13.433594-7.785156 13.453125-12.730469.027344-7-1.566406-11.476562-4.726562-13.300781-7.300782-4.226563-23.871094 2.675781-30.753906 6.679687-2.5 1.457032-5.652344 1.179688-7.867188-.707031-2.199219-1.878906-2.980469-4.941406-1.9375-7.644531.171875-.453125 17.152344-45.257812 3.683594-71.5-4.417969-8.621094-11.597656-14.125-21.957032-16.828125-15.828124-4.136719-28.789062-2.53125-38.496093 4.757813-20.519531 15.429687-21.691407 51.457031-21.699219 51.820312-.058594 2.335938-1.316406 4.476562-3.3125 5.679688-2 1.195312-4.480469 1.300781-6.566406.257812-7.234375-3.628906-17.527344-6.792969-25.386719-1.277344-6.382813 4.46875-9.914063 13.9375-8.800781 23.5625.453125 3.902344 2.445312 13.355469 11.128906 16.828125 3.992188 1.597657 7.984375 3.589844 11.878906 5.921875 23.59375 14.125 38.246094 40.628906 38.246094 69.164063 0 3.769531-3.054688 6.828125-6.828125 6.828125zm0 0" fill="#00e7ff"/><path d="m294.019531 371.832031c-3.773437 0-6.824219-3.054687-6.824219-6.824219 0-3.769531 3.050782-6.828124 6.824219-6.828124 30.117188 0 54.613281-24.5 54.613281-54.613282 0-3.769531 3.054688-6.828125 6.828126-6.828125 3.773437 0 6.828124 3.058594 6.828124 6.828125 0 37.644532-30.628906 68.265625-68.269531 68.265625zm0 0" fill="#ea3457"/></svg>