<svg height="409pt" viewBox="-7 0 409 409.6" width="409pt" xmlns="http://www.w3.org/2000/svg"><path d="m102.699219 178.402344c0 36.445312 29.800781 65.992187 66.5625 65.992187 18.378906 0 52.707031-5.460937 76.796875-5.460937s37.941406 5.460937 56.320312 5.460937c36.761719 0 66.5625-29.546875 66.5625-65.992187v-61.589844h-266.242187zm0 0" fill="#fff"/><path d="m302.378906 251.21875c-9.097656 0-16.972656-1.234375-25.304687-2.535156-9.1875-1.4375-18.6875-2.921875-31.015625-2.921875-12.519532 0-27.84375 1.507812-42.671875 2.972656-12.96875 1.277344-25.21875 2.484375-34.125 2.484375-40.46875 0-73.386719-32.667969-73.386719-72.816406v-61.589844c0-3.769531 3.054688-6.828125 6.824219-6.828125h266.242187c3.773438 0 6.824219 3.058594 6.824219 6.828125v61.589844c0 40.152344-32.917969 72.816406-73.386719 72.816406zm-56.320312-19.113281c13.386718 0 23.875 1.640625 33.121094 3.089843 7.800781 1.21875 15.160156 2.371094 23.199218 2.371094 32.941406 0 59.734375-26.539062 59.734375-59.160156v-54.765625h-252.585937v54.765625c0 32.621094 26.796875 59.160156 59.734375 59.160156 8.230469 0 20.15625-1.175781 32.785156-2.417968 15.152344-1.5 30.820313-3.042969 44.011719-3.042969zm0 0" fill="#602f75"/><path d="m123.179688 136.535156v44.132813c0 26.113281 38.523437 37.984375 62.382812 40.460937 40.015625 4.152344 50.257812-14.34375 50.257812-40.460937 0 26.113281 10.238282 44.613281 50.257813 40.460937 23.855469-2.472656 62.382813-14.34375 62.382813-40.460937v-44.132813zm0 0" fill="#00e7ff"/><path d="m239.234375 179.820312s-24.261719 0-27.726563 38.117188v34.648438h55.453126v-34.652344c-3.464844-38.113282-27.726563-38.113282-27.726563-38.113282zm0 0" fill="#ffe600"/><path d="m266.960938 259.414062h-55.453126c-3.773437 0-6.828124-3.058593-6.828124-6.828124v-34.648438c3.222656-35.679688 24.007812-44.945312 34.554687-44.945312s31.332031 9.265624 34.523437 44.324218l.027344 35.269532c0 3.769531-3.050781 6.828124-6.824218 6.828124zm-48.632813-13.652343h41.804687v-27.824219c-2.765624-30.113281-19.785156-31.253906-20.847656-31.292969-1.332031.070313-18.21875 1.546875-20.980468 31.90625zm0 0" fill="#602f75"/><path d="m134.195312 279.894531c0 10.878907 8.824219 19.703125 19.703126 19.703125 10.882812 0 19.703124-8.824218 19.703124-19.703125h31.5c0 28.277344-22.921874 51.199219-51.203124 51.199219-28.277344 0-51.199219-22.921875-51.199219-51.199219zm0 0" fill="#00e7ff"/><path d="m153.898438 337.921875c-31.996094 0-58.023438-26.03125-58.023438-58.027344 0-3.769531 3.054688-6.828125 6.824219-6.828125h31.496093c3.769532 0 6.828126 3.058594 6.828126 6.828125 0 7.097657 5.777343 12.875 12.875 12.875 7.105468 0 12.882812-5.777343 12.882812-12.875 0-3.769531 3.050781-6.828125 6.824219-6.828125h31.496093c3.773438 0 6.824219 3.058594 6.824219 6.828125 0 31.996094-26.03125 58.027344-58.027343 58.027344zm-43.847657-51.203125c3.292969 21.242188 21.703125 37.546875 43.847657 37.546875 22.148437 0 40.554687-16.304687 43.847656-37.546875h-18.207032c-3.015624 11.335938-13.367187 19.703125-25.640624 19.703125-12.269532 0-22.617188-8.367187-25.636719-19.703125zm0 0" fill="#602f75"/><path d="m368.941406 143.359375h20.480469v34.132813h-20.480469zm0 0" fill="#fff"/><path d="m389.421875 184.320312h-20.480469c-3.773437 0-6.828125-3.058593-6.828125-6.828124v-34.132813c0-3.769531 3.054688-6.824219 6.828125-6.824219h20.480469c3.773437 0 6.824219 3.054688 6.824219 6.824219v34.132813c0 3.769531-3.050782 6.828124-6.824219 6.828124zm-13.65625-13.652343h6.828125v-20.480469h-6.828125zm0 0" fill="#602f75"/><path d="m82.21875 143.359375h20.480469v34.132813h-20.480469zm0 0" fill="#fff"/><path d="m102.699219 184.320312h-20.480469c-3.769531 0-6.824219-3.058593-6.824219-6.828124v-34.132813c0-3.769531 3.054688-6.824219 6.824219-6.824219h20.480469c3.769531 0 6.828125 3.054688 6.828125 6.824219v34.132813c0 3.769531-3.058594 6.828124-6.828125 6.828124zm-13.652344-13.652343h6.828125v-20.480469h-6.828125zm0 0" fill="#602f75"/><path d="m157.3125 177.492188c-1.746094 0-3.492188-.667969-4.824219-2-2.667969-2.664063-2.667969-6.984376 0-9.652344l13.652344-13.652344c2.664063-2.667969 6.988281-2.667969 9.652344 0 2.664062 2.664062 2.664062 6.988281 0 9.652344l-13.652344 13.652344c-1.332031 1.332031-3.082031 2-4.828125 2zm0 0" fill="#fff"/><path d="m164.140625 204.800781c-1.746094 0-3.496094-.667969-4.828125-2-2.664062-2.667969-2.664062-6.988281 0-9.652343l40.960938-40.960938c2.664062-2.667969 6.988281-2.667969 9.652343 0 2.667969 2.664062 2.667969 6.988281 0 9.652344l-40.960937 40.960937c-1.332032 1.332031-3.078125 2-4.824219 2zm0 0" fill="#fff"/><path d="m27.605469 245.761719h-20.480469v27.304687h20.480469v57.117188c0 40.089844 30.679687 72.589844 70.773437 72.589844 40.085938 0 72.585938-35.003907 72.585938-75.09375h-30.808594c0 23.074218-18.707031 44.28125-41.777344 44.28125-23.074218 0-43.464844-18.703126-43.464844-41.777344v-57.117188h20.480469v-27.304687h-20.480469v-238.933594h-27.308593v197.972656" fill="#ea3457"/><path d="m98.378906 409.601562c-43.515625 0-77.597656-34.882812-77.597656-79.417968v-50.289063h-13.65625c-3.769531 0-6.824219-3.058593-6.824219-6.828125v-27.304687c0-3.773438 3.054688-6.828125 6.824219-6.828125h20.480469c3.769531 0 6.828125 3.054687 6.828125 6.828125 0 3.769531-3.058594 6.824219-6.828125 6.824219h-13.652344v13.652343h13.652344c3.769531 0 6.828125 3.058594 6.828125 6.828125v57.117188c0 36.875 28.085937 65.761718 63.945312 65.761718 33.433594 0 61.996094-27.496093 65.417969-61.4375h-17.265625c-3.289062 24.617188-24.003906 44.28125-48.152344 44.28125-27.261718 0-50.292968-22.257812-50.292968-48.605468v-57.117188c0-3.769531 3.058593-6.828125 6.828124-6.828125h13.652344v-13.652343h-13.652344c-3.769531 0-6.828124-3.054688-6.828124-6.824219v-232.109375h-13.652344v191.148437c0 3.769531-3.058594 6.824219-6.828125 6.824219s-6.824219-3.054688-6.824219-6.824219v-197.972656c0-3.773437 3.054688-6.828125 6.824219-6.828125h27.308593c3.769532 0 6.824219 3.054688 6.824219 6.828125v232.105469h13.65625c3.769531 0 6.824219 3.054687 6.824219 6.828125v27.304687c0 3.769532-3.054688 6.828125-6.824219 6.828125h-13.65625v50.289063c0 18.949218 16.777344 34.953125 36.640625 34.953125 18.617188 0 34.949219-17.503907 34.949219-37.457031 0-3.769532 3.058594-6.828126 6.828125-6.828126h30.808594c3.773437 0 6.828125 3.058594 6.828125 6.828126 0 44.40625-36.371094 81.921874-79.414063 81.921874zm0 0" fill="#602f75"/></svg>