<svg height="389pt" viewBox="0 -1 389.12 389" width="389pt" xmlns="http://www.w3.org/2000/svg"><path d="m333.28125 228.425781c-14.296875 0-28.589844-5.394531-39.46875-16.1875l-23.90625-23.71875c-2.679688-2.65625-2.695312-6.980469-.039062-9.652343 2.660156-2.679688 6.992187-2.6875 9.652343-.039063l23.90625 23.71875c16.449219 16.316406 43.234375 16.332031 59.707031 0 7.953126-7.894531 12.332032-18.386719 12.332032-29.546875 0-11.152344-4.378906-21.644531-12.332032-29.539062l-53.632812-53.210938c-2.679688-2.65625-2.695312-6.976562-.039062-9.652344 2.660156-2.679687 6.980468-2.6875 9.652343-.039062l53.632813 53.210937c10.5625 10.480469 16.375 24.414063 16.375 39.230469 0 14.824219-5.8125 28.757812-16.375 39.238281-10.878906 10.792969-25.171875 16.1875-39.464844 16.1875zm0 0" fill="#602f75"/><path d="m174.253906 386.199219c-14.292968 0-28.585937-5.394531-39.464844-16.1875l-53.628906-53.210938c-2.679687-2.65625-2.691406-6.980469-.039062-9.65625 2.660156-2.667969 6.992187-2.683593 9.652344-.035156l53.628906 53.210937c16.464844 16.328126 43.238281 16.316407 59.703125 0 7.953125-7.894531 12.335937-18.382812 12.335937-29.542968 0-11.15625-4.378906-21.648438-12.335937-29.539063l-23.90625-23.71875c-2.679688-2.660156-2.691407-6.980469-.039063-9.65625 2.660156-2.675781 6.996094-2.6875 9.652344-.039062l23.910156 23.722656c10.558594 10.476563 16.371094 24.410156 16.371094 39.230469 0 14.824218-5.8125 28.757812-16.371094 39.234375-10.882812 10.792969-25.175781 16.1875-39.46875 16.1875zm0 0" fill="#602f75"/><path d="m256.265625 158.980469 46.308594 45.941406-96.144531 95.390625-123.53125-122.5625-43.085938-1.722656c-18.425781-.734375-32.984375-15.890625-32.984375-34.328125v-100.453125c0-18.976563 15.378906-34.359375 34.355469-34.359375h101.800781c18.4375 0 33.582031 14.546875 34.332031 32.964843l1.726563 42.511719 47.144531 46.773438" fill="#ffe600"/><path d="m206.433594 307.140625c-1.742188 0-3.480469-.660156-4.804688-1.980469l-121.65625-120.691406-40.429687-1.621094c-22.175781-.886718-39.542969-18.960937-39.542969-41.152344v-100.449218c0-22.710938 18.472656-41.1875002 41.1875-41.1875002h101.796875c22.175781 0 40.25 17.3593752 41.148437 39.5156252l1.617188 39.832031 45.242188 44.878906c2.679687 2.660156 2.691406 6.976563.039062 9.65625-2.652344 2.683594-6.972656 2.691406-9.652344.039063l-47.144531-46.769531c-1.226563-1.214844-1.949219-2.847657-2.015625-4.570313l-1.726562-42.511719c-.601563-14.8125-12.6875-26.414062-27.507813-26.414062h-101.796875c-15.179688 0-27.535156 12.347656-27.535156 27.53125v100.449218c0 14.832032 11.613281 26.917969 26.433594 27.511719l43.085937 1.722657c1.707031.066406 3.320313.769531 4.535156 1.972656l118.722657 117.792968 86.449218-85.773437-41.421875-41.09375c-2.679687-2.660156-2.691406-6.980469-.039062-9.65625 2.660156-2.675781 6.992187-2.683594 9.652343-.039063l46.308594 45.945313c1.292969 1.285156 2.019532 3.027344 2.019532 4.847656 0 1.820313-.726563 3.5625-2.019532 4.847657l-96.140625 95.390624c-1.324219 1.316407-3.0625 1.976563-4.804687 1.976563zm0 0" fill="#602f75"/><path d="m297.441406 44.824219c18.25 18.109375 27.667969 38.125 21.03125 44.710937-6.640625 6.585938-26.816406-2.757812-45.070312-20.867187s-27.667969-38.125-21.03125-44.710938c6.636718-6.585937 26.816406 2.757813 45.070312 20.867188zm0 0" fill="#00e7ff"/><path d="m312.445312 98.503906c-12.738281 0-30.171874-11.410156-43.851562-24.988281-15.535156-15.410156-25.171875-32.089844-25.171875-43.519531 0-5.597656 2.25-9.007813 4.144531-10.886719 11.546875-11.464844 36.445313 2.773437 54.679688 20.867187 15.527344 15.40625 25.175781 32.082032 25.179687 43.515626 0 5.601562-2.25 9.011718-4.140625 10.886718-2.886718 2.863282-6.605468 4.125-10.839844 4.125zm-53.945312-69.898437c-.625 0-1.09375.089843-1.390625.257812-1.261719 2.398438 3.058594 17.050781 21.097656 34.960938 18.1875 18.039062 32.933594 22.226562 35.539063 20.800781 1.253906-2.394531-3.066406-17.050781-21.113282-34.957031-16.039062-15.910157-29.445312-21.0625-34.132812-21.0625zm0 0" fill="#602f75"/><path d="m69.097656 271.371094c18.253906 18.109375 27.671875 38.128906 21.03125 44.714844-6.636718 6.585937-26.8125-2.757813-45.066406-20.867188s-27.667969-38.128906-21.03125-44.710938c6.636719-6.585937 26.816406 2.753907 45.066406 20.863282zm0 0" fill="#00e7ff"/><path d="m84.105469 325.054688c-12.734375 0-30.167969-11.410157-43.851563-24.988282-15.535156-15.414062-25.179687-32.09375-25.171875-43.527344 0-5.59375 2.25-9.003906 4.144531-10.878906 11.546876-11.46875 36.445313 2.773438 54.679688 20.863282 15.527344 15.40625 25.175781 32.082031 25.179688 43.519531 0 5.601562-2.25 9.011719-4.140626 10.886719-2.886718 2.859374-6.605468 4.125-10.839843 4.125zm-53.945313-69.902344c-.625 0-1.09375.09375-1.394531.261718-1.257813 2.398438 3.0625 17.054688 21.101563 34.957032 18.1875 18.039062 32.964843 22.234375 35.539062 20.804687 1.253906-2.398437-3.066406-17.054687-21.113281-34.960937-16.039063-15.910156-29.445313-21.0625-34.132813-21.0625zm0 0" fill="#602f75"/><path d="m342.503906 375.703125-50.070312-49.683594" fill="#fff"/><path d="m342.507812 382.53125c-1.742187 0-3.480468-.660156-4.804687-1.980469l-50.074219-49.683593c-2.679687-2.65625-2.695312-6.980469-.039062-9.652344 2.660156-2.679688 6.992187-2.6875 9.652344-.039063l50.074218 49.683594c2.679688 2.65625 2.691406 6.980469.039063 9.652344-1.335938 1.34375-3.09375 2.019531-4.847657 2.019531zm0 0" fill="#602f75"/><path d="m378.5625 339.933594-50.078125-49.683594" fill="#fff"/><path d="m378.558594 346.761719c-1.742188 0-3.480469-.660157-4.804688-1.980469l-50.074218-49.683594c-2.679688-2.65625-2.691407-6.980468-.039063-9.652344 2.660156-2.679687 6.992187-2.6875 9.652344-.039062l50.074219 49.683594c2.679687 2.65625 2.691406 6.980468.039062 9.652344-1.332031 1.34375-3.09375 2.019531-4.847656 2.019531zm0 0" fill="#602f75"/><path d="m313.382812 213.945312c26.515626 26.308594 26.101563 69.367188-.921874 96.179688-27.023438 26.808594-70.421876 27.21875-96.9375.914062-26.515626-26.308593-26.101563-69.367187.921874-96.179687 27.023438-26.808594 70.421876-27.21875 96.9375-.914063zm0 0" fill="#fff"/><path d="m263.148438 337.285156c-19.082032 0-38.035157-7.117187-52.433594-21.402344-13.953125-13.84375-21.640625-32.34375-21.640625-52.089843 0-20.246094 8.011719-39.34375 22.566406-53.777344 29.625-29.40625 77.425781-29.804687 106.554687-.914063 13.953126 13.84375 21.640626 32.347657 21.640626 52.09375-.007813 20.246094-8.019532 39.34375-22.566407 53.777344-14.984375 14.863282-34.617187 22.3125-54.121093 22.3125zm2.613281-135.949218c-16.027344 0-32.175781 6.136718-44.507813 18.371093-11.945312 11.851563-18.527344 27.507813-18.527344 44.085938 0 16.082031 6.253907 31.136719 17.601563 42.398437 23.8125 23.625 62.992187 23.230469 87.324219-.914062 11.949218-11.847656 18.523437-27.5 18.527344-44.078125 0-16.085938-6.253907-31.144531-17.597657-42.402344-11.75-11.65625-27.230469-17.460937-42.820312-17.460937zm0 0" fill="#602f75"/><path d="m259.414062 232.167969 10.238282 10.238281" fill="#fff"/><path d="m269.652344 249.234375c-1.746094 0-3.492188-.667969-4.824219-2l-10.242187-10.242187c-2.664063-2.664063-2.664063-6.984376 0-9.652344 2.667968-2.664063 6.988281-2.664063 9.652343 0l10.242188 10.242187c2.664062 2.664063 2.664062 6.984375 0 9.652344-1.332031 1.332031-3.082031 2-4.828125 2zm0 0" fill="#602f75"/><path d="m126.183594 65.691406c16.59375 16.460938 16.59375 43.152344 0 59.617188-16.59375 16.460937-43.496094 16.460937-60.089844 0-16.59375-16.464844-16.59375-43.15625 0-59.617188 16.59375-16.464844 43.496094-16.464844 60.089844 0zm0 0" fill="#ea3457"/><path d="m96.140625 144.453125c-12.621094 0-25.246094-4.765625-34.855469-14.300781-9.324218-9.25-14.464844-21.558594-14.464844-34.652344 0-13.097656 5.140626-25.402344 14.464844-34.65625 19.214844-19.066406 50.496094-19.066406 69.707032 0 9.328124 9.253906 14.46875 21.558594 14.46875 34.65625 0 13.09375-5.140626 25.402344-14.46875 34.652344-9.605469 9.535156-22.230469 14.300781-34.851563 14.300781zm0-84.273437c-9.140625 0-18.28125 3.453124-25.242187 10.355468-6.71875 6.671875-10.425782 15.539063-10.425782 24.964844 0 9.421875 3.707032 18.289062 10.425782 24.960938 13.921874 13.804687 36.5625 13.804687 50.480468 0 6.722656-6.671876 10.425782-15.539063 10.425782-24.960938 0-9.425781-3.707032-18.292969-10.425782-24.964844-6.957031-6.902344-16.097656-10.355468-25.238281-10.355468zm0 0" fill="#ea3457"/><path d="m165.242188 152.136719c4.980468 4.9375 4.980468 12.945312 0 17.886719-4.976563 4.9375-13.046876 4.9375-18.027344 0-4.976563-4.941407-4.976563-12.949219 0-17.886719 4.980468-4.941407 13.050781-4.941407 18.027344 0zm0 0" fill="#fff"/><path d="m156.234375 180.539062c-5.007813 0-10.015625-1.886718-13.828125-5.671874-3.707031-3.679688-5.753906-8.574219-5.753906-13.785157 0-5.214843 2.046875-10.113281 5.753906-13.792969 7.625-7.570312 20.019531-7.558593 27.644531.003907 3.707031 3.679687 5.746094 8.574219 5.746094 13.789062 0 5.210938-2.039063 10.109375-5.75 13.785157-3.808594 3.785156-8.8125 5.671874-13.8125 5.671874zm-.007813-25.28125c-1.519531 0-3.046874.574219-4.207031 1.726563-1.101562 1.09375-1.714843 2.550781-1.714843 4.097656 0 1.542969.613281 3 1.714843 4.089844 2.328125 2.3125 6.105469 2.296875 8.40625.003906 1.113281-1.101562 1.722657-2.550781 1.722657-4.09375 0-1.546875-.605469-3-1.714844-4.097656 0 0 0 0-.007813-.003906-1.152343-1.148438-2.671875-1.722657-4.199219-1.722657zm0 0" fill="#602f75"/><path d="m232.105469 259.472656 10.242187 10.242188" fill="#fff"/><path d="m242.347656 276.539062c-1.746094 0-3.496094-.667968-4.828125-2l-10.238281-10.238281c-2.667969-2.667969-2.667969-6.988281 0-9.652343 2.664062-2.667969 6.984375-2.667969 9.652344 0l10.238281 10.238281c2.667969 2.664062 2.667969 6.988281 0 9.652343-1.332031 1.332032-3.078125 2-4.824219 2zm0 0" fill="#602f75"/></svg>