<svg height="419pt" viewBox="0 -7 419.23152 419" width="419pt" xmlns="http://www.w3.org/2000/svg"><path d="m96.488281 125.558594 21.199219-3.742188c10.351562-1.824218 19.140625-8.628906 23.503906-18.191406l35.601563-78.007812c10.992187-24.082032 44.824219-25.109376 57.253906-1.738282l40.265625 75.707032c4.933594 9.28125 14.121094 15.539062 24.566406 16.734374l85.191406 9.753907c26.296876 3.007812 37.730469 34.871093 19.34375 53.914062l-59.5625 61.6875c-7.300781 7.5625-10.414062 18.230469-8.320312 28.535157l17.050781 84.035156c5.261719 25.945312-21.507812 46.660156-45.300781 35.058594l-77.070312-37.582032c-9.449219-4.605468-20.558594-4.269531-29.710938.902344l-74.65625 42.183594c-23.046875 13.023437-51.019531-6.03125-47.339844-32.246094l11.929688-84.914062c1.460937-10.410157-2.292969-20.875-10.039063-27.980469l-63.191406-57.960938c-19.507813-17.894531-10.027344-50.390625 16.042969-54.988281" fill="#ea3457"/><path d="m110.113281 405.8125c-7.617187 0-15.203125-2.273438-21.808593-6.773438-12.285157-8.371093-18.625-22.710937-16.558594-37.429687l11.925781-84.917969c1.148437-8.183594-1.808594-16.40625-7.894531-21.996094l-63.191406-57.960937c-10.953126-10.046875-15.175782-25.152344-11.007813-39.425781 4.164063-14.265625 15.839844-24.734375 30.480469-27.320313 3.699218-.636719 7.253906 1.828125 7.90625 5.539063.660156 3.710937-1.820313 7.253906-5.53125 7.910156-9.628906 1.695312-17.015625 8.3125-19.746094 17.699219-2.738281 9.378906-.074219 18.925781 7.125 25.535156l63.195312 57.964844c9.40625 8.628906 13.960938 21.320312 12.1875 33.953125l-11.929687 84.921875c-1.359375 9.675781 2.648437 18.738281 10.726563 24.242187 8.082031 5.503906 17.988281 5.925782 26.496093 1.109375l74.652344-42.183593c11.105469-6.28125 24.585937-6.691407 36.058594-1.097657l77.074219 37.582031c8.785156 4.292969 18.644531 3.269532 26.378906-2.710937 7.726562-5.984375 11.179687-15.269531 9.234375-24.847656l-17.046875-84.039063c-2.539063-12.503906 1.242187-25.453125 10.101562-34.636718l59.558594-61.6875c6.792969-7.03125 8.871094-16.722657 5.574219-25.921876-3.300781-9.199218-11.066407-15.359374-20.78125-16.46875l-85.1875-9.75c-12.6875-1.453124-23.832031-9.046874-29.820313-20.3125l-40.265625-75.703124c-4.589843-8.628907-13.316406-13.542969-22.929687-13.3125-9.773438.296874-18.023438 5.785156-22.085938 14.679687l-35.597656 78.003906c-5.292969 11.613281-15.960938 19.863281-28.535156 22.082031l-21.199219 3.742188c-3.722656.652344-7.261719-1.832031-7.90625-5.539062-.660156-3.710938 1.816406-7.25 5.53125-7.910157l21.199219-3.738281c8.148437-1.4375 15.054687-6.785156 18.480468-14.304688l35.601563-78.007812c6.171875-13.523438 19.238281-22.203125 34.097656-22.652344 14.867188-.359375 28.417969 7.421875 35.394531 20.542969l40.265626 75.707031c3.878906 7.300782 11.101562 12.21875 19.320312 13.15625l85.1875 9.753906c14.769531 1.691407 27.058594 11.429688 32.078125 25.421876 5.019531 13.988281 1.722656 29.324218-8.597656 40.019531l-59.5625 61.6875c-5.746094 5.945312-8.183594 14.332031-6.546875 22.433593l17.054687 84.039063c2.953125 14.5625-2.515625 29.261719-14.265625 38.359375-11.753906 9.105469-27.359375 10.710938-40.71875 4.191406l-77.074218-37.582031c-7.425782-3.621094-16.152344-3.359375-23.355469.710937l-74.652344 42.183594c-5.984375 3.378906-12.550781 5.054688-19.089844 5.058594zm0 0" fill="#602f75"/><path d="m145.960938 77.042969 28.960937 3.316406c8.941406 1.023437 12.828125 11.855469 6.578125 18.328125l-20.25 20.972656c-2.480469 2.570313-3.539062 6.199219-2.828125 9.699219l5.796875 28.570313c1.789062 8.816406-7.3125 15.859374-15.398438 11.914062l-26.203124-12.773438c-3.210938-1.566406-6.988282-1.453124-10.097657.304688l-25.378906 14.34375c-7.835937 4.425781-17.347656-2.050781-16.09375-10.964844l4.054687-28.867187c.496094-3.539063-.78125-7.09375-3.414062-9.511719l-21.484375-19.703125c-6.632813-6.082031-3.410156-17.128906 5.453125-18.695313l28.707031-5.0625c3.519531-.621093 6.507813-2.933593 7.992188-6.183593l12.101562-26.519531c3.734375-8.1875 15.238281-8.535157 19.464844-.59375l13.6875 25.738281c1.675781 3.15625 4.800781 5.28125 8.351563 5.6875zm0 0" fill="#00e7ff"/><path d="m213.820312 283.921875c-24.882812 0-47.183593-13.871094-58.195312-36.203125-1.671875-3.378906-.28125-7.472656 3.097656-9.140625 3.386719-1.664063 7.476563-.277344 9.140625 3.101563 8.699219 17.632812 26.304688 28.585937 45.953125 28.585937 20.628906 0 39.148438-12.273437 47.179688-31.269531 1.46875-3.476563 5.488281-5.101563 8.949218-3.628906 3.472657 1.464843 5.089844 5.472656 3.625 8.945312-10.171874 24.0625-33.625 39.609375-59.75 39.609375zm0 0" fill="#ffe600"/><g fill="#fff"><path d="m326.464844 167.867188c-.207032 0-.414063-.011719-.625-.027344l-23.699219-2.152344c-3.753906-.34375-6.519531-3.664062-6.183594-7.417969.347657-3.757812 3.609375-6.496093 7.421875-6.183593l23.699219 2.152343c3.753906.34375 6.519531 3.664063 6.183594 7.417969-.328125 3.546875-3.300781 6.210938-6.796875 6.210938zm0 0"/><path d="m267.273438 160.140625c-.816407 0-1.648438-.148437-2.457032-.460937-14.945312-5.75-27.464844-16.628907-35.238281-30.636719l-18.3125-32.953125c-1.832031-3.296875-.648437-7.453125 2.652344-9.28125 3.296875-1.832032 7.449219-.640625 9.28125 2.648437l18.3125 32.957031c6.226562 11.214844 16.25 19.925782 28.214843 24.527344 3.511719 1.355469 5.273438 5.304688 3.917969 8.820313-1.046875 2.710937-3.632812 4.378906-6.371093 4.378906zm0 0"/></g></svg>