<svg height="413pt" viewBox="0 -8 413.65229 413" width="413pt" xmlns="http://www.w3.org/2000/svg"><path d="m309.8125 143.09375 85-.238281c11.402344-.03125 16.371094 14.40625 7.359375 21.394531l-99.976563 77.53125c-3.960937 3.070312-5.582031 8.28125-4.066406 13.058594l37.351563 117.722656c3.429687 10.8125-8.722657 19.875-18.109375 13.5l-102.992188-69.972656c-4.089844-2.777344-9.464844-2.75-13.527344.0625l-102.359374 70.957031c-9.324219 6.464844-21.566407-2.484375-18.234376-13.332031l36.257813-118.066406c1.46875-4.792969-.203125-9.992188-4.195313-13.023438l-100.742187-76.570312c-9.082031-6.902344-4.253906-21.386719 7.148437-21.464844l124.914063-.847656c5.117187-.035157 9.648437-3.328126 11.261719-8.1875l39.929687-120.285157c3.601563-10.859375 18.9375-10.933593 22.644531-.113281l41.117188 119.910156c1.660156 4.839844 6.21875 8.089844 11.339844 8.074219" fill="#ffe600"/><path d="m91.679688 396.121094c-3.871094 0-7.738282-1.230469-11.078126-3.675782-6.558593-4.792968-9.253906-12.90625-6.867187-20.667968l36.253906-118.066406c.632813-2.046876-.09375-4.292969-1.792969-5.582032l-100.746093-76.574218c-6.5-4.9375-9.035157-13.136719-6.453125-20.882813 2.582031-7.742187 9.519531-12.785156 17.6875-12.84375l124.910156-.84375c2.195312-.015625 4.132812-1.425781 4.828125-3.507813l39.933594-120.289062c2.570312-7.769531 9.53125-12.820312 17.71875-12.863281h.105469c8.144531 0 15.109374 4.972656 17.761718 12.6875l41.117188 119.910156c.707031 2.070313 2.65625 3.457031 4.835937 3.457031h.039063c3.757812 0 6.8125 3.039063 6.824218 6.804688.015626 3.769531-3.03125 6.835937-6.804687 6.851562-.019531 0-.039063 0-.058594 0-8.019531 0-15.148437-5.089844-17.753906-12.6875l-41.121094-119.910156c-1.101562-3.222656-4.160156-3.304688-4.871093-3.457031-.859376.003906-3.761719.269531-4.835938 3.507812l-39.929688 120.289063c-2.535156 7.636718-9.648437 12.804687-17.695312 12.863281l-124.910156.839844c-3.402344.027343-4.554688 2.691406-4.828125 3.503906-.273438.820313-.945313 3.644531 1.765625 5.703125l100.742187 76.570312c6.238281 4.746094 8.890625 12.96875 6.585938 20.464844l-36.253907 118.066406c-.992187 3.234376 1.179688 5.136719 1.875 5.640626.683594.515624 3.164063 1.992187 5.945313.078124l102.359375-70.957031c6.332031-4.398437 14.859375-4.429687 21.238281-.101562l103.003907 69.972656c2.824218 1.914063 5.257812.375 5.9375-.128906.6875-.511719 2.847656-2.433594 1.828124-5.660157l-37.355468-117.722656c-2.367188-7.472656.199218-15.71875 6.394531-20.519531l99.964844-77.53125c2.691406-2.085937 1.988281-4.902344 1.707031-5.714844-.273438-.8125-1.449219-3.457031-4.832031-3.457031-.007813 0-.015625 0-.023438 0l-85 .238281c-.007812 0-.011719 0-.019531 0-3.761719 0-6.8125-3.042969-6.828125-6.808593-.011719-3.769532 3.039063-6.835938 6.808594-6.847657l85-.234375h.058593c8.132813 0 15.101563 4.964844 17.746094 12.667969 2.652344 7.722656.199219 15.945313-6.253906 20.945313l-99.964844 77.53125c-1.695312 1.3125-2.394531 3.5625-1.746094 5.601562l37.351563 117.726562c2.457031 7.742188-.164063 15.878907-6.679687 20.730469-6.511719 4.851563-15.070313 5.027344-21.765626.476563l-103-69.972656c-1.753906-1.183594-4.074218-1.171876-5.800781.027343l-102.359375 70.957031c-3.265625 2.261719-6.984375 3.394532-10.699218 3.394532zm0 0" fill="#602f75"/><path d="m232.570312 196.089844-51.125 51.125" fill="#ea3457"/><path d="m181.441406 254.042969c-1.746094 0-3.496094-.667969-4.828125-2-2.664062-2.667969-2.664062-6.992188 0-9.652344l51.132813-51.128906c2.667968-2.664063 6.988281-2.664063 9.652344 0 2.667968 2.667969 2.667968 6.992187 0 9.652343l-51.132813 51.128907c-1.332031 1.332031-3.078125 2-4.824219 2zm0 0" fill="#00e7ff"/><path d="m232.570312 247.214844-51.125-51.125" fill="#ea3457"/><path d="m232.574219 254.042969c-1.746094 0-3.496094-.667969-4.828125-2l-51.132813-51.128907c-2.664062-2.664062-2.664062-6.984374 0-9.652343 2.667969-2.664063 6.988281-2.664063 9.652344 0l51.132813 51.128906c2.667968 2.664063 2.667968 6.984375 0 9.652344-1.332032 1.332031-3.078126 2-4.824219 2zm0 0" fill="#00e7ff"/><g fill="#ea3457"><path d="m224.496094 151.679688c0 8.714843-7.066406 15.78125-15.78125 15.78125-8.71875 0-15.785156-7.066407-15.785156-15.78125 0-8.71875 7.066406-15.785157 15.785156-15.785157 8.714844 0 15.78125 7.066407 15.78125 15.785157zm0 0"/><path d="m208.714844 174.289062c-12.46875 0-22.613282-10.140624-22.613282-22.609374 0-12.464844 10.144532-22.609376 22.613282-22.609376 12.464844 0 22.613281 10.144532 22.613281 22.609376 0 12.46875-10.148437 22.609374-22.613281 22.609374zm0-31.566406c-4.941406 0-8.960938 4.015625-8.960938 8.957032 0 4.9375 4.019532 8.957031 8.960938 8.957031s8.960937-4.019531 8.960937-8.957031c0-4.941407-4.023437-8.957032-8.960937-8.957032zm0 0"/><path d="m219.289062 97.066406c0 5.839844-4.734374 10.570313-10.574218 10.570313s-10.574219-4.730469-10.574219-10.570313 4.734375-10.574218 10.574219-10.574218 10.574218 4.734374 10.574218 10.574218zm0 0"/><path d="m208.714844 114.464844c-9.59375 0-17.398438-7.804688-17.398438-17.398438s7.804688-17.398437 17.398438-17.398437 17.398437 7.804687 17.398437 17.398437-7.804687 17.398438-17.398437 17.398438zm0-21.144532c-2.066406 0-3.746094 1.679688-3.746094 3.746094s1.679688 3.746094 3.746094 3.746094 3.746094-1.679688 3.746094-3.746094-1.679688-3.746094-3.746094-3.746094zm0 0"/><path d="m295.613281 183.699219c-2.066406-8.46875-10.605469-13.660157-19.074219-11.59375-8.46875 2.0625-13.660156 10.601562-11.59375 19.070312 2.0625 8.46875 10.601563 13.660157 19.070313 11.59375 8.46875-2.0625 13.660156-10.601562 11.597656-19.070312zm0 0"/><path d="m280.292969 210.058594c-10.179688 0-19.453125-6.933594-21.972657-17.257813-1.433593-5.867187-.492187-11.941406 2.648438-17.101562 3.140625-5.160157 8.089844-8.789063 13.964844-10.21875 5.863281-1.433594 11.941406-.492188 17.101562 2.644531s8.792969 8.097656 10.21875 13.96875c1.433594 5.863281.496094 11.9375-2.644531 17.097656-3.136719 5.160156-8.09375 8.792969-13.960937 10.226563 0 0 0 0-.007813 0-1.785156.429687-3.582031.640625-5.347656.640625zm3.734375-7.277344h.066406zm-3.71875-24.296875c-.714844 0-1.433594.085937-2.140625.257813-2.328125.566406-4.292969 2.003906-5.535157 4.046874-1.238281 2.042969-1.613281 4.449219-1.042968 6.777344 1.164062 4.789063 6 7.761719 10.820312 6.578125 2.324219-.566406 4.292969-2.003906 5.53125-4.046875 1.246094-2.042968 1.613282-4.453125 1.046875-6.777344-.566406-2.324218-2-4.289062-4.046875-5.53125-1.421875-.863281-3.015625-1.304687-4.632812-1.304687zm0 0"/><path d="m343.605469 171.996094c-1.382813-5.675782-7.101563-9.152344-12.773438-7.769532-5.675781 1.382813-9.152343 7.105469-7.769531 12.777344s7.105469 9.148438 12.777344 7.765625c5.671875-1.382812 9.148437-7.101562 7.765625-12.773437zm0 0"/><path d="m333.355469 191.90625c-7.835938 0-14.972657-5.335938-16.914063-13.277344-2.265625-9.324218 3.464844-18.753906 12.777344-21.027344 9.34375-2.265624 18.746094 3.464844 21.035156 12.773438 2.265625 9.332031-3.46875 18.761719-12.78125 21.035156-1.378906.335938-2.757812.496094-4.117187.496094zm-.007813-21.148438c-.292968 0-.59375.035157-.886718.105469-2.007813.488281-3.242188 2.523438-2.753907 4.53125.492188 2.007813 2.546875 3.25 4.527344 2.746094 2.003906-.488281 3.238281-2.519531 2.75-4.53125-.417969-1.699219-1.949219-2.851563-3.636719-2.851563zm0 0"/><path d="m142.945312 182.03125c-8.203124-2.945312-17.242187 1.320312-20.1875 9.523438-2.941406 8.203124 1.324219 17.242187 9.527344 20.183593 8.203125 2.945313 17.242188-1.320312 20.183594-9.523437 2.945312-8.203125-1.320312-17.242188-9.523438-20.183594zm0 0"/><path d="m137.648438 219.511719c-2.574219 0-5.15625-.445313-7.652344-1.339844-11.726563-4.207031-17.855469-17.175781-13.648438-28.914063 4.222656-11.734374 17.191406-17.839843 28.917969-13.648437 5.6875 2.039063 10.234375 6.167969 12.816406 11.632813 2.578125 5.460937 2.871094 11.601562.832031 17.285156-2.042968 5.683594-6.167968 10.234375-11.632812 12.8125-3.066406 1.441406-6.339844 2.171875-9.632812 2.171875zm-.007813-31.578125c-3.671875 0-7.128906 2.28125-8.441406 5.933594-1.664063 4.648437.761719 9.785156 5.410156 11.453124 2.242187.816407 4.679687.691407 6.84375-.328124 2.167969-1.019532 3.800781-2.820313 4.609375-5.074219.8125-2.253907.691406-4.6875-.328125-6.851563-1.019531-2.164062-2.824219-3.800781-5.082031-4.605468-.992188-.359376-2.011719-.527344-3.011719-.527344zm0 0"/><path d="m89.785156 168.484375c-5.496094-1.96875-11.550781.886719-13.523437 6.382813-1.972657 5.496093.886719 11.550781 6.382812 13.519531 5.496094 1.972656 11.546875-.882813 13.519531-6.378907 1.972657-5.496093-.882812-11.550781-6.378906-13.523437zm0 0"/><path d="m86.207031 195.84375c-1.9375 0-3.917969-.328125-5.851562-1.023438-9.027344-3.238281-13.742188-13.21875-10.507813-22.25 3.238282-9.035156 13.226563-13.75 22.261719-10.503906 9.03125 3.246094 13.738281 13.230469 10.5 22.253906-2.546875 7.097657-9.261719 11.523438-16.402344 11.523438zm-1.238281-13.875c1.933594.699219 4.089844-.3125 4.785156-2.257812.699219-1.945313-.3125-4.09375-2.257812-4.792969-1.972656-.683594-4.101563.320312-4.796875 2.261719-.691407 1.941406.320312 4.09375 2.269531 4.789062zm0 0"/><path d="m162.632812 269.996094c-7.273437-4.804688-17.0625-2.804688-21.867187 4.46875-4.804687 7.273437-2.800781 17.066406 4.472656 21.867187 7.273438 4.804688 17.0625 2.804688 21.867188-4.46875 4.804687-7.273437 2.800781-17.066406-4.472657-21.867187zm0 0"/><path d="m153.902344 305.78125c-4.386719 0-8.675782-1.28125-12.414063-3.75-10.398437-6.871094-13.273437-20.925781-6.414062-31.324219 6.878906-10.40625 20.929687-13.277343 31.332031-6.410156 5.042969 3.328125 8.488281 8.421875 9.695312 14.339844 1.207032 5.914062.039063 11.949219-3.285156 16.984375 0 0 0 0-.007812.003906-3.328125 5.039062-8.414063 8.480469-14.332032 9.691406-1.523437.3125-3.054687.464844-4.574218.464844zm.058594-31.574219c-2.90625 0-5.765626 1.414063-7.492188 4.019531-2.714844 4.121094-1.582031 9.6875 2.542969 12.410157 1.988281 1.3125 4.363281 1.777343 6.726562 1.300781 2.339844-.480469 4.363281-1.84375 5.675781-3.835938l.003907-.003906c1.320312-1.996094 1.78125-4.386718 1.300781-6.730468s-1.839844-4.363282-3.839844-5.679688c-1.511718-1-3.226562-1.480469-4.917968-1.480469zm0 0"/><path d="m129.660156 319.910156c-4.871094-3.21875-11.429687-1.875-14.648437 2.996094s-1.875 11.429688 2.996093 14.648438c4.871094 3.21875 11.429688 1.878906 14.648438-2.996094 3.21875-4.871094 1.878906-11.429688-2.996094-14.648438zm0 0"/><path d="m123.816406 346.140625c-3.375 0-6.683594-.984375-9.5625-2.886719-3.875-2.558594-6.519531-6.480468-7.453125-11.035156-.933593-4.550781-.035156-9.195312 2.53125-13.074219 5.289063-8.011719 16.101563-10.207031 24.101563-4.929687 3.878906 2.566406 6.527344 6.484375 7.460937 11.035156.933594 4.554688.03125 9.195312-2.535156 13.078125-2.558594 3.875-6.472656 6.519531-11.027344 7.453125-1.171875.242188-2.351562.359375-3.515625.359375zm.039063-21.148437c-1.214844 0-2.414063.589843-3.136719 1.679687-.550781.835937-.746094 1.832031-.539062 2.8125.199218.980469.769531 1.824219 1.601562 2.375s1.828125.738281 2.820312.542969c.980469-.199219 1.820313-.769532 2.367188-1.601563l.007812-.003906c.542969-.835937.746094-1.835937.539063-2.8125-.199219-.976563-.765625-1.824219-1.605469-2.375-.628906-.417969-1.351562-.617187-2.054687-.617187zm0 0"/><path d="m266.75 274.664062c-5.535156-6.734374-15.480469-7.703124-22.214844-2.164062-6.730468 5.535156-7.699218 15.480469-2.164062 22.214844 5.539062 6.730468 15.484375 7.699218 22.214844 2.164062 6.734374-5.539062 7.703124-15.484375 2.164062-22.214844zm0 0"/><path d="m254.601562 307.296875c-6.53125 0-13.019531-2.808594-17.488281-8.234375-3.832031-4.664062-5.625-10.542969-5.039062-16.554688.589843-6.011718 3.480469-11.433593 8.148437-15.269531 4.652344-3.839843 10.523438-5.605469 16.542969-5.042969 6.015625.585938 11.433594 3.476563 15.273437 8.140626 3.835938 4.664062 5.628907 10.542968 5.039063 16.554687-.585937 6.011719-3.476563 11.433594-8.144531 15.269531-4.191406 3.457032-9.277344 5.136719-14.332032 5.136719zm-.042968-31.558594c-2.066406 0-4.050782.710938-5.664063 2.039063-1.855469 1.527344-3 3.671875-3.234375 6.054687-.234375 2.382813.480469 4.707031 2 6.550781v.003907c3.132813 3.816406 8.785156 4.371093 12.609375 1.230469 1.84375-1.519532 2.992188-3.671876 3.226563-6.050782s-.480469-4.710937-2-6.558594c-1.523438-1.84375-3.667969-2.992187-6.054688-3.226562-.292968-.027344-.585937-.042969-.882812-.042969zm0 0"/><path d="m297.417969 320.152344c-3.710938-4.511719-10.371094-5.160156-14.882813-1.449219-4.507812 3.707031-5.15625 10.371094-1.449218 14.878906 3.710937 4.511719 10.371093 5.160157 14.882812 1.449219 4.507812-3.707031 5.15625-10.371094 1.449219-14.878906zm0 0"/><path d="m289.289062 344.265625c-5.027343 0-10.019531-2.160156-13.460937-6.332031 0-.003906 0-.003906 0-.007813-6.09375-7.410156-5.019531-18.398437 2.390625-24.488281 3.59375-2.953125 8.148438-4.320312 12.734375-3.878906 4.628906.453125 8.800781 2.675781 11.753906 6.269531 6.09375 7.410156 5.019531 18.394531-2.386719 24.488281-3.226562 2.65625-7.144531 3.949219-11.03125 3.949219zm-2.914062-15.011719c1.308594 1.597656 3.671875 1.828125 5.28125.515625 1.59375-1.3125 1.816406-3.675781.503906-5.273437-.632812-.769532-1.53125-1.25-2.523437-1.347656-.972657-.097657-1.96875.195312-2.738281.832031-1.605469 1.316406-1.839844 3.679687-.523438 5.273437zm0 0"/></g></svg>