<svg height="416pt" viewBox="0 -13 416.42667 416" width="416pt" xmlns="http://www.w3.org/2000/svg"><path d="m409.601562 195.222656c0 103.929688-84.253906 188.179688-188.183593 188.179688-103.925781 0-188.179688-84.25-188.179688-188.179688 0-103.929687 84.253907-188.179687 188.179688-188.179687 103.929687 0 188.183593 84.25 188.183593 188.179687zm0 0" fill="#ffe600"/><path d="m221.417969 390.230469c-107.527344 0-195.007813-87.480469-195.007813-195.011719 0-107.523438 87.480469-195.003906 195.007813-195.003906 107.527343 0 195.007812 87.480468 195.007812 195.003906 0 107.53125-87.480469 195.011719-195.007812 195.011719zm0-376.363281c-100 0-181.355469 81.351562-181.355469 181.351562 0 100.003906 81.355469 181.359375 181.355469 181.359375 100.003906 0 181.355469-81.355469 181.355469-181.359375 0-100-81.351563-181.351562-181.355469-181.351562zm0 0" fill="#ffe600"/><path d="m336.050781 270.035156c-24.4375 37.367188-66.648437 62.054688-114.632812 62.054688-75.589844 0-136.867188-61.277344-136.867188-136.871094 0-75.589844 61.277344-136.867188 136.867188-136.867188 75.59375 0 136.871093 61.277344 136.871093 136.867188 0 7.996094-.6875 15.832031-2 23.449219" fill="#fff"/><path d="m221.417969 338.917969c-79.230469 0-143.695313-64.464844-143.695313-143.699219 0-79.230469 64.464844-143.695312 143.695313-143.695312 79.234375 0 143.699219 64.464843 143.699219 143.695312 0 8.257812-.707032 16.539062-2.105469 24.617188-.636719 3.707031-4.148438 6.199218-7.886719 5.5625-3.714844-.640626-6.207031-4.171876-5.566406-7.890626 1.265625-7.308593 1.902344-14.808593 1.902344-22.289062 0-71.707031-58.335938-130.042969-130.042969-130.042969-71.703125 0-130.042969 58.339844-130.042969 130.042969 0 71.707031 58.339844 130.042969 130.042969 130.042969 44.058593 0 84.773437-22.042969 108.917969-58.960938 2.0625-3.152343 6.296874-4.039062 9.449218-1.976562 3.15625 2.0625 4.039063 6.292969 1.976563 9.449219-26.675781 40.789062-71.660157 65.144531-120.34375 65.144531zm0 0" fill="#602f75"/><path d="m20.03125 157.226562h27.753906v61.441407h-27.753906zm0 0" fill="#fff"/><path d="m47.785156 225.492188h-27.753906c-3.769531 0-6.824219-3.054688-6.824219-6.824219v-61.441407c0-3.769531 3.054688-6.828124 6.824219-6.828124h27.753906c3.773438 0 6.828125 3.058593 6.828125 6.828124v61.441407c0 3.769531-3.054687 6.824219-6.828125 6.824219zm-20.925781-13.652344h14.101563v-47.785156h-14.101563zm0 0" fill="#602f75"/><path d="m160.96875 238.199219 7.839844 5.878906c5.742187 4.308594 13.640625 4.308594 19.378906 0l5.515625-4.136719c6.433594-4.820312 15.429687-4.183594 21.113281 1.5 5.679688 5.683594 14.675782 6.320313 21.109375 1.5l5.515625-4.136718c5.742188-4.304688 13.636719-4.304688 19.378906 0l7.03125 5.273437c5.742188 4.308594 13.636719 4.308594 19.378907 0l6.824219-5.117187c5.839843-4.378907 13.894531-4.296876 19.644531.203124l.9375.734376c3.957031-8.242188 6.871093-17.058594 8.53125-26.335938l-9.46875-7.414062c-5.75-4.496094-13.804688-4.582032-19.644531-.199219l-6.824219 5.117187c-5.742188 4.304688-13.636719 4.304688-19.378907 0l-7.03125-5.273437c-5.742187-4.308594-13.636718-4.308594-19.378906 0l-5.515625 4.136719c-6.433593 4.820312-15.429687 4.183593-21.109375-1.5-5.683594-5.683594-14.679687-6.324219-21.113281-1.5l-5.515625 4.136718c-5.738281 4.304688-13.636719 4.304688-19.378906 0l-7.839844-5.882812c-5.347656-4.011719-12.617188-4.3125-18.28125-.753906l-22.066406 13.863281c2.152344 9.441406 5.535156 18.417969 10.078125 26.683593l11.992187-7.53125c5.660156-3.558593 12.929688-3.261718 18.277344.753907zm0 0" fill="#fff"/><path d="m178.503906 254.105469c-4.867187 0-9.730468-1.523438-13.789062-4.566407l-7.839844-5.882812c-3.070312-2.296875-7.3125-2.476562-10.554688-.4375l-11.988281 7.535156c-1.597656 1.003906-3.523437 1.308594-5.34375.824219-1.820312-.46875-3.367187-1.667969-4.273437-3.316406-4.835938-8.800781-8.453125-18.375-10.753906-28.453125-.640626-2.828125.570312-5.753906 3.027343-7.296875l22.070313-13.863281c7.996094-5.027344 18.453125-4.589844 26.007812 1.074218l7.839844 5.882813c3.292969 2.464843 7.894531 2.464843 11.1875 0l5.515625-4.140625c9.089844-6.816406 22.007813-5.902344 30.035156 2.136718 3.269531 3.261719 8.511719 3.628907 12.1875.867188l5.515625-4.140625c8.121094-6.085937 19.457032-6.082031 27.566406.003906l7.035157 5.269531c3.292969 2.472657 7.894531 2.472657 11.1875 0l6.824219-5.117187c8.296874-6.210937 19.785156-6.097656 27.945312.289063l9.46875 7.414062c1.996094 1.558594 2.960938 4.089844 2.515625 6.578125-1.734375 9.679687-4.792969 19.128906-9.101563 28.089844-.894531 1.863281-2.585937 3.21875-4.601562 3.6875-2.023438.460937-4.132812-.003907-5.761719-1.269531l-.933593-.734376c-3.304688-2.589843-7.976563-2.640624-11.339844-.117187l-6.824219 5.117187c-8.117187 6.082032-19.449219 6.082032-27.570313 0l-7.035156-5.273437c-3.292968-2.46875-7.890625-2.472656-11.183594-.003906l-5.515624 4.140625c-9.097657 6.808594-22.011719 5.898437-30.035157-2.136719-3.261719-3.253906-8.496093-3.628906-12.1875-.863281l-5.515625 4.136718c-4.054687 3.042969-8.917968 4.566407-13.78125 4.566407zm-13.4375-21.367188 7.839844 5.878907c3.296875 2.464843 7.894531 2.464843 11.1875 0l5.515625-4.140626c9.089844-6.816406 22.007813-5.894531 30.035156 2.136719 3.269531 3.257813 8.511719 3.632813 12.1875.867188l5.515625-4.140625c8.125-6.085938 19.460938-6.082032 27.570313.003906l7.03125 5.269531c3.296875 2.472657 7.894531 2.472657 11.1875 0l6.824219-5.117187c6.261718-4.695313 14.335937-5.785156 21.445312-3.273438 1.765625-4.527344 3.1875-9.167968 4.238281-13.878906l-6.152343-4.816406c-3.308594-2.59375-7.976563-2.644532-11.339844-.121094l-6.824219 5.117188c-8.117187 6.085937-19.449219 6.082031-27.570313.003906l-7.035156-5.273438c-3.292968-2.46875-7.890625-2.472656-11.183594-.003906l-5.515624 4.140625c-9.097657 6.804687-22.011719 5.894531-30.035157-2.136719-3.261719-3.261718-8.496093-3.628906-12.1875-.867187l-5.515625 4.140625c-8.117187 6.085937-19.453125 6.078125-27.570312 0l-7.839844-5.882813c-3.066406-2.300781-7.308594-2.472656-10.554688-.4375l-17.863281 11.222657c1.324219 4.75 2.988281 9.351562 4.980469 13.757812l5.617188-3.527344c8.003906-5.03125 18.457031-4.59375 26.011718 1.078125zm0 0" fill="#602f75"/><path d="m49.746094 157.226562h-33.015625c-5.46875 0-9.902344-4.433593-9.902344-9.902343v-.671875c0-5.46875 4.433594-9.902344 9.902344-9.902344h33.015625c5.46875 0 9.902344 4.433594 9.902344 9.902344v.671875c0 5.46875-4.433594 9.902343-9.902344 9.902343zm0 0" fill="#ea3457"/><path d="m49.746094 164.054688h-33.015625c-9.222657 0-16.730469-7.507813-16.730469-16.730469 0-9.898438 7.507812-17.402344 16.730469-17.402344h33.015625c9.222656 0 16.730468 7.503906 16.730468 16.730469 0 9.894531-7.507812 17.402344-16.730468 17.402344zm-33.015625-20.480469c-1.695313 0-3.078125 1.378906-3.078125 3.078125 0 2.367187 1.382812 3.746094 3.078125 3.746094h33.015625c1.699218 0 3.078125-1.378907 3.078125-3.074219 0-2.371094-1.378907-3.75-3.078125-3.75zm0 0" fill="#602f75"/><path d="m49.746094 239.148438h-33.015625c-5.46875 0-9.902344-4.4375-9.902344-9.90625v-1.007813c0-5.46875 4.433594-9.902344 9.902344-9.902344h33.015625c5.46875 0 9.902344 4.433594 9.902344 9.902344v1.007813c0 5.46875-4.433594 9.90625-9.902344 9.90625zm0 0" fill="#ea3457"/><path d="m49.746094 245.972656h-33.015625c-9.222657 0-16.730469-7.503906-16.730469-16.730468v-1.007813c0-9.226563 7.507812-16.730469 16.730469-16.730469h33.015625c9.222656 0 16.730468 7.503906 16.730468 16.730469v1.007813c0 9.226562-7.507812 16.730468-16.730468 16.730468zm-33.015625-20.816406c-1.695313 0-3.078125 1.382812-3.078125 3.082031v1.007813c0 1.695312 1.382812 3.074218 3.078125 3.074218h33.015625c1.699218 0 3.078125-1.378906 3.078125-3.074218v-1.007813c0-1.699219-1.378907-3.082031-3.078125-3.082031zm0 0" fill="#602f75"/><path d="m160.96875 205.183594 7.839844 5.878906c5.742187 4.308594 13.640625 4.308594 19.378906 0l5.515625-4.136719c6.433594-4.820312 15.429687-4.183593 21.113281 1.5 5.679688 5.683594 14.675782 6.324219 21.109375 1.5l5.515625-4.136719c5.742188-4.304687 13.636719-4.304687 19.378906 0l7.03125 5.273438c5.742188 4.308594 13.636719 4.308594 19.378907 0l6.824219-5.117188c5.839843-4.378906 13.894531-4.296874 19.644531.203126l9.46875 7.414062c1.070312-5.964844 1.71875-12.070312 1.71875-18.34375 0-57.144531-46.324219-103.46875-103.46875-103.46875s-103.46875 46.324219-103.46875 103.472656c0 7.941406.976562 15.640625 2.671875 23.070313l22.066406-13.863281c5.664062-3.558594 12.933594-3.257813 18.28125.753906zm0 0" fill="#00e7ff"/><path d="m120.621094 225.117188c-.886719 0-1.773438-.171876-2.613282-.519532-2.042968-.847656-3.550781-2.632812-4.042968-4.789062-1.886719-8.28125-2.84375-16.554688-2.84375-24.589844 0-60.816406 49.480468-110.296875 110.300781-110.296875 60.816406 0 110.296875 49.480469 110.296875 110.296875 0 6.304688-.597656 12.699219-1.828125 19.550781-.421875 2.359375-2.046875 4.316407-4.285156 5.171875-2.238281.859375-4.757813.472656-6.640625-1l-9.472656-7.414062c-3.308594-2.59375-7.976563-2.644532-11.339844-.121094l-6.824219 5.117188c-8.117187 6.085937-19.449219 6.082031-27.570313.003906l-7.035156-5.273438c-3.292968-2.46875-7.890625-2.472656-11.183594-.003906l-5.515624 4.140625c-9.097657 6.804687-22.011719 5.894531-30.035157-2.136719-3.261719-3.261718-8.496093-3.628906-12.1875-.867187l-5.515625 4.140625c-8.117187 6.085937-19.453125 6.078125-27.570312 0l-7.839844-5.882813c-3.070312-2.300781-7.3125-2.480469-10.554688-.4375l-22.070312 13.863281c-1.105469.695313-2.363281 1.046876-3.628906 1.046876zm44.445312-25.394532 7.839844 5.882813c3.296875 2.464843 7.894531 2.464843 11.1875 0l5.515625-4.140625c9.089844-6.816406 22.007813-5.902344 30.035156 2.136718 3.269531 3.261719 8.511719 3.628907 12.1875.867188l5.515625-4.140625c8.125-6.085937 19.460938-6.082031 27.570313.003906l7.03125 5.269531c3.296875 2.472657 7.894531 2.472657 11.1875 0l6.824219-5.117187c8.285156-6.207031 19.761718-6.09375 27.925781.273437.117187-1.867187.179687-3.710937.179687-5.539062 0-53.289062-43.355468-96.640625-96.644531-96.640625-53.292969 0-96.648437 43.351563-96.648437 96.640625 0 3.910156.261718 7.890625.78125 11.914062l13.507812-8.484374c7.992188-5.027344 18.449219-4.59375 26.003906 1.074218zm0 0" fill="#602f75"/><path d="m314.636719 239.898438-.9375-.738282c-5.75-4.496094-13.800781-4.582031-19.644531-.199218l-6.824219 5.117187c-5.738281 4.304687-13.636719 4.304687-19.378907 0l-7.03125-5.273437c-5.738281-4.308594-13.636718-4.308594-19.378906 0l-5.515625 4.136718c-6.429687 4.820313-15.425781 4.183594-21.109375-1.5s-14.679687-6.324218-21.109375-1.5l-5.515625 4.136719c-5.742187 4.304687-13.636718 4.304687-19.378906 0l-7.839844-5.882813c-5.351562-4.011718-12.617187-4.3125-18.28125-.753906l-11.992187 7.53125c4.742187 8.625 10.65625 16.515625 17.5625 23.417969 4.378906-.835937 9 .035156 12.710937 2.820313l7.839844 5.878906c5.742188 4.308594 13.636719 4.308594 19.378906 0l5.515625-4.136719c6.429688-4.820313 15.425781-4.183594 21.109375 1.5s14.679688 6.324219 21.109375 1.5l5.515625-4.136719c5.742188-4.304687 13.640625-4.304687 19.378906 0l7.03125 5.273438c3.753907 2.816406 8.417969 3.753906 12.804688 2.890625 14.519531-10.164063 26.242188-23.96875 33.980469-40.082031zm0 0" fill="#00e7ff"/><path d="m178.5 287.121094c-4.863281 0-9.726562-1.519532-13.785156-4.5625l-7.839844-5.886719c-2.035156-1.527344-4.636719-2.09375-7.335938-1.570313-2.21875.414063-4.511718-.28125-6.109374-1.882812-7.367188-7.371094-13.664063-15.769531-18.714844-24.957031-1.738282-3.167969-.707032-7.144531 2.351562-9.066407l11.988282-7.535156c8.003906-5.027344 18.453124-4.589844 26.011718 1.078125l7.839844 5.878907c3.292969 2.464843 7.894531 2.464843 11.1875 0l5.515625-4.140626c9.089844-6.816406 22.007813-5.890624 30.035156 2.136719 3.269531 3.261719 8.511719 3.632813 12.1875.867188l5.515625-4.140625c8.121094-6.085938 19.457032-6.082032 27.566406.003906l7.035157 5.269531c3.292969 2.472657 7.894531 2.472657 11.1875 0l6.824219-5.117187c8.296874-6.210938 19.785156-6.09375 27.945312.292968l.941406.734376c2.523438 1.972656 3.328125 5.441406 1.941406 8.328124-8.214843 17.113282-20.738281 31.886719-36.214843 42.726563-.78125.542969-1.667969.921875-2.601563 1.101563-6.386718 1.269531-13.039062-.238282-18.214844-4.125l-7.035156-5.277344c-3.292968-2.464844-7.886718-2.46875-11.1875.003906l-5.511718 4.136719c-9.074219 6.808593-21.992188 5.898437-30.035157-2.128907-3.25-3.261718-8.496093-3.628906-12.1875-.871093l-5.515625 4.136719c-4.054687 3.042968-8.921875 4.566406-13.785156 4.566406zm-27.082031-25.855469c4.933593 0 9.734375 1.550781 13.644531 4.480469l7.84375 5.886718c3.296875 2.464844 7.894531 2.464844 11.1875 0l5.515625-4.140624c9.085937-6.820313 21.996094-5.894532 30.035156 2.136718 3.269531 3.257813 8.503907 3.632813 12.191407.863282l5.511718-4.136719c8.113282-6.085938 19.453125-6.082031 27.566406-.003907l7.035157 5.28125c1.753906 1.3125 3.972656 1.976563 6.113281 1.8125 11.203125-8.128906 20.566406-18.644531 27.402344-30.726562-2.5-.484375-5.171875.097656-7.308594 1.699219l-6.824219 5.117187c-8.121093 6.085938-19.453125 6.082032-27.574219.003906l-7.03125-5.273437c-3.296874-2.46875-7.890624-2.472656-11.183593-.003906l-5.515625 4.140625c-9.097656 6.804687-22.015625 5.894531-30.035156-2.136719-3.261719-3.257813-8.5-3.628906-12.191407-.863281l-5.511719 4.136718c-8.117187 6.082032-19.457031 6.082032-27.574218 0l-7.839844-5.882812c-3.0625-2.300781-7.304688-2.472656-10.554688-.4375l-6.355468 3.996094c3.203125 5.015625 6.851562 9.722656 10.90625 14.058594.183594-.003907.363281-.007813.546875-.007813zm0 0" fill="#602f75"/><path d="m267.851562 277.09375-7.03125-5.273438c-5.738281-4.308593-13.636718-4.308593-19.378906 0l-5.515625 4.136719c-6.429687 4.820313-15.425781 4.183594-21.109375-1.5-5.683594-5.683593-14.679687-6.324219-21.109375-1.5l-5.515625 4.136719c-5.742187 4.304688-13.636718 4.304688-19.378906 0l-7.839844-5.882812c-3.710937-2.78125-8.332031-3.652344-12.710937-2.820313 18.726562 18.722656 44.589843 30.300781 73.160156 30.300781 22.050781 0 42.449219-6.953125 59.238281-18.710937-4.390625.863281-9.054687-.074219-12.808594-2.886719zm0 0" fill="#fff"/><g fill="#602f75"><path d="m221.417969 305.515625c-29.457031 0-57.152344-11.46875-77.984375-32.296875-1.785156-1.785156-2.441406-4.414062-1.699219-6.832031s2.761719-4.222657 5.246094-4.699219c6.417969-1.222656 13.007812.253906 18.082031 4.058594l7.84375 5.886718c3.296875 2.464844 7.894531 2.464844 11.1875 0l5.515625-4.140624c9.085937-6.820313 21.996094-5.894532 30.035156 2.136718 3.269531 3.257813 8.503907 3.632813 12.191407.863282l5.511718-4.136719c8.113282-6.085938 19.449219-6.082031 27.570313-.003907l7.03125 5.28125c2.089843 1.5625 4.777343 2.171876 7.390625 1.652344 3.152344-.664062 6.332031 1.050782 7.597656 4.019532 1.261719 2.972656.277344 6.417968-2.363281 8.273437-18.628907 13.042969-40.46875 19.9375-63.15625 19.9375zm-34.511719-19.96875c24.167969 9.226563 52.789062 8.191406 76.457031-3.285156l-6.640625-4.984375c-3.292968-2.464844-7.886718-2.46875-11.1875.003906l-5.511718 4.136719c-9.074219 6.808593-21.992188 5.898437-30.035157-2.128907-3.25-3.261718-8.496093-3.628906-12.1875-.871093l-5.515625 4.136719c-1.671875 1.253906-3.484375 2.253906-5.378906 2.992187zm0 0"/><path d="m232.105469 30.933594c0 5.65625-4.582031 10.238281-10.238281 10.238281s-10.242188-4.582031-10.242188-10.238281 4.585938-10.242188 10.242188-10.242188 10.238281 4.585938 10.238281 10.242188zm0 0"/><path d="m232.105469 358.613281c0 5.65625-4.582031 10.238281-10.238281 10.238281s-10.242188-4.582031-10.242188-10.238281 4.585938-10.238281 10.242188-10.238281 10.238281 4.582031 10.238281 10.238281zm0 0"/><path d="m395.945312 194.773438c0 5.65625-4.582031 10.238281-10.238281 10.238281s-10.242187-4.582031-10.242187-10.238281 4.585937-10.238282 10.242187-10.238282 10.238281 4.582032 10.238281 10.238282zm0 0"/><path d="m343.390625 305.175781c-3.941406-4.058593-10.421875-4.152343-14.480469-.210937-4.054687 3.941406-4.148437 10.425781-.210937 14.480468 3.941406 4.058594 10.425781 4.152344 14.480469.210938 4.058593-3.941406 4.152343-10.425781.210937-14.480469zm0 0"/><path d="m115.050781 70.132812c-3.941406-4.058593-10.421875-4.152343-14.480469-.210937-4.054687 3.941406-4.148437 10.425781-.207031 14.480469 3.9375 4.058594 10.421875 4.152344 14.476563.210937 4.058594-3.941406 4.152344-10.425781.210937-14.480469zm0 0"/><path d="m343.167969 69.894531c-4.054688-3.941406-10.539063-3.847656-14.480469.210938-3.9375 4.054687-3.84375 10.539062.210938 14.480469 4.058593 3.941406 10.539062 3.847656 14.480468-.210938 3.941406-4.054688 3.847656-10.539062-.210937-14.480469zm0 0"/><path d="m114.851562 304.933594c-4.054687-3.941406-10.539062-3.847656-14.480468.210937-3.941406 4.054688-3.847656 10.539063.210937 14.480469 4.054688 3.9375 10.539063 3.84375 14.480469-.210938 3.941406-4.058593 3.847656-10.539062-.210938-14.480468zm0 0"/></g></svg>