<svg height="416pt" viewBox="0 -61 416.42667 416" width="416pt" xmlns="http://www.w3.org/2000/svg"><path d="m368.640625 286.933594h-320.855469c-22.621094 0-40.957031-18.339844-40.957031-40.960938s18.335937-40.960937 40.957031-40.960937h320.855469c22.621094 0 40.960937 18.339843 40.960937 40.960937s-18.339843 40.960938-40.960937 40.960938zm0 0" fill="#00e7ff"/><path d="m368.640625 293.761719h-320.855469c-26.347656 0-47.785156-21.4375-47.785156-47.789063 0-26.347656 21.4375-47.785156 47.785156-47.785156h320.855469c26.347656 0 47.785156 21.4375 47.785156 47.785156 0 26.351563-21.4375 47.789063-47.785156 47.789063zm-320.855469-81.921875c-18.816406 0-34.132812 15.3125-34.132812 34.132812 0 18.820313 15.316406 34.132813 34.132812 34.132813h320.855469c18.820313 0 34.132813-15.3125 34.132813-34.132813 0-18.820312-15.3125-34.132812-34.132813-34.132812zm0 0" fill="#00e7ff"/><path d="m235.050781 225.492188h-159.957031c-33.933594 0-61.441406-27.507813-61.441406-61.4375 0-33.933594 27.507812-61.441407 61.441406-61.441407h204.800781c33.929688 0 61.4375 27.507813 61.4375 61.441407 0 33.929687-27.507812 61.4375-61.4375 61.4375" fill="#ffe600"/><path d="m279.894531 232.320312c-3.773437 0-6.828125-3.058593-6.828125-6.828124 0-3.769532 3.054688-6.824219 6.828125-6.824219 30.113281 0 54.613281-24.5 54.613281-54.613281 0-30.117188-24.5-54.613282-54.613281-54.613282h-204.800781c-30.113281 0-54.613281 24.496094-54.613281 54.613282 0 30.113281 24.5 54.613281 54.613281 54.613281h159.960938c3.773437 0 6.824218 3.054687 6.824218 6.824219 0 3.769531-3.050781 6.828124-6.824218 6.828124h-159.960938c-37.644531 0-68.265625-30.621093-68.265625-68.265624 0-37.644532 30.621094-68.269532 68.265625-68.269532h204.800781c37.640625 0 68.265625 30.625 68.265625 68.269532 0 37.644531-30.625 68.265624-68.265625 68.265624zm0 0" fill="#602f75"/><path d="m402.773438 170.878906h-61.441407c-3.773437 0-6.824219-3.054687-6.824219-6.824218 0-3.769532 3.050782-6.828126 6.824219-6.828126h61.441407c3.773437 0 6.828124 3.058594 6.828124 6.828126 0 3.769531-3.054687 6.824218-6.828124 6.824218zm0 0" fill="#602f75"/><path d="m372.054688 162.1875-20.609376-59.574219h41.21875zm0 0" fill="#ea3457"/><path d="m372.054688 169.011719c-2.90625 0-5.5-1.84375-6.453126-4.589844l-20.613281-59.574219c-.722656-2.085937-.386719-4.394531.890625-6.195312 1.28125-1.800782 3.355469-2.867188 5.5625-2.867188h41.226563c2.207031 0 4.277343 1.066406 5.558593 2.867188 1.28125 1.800781 1.613282 4.109375.894532 6.195312l-20.613282 59.574219c-.953124 2.746094-3.546874 4.589844-6.453124 4.589844zm-11.027344-59.570313 11.027344 31.867188 11.027343-31.867188zm0 0" fill="#602f75"/><path d="m372.054688 162.1875-20.609376 56.480469h41.21875zm0 0" fill="#ea3457"/><path d="m392.667969 225.492188h-41.226563c-2.226562 0-4.3125-1.085938-5.59375-2.914063-1.28125-1.824219-1.585937-4.160156-.820312-6.25l20.613281-56.480469c.988281-2.695312 3.546875-4.488281 6.414063-4.488281 2.867187 0 5.425781 1.792969 6.414062 4.488281l20.613281 56.480469c.765625 2.09375.460938 4.425781-.820312 6.25-1.277344 1.828125-3.367188 2.914063-5.59375 2.914063zm-31.46875-13.652344h21.707031l-10.851562-29.738282zm0 0" fill="#602f75"/><path d="m95.574219 109.441406c-3.769531 0-6.828125-3.058594-6.828125-6.828125v-88.746093h-20.480469c-3.769531 0-6.824219-3.058594-6.824219-6.828126 0-3.769531 3.054688-6.824218 6.824219-6.824218h27.308594c3.769531 0 6.824219 3.054687 6.824219 6.824218v95.574219c0 3.769531-3.054688 6.828125-6.824219 6.828125zm0 0" fill="#602f75"/><path d="m170.667969 102.613281v-68.265625h28.722656l47.507813 68.265625zm0 0" fill="#00e7ff"/><path d="m246.898438 109.441406h-76.230469c-3.769531 0-6.828125-3.058594-6.828125-6.828125v-68.265625c0-3.769531 3.058594-6.828125 6.828125-6.828125h28.726562c2.234375 0 4.324219 1.09375 5.605469 2.925781l47.507812 68.269532c1.445313 2.085937 1.617188 4.804687.445313 7.058594-1.179687 2.253906-3.511719 3.667968-6.054687 3.667968zm-69.40625-13.65625h56.339843l-38.003906-54.613281h-18.335937zm0 0" fill="#602f75"/><path d="m102.398438 164.054688c0 15.078124-12.222657 27.304687-27.304688 27.304687s-27.308594-12.226563-27.308594-27.304687c0-15.082032 12.226563-27.308594 27.308594-27.308594s27.304688 12.226562 27.304688 27.308594zm0 0" fill="#00e7ff"/><path d="m75.09375 198.1875c-18.820312 0-34.132812-15.316406-34.132812-34.132812 0-18.820313 15.3125-34.132813 34.132812-34.132813s34.132812 15.3125 34.132812 34.132813c0 18.816406-15.3125 34.132812-34.132812 34.132812zm0-54.613281c-11.292969 0-20.480469 9.1875-20.480469 20.480469 0 11.292968 9.1875 20.480468 20.480469 20.480468s20.480469-9.1875 20.480469-20.480468c0-11.292969-9.1875-20.480469-20.480469-20.480469zm0 0" fill="#602f75"/><path d="m153.601562 191.359375c-9.425781 0-17.066406-7.640625-17.066406-17.066406v-20.480469c0-9.425781 7.640625-17.066406 17.066406-17.066406 9.425782 0 17.066407 7.640625 17.066407 17.066406v20.480469c0 9.425781-7.640625 17.066406-17.066407 17.066406zm0 0" fill="#00e7ff"/><path d="m153.601562 198.1875c-13.175781 0-23.894531-10.71875-23.894531-23.894531v-20.480469c0-13.171875 10.71875-23.890625 23.894531-23.890625 13.171876 0 23.890626 10.71875 23.890626 23.890625v20.480469c0 13.175781-10.71875 23.894531-23.890626 23.894531zm0-54.613281c-5.648437 0-10.242187 4.589843-10.242187 10.238281v20.480469c0 5.648437 4.59375 10.242187 10.242187 10.242187 5.644532 0 10.238282-4.59375 10.238282-10.242187v-20.480469c0-5.648438-4.59375-10.238281-10.238282-10.238281zm0 0" fill="#602f75"/><path d="m221.867188 191.359375c-9.425782 0-17.066407-7.640625-17.066407-17.066406v-20.480469c0-9.425781 7.640625-17.066406 17.066407-17.066406 9.425781 0 17.066406 7.640625 17.066406 17.066406v20.480469c0 9.425781-7.640625 17.066406-17.066406 17.066406zm0 0" fill="#00e7ff"/><path d="m221.867188 198.1875c-13.175782 0-23.894532-10.71875-23.894532-23.894531v-20.480469c0-13.171875 10.71875-23.890625 23.894532-23.890625 13.171874 0 23.894531 10.71875 23.894531 23.890625v20.480469c0 13.175781-10.722657 23.894531-23.894531 23.894531zm0-54.613281c-5.648438 0-10.242188 4.589843-10.242188 10.238281v20.480469c0 5.648437 4.59375 10.242187 10.242188 10.242187 5.648437 0 10.238281-4.59375 10.238281-10.242187v-20.480469c0-5.648438-4.589844-10.238281-10.238281-10.238281zm0 0" fill="#602f75"/><path d="m290.132812 191.359375c-9.425781 0-17.066406-7.640625-17.066406-17.066406v-20.480469c0-9.425781 7.640625-17.066406 17.066406-17.066406 9.425782 0 17.066407 7.640625 17.066407 17.066406v20.480469c0 9.425781-7.640625 17.066406-17.066407 17.066406zm0 0" fill="#00e7ff"/><path d="m290.132812 198.1875c-13.171874 0-23.894531-10.71875-23.894531-23.894531v-20.480469c0-13.171875 10.722657-23.890625 23.894531-23.890625 13.175782 0 23.894532 10.71875 23.894532 23.890625v20.480469c0 13.175781-10.71875 23.894531-23.894532 23.894531zm0-54.613281c-5.648437 0-10.238281 4.589843-10.238281 10.238281v20.480469c0 5.648437 4.589844 10.242187 10.238281 10.242187 5.648438 0 10.242188-4.59375 10.242188-10.242187v-20.480469c0-5.648438-4.59375-10.238281-10.242188-10.238281zm0 0" fill="#602f75"/></svg>