<svg height="401pt" viewBox="0 0 401.41141 401" width="401pt" xmlns="http://www.w3.org/2000/svg"><path d="m120.960938 231.054688c26.070312-5.210938 53.054687 2.417968 72.539062 20.503906l16.503906 15.328125c18.296875 16.992187 43.292969 24.8125 68.011719 21.28125l25.675781-3.667969c7.761719-1.109375 15.644532-1.109375 23.40625 0l45.289063 6.46875c14.148437-26.914062 22.195312-57.539062 22.195312-90.058594 0-107.078125-86.804687-193.878906-193.878906-193.878906-98.339844 0-179.523437 73.234375-192.121094 168.128906l41.175781 36.601563c19.394532 17.242187 45.753907 24.382812 71.203126 19.292969zm0 0" fill="#fff"/><path d="m372.390625 297.796875c-.324219 0-.644531-.023437-.96875-.070313l-45.292969-6.46875c-7.117187-1.015624-14.347656-1.015624-21.476562 0l-25.667969 3.667969c-26.890625 3.871094-53.722656-4.554687-73.625-23.03125l-16.511719-15.332031c-17.820312-16.546875-42.710937-23.570312-66.542968-18.8125-27.394532 5.480469-56.207032-2.324219-77.085938-20.882812l-41.175781-36.601563c-1.691407-1.507813-2.527344-3.757813-2.230469-6.003906 13.179688-99.230469 98.683594-174.054688 198.890625-174.054688 110.667969 0 200.707031 90.035157 200.707031 200.703125 0 32.394532-7.945312 64.636719-22.980468 93.238282-1.191407 2.265624-3.535157 3.648437-6.039063 3.648437zm-57-20.953125c4.234375 0 8.464844.300781 12.667969.894531l40.464844 5.785157c12.765624-25.832032 19.234374-53.59375 19.234374-82.613282 0-103.140625-83.914062-187.050781-187.054687-187.050781-92.1875 0-171.019531 67.945313-184.847656 158.632813l38.433593 34.167968c17.695313 15.722656 42.117188 22.347656 65.332032 17.703125 28.140625-5.632812 57.488281 2.667969 78.515625 22.195313l16.511719 15.328125c16.871093 15.667969 39.621093 22.765625 62.398437 19.527343l25.671875-3.671874c4.207031-.597657 8.441406-.898438 12.671875-.898438zm0 0" fill="#602f75"/><path d="m375.464844 203.640625c0 9.707031-1.828125 18.960937-5.023438 27.554687l20.964844 4.660157c2.070312-11.335938 3.175781-23.007813 3.175781-34.945313 0-6.265625-.324219-12.453125-.90625-18.570312l-19.730469 5.921875c.980469 4.976562 1.519532 10.113281 1.519532 15.378906zm0 0" fill="#ea3457"/><path d="m391.40625 242.679688c-.496094 0-.992188-.050782-1.480469-.164063l-20.964843-4.660156c-1.929688-.425781-3.578126-1.667969-4.519532-3.402344s-1.089844-3.789063-.398437-5.640625c3.050781-8.199219 4.597656-16.667969 4.597656-25.171875 0-4.644531-.464844-9.375-1.390625-14.058594-.679688-3.449219 1.371094-6.851562 4.734375-7.859375l19.730469-5.921875c1.957031-.597656 4.078125-.265625 5.773437.878907 1.695313 1.140624 2.792969 2.980468 2.984375 5.019531.621094 6.550781.9375 13.015625.9375 19.210937 0 12.058594-1.105468 24.226563-3.285156 36.171875-.332031 1.824219-1.398438 3.4375-2.945312 4.460938-1.128907.746093-2.441407 1.136719-3.773438 1.136719zm-12.171875-16.527344 6.597656 1.464844c1.277344-8.863282 1.921875-17.820313 1.921875-26.707032 0-3.128906-.085937-6.332031-.257812-9.589844l-5.867188 1.757813c.4375 3.535156.664063 7.066406.664063 10.5625 0 7.578125-1.027344 15.121094-3.058594 22.511719zm0 0" fill="#602f75"/><path d="m351.582031 147.015625 25.308594-27c-7.890625-17.15625-18.199219-32.953125-30.511719-46.96875l-23.695312 56.007813c10.929687 3.875 20.769531 10.023437 28.898437 17.960937zm0 0" fill="#ea3457"/><path d="m351.582031 153.84375c-1.78125 0-3.492187-.695312-4.769531-1.945312-7.519531-7.34375-16.402344-12.863282-26.40625-16.410157-1.773438-.625-3.210938-1.957031-3.96875-3.679687s-.773438-3.679688-.039062-5.410156l23.695312-56.007813c.910156-2.164063 2.875-3.703125 5.195312-4.082031 2.3125-.367188 4.667969.472656 6.222657 2.238281 12.847656 14.628906 23.476562 30.988281 31.585937 48.617187 1.160156 2.523438.675782 5.496094-1.222656 7.523438l-25.3125 27c-1.25 1.335938-2.996094 2.113281-4.828125 2.15625-.050781 0-.101563 0-.152344 0zm-19.898437-28.527344c7.046875 3.167969 13.570312 7.234375 19.492187 12.152344l17.554688-18.726562c-5.667969-11.566407-12.515625-22.507813-20.441407-32.683594zm0 0" fill="#602f75"/><path d="m266.300781 130.363281c9.25-3.789062 19.359375-5.914062 29.976563-5.914062v-92.199219c-25.753906-14.628906-55.160156-23.550781-86.539063-24.992188l38.976563 84.828126" fill="#ea3457"/><path d="m266.304688 137.191406c-2.691407 0-5.242188-1.597656-6.320313-4.242187-1.429687-3.484375.238281-7.472657 3.730469-8.902344 8.28125-3.394531 16.910156-5.453125 25.734375-6.152344v-81.625c-21.476563-11.621093-44.511719-18.773437-68.667969-21.332031l34.136719 74.296875c1.574219 3.429687.074219 7.480469-3.355469 9.054687-3.433594 1.566407-7.476562.074219-9.050781-3.351562l-38.976563-84.828125c-.992187-2.164063-.789062-4.691406.542969-6.667969 1.332031-1.972656 3.484375-3.101562 5.976563-3 31.789062 1.457032 61.933593 10.160156 89.589843 25.871094 2.136719 1.214844 3.457031 3.480469 3.457031 5.9375v92.199219c0 3.769531-3.054687 6.828125-6.824218 6.828125-9.421875 0-18.636719 1.816406-27.390625 5.402344-.847657.347656-1.726563.511718-2.582031.511718zm0 0" fill="#602f75"/><path d="m243.113281 145.070312-109.804687-125.953124c-35.09375 13.023437-65.371094 35.914062-87.5 65.3125l181.355468 80.605468c4.207032-7.507812 9.625-14.222656 15.949219-19.964844zm0 0" fill="#ea3457"/><path d="m227.164062 171.863281c-.933593 0-1.871093-.191406-2.773437-.589843l-181.355469-80.609376c-1.898437-.839843-3.3125-2.507812-3.832031-4.519531-.523437-2.015625-.101563-4.160156 1.152344-5.820312 23.222656-30.855469 54.542969-54.238281 90.578125-67.609375 2.664062-.984375 5.65625-.230469 7.519531 1.914062l109.808594 125.957032c2.441406 2.800781 2.191406 7.042968-.554688 9.539062-5.890625 5.347656-10.796875 11.484375-14.585937 18.25-1.242188 2.214844-3.554688 3.488281-5.957032 3.488281zm-170.554687-90.101562 167.851563 74.605469c2.734374-4.128907 5.835937-8.027344 9.277343-11.664063l-102.433593-117.5c-29.078126 11.628906-54.6875 30.34375-74.695313 54.558594zm0 0" fill="#602f75"/><path d="m217.089844 203.640625c0-1.746094.148437-3.457031.257812-5.175781l-208.71875-23.628906c-.011718.109374-.035156.214843-.050781.324218l41.175781 36.601563c19.398438 17.242187 45.757813 24.386719 71.207032 19.296875 26.070312-5.214844 53.054687 2.414062 72.535156 20.503906l.03125.03125 35.339844-6.542969c-7.421876-12.0625-11.777344-26.210937-11.777344-41.410156zm0 0" fill="#ea3457"/><path d="m193.527344 258.417969c-1.792969 0-3.535156-.707031-4.824219-2-17.675781-16.40625-42.554687-23.425781-66.398437-18.667969-27.394532 5.480469-56.207032-2.328125-77.085938-20.882812l-41.175781-36.601563c-1.734375-1.542969-2.566407-3.867187-2.207031-6.15625.5625-3.617187 3.945312-6.46875 7.5625-6.054687l208.71875 23.628906c3.621093.410156 6.28125 3.589844 6.046874 7.222656l-.078124 1.109375c-.082032 1.203125-.167969 2.402344-.167969 3.625 0 13.304687 3.722656 26.386719 10.765625 37.828125 1.179687 1.914062 1.339844 4.292969.425781 6.347656-.910156 2.058594-2.78125 3.535156-4.996094 3.945313l-35.339843 6.546875c-.414063.074218-.832032.109375-1.246094.109375zm-56.429688-35.785157c21.285156 0 42.140625 7.601563 58.480469 21.636719l22.835937-4.230469c-5.226562-11.121093-8.019531-23.21875-8.148437-35.503906l-181.480469-20.546875 25.507813 22.671875c17.691406 15.722656 42.113281 22.347656 65.328125 17.703125 5.804687-1.160156 11.65625-1.730469 17.476562-1.730469zm0 0" fill="#602f75"/><path d="m182.695312 362.460938-16.503906-15.324219c-19.484375-18.089844-46.46875-25.71875-72.539062-20.503907-14.546875 2.910157-29.351563 1.691407-43.019532-2.992187 35.554688 43.421875 89.570313 71.144531 150.070313 71.144531 25.933594 0 50.65625-5.128906 73.265625-14.363281l-23.261719 3.320313c-24.71875 3.53125-49.710937-4.289063-68.011719-21.28125zm0 0" fill="#fff"/><path d="m200.703125 401.613281c-60.410156 0-117.03125-26.84375-155.355469-73.648437-1.929687-2.359375-2.0625-5.71875-.320312-8.21875 1.742187-2.511719 4.933594-3.5625 7.820312-2.5625 12.839844 4.402344 26.488282 5.359375 39.46875 2.753906 28.140625-5.636719 57.492188 2.667969 78.515625 22.195312l16.511719 15.328126c16.867188 15.667968 39.613281 22.761718 62.398438 19.527343l23.257812-3.324219c3.402344-.488281 6.652344 1.636719 7.558594 4.96875.898437 3.328126-.820313 6.804688-4.007813 8.105469-24.160156 9.871094-49.675781 14.875-75.847656 14.875zm-130.738281-66.9375c34.8125 34.089844 81.425781 53.285157 130.738281 53.285157 4.097656 0 8.175781-.128907 12.234375-.394532-12.820312-3.894531-24.75-10.691406-34.882812-20.097656-.003907 0-.003907 0-.003907 0l-16.507812-15.328125c-17.820313-16.546875-42.710938-23.570313-66.542969-18.8125-8.222656 1.636719-16.648438 2.085937-25.035156 1.347656zm0 0" fill="#602f75"/><path d="m327.09375 284.5c-7.761719-1.109375-15.640625-1.109375-23.40625 0l-25.671875 3.667969c-24.71875 3.53125-49.714844-4.289063-68.011719-21.28125l-16.507812-15.328125c-19.480469-18.085938-46.464844-25.714844-72.535156-20.503906-25.449219 5.089843-51.808594-2.050782-71.207032-19.292969l-41.175781-36.601563c-1.117187 8.429688-1.75 17.011719-1.75 25.75 0 17.570313 2.378906 34.578125 6.757813 50.757813l8.863281 7.882812c19.398437 17.238281 45.757812 24.382813 71.207031 19.292969 26.066406-5.214844 53.054688 2.414062 72.535156 20.503906l16.507813 15.328125c18.296875 16.992188 43.289062 24.8125 68.011719 21.28125l25.671874-3.667969c7.761719-1.109374 15.644532-1.109374 23.40625 0l38.246094 5.464844c13.667969-13.714844 25.261719-29.488281 34.351563-46.78125zm0 0" fill="#fff"/><path d="m338.035156 344.582031c-.320312 0-.640625-.027343-.964844-.070312l-38.246093-5.46875c-7.121094-1.011719-14.351563-1.015625-21.476563.003906l-25.671875 3.667969c-26.902343 3.855468-53.722656-4.5625-73.621093-23.035156l-16.511719-15.328126c-17.824219-16.550781-42.710938-23.578124-66.546875-18.8125-27.382813 5.496094-56.203125-2.328124-77.082032-20.882812l-8.863281-7.878906c-.992187-.886719-1.707031-2.039063-2.054687-3.320313-4.644532-17.15625-6.996094-34.832031-6.996094-52.542969 0-8.605468.609375-17.566406 1.8125-26.648437.328125-2.503906 2.019531-4.617187 4.386719-5.5 2.363281-.886719 5.023437-.386719 6.917969 1.292969l41.175781 36.605468c17.691406 15.722657 42.113281 22.347657 65.328125 17.703126 28.140625-5.632813 57.492187 2.664062 78.519531 22.191406l16.507813 15.332031c16.871093 15.664063 39.625 22.761719 62.398437 19.523437l25.675781-3.667968c8.40625-1.199219 16.929688-1.199219 25.335938 0h.003906l45.289062 6.46875c2.195313.316406 4.101563 1.671875 5.113282 3.652344 1.011718 1.976562.996094 4.320312-.035156 6.28125-9.402344 17.886718-21.363282 34.175781-35.558594 48.425781-1.289063 1.292969-3.03125 2.007812-4.835938 2.007812zm-49.949218-19.953125c4.230468 0 8.460937.300782 12.667968.898438l34.820313 4.976562c9.945312-10.351562 18.65625-21.8125 26-34.179687l-35.449219-5.070313c-7.121094-1.011718-14.351562-1.015625-21.476562.003906l-25.667969 3.667969c-26.90625 3.84375-53.726563-4.558593-73.625-23.035156l-16.507813-15.328125c-17.824218-16.550781-42.714844-23.570312-66.546875-18.8125-27.386719 5.488281-56.203125-2.328125-77.085937-20.882812l-31.167969-27.714844c-.265625 3.984375-.394531 7.910156-.394531 11.757812 0 15.835938 2.023437 31.644532 6.007812 47.023438l7.328125 6.511718c17.691407 15.726563 42.121094 22.347657 65.328125 17.703126 28.140625-5.625 57.492188 2.667968 78.515625 22.195312l16.511719 15.328125c16.867188 15.660156 39.613281 22.765625 62.398438 19.527344l25.675781-3.671875c4.199219-.597656 8.433593-.898438 12.667969-.898438zm0 0" fill="#602f75"/><path d="m276.382812 332.289062-25.675781 3.664063c-24.71875 3.53125-49.710937-4.289063-68.011719-21.277344l-16.503906-15.328125c-19.484375-18.089844-46.46875-25.71875-72.539062-20.503906-25.445313 5.089844-51.808594-2.054688-71.203125-19.296875l-8.867188-7.878906c7.234375 26.714843 20 51.152343 37.046875 71.96875 13.671875 4.6875 28.476563 5.902343 43.023438 2.992187 26.070312-5.214844 53.054687 2.414063 72.535156 20.503906l16.507812 15.328126c18.296876 16.992187 43.289063 24.8125 68.011719 21.28125l23.257813-3.324219c24.179687-9.878907 45.925781-24.460938 64.066406-42.667969l-38.246094-5.460938c-7.757812-1.109374-15.640625-1.109374-23.402344 0zm0 0" fill="#00e7ff"/><path d="m238.871094 391.414062c-22.445313 0-44.085938-8.410156-60.820313-23.949218l-16.507812-15.328125c-17.824219-16.546875-42.714844-23.566407-66.546875-18.8125-15.359375 3.074219-31.460938 1.957031-46.578125-3.226563-1.203125-.410156-2.261719-1.152344-3.070313-2.132812-18.027344-22.019532-30.933594-47.085938-38.355468-74.511719-.785157-2.910156.433593-6 3-7.585937 2.570312-1.582032 5.871093-1.300782 8.128906.699218l8.863281 7.882813c17.691406 15.726562 42.121094 22.347656 65.328125 17.703125 28.140625-5.628906 57.492188 2.664062 78.519531 22.191406l16.507813 15.332031c16.867187 15.660157 39.613281 22.761719 62.398437 19.523438l25.675781-3.667969s.003907 0 .003907-.003906c8.40625-1.191406 16.925781-1.191406 25.332031 0l38.25 5.46875c2.558594.363281 4.691406 2.144531 5.507812 4.59375.820313 2.449218.1875 5.152344-1.636718 6.984375-19.042969 19.101562-41.355469 33.960937-66.324219 44.164062-.519531.210938-1.0625.363281-1.613281.4375l-23.257813 3.324219c-4.28125.613281-8.554687.914062-12.804687.914062zm-129.078125-73.207031c22.410156 0 44.347656 8.425781 61.039062 23.925781l16.511719 15.328126c16.867188 15.667968 39.613281 22.761718 62.398438 19.527343l22.414062-3.207031c18.625-7.707031 35.652344-18.203125 50.785156-31.289062l-24.121094-3.449219c-7.113281-1.011719-14.34375-1.015625-21.476562.003906l-25.667969 3.667969c-26.882812 3.871094-53.722656-4.558594-73.625-23.035156l-16.507812-15.328126c-17.824219-16.550781-42.714844-23.578124-66.546875-18.8125-23.3125 4.664063-47.644532-.296874-67.246094-13.3125 6.722656 16.34375 15.730469 31.59375 26.921875 45.558594 12.300781 3.882813 25.273437 4.625 37.644531 2.152344 5.804688-1.160156 11.65625-1.730469 17.476563-1.730469zm0 0" fill="#602f75"/><g fill="#ffe600"><path d="m375.464844 203.640625c0 43.734375-35.453125 79.1875-79.1875 79.1875s-79.1875-35.453125-79.1875-79.1875 35.453125-79.191406 79.1875-79.191406 79.1875 35.457031 79.1875 79.191406zm0 0"/><path d="m296.277344 289.65625c-47.429688 0-86.015625-38.585938-86.015625-86.015625s38.585937-86.015625 86.015625-86.015625c47.429687 0 86.015625 38.585938 86.015625 86.015625s-38.585938 86.015625-86.015625 86.015625zm0-158.378906c-39.902344 0-72.359375 32.460937-72.359375 72.359375 0 39.902343 32.460937 72.363281 72.359375 72.363281 39.898437 0 72.359375-32.460938 72.359375-72.363281 0-39.898438-32.460938-72.359375-72.359375-72.359375zm0 0"/></g></svg>