<svg height="409pt" viewBox="-41 0 409 409.6" width="409pt" xmlns="http://www.w3.org/2000/svg"><path d="m297.195312 402.773438h-266.109374c-13.234376 0-23.960938-10.726563-23.960938-23.960938v-6.691406c0-13.234375 10.726562-23.960938 23.960938-23.960938h266.109374c13.230469 0 23.957032 10.726563 23.957032 23.960938v6.691406c0 13.234375-10.726563 23.960938-23.957032 23.960938zm0 0" fill="#00e7ff"/><path d="m297.195312 409.601562h-266.109374c-16.976563 0-30.785157-13.8125-30.785157-30.789062v-6.691406c0-16.976563 13.808594-30.789063 30.785157-30.789063h266.109374c16.972657 0 30.785157 13.8125 30.785157 30.789063v6.691406c0 16.976562-13.8125 30.789062-30.785157 30.789062zm-266.109374-54.613281c-9.445313 0-17.132813 7.683594-17.132813 17.132813v6.691406c0 9.449219 7.6875 17.132812 17.132813 17.132812h266.109374c9.445313 0 17.132813-7.683593 17.132813-17.132812v-6.691406c0-9.449219-7.6875-17.132813-17.132813-17.132813zm0 0" fill="#00e7ff"/><path d="m238.886719 319.71875c-2.886719 16.445312-17.171875 28.441406-33.867188 28.441406h-81.757812c-16.699219 0-30.980469-11.996094-33.871094-28.441406l-49.628906-282.570312c-2.78125-15.820313 9.394531-30.320313 25.457031-30.320313h197.839844c16.066406 0 28.242187 14.5 25.460937 30.320313l-43.566406 248.046874" fill="#ffe600"/><path d="m205.015625 354.988281h-81.753906c-20.050781 0-37.125-14.335937-40.59375-34.089843l-49.628907-282.570313c-1.675781-9.53125.933594-19.25 7.152344-26.664063 6.226563-7.414062 15.347656-11.664062 25.027344-11.664062h197.839844c9.683594 0 18.800781 4.25 25.027344 11.664062 6.222656 7.414063 8.835937 17.132813 7.15625 26.664063l-43.566407 248.050781c-.648437 3.707032-4.171875 6.179688-7.902343 5.542969-3.714844-.65625-6.199219-4.191406-5.542969-7.90625l43.566406-248.046875c.972656-5.550781-.542969-11.207031-4.167969-15.527344-3.621094-4.3125-8.933594-6.789062-14.570312-6.789062h-197.839844c-5.636719 0-10.945312 2.476562-14.570312 6.789062-3.621094 4.316406-5.140626 9.976563-4.164063 15.527344l49.628906 282.570312c2.320313 13.207032 13.738281 22.792969 27.148438 22.792969h81.753906c13.410156 0 24.832031-9.585937 27.152344-22.792969.648437-3.714843 4.160156-6.207031 7.902343-5.542968 3.714844.65625 6.195313 4.191406 5.542969 7.90625-3.46875 19.75-20.542969 34.085937-40.597656 34.085937zm0 0" fill="#602f75"/><path d="m215.984375 402.773438h-103.6875c-13.234375 0-23.960937-10.726563-23.960937-23.960938v-6.691406c0-13.234375 10.726562-23.960938 23.960937-23.960938h103.6875c13.234375 0 23.960937 10.726563 23.960937 23.960938v6.691406c0 13.234375-10.726562 23.960938-23.960937 23.960938zm0 0" fill="#fff"/><path d="m215.984375 409.601562h-103.6875c-16.976563 0-30.785156-13.8125-30.785156-30.789062v-6.691406c0-16.976563 13.808593-30.789063 30.785156-30.789063h103.6875c16.976563 0 30.785156 13.8125 30.785156 30.789063v6.691406c0 16.976562-13.808593 30.789062-30.785156 30.789062zm-103.6875-54.613281c-9.445313 0-17.132813 7.683594-17.132813 17.132813v6.691406c0 9.449219 7.6875 17.132812 17.132813 17.132812h103.6875c9.445313 0 17.132813-7.683593 17.132813-17.132812v-6.691406c0-9.449219-7.6875-17.132813-17.132813-17.132813zm0 0" fill="#602f75"/><g fill="#ea3457"><path d="m193.949219 116.054688c0 16.460937-13.347657 29.808593-29.808594 29.808593-16.464844 0-29.808594-13.347656-29.808594-29.808593 0-16.464844 13.34375-29.808594 29.808594-29.808594 16.460937 0 29.808594 13.34375 29.808594 29.808594zm0 0"/><path d="m164.140625 152.6875c-20.199219 0-36.632813-16.433594-36.632813-36.632812 0-20.203126 16.433594-36.636719 36.632813-36.636719s36.632813 16.433593 36.632813 36.636719c0 20.199218-16.433594 36.632812-36.632813 36.632812zm0-59.613281c-12.671875 0-22.980469 10.308593-22.980469 22.980469 0 12.667968 10.308594 22.980468 22.980469 22.980468 12.667969 0 22.980469-10.3125 22.980469-22.980468 0-12.671876-10.3125-22.980469-22.980469-22.980469zm0 0"/><path d="m164.140625 69.359375c-3.769531 0-6.828125-3.054687-6.828125-6.824219v-29.183594c0-3.769531 3.058594-6.824218 6.828125-6.824218s6.824219 3.054687 6.824219 6.824218v29.183594c0 3.769532-3.054688 6.824219-6.824219 6.824219zm0 0"/><path d="m164.140625 205.578125c-3.769531 0-6.828125-3.054687-6.828125-6.824219v-29.179687c0-3.773438 3.058594-6.828125 6.828125-6.828125s6.824219 3.054687 6.824219 6.828125v29.179687c0 3.769532-3.054688 6.824219-6.824219 6.824219zm0 0"/><path d="m110.621094 122.878906h-29.179688c-3.769531 0-6.828125-3.054687-6.828125-6.824218 0-3.769532 3.058594-6.828126 6.828125-6.828126h29.179688c3.769531 0 6.828125 3.058594 6.828125 6.828126 0 3.769531-3.058594 6.824218-6.828125 6.824218zm0 0"/><path d="m246.839844 122.878906h-29.179688c-3.769531 0-6.828125-3.054687-6.828125-6.824218 0-3.769532 3.058594-6.828126 6.828125-6.828126h29.179688c3.769531 0 6.828125 3.058594 6.828125 6.828126 0 3.769531-3.058594 6.824218-6.828125 6.824218zm0 0"/></g><path d="m101.339844 58.003906 21.527344 19.699219" fill="#fff"/><path d="m122.863281 84.53125c-1.644531 0-3.296875-.59375-4.605469-1.792969l-21.527343-19.699219c-2.78125-2.546874-2.96875-6.863281-.425781-9.644531 2.539062-2.78125 6.859374-2.972656 9.644531-.429687l21.527343 19.703125c2.777344 2.542969 2.96875 6.859375.425782 9.644531-1.34375 1.472656-3.191406 2.21875-5.039063 2.21875zm0 0" fill="#ea3457"/><path d="m226.941406 174.105469-21.527344-19.703125" fill="#fff"/><path d="m226.9375 180.929688c-1.644531 0-3.296875-.59375-4.605469-1.789063l-21.527343-19.699219c-2.78125-2.546875-2.96875-6.863281-.425782-9.648437 2.542969-2.777344 6.855469-2.976563 9.644532-.425781l21.527343 19.699218c2.78125 2.546875 2.96875 6.863282.425781 9.648438-1.347656 1.46875-3.191406 2.214844-5.039062 2.214844zm0 0" fill="#ea3457"/><path d="m101.339844 174.105469 21.527344-19.703125" fill="#fff"/><path d="m101.34375 180.929688c-1.851562 0-3.695312-.746094-5.039062-2.214844-2.542969-2.785156-2.355469-7.101563.425781-9.648438l21.527343-19.699218c2.78125-2.550782 7.101563-2.351563 9.644532.425781 2.542968 2.785156 2.351562 7.101562-.425782 9.648437l-21.527343 19.699219c-1.308594 1.195313-2.960938 1.789063-4.605469 1.789063zm0 0" fill="#ea3457"/><path d="m226.941406 58.003906-21.527344 19.699219" fill="#fff"/><path d="m205.417969 84.53125c-1.851563 0-3.695313-.75-5.039063-2.21875-2.542968-2.785156-2.355468-7.101562.425782-9.644531l21.527343-19.703125c2.777344-2.542969 7.097657-2.351563 9.644531.429687 2.542969 2.78125 2.355469 7.097657-.425781 9.644531l-21.527343 19.699219c-1.308594 1.199219-2.964844 1.792969-4.605469 1.792969zm0 0" fill="#ea3457"/></svg>