<svg height="391pt" viewBox="0 -1 391.597 391" width="391pt" xmlns="http://www.w3.org/2000/svg"><path d="m317.066406 166.910156c33.167969-33.167968 54.472656-76.347656 60.617188-122.847656l4.875-36.9375-36.933594 4.878906c-46.503906 6.140625-89.683594 27.445313-122.851562 60.613282l-215.945313 239.015624 64.3125 6.914063 6.914063 64.308594 188.40625-170.222657" fill="#fff"/><path d="m78.054688 389.683594c-.820313 0-1.640626-.144532-2.433594-.445313-2.402344-.914062-4.082032-3.101562-4.355469-5.652343l-6.328125-58.84375-58.835938-6.324219c-2.554687-.273438-4.742187-1.953125-5.652343-4.351563-.914063-2.402344-.4062502-5.109375 1.3125-7.007812l215.945312-239.015625c34.277344-34.292969 79.304688-56.503907 127.027344-62.804688l36.933594-4.878906c2.09375-.2734375 4.21875.4375 5.71875 1.9375s2.222656 3.613281 1.941406 5.722656l-4.878906 36.933594c-6.300781 47.71875-28.511719 92.746094-62.554688 126.785156-2.664062 2.667969-6.984375 2.667969-9.652343 0-2.664063-2.664062-2.664063-6.984375 0-9.652343 31.929687-31.925782 52.761718-74.160157 58.675781-118.921876l3.710937-28.105468-28.105468 3.714844c-44.761719 5.914062-86.992188 26.746093-118.921876 58.671874l-206.734374 228.824219 51 5.488281c3.191406.339844 5.71875 2.867188 6.058593 6.058594l5.488281 51 178.472657-161.25c2.78125-2.527344 7.113281-2.3125 9.640625.492188 2.523437 2.792968 2.304687 7.113281-.496094 9.640625l-188.40625 170.226562c-1.273438 1.152344-2.914062 1.757813-4.570312 1.757813zm0 0" fill="#602f75"/><path d="m90.398438 268.714844 33.3125-2.738282-2.742188 33.308594 147.835938-137.929687c20.832031-20.835938 36.386718-45.78125 44.257812-70.976563l6.253906-20.011718-20.011718 6.253906c-25.195313 7.871094-50.140626 23.429687-70.972657 44.257812zm0 0" fill="#ea3457"/><path d="m120.964844 306.113281c-1.011719 0-2.027344-.226562-2.972656-.679687-2.539063-1.234375-4.058594-3.894532-3.832032-6.707032l2.078125-25.28125-25.277343 2.082032c-2.765626.234375-5.480469-1.289063-6.707032-3.832032-1.226562-2.535156-.765625-5.570312 1.152344-7.636718l137.933594-147.832032c21.648437-21.652343 47.847656-37.972656 73.933594-46.121093l20.011718-6.246094c2.414063-.773437 5.0625-.109375 6.863282 1.6875 1.792968 1.792969 2.445312 4.441406 1.683593 6.859375l-6.25 20.007812c-8.148437 26.09375-24.46875 52.289063-45.949219 73.769532l-148.007812 138.097656c-1.292969 1.203125-2.964844 1.832031-4.660156 1.832031zm2.742187-46.960937c1.800781 0 3.539063.710937 4.824219 2 1.421875 1.417968 2.140625 3.386718 1.980469 5.386718l-1.292969 15.710938 134.925781-125.894531c19.78125-19.777344 34.902344-43.992188 42.410157-68.011719l2.367187-7.574219-7.582031 2.359375c-24.011719 7.507813-48.226563 22.628906-68.179688 42.578125l-125.726562 134.753907 15.714844-1.292969c.183593-.011719.371093-.015625.558593-.015625zm0 0" fill="#ea3457"/><path d="m261.773438 138.839844c-1.746094 0-3.496094-.667969-4.828126-2.003906-2.664062-2.664063-2.664062-6.984376 0-9.652344l115.246094-115.246094c2.667969-2.664062 6.988282-2.664062 9.652344 0 2.667969 2.667969 2.667969 6.988281 0 9.652344l-115.246094 115.246094c-1.332031 1.335937-3.078125 2.003906-4.824218 2.003906zm0 0" fill="#602f75"/><path d="m73.1875 327.425781c-1.746094 0-3.496094-.667969-4.828125-2-2.667969-2.667969-2.667969-6.988281 0-9.652343l122.992187-122.996094c2.667969-2.664063 6.988282-2.664063 9.652344 0 2.667969 2.667968 2.667969 6.988281 0 9.65625l-122.992187 122.992187c-1.332031 1.332031-3.078125 2-4.824219 2zm0 0" fill="#602f75"/><path d="m384.765625 311.632812-64.3125 6.914063-6.914063 64.308594-239.015624-215.945313c-33.164063-33.167968-54.46875-76.347656-60.613282-122.847656l-4.875-36.9375 36.933594 4.878906c46.503906 6.140625 89.683594 27.445313 122.851562 60.613282zm0 0" fill="#fff"/><path d="m313.539062 389.683594c-1.660156 0-3.300781-.605469-4.574218-1.757813l-239.011719-215.949219c-34.292969-34.277343-56.507813-79.304687-62.808594-127.027343l-4.878906-36.933594c-.277344-2.105469.441406-4.21875 1.941406-5.71875s3.625-2.2148438 5.722657-1.941406l36.933593 4.878906c47.71875 6.300781 92.746094 28.515625 126.785157 62.554687l216.1875 239.265626c1.71875 1.898437 2.226562 4.605468 1.3125 7.003906-.910157 2.402344-3.097657 4.082031-5.652344 4.355468l-58.839844 6.324219-6.328125 58.84375c-.273437 2.550781-1.953125 4.738281-4.351563 5.652344-.796874.304687-1.617187.449219-2.4375.449219zm-296.574218-374.625 3.714844 28.105468c5.914062 44.761719 26.746093 86.996094 58.671874 118.921876l228.828126 206.730468 5.488281-51c.339843-3.191406 2.867187-5.71875 6.058593-6.058594l51-5.488281-206.972656-229.078125c-31.6875-31.675781-73.917968-52.507812-118.679687-58.417968zm0 0" fill="#602f75"/><path d="m263.070312 299.285156-2.738281-33.308594 33.308594 2.738282-137.929687-147.832032c-20.835938-20.832031-45.78125-36.390624-70.976563-44.261718l-20.011719-6.253906 6.253906 20.011718c7.871094 25.199219 23.429688 50.140625 44.257813 70.976563zm0 0" fill="#ffe600"/><path d="m263.074219 306.113281c-1.695313 0-3.367188-.628906-4.660157-1.835937l-147.832031-137.929688c-21.65625-21.648437-37.976562-47.847656-46.117187-73.933594l-6.25-20.007812c-.761719-2.421875-.109375-5.066406 1.683594-6.859375 1.792968-1.796875 4.445312-2.460937 6.863281-1.6875l20.003906 6.246094c26.09375 8.144531 52.289063 24.46875 73.777344 45.953125l138.089843 148c1.921876 2.066406 2.382813 5.101562 1.15625 7.636718-1.226562 2.539063-3.902343 4.050782-6.707031 3.832032l-25.28125-2.082032 2.082031 25.28125c.226563 2.8125-1.292968 5.472657-3.832031 6.707032-.953125.453125-1.964843.679687-2.976562.679687zm-187.949219-225.34375 2.367188 7.574219c7.5 24.019531 22.621093 48.234375 42.574218 68.179688l134.753906 125.726562-1.292968-15.710938c-.164063-2 .558594-3.96875 1.976562-5.386718 1.421875-1.421875 3.402344-2.101563 5.386719-1.980469l15.714844 1.292969-125.886719-134.921875c-19.789062-19.785157-44-34.90625-68.019531-42.414063zm0 0" fill="#ffe600"/><g fill="#602f75"><path d="m129.820312 138.839844c-1.746093 0-3.496093-.667969-4.828124-2.003906l-112.585938-112.585938c-2.664062-2.664062-2.664062-6.984375 0-9.652344 2.664062-2.664062 6.988281-2.664062 9.652344 0l112.585937 112.585938c2.667969 2.667968 2.667969 6.988281 0 9.652344-1.332031 1.335937-3.078125 2.003906-4.824219 2.003906zm0 0"/><path d="m318.40625 327.425781c-1.746094 0-3.492188-.667969-4.828125-2l-122.992187-122.992187c-2.664063-2.667969-2.664063-6.988282 0-9.65625 2.667968-2.664063 6.988281-2.664063 9.652343 0l122.996094 122.996094c2.664063 2.664062 2.664063 6.984374 0 9.652343-1.335937 1.332031-3.082031 2-4.828125 2zm0 0"/></g></svg>