<svg height="409pt" viewBox="0 -47 409.60036 409" width="409pt" xmlns="http://www.w3.org/2000/svg"><path d="m20.480469 307.5h161.4375l9.640625-27.304688-168.09375.210938zm0 0" fill="#fff"/><path d="m181.917969 314.328125h-161.4375c-1.941407 0-3.789063-.828125-5.085938-2.269531-1.292969-1.449219-1.914062-3.378906-1.699219-5.304688l2.984376-27.09375c.382812-3.457031 3.300781-6.078125 6.78125-6.078125l168.09375-.214843h.003906c2.214844 0 4.296875 1.074218 5.574218 2.878906 1.28125 1.8125 1.601563 4.132812.867188 6.222656l-9.636719 27.304688c-.972656 2.730468-3.550781 4.554687-6.445312 4.554687zm-153.820313-13.65625h148.996094l4.8125-13.636719-152.328125.191406zm0 0" fill="#602f75"/><path d="m248.5 307.5h154.273438l-3.03125-27.304688-163.230469.203126zm0 0" fill="#fff"/><path d="m402.773438 314.328125h-154.273438c-2.699219 0-5.15625-1.59375-6.242188-4.066406l-11.984374-27.101563c-.933594-2.109375-.742188-4.546875.519531-6.480468 1.253906-1.9375 3.40625-3.101563 5.714843-3.105469l163.230469-.207031h.007813c3.480468 0 6.398437 2.617187 6.785156 6.074218l3.027344 27.304688c.214844 1.933594-.40625 3.863281-1.699219 5.308594-1.292969 1.445312-3.148437 2.273437-5.085937 2.273437zm-149.828126-13.65625h142.199219l-1.511719-13.644531-146.640624.1875zm0 0" fill="#602f75"/><path d="m225.355469 250.246094 11.15625 29.949218 163.230469-.207031-2.78125-29.742187zm0 0" fill="#ea3457"/><path d="m236.511719 287.019531c-2.851563 0-5.398438-1.773437-6.398438-4.445312l-11.152343-29.949219c-.78125-2.097656-.480469-4.441406.792968-6.277344 1.273438-1.835937 3.375-2.933594 5.605469-2.933594h171.601563c3.527343 0 6.464843 2.683594 6.800781 6.191407l2.785156 29.742187c.175781 1.910156-.460937 3.808594-1.746094 5.230469-1.292969 1.417969-3.125 2.230469-5.046875 2.234375l-163.234375.207031zm-1.328125-29.949219 6.070312 16.289063 151-.1875-1.515625-16.101563zm0 0" fill="#602f75"/><path d="m26.292969 252.886719-2.828125 27.308593 168.09375-.214843 9.003906-27.09375zm0 0" fill="#ea3457"/><path d="m23.464844 287.019531c-1.933594 0-3.773438-.816406-5.066406-2.25-1.292969-1.4375-1.917969-3.355469-1.726563-5.277343l2.828125-27.308594c.359375-3.480469 3.292969-6.125 6.792969-6.125h174.269531c2.195312 0 4.253906 1.054687 5.535156 2.835937 1.285156 1.777344 1.640625 4.066407.945313 6.144531l-9.003907 27.09375c-.925781 2.789063-3.535156 4.671876-6.472656 4.675782l-168.09375.210937zm8.980468-27.304687-1.40625 13.640625 155.59375-.195313 4.464844-13.445312zm0 0" fill="#602f75"/><path d="m26.292969 252.886719h174.269531l11.0625-38.230469 13.730469 38.230469h171.605469l-23.824219-245.761719h-323.023438l-19.851562 204.800781" fill="#fff"/><path d="m396.957031 259.714844h-171.597656c-2.882813 0-5.453125-1.808594-6.429687-4.519532l-6.605469-18.394531-5.199219 17.984375c-.847656 2.917969-3.519531 4.929688-6.5625 4.929688h-174.269531c-3.773438 0-6.828125-3.054688-6.828125-6.828125 0-3.769531 3.054687-6.824219 6.828125-6.824219h169.140625l9.632812-33.300781c.824219-2.84375 3.386719-4.832031 6.347656-4.925781 3.140626-.128907 5.640626 1.726562 6.640626 4.515624l12.105468 33.707032h159.277344l-22.496094-232.105469h-310.628906l-19.257812 198.628906c-.363282 3.75-3.621094 6.542969-7.453126 6.136719-3.753906-.363281-6.5-3.699219-6.136718-7.453125l19.855468-204.800781c.339844-3.496094 3.277344-6.164063 6.792969-6.164063h323.027344c3.511719 0 6.449219 2.667969 6.789063 6.164063l23.820312 245.761718c.1875 1.917969-.445312 3.824219-1.738281 5.25-1.292969 1.421876-3.125 2.238282-5.054688 2.238282zm0 0" fill="#602f75"/><path d="m279.894531 13.953125h75.09375v232.105469h-75.09375zm0 0" fill="#ffe600"/><g fill="#602f75"><path d="m235.519531 218.753906h-47.785156c-3.773437 0-6.828125-3.058594-6.828125-6.828125s3.054688-6.824219 6.828125-6.824219h47.785156c3.773438 0 6.828125 3.054688 6.828125 6.824219s-3.054687 6.828125-6.828125 6.828125zm0 0"/><path d="m130.386719 48.085938h-52.5625c-3.773438 0-6.824219-3.054688-6.824219-6.824219 0-3.773438 3.050781-6.828125 6.824219-6.828125h52.5625c3.773437 0 6.824219 3.054687 6.824219 6.828125 0 3.769531-3.050782 6.824219-6.824219 6.824219zm0 0"/><path d="m345.425781 48.085938h-52.558593c-3.773438 0-6.828126-3.054688-6.828126-6.824219 0-3.773438 3.054688-6.828125 6.828126-6.828125h52.558593c3.773438 0 6.828125 3.054687 6.828125 6.828125 0 3.769531-3.054687 6.824219-6.828125 6.824219zm0 0"/><path d="m233.132812 68.566406c-15.085937 0-25.980468-15.578125-27.175781-17.355468-1.542969-2.304688-1.542969-5.308594 0-7.613282 1.195313-1.777344 12.089844-17.359375 27.175781-17.359375 15.886719 0 28.328126 9.296875 28.328126 21.164063 0 11.867187-12.441407 21.164062-28.328126 21.164062zm-12.734374-21.164062c3.222656 3.457031 8.113281 7.511718 12.734374 7.511718 8.960938 0 14.671876-4.445312 14.671876-7.511718 0-3.0625-5.710938-7.507813-14.671876-7.507813-4.621093 0-9.507812 4.046875-12.734374 7.507813zm0 0"/><path d="m190.121094 68.566406c-15.890625 0-28.328125-9.296875-28.328125-21.164062 0-11.863282 12.4375-21.160156 28.328125-21.160156 15.085937 0 25.980468 15.578124 27.171875 17.355468 1.546875 2.304688 1.546875 5.308594 0 7.613282-1.191407 1.777343-12.085938 17.355468-27.171875 17.355468zm0-28.671875c-8.960938 0-14.675782 4.445313-14.675782 7.507813s5.714844 7.507812 14.675782 7.507812c4.617187 0 9.503906-4.046875 12.730468-7.507812-3.21875-3.457032-8.113281-7.507813-12.730468-7.507813zm0 0"/><path d="m197.972656 116.351562c-3.773437 0-6.824218-3.054687-6.824218-6.824218v-47.789063c0-3.769531 3.050781-6.824219 6.824218-6.824219 3.773438 0 6.828125 3.054688 6.828125 6.824219v47.789063c0 3.769531-3.054687 6.824218-6.828125 6.824218zm0 0"/><path d="m225.28125 102.699219c-3.773438 0-6.828125-3.054688-6.828125-6.824219v-34.136719c0-3.769531 3.054687-6.824219 6.828125-6.824219s6.824219 3.054688 6.824219 6.824219v34.136719c0 3.769531-3.050781 6.824219-6.824219 6.824219zm0 0"/></g><path d="m75.09375 130.007812c0 18.851563-15.28125 34.132813-34.132812 34.132813-18.851563 0-34.132813-15.28125-34.132813-34.132813 0-18.851562 15.28125-34.132812 34.132813-34.132812 18.851562 0 34.132812 15.28125 34.132812 34.132812zm0 0" fill="#00e7ff"/><path d="m40.960938 170.96875c-22.585938 0-40.960938-18.375-40.960938-40.960938 0-22.585937 18.375-40.960937 40.960938-40.960937 22.585937 0 40.960937 18.375 40.960937 40.960937 0 22.585938-18.375 40.960938-40.960937 40.960938zm0-68.269531c-15.0625 0-27.308594 12.25-27.308594 27.308593 0 15.054688 12.246094 27.304688 27.308594 27.304688 15.058593 0 27.304687-12.25 27.304687-27.304688 0-15.058593-12.246094-27.308593-27.304687-27.308593zm0 0" fill="#00e7ff"/></svg>