<svg height="400pt" viewBox="0 -19 400.10752 400" width="400pt" xmlns="http://www.w3.org/2000/svg"><path d="m63.519531 205.152344h273.066407v34.136718h-273.066407zm0 0" fill="#ea3457"/><path d="m336.585938 246.113281h-273.066407c-3.773437 0-6.824219-3.050781-6.824219-6.824219v-34.136718c0-3.773438 3.050782-6.824219 6.824219-6.824219h273.066407c3.773437 0 6.828124 3.050781 6.828124 6.824219v34.136718c0 3.773438-3.054687 6.824219-6.828124 6.824219zm-266.238282-13.652343h259.414063v-20.480469h-259.414063zm0 0" fill="#ea3457"/><path d="m393.28125 68.621094h-386.453125c-3.773437 0-6.828125-3.054688-6.828125-6.828125 0-3.773438 3.054688-6.824219 6.828125-6.824219h386.453125c3.773438 0 6.828125 3.050781 6.828125 6.824219 0 3.773437-3.054687 6.828125-6.828125 6.828125zm0 0" fill="#602f75"/><path d="m343.453125 59.097656c0-28.839844-26.722656-52.21875-59.683594-52.21875-32.960937 0-59.679687 23.378906-59.679687 52.21875 0 28.84375 26.71875 52.222656 59.679687 52.222656 32.960938 0 59.683594-23.378906 59.683594-52.222656zm0 0" fill="#ffe600"/><path d="m283.765625 118.148438c-36.671875 0-66.503906-26.488282-66.503906-59.046876 0-32.558593 29.832031-59.0468745 66.503906-59.0468745 36.675781 0 66.515625 26.4882815 66.515625 59.0468745 0 32.558594-29.839844 59.046876-66.515625 59.046876zm0-104.441407c-29.144531 0-52.851563 20.367188-52.851563 45.394531 0 25.027344 23.707032 45.394532 52.851563 45.394532 29.148437 0 52.863281-20.367188 52.863281-45.394532 0-25.027343-23.714844-45.394531-52.863281-45.394531zm0 0" fill="#602f75"/><path d="m176.015625 59.097656c0-28.839844-26.71875-52.21875-59.679687-52.21875-32.960938 0-59.679688 23.378906-59.679688 52.21875 0 28.84375 26.71875 52.222656 59.679688 52.222656 32.960937 0 59.679687-23.378906 59.679687-52.222656zm0 0" fill="#ffe600"/><path d="m116.339844 118.148438c-36.671875 0-66.515625-26.488282-66.515625-59.046876 0-32.558593 29.839843-59.0468745 66.515625-59.0468745 36.675781 0 66.507812 26.4882815 66.507812 59.0468745 0 32.558594-29.832031 59.046876-66.507812 59.046876zm0-104.441407c-29.144532 0-52.859375 20.367188-52.859375 45.394531 0 25.027344 23.714843 45.394532 52.859375 45.394532 29.148437 0 52.855468-20.367188 52.855468-45.394532 0-25.027343-23.707031-45.394531-52.855468-45.394531zm0 0" fill="#602f75"/><path d="m97.632812 238.941406h-34.113281v34.460938c4.472657-.652344 9.003907-1.105469 13.652344-1.105469 48.136719 0 87.847656 36.261719 94.488281 83.390625h51.324219c6.640625-47.128906 46.351563-83.390625 94.488281-83.390625 6.546875 0 12.9375.675781 19.113282 1.953125v-35.3125h-180.515626" fill="#00e7ff"/><path d="m222.988281 362.515625h-51.328125c-3.398437 0-6.285156-2.507813-6.757812-5.875-6.226563-44.195313-43.941406-77.519531-87.726563-77.519531-3.804687 0-7.832031.324218-12.667969 1.03125-1.957031.289062-3.945312-.285156-5.453124-1.585938-1.5-1.296875-2.359376-3.183594-2.359376-5.164062v-34.460938c0-3.773437 3.050782-6.824218 6.824219-6.824218h34.113281c3.773438 0 6.828126 3.050781 6.828126 6.824218 0 3.773438-3.054688 6.828125-6.828126 6.828125h-27.285156v19.980469c2.375-.1875 4.621094-.28125 6.824219-.28125 48.589844 0 90.683594 35.453125 100.25 83.394531h39.804687c9.566407-47.941406 51.660157-83.394531 100.246094-83.394531 4.09375 0 8.207032.253906 12.285156.753906v-20.453125h-173.691406c-3.773437 0-6.824218-3.054687-6.824218-6.828125 0-3.773437 3.050781-6.824218 6.824218-6.824218h180.519532c3.773437 0 6.828124 3.050781 6.828124 6.824218v35.308594c0 2.054688-.921874 3.992188-2.515624 5.292969-1.585938 1.296875-3.671876 1.808593-5.691407 1.394531-5.835937-1.207031-11.800781-1.8125-17.734375-1.8125-43.785156 0-81.5 33.324219-87.726562 77.519531-.472656 3.363281-3.359375 5.871094-6.757813 5.871094zm0 0" fill="#602f75"/></svg>