<svg height="416pt" viewBox="0 -50 416.54566 416" width="416pt" xmlns="http://www.w3.org/2000/svg"><path d="m119.234375 134.46875-32.769531 13.09375c-21.789063 8.710938-46.871094 1.285156-59.984375-18.175781-17.761719-26.367188-32.566407-59.8125-2.039063-97.125" fill="#ea3457"/><path d="m67.894531 157.957031c-18.476562 0-36.414062-8.933593-47.074219-24.757812-17.019531-25.261719-35.703124-63.660157-1.664062-105.265625 2.386719-2.917969 6.6875-3.34375 9.605469-.960938 2.917969 2.386719 3.347656 6.6875.960937 9.609375-27.800781 33.980469-14.378906 64.050781 2.417969 88.988281 11.183594 16.59375 32.964844 23.175782 51.789063 15.65625l32.769531-13.097656c3.496093-1.394531 7.472656.308594 8.871093 3.804688 1.398438 3.5-.304687 7.472656-3.804687 8.875l-32.769531 13.097656c-6.859375 2.738281-14.019532 4.050781-21.101563 4.050781zm0 0" fill="#602f75"/><path d="m182.3125 107.203125-63.207031 27.089844c-9.355469-12.589844-18.4375-24.710938-27.164063-35.976563l61.449219-26.882812c9.972656 11.484375 19.714844 23.652344 28.921875 35.769531zm0 0" fill="#00e7ff"/><path d="m119.109375 141.117188c-2.109375 0-4.164063-.976563-5.484375-2.75-9.324219-12.554688-18.378906-24.640626-27.078125-35.871094-1.289063-1.664063-1.738281-3.828125-1.21875-5.867188.523437-2.042968 1.953125-3.726562 3.878906-4.570312l61.445313-26.878906c2.742187-1.199219 5.933594-.476563 7.890625 1.777343 9.367187 10.785157 19.191406 22.933594 29.207031 36.117188 1.269531 1.671875 1.699219 3.839843 1.164062 5.871093-.539062 2.03125-1.980468 3.703126-3.910156 4.53125l-63.207031 27.089844c-.871094.371094-1.785156.550782-2.6875.550782zm-16.433594-40.046876c6.078125 7.949219 12.320313 16.269532 18.691407 24.824219l50.179687-21.503906c-6.832031-8.796875-13.542969-17.0625-20.042969-24.679687zm0 0" fill="#602f75"/><path d="m269.929688 229.871094c69.300781 71.0625 139.789062 47.566406 139.789062 47.566406s-105.074219 81.722656-192.636719-17.511719c-34.257812-38.828125-67.609375-84.765625-97.976562-125.632812l63.207031-27.089844c36.175781 47.632813 63.953125 94.347656 63.953125 94.347656" fill="#eaeaea"/><path d="m316.777344 315.691406c-33.035156.003906-70.316406-12.148437-104.816406-51.25-30.628907-34.714844-59.828126-74.125-88.070313-112.234375l-10.265625-13.84375c-1.246094-1.675781-1.65625-3.832031-1.109375-5.847656.542969-2.019531 1.980469-3.675781 3.898437-4.496094l63.207032-27.089843c2.886718-1.226563 6.234375-.347657 8.128906 2.144531 35.988281 47.390625 64.105469 94.515625 64.386719 94.984375 1.925781 3.238281.863281 7.429687-2.378907 9.355468-3.238281 1.921876-7.433593.863282-9.355468-2.378906-.265625-.449218-26.363282-44.175781-60.316406-89.453125l-50.351563 21.582031 5.128906 6.914063c28.070313 37.882813 57.09375 77.050781 87.335938 111.328125 56.789062 64.375 120.691406 49.234375 156.101562 32.691406-28.359375-.441406-70.957031-10.085937-113.257812-53.460937-2.632813-2.699219-2.578125-7.019531.121093-9.652344 2.695313-2.636719 7.019532-2.578125 9.652344.117187 65.558594 67.230469 132.078125 46.082032 132.742188 45.855469 3.152344-1.039062 6.605468.320313 8.179687 3.253907 1.566407 2.933593.796875 6.570312-1.828125 8.613281-.679687.53125-43.253906 32.863281-97.132812 32.867187zm0 0" fill="#602f75"/><path d="m119.03125 36.117188c11.433594 10.140624 23.039062 22.28125 34.359375 35.316406l-61.449219 26.882812c-10.71875-13.84375-20.90625-26.371094-30.472656-37.015625zm0 0" fill="#00e7ff"/><path d="m91.945312 105.140625c-2.0625 0-4.074218-.9375-5.398437-2.644531-11.605469-14.984375-21.464844-26.964844-30.152344-36.632813-1.46875-1.628906-2.0625-3.863281-1.597656-6.007812.460937-2.140625 1.929687-3.933594 3.9375-4.808594l57.558594-25.183594c2.433593-1.074219 5.273437-.617187 7.269531 1.148438 10.863281 9.636719 22.640625 21.730469 34.980469 35.945312 1.425781 1.640625 1.984375 3.859375 1.507812 5.976563-.476562 2.121094-1.933593 3.882812-3.921875 4.753906l-61.449218 26.878906c-.882813.390625-1.8125.574219-2.734376.574219zm-19.183593-41.328125c6.445312 7.484375 13.488281 16.117188 21.308593 26.121094l47.996094-21c-8.5-9.433594-16.652344-17.742188-24.335937-24.796875zm0 0" fill="#602f75"/><path d="m26.179688 30.183594c7.222656-9.632813 16.453124-17.277344 27.449218-21.273438 18.128906-6.59375 41.371094 5.894532 65.402344 27.207032l-57.5625 25.183593c-13.03125-14.496093-24.898438-25.457031-35.289062-31.117187zm0 0" fill="#00e7ff"/><path d="m61.472656 68.128906c-1.898437 0-3.757812-.789062-5.082031-2.261718-13.574219-15.101563-24.523437-24.8125-33.476563-29.683594-1.742187-.953125-2.984374-2.609375-3.40625-4.542969-.421874-1.9375.019532-3.964844 1.207032-5.550781 8.417968-11.21875 18.992187-19.378906 30.582031-23.597656 19.140625-6.945313 42.78125 2.371093 72.261719 28.519531 1.742187 1.542969 2.578125 3.871093 2.214844 6.171875-.363282 2.296875-1.875 4.253906-4.007813 5.1875l-57.558594 25.183594c-.886719.386718-1.816406.574218-2.734375.574218zm-25.035156-39.558594c7.878906 5.535157 16.722656 13.632813 26.777344 24.515626l43.035156-18.828126c-20.949219-16.78125-38.222656-23.316406-50.289062-18.933593-7.058594 2.566406-13.707032 7.09375-19.523438 13.246093zm0 0" fill="#602f75"/><path d="m228.761719 231.726562c-2.101563 0-4.171875-.96875-5.511719-2.792968l-64.210938-87.5625c-2.230468-3.039063-1.570312-7.3125 1.46875-9.542969 3.042969-2.226563 7.304688-1.566406 9.542969 1.46875l64.210938 87.5625c2.230469 3.039063 1.570312 7.3125-1.46875 9.542969-1.21875.894531-2.628907 1.324218-4.03125 1.324218zm0 0" fill="#ea3457"/><path d="m297.3125 134.46875 32.769531 13.09375c21.789063 8.710938 46.871094 1.285156 59.980469-18.175781 17.765625-26.367188 32.570312-59.8125 2.039062-97.125" fill="#ea3457"/><path d="m348.652344 157.957031c-7.082032 0-14.238282-1.3125-21.101563-4.050781l-32.769531-13.097656c-3.5-1.402344-5.207031-5.375-3.808594-8.875 1.398438-3.503906 5.367188-5.210938 8.875-3.804688l32.769532 13.097656c18.808593 7.511719 40.605468.9375 51.785156-15.65625 16.800781-24.933593 30.222656-55.003906 2.417968-88.988281-2.386718-2.921875-1.957031-7.21875.960938-9.609375 2.917969-2.378906 7.21875-1.953125 9.605469.960938 34.042969 41.609375 15.355469 80.003906-1.664063 105.265625-10.65625 15.824219-28.597656 24.757812-47.070312 24.757812zm0 0" fill="#602f75"/><path d="m234.234375 107.203125 63.207031 27.089844c9.355469-12.589844 18.433594-24.710938 27.160156-35.976563l-61.445312-26.882812c-9.972656 11.484375-19.71875 23.652344-28.921875 35.769531zm0 0" fill="#00e7ff"/><path d="m297.4375 141.117188c-.90625 0-1.816406-.179688-2.6875-.550782l-63.207031-27.085937c-1.929688-.828125-3.375-2.5-3.910157-4.53125-.535156-2.03125-.105468-4.195313 1.164063-5.871094 9.984375-13.144531 19.808594-25.296875 29.207031-36.117187 1.953125-2.253907 5.148438-2.976563 7.890625-1.777344l61.445313 26.878906c1.925781.84375 3.355468 2.527344 3.875 4.566406.519531 2.042969.074218 4.203125-1.214844 5.867188-8.703125 11.234375-17.753906 23.320312-27.082031 35.871094-1.316407 1.769531-3.371094 2.75-5.480469 2.75zm-52.4375-36.726563 50.179688 21.503906c6.371093-8.550781 12.609374-16.871093 18.691406-24.820312l-48.832032-21.363281c-6.511718 7.632812-13.222656 15.902343-20.039062 24.679687zm0 0" fill="#602f75"/><path d="m170.277344 201.546875c-75.890625 105.078125-163.449219 75.890625-163.449219 75.890625s105.074219 81.722656 192.636719-17.511719c34.257812-38.828125 67.609375-84.765625 97.976562-125.632812l-63.207031-27.089844c-36.175781 47.628906-63.957031 94.34375-63.957031 94.34375zm0 0" fill="#fff"/><path d="m99.765625 315.691406c-53.882813 0-96.449219-32.335937-97.128906-32.867187-2.6250002-2.042969-3.394531-5.679688-1.828125-8.609375 1.574218-2.9375 5.027344-4.292969 8.179687-3.257813 3.363281 1.101563 83.804688 26.007813 155.582031-73.167969 2.34375-3.910156 29.652344-49.191406 64.226563-94.714843 1.898437-2.492188 5.25-3.371094 8.128906-2.144531l63.203125 27.089843c1.921875.816407 3.359375 2.476563 3.902344 4.496094.546875 2.015625.136719 4.167969-1.109375 5.847656l-10.269531 13.84375c-28.238282 38.109375-57.4375 77.519531-88.066406 112.234375-34.496094 39.09375-71.785157 51.25-104.820313 51.25zm-61.78125-27.71875c35.355469 16.597656 99.425781 31.964844 156.363281-32.5625 30.242188-34.277344 59.265625-73.449218 87.335938-111.332031l5.125-6.914063-50.347656-21.578124c-33.972657 45.300781-60.050782 89-60.316407 89.453124-.105469.171876-.214843.34375-.335937.503907-40.519532 56.113281-84.613282 74.507812-114.464844 80.066406-8.519531 1.582031-16.378906 2.25-23.359375 2.363281zm132.292969-86.425781h.066406zm0 0" fill="#602f75"/><path d="m297.515625 36.117188c-11.433594 10.140624-23.042969 22.28125-34.363281 35.316406l61.449218 26.882812c10.71875-13.84375 20.90625-26.371094 30.476563-37.015625zm0 0" fill="#00e7ff"/><path d="m324.597656 105.140625c-.917968 0-1.847656-.183594-2.734375-.574219l-61.445312-26.878906c-1.988281-.871094-3.445313-2.632812-3.921875-4.753906-.476563-2.113282.082031-4.335938 1.503906-5.976563 12.34375-14.210937 24.117188-26.308593 34.984375-35.945312 1.992187-1.773438 4.828125-2.222657 7.265625-1.144531l57.5625 25.183593c2.007812.875 3.472656 2.664063 3.9375 4.808594s-.128906 4.375-1.597656 6.007813c-8.6875 9.664062-18.550782 21.644531-30.152344 36.628906-1.324219 1.707031-3.335938 2.644531-5.402344 2.644531zm-50.117187-36.207031 47.996093 21c7.820313-10 14.863282-18.636719 21.304688-26.121094l-44.964844-19.675781c-7.683594 7.054687-15.835937 15.363281-24.335937 24.796875zm0 0" fill="#602f75"/><path d="m390.363281 30.183594c-7.21875-9.632813-16.453125-17.277344-27.449219-21.273438-18.125-6.59375-41.371093 5.894532-65.398437 27.207032l57.5625 25.183593c13.027344-14.496093 24.898437-25.457031 35.285156-31.117187zm0 0" fill="#00e7ff"/><path d="m355.074219 68.128906c-.921875 0-1.851563-.1875-2.734375-.574218l-57.558594-25.183594c-2.132812-.933594-3.644531-2.886719-4.007812-5.1875-.363282-2.300782.46875-4.628906 2.214843-6.171875 29.476563-26.148438 53.109375-35.464844 72.261719-28.519531 11.589844 4.21875 22.164062 12.378906 30.582031 23.597656 1.183594 1.585937 1.628907 3.613281 1.203125 5.550781-.417968 1.933594-1.664062 3.589844-3.40625 4.542969-8.953125 4.871094-19.902344 14.582031-33.476562 29.683594-1.324219 1.472656-3.183594 2.261718-5.078125 2.261718zm-44.78125-33.871094 43.035156 18.828126c10.058594-10.882813 18.902344-18.980469 26.777344-24.515626-5.8125-6.152343-12.464844-10.679687-19.523438-13.246093-12.050781-4.378907-29.335937 2.152343-50.289062 18.933593zm0 0" fill="#602f75"/><path d="m187.78125 231.726562c-1.398438 0-2.8125-.429687-4.027344-1.320312-3.039062-2.230469-3.699218-6.503906-1.46875-9.542969l64.210938-87.566406c2.234375-3.035156 6.5-3.691406 9.542968-1.46875 3.042969 2.230469 3.699219 6.503906 1.472657 9.542969l-64.214844 87.566406c-1.339844 1.820312-3.410156 2.789062-5.515625 2.789062zm0 0" fill="#ea3457"/></svg>