<svg height="410pt" viewBox="0 0 410 410.69537" width="410pt" xmlns="http://www.w3.org/2000/svg"><path d="m328.679688 289.179688-39.152344 39.15625 88.585937 75.535156.664063-.664063c3.664062.210938 9.933594-3.242187 15.734375-9.039062 5.796875-5.800781 9.253906-12.070313 9.042969-15.734375l.664062-.664063zm0 0" fill="#00e7ff"/><path d="m378.113281 410.695312c-1.574219 0-3.148437-.539062-4.425781-1.632812l-88.585938-75.539062c-1.457031-1.230469-2.320312-3.019532-2.394531-4.921876-.078125-1.902343.648438-3.75 1.992188-5.097656l39.152343-39.152344c1.347657-1.347656 3.164063-2.058593 5.101563-1.992187 1.898437.074219 3.6875.941406 4.921875 2.390625l75.53125 88.585938c1.886719 2.207031 2.128906 5.292968.789062 7.722656-1.273437 7.785156-8.460937 15.53125-10.859374 17.933594-2.402344 2.398437-10.136719 9.578124-17.921876 10.851562-1.019531.566406-2.160156.851562-3.300781.851562zm-78.53125-82.761718 80.144531 68.34375c1.632813-.476563 5.480469-2.464844 9.953126-6.9375 4.433593-4.4375 6.429687-8.257813 6.929687-9.96875l-68.328125-80.136719zm0 0" fill="#602f75"/><path d="m233.6875 162.121094-71.222656 71.222656 122.507812 98.839844c.117188.160156.214844.339844.355469.476562 4.535156 4.539063 18.886719-2.460937 32.050781-15.625 13.167969-13.164062 20.164063-27.515625 15.628906-32.050781-.140624-.140625-.320312-.238281-.480468-.355469l-67.566406-83.746094" fill="#fff"/><path d="m289.167969 340.855469c-3.359375 0-6.328125-1.03125-8.667969-3.363281-.125-.128907-.292969-.316407-.453125-.515626l-121.867187-98.320312c-1.507813-1.214844-2.425782-3.015625-2.53125-4.949219-.101563-1.933593.617187-3.820312 1.992187-5.191406l71.21875-71.21875c2.667969-2.664063 6.988281-2.664063 9.652344 0 2.667969 2.667969 2.667969 6.988281 0 9.652344l-65.84375 65.851562 116.589843 94.070313c.140626.113281.28125.234375.40625.355468 3.148438-.179687 12.320313-4.457031 22.886719-15.015624 10.574219-10.574219 14.847657-19.757813 15.019531-22.898438-.132812-.132812-.25-.265625-.359374-.394531l-67.566407-83.746094c-2.367187-2.933594-1.90625-7.234375 1.027344-9.601563 2.941406-2.363281 7.242187-1.90625 9.601563 1.027344l67.078124 83.140625c.203126.164063.382813.320313.480469.421875 9.007813 9.007813-1.359375 27.4375-15.625 41.707032-10.566406 10.5625-23.417969 18.988281-33.039062 18.988281zm0 0" fill="#602f75"/><path d="m144.976562 9.472656-135.160156 135.160156s146.382813 97.445313 147.023438 98.085938c6.351562 6.347656 30.800781-7.804688 54.609375-31.617188 23.808593-23.8125 37.964843-48.257812 31.617187-54.605468-.644531-.640625-98.089844-147.023438-98.089844-147.023438zm0 0" fill="#00e7ff"/><path d="m161.140625 251.046875c-3.480469 0-6.367187-1.007813-8.628906-3.03125-6.386719-4.398437-98.03125-65.449219-146.472657-97.699219-1.707031-1.132812-2.8125-2.972656-3.011718-5.011718-.203125-2.03125.519531-4.050782 1.964844-5.5l135.160156-135.160157c1.445312-1.449219 3.464844-2.179687 5.5-1.964843 2.039062.203124 3.875 1.308593 5.007812 3.011718 32.25 48.445313 93.300782 140.089844 97.707032 146.476563 5.074218 5.6875 3.765624 15.269531-3.894532 28.503906-6.257812 10.8125-16.273437 23.335937-28.199218 35.257813-11.917969 11.921874-24.4375 21.9375-35.257813 28.199218-7.960937 4.609375-14.609375 6.917969-19.875 6.917969zm-.054687-13.625c4.679687.714844 23.378906-8.988281 45.535156-31.144531 22.164062-22.164063 31.773437-40.863282 31.144531-45.539063-1.953125-2.6875-13.117187-19.285156-93.851563-140.546875l-123.371093 123.375c121.285156 80.75 137.863281 91.898438 140.542969 93.855469zm0 0" fill="#602f75"/><path d="m146.207031 11.921875c-14.707031-14.707031-56.609375 3.355469-93.597656 40.34375-36.988281 36.984375-55.046875 78.890625-40.339844 93.597656 14.703125 14.707031 56.609375-3.355469 93.597657-40.339843 36.988281-36.988282 55.046874-78.894532 40.339843-93.601563zm0 0" fill="#ffe600"/><path d="m26.761719 157.90625c-7.695313 0-14.328125-2.222656-19.320313-7.214844-9.226562-9.222656-9.460937-25.554687-.652344-45.972656 7.953126-18.453125 22.511719-38.796875 40.996094-57.28125 18.488282-18.488281 38.828125-33.046875 57.28125-41 20.433594-8.808594 36.753906-8.566406 45.976563.65625 20.433593 20.429688-5.542969 68.445312-40.347657 103.253906-26.300781 26.300782-60.148437 47.558594-83.933593 47.558594zm104.90625-144.289062c-5.652344 0-12.949219 1.804687-21.195313 5.359374-16.90625 7.285157-35.738281 20.824219-53.03125 38.117188-17.292968 17.292969-30.835937 36.125-38.121094 53.027344-6.246093 14.503906-7.078124 26.0625-2.226562 30.917968 4.859375 4.859376 16.414062 4.023438 30.914062-2.230468 16.90625-7.289063 35.738282-20.820313 53.03125-38.113282 17.292969-17.292968 30.828126-36.128906 38.113282-53.03125 6.253906-14.503906 7.085937-26.058593 2.234375-30.914062-2.09375-2.09375-5.433594-3.132812-9.71875-3.132812zm0 0" fill="#602f75"/><g fill="#ea3457"><path d="m122.347656 35.78125c-6.347656-6.347656-30.796875 7.808594-54.605468 31.617188-23.808594 23.808593-37.964844 48.257812-31.613282 54.605468 6.347656 6.351563 30.796875-7.804687 54.605469-31.613281 23.808594-23.8125 37.964844-48.257813 31.613281-54.609375zm0 0"/><path d="m40.464844 130.355469c-3.558594 0-6.691406-1.050781-9.164063-3.519531-15.859375-15.871094 26.707031-59.359376 31.613281-64.265626s48.386719-47.46875 64.265626-31.617187v.003906c15.859374 15.871094-26.710938 59.351563-31.617188 64.257813-4.140625 4.144531-35.789062 35.140625-55.097656 35.140625zm76.589844-89.273438c-6.007813.636719-23.726563 10.382813-44.488282 31.140625-20.753906 20.757813-30.5 38.476563-31.140625 44.480469 6.007813-.636719 23.722657-10.378906 44.484375-31.140625 20.757813-20.753906 30.503906-38.472656 31.144532-44.480469zm1.273437.039063h.066406zm0 0"/></g></svg>