<svg height="422pt" viewBox="-13 0 422 422.54677" width="422pt" xmlns="http://www.w3.org/2000/svg"><path d="m389.863281 330.699219v-127.960938c0-48.265625-38.664062-87.390625-86.359375-87.390625h-219.257812c-27.785156 0-50.3125 22.792969-50.3125 50.914063v163.914062l82.390625 44.585938 273.539062-.121094" fill="#00e7ff"/><path d="m116.324219 381.585938c-1.132813 0-2.246094-.28125-3.246094-.820313l-82.390625-44.589844c-2.203125-1.191406-3.578125-3.496093-3.578125-6.003906v-163.910156c0-31.835938 25.632813-57.742188 57.136719-57.742188h219.257812c51.382813 0 93.1875 42.269531 93.1875 94.21875v127.960938c0 3.769531-3.054687 6.824219-6.824218 6.824219-3.773438 0-6.828126-3.054688-6.828126-6.824219v-127.960938c0-44.421875-35.679687-80.566406-79.535156-80.566406h-219.257812c-23.976563 0-43.484375 19.777344-43.484375 44.089844v159.84375l77.289062 41.828125 271.808594-.121094h.003906c3.769531 0 6.824219 3.054688 6.824219 6.824219s-3.050781 6.832031-6.820312 6.832031l-273.539063.117188zm0 0" fill="#602f75"/><path d="m116.324219 374.761719-82.390625-44.0625v38.175781l81.292968 46.136719h274.636719v-40.371094zm0 0" fill="#fff"/><path d="m389.863281 421.839844h-274.636719c-1.179687 0-2.34375-.308594-3.371093-.890625l-81.289063-46.136719c-2.136718-1.214844-3.457031-3.480469-3.457031-5.9375v-38.175781c0-2.398438 1.261719-4.621094 3.316406-5.855469 2.0625-1.238281 4.617188-1.300781 6.730469-.164062l80.878906 43.253906 271.824219-.121094h.003906c1.808594 0 3.546875.722656 4.824219 2 1.28125 1.28125 2 3.019531 2 4.828125v40.371094c.003906 3.773437-3.054688 6.828125-6.824219 6.828125zm-272.835937-13.652344h266.007812v-26.714844l-266.707031.113282h-.003906c-1.121094 0-2.230469-.277344-3.21875-.804688l-72.34375-38.6875v22.804688zm0 0" fill="#602f75"/><path d="m116.324219 422.546875c-3.769531 0-6.824219-3.058594-6.824219-6.828125v-232.105469c-1.167969-32.445312-4.804688-55.601562-41.121094-55.839843-3.769531-.027344-6.804687-3.101563-6.78125-6.875.027344-3.75 3.078125-6.777344 6.828125-6.777344h.046875c52.207032.34375 53.746094 43.480468 54.675782 69.25l.003906 232.347656c0 3.769531-3.054688 6.828125-6.828125 6.828125zm0 0" fill="#602f75"/><path d="m33.933594 227.164062 82.390625 45.195313h273.066406v-47.785156h-273.066406l-82.390625-38.605469zm0 0" fill="#ea3457"/><path d="m389.390625 279.1875h-273.066406c-1.144531 0-2.273438-.289062-3.28125-.839844l-82.390625-45.195312c-2.1875-1.199219-3.542969-3.496094-3.542969-5.988282v-41.195312c0-2.339844 1.195313-4.507812 3.164063-5.761719 1.96875-1.257812 4.445312-1.410156 6.5625-.421875l81.011718 37.960938h271.546875c3.769531 0 6.828125 3.058594 6.828125 6.828125v47.785156c-.003906 3.769531-3.058594 6.828125-6.832031 6.828125zm-271.3125-13.652344h264.488281v-34.136718h-266.238281c-1 0-1.992187-.21875-2.898437-.644532l-72.664063-34.050781v26.417969zm0 0" fill="#602f75"/><path d="m177.765625 115.347656 22.101563 34.445313c12.144531 18.214843 18.625 39.617187 18.625 61.511719v83.011718c0 5.535156 2.199218 10.847656 6.113281 14.757813l12.082031 12.085937c8.148438 8.148438 21.367188 8.148438 29.519531 0l12.082031-12.085937c3.914063-3.914063 8.703126-9.222657 8.703126-14.757813v-87.226562c0-19.242188-7.597657-38.152344-17.121094-54.875l-17.011719-36.867188zm0 0" fill="#ffe600"/><path d="m251.445312 334.085938c-7.09375 0-14.183593-2.699219-19.585937-8.097657l-12.082031-12.085937c-5.234375-5.234375-8.117188-12.191406-8.117188-19.585938v-83.015625c0-20.613281-6.042968-40.570312-17.472656-57.726562l-22.167969-34.542969c-1.347656-2.097656-1.441406-4.769531-.242187-6.957031 1.195312-2.191407 3.492187-3.554688 5.988281-3.554688h75.09375c2.664063 0 5.082031 1.546875 6.195313 3.96875l17.019531 36.867188c11.855469 20.773437 17.746093 39.824219 17.746093 57.734375v87.226562c0 7.820313-5.410156 14.289063-10.703124 19.585938l-12.085938 12.085937c-5.398438 5.398438-12.492188 8.097657-19.585938 8.097657zm-61.1875-211.914063 15.355469 23.929687c12.867188 19.304688 19.703125 41.882813 19.703125 65.199219v83.015625c0 3.75 1.464844 7.28125 4.117188 9.933594l12.078125 12.082031c5.480469 5.472657 14.390625 5.472657 19.867187 0l12.085938-12.082031c1.65625-1.660156 6.703125-6.710938 6.703125-9.933594v-87.226562c0-15.476563-5.304688-32.320313-16.222657-51.5l-15.449218-33.417969zm0 0" fill="#602f75"/><g fill="#ea3457"><path d="m198.246094 74.386719c-3.769532 0-6.828125-3.054688-6.828125-6.828125v-60.730469c0-3.773437 3.058593-6.828125 6.828125-6.828125 3.769531 0 6.828125 3.054688 6.828125 6.828125v60.730469c0 3.773437-3.058594 6.828125-6.828125 6.828125zm0 0"/><path d="m277.335938 86.15625c-1.148438 0-2.3125-.289062-3.378907-.898438-3.273437-1.871093-4.410156-6.042968-2.539062-9.316406l26.363281-46.136718c1.875-3.273438 6.03125-4.40625 9.3125-2.539063 3.273438 1.867187 4.410156 6.039063 2.539062 9.3125l-26.363281 46.140625c-1.261719 2.203125-3.5625 3.4375-5.933593 3.4375zm0 0"/><path d="m369.617188 112.523438c-1.742188 0-3.492188-.667969-4.824219-2-2.667969-2.664063-2.667969-6.988282 0-9.652344l19.773437-19.777344c2.664063-2.664062 6.988282-2.664062 9.652344 0 2.667969 2.664062 2.667969 6.988281 0 9.652344l-19.773438 19.777344c-1.332031 1.332031-3.078124 2-4.828124 2zm0 0"/><path d="m119.15625 86.15625c-2.371094 0-4.671875-1.234375-5.933594-3.441406l-26.363281-46.136719c-1.871094-3.273437-.734375-7.445313 2.539063-9.3125 3.28125-1.867187 7.449218-.734375 9.316406 2.539063l26.359375 46.136718c1.871093 3.273438.734375 7.445313-2.539063 9.316406-1.066406.609376-2.234375.898438-3.378906.898438zm0 0"/><path d="m26.871094 112.523438c-1.746094 0-3.492188-.667969-4.824219-2l-19.773437-19.777344c-2.667969-2.664063-2.667969-6.988282 0-9.652344 2.664062-2.664062 6.988281-2.664062 9.652343 0l19.773438 19.777344c2.664062 2.664062 2.664062 6.992187 0 9.652344-1.332031 1.332031-3.078125 2-4.828125 2zm0 0"/></g><path d="m252.859375 292.839844c-3.769531 0-6.828125-3.054688-6.828125-6.828125v-27.304688c0-3.769531 3.058594-6.828125 6.828125-6.828125s6.828125 3.058594 6.828125 6.828125v27.304688c0 3.773437-3.058594 6.828125-6.828125 6.828125zm0 0" fill="#602f75"/></svg>