<svg height="403pt" viewBox="-4 0 403 403.14089" width="403pt" xmlns="http://www.w3.org/2000/svg"><path d="m354.609375 271.410156c0 50.898438-41.261719 92.160156-92.160156 92.160156-50.898438 0-92.160157-41.261718-92.160157-92.160156 0-50.898437 41.261719-92.160156 92.160157-92.160156 50.898437 0 92.160156 41.261719 92.160156 92.160156zm0 0" fill="#ffe600"/><path d="m296.492188 250.558594-.503907-1.84375-55.152343 55.152344 1.847656.503906c13.640625 3.726562 25.914062 11.320312 35.332031 21.867187l57.398437 60.5c11.898438 12.539063 31.796876 12.800781 44.023438.578125 12.222656-12.226562 11.960938-32.125-.578125-44.023437l-60.496094-57.398438" fill="#00e7ff"/><path d="m357.722656 403.140625c-.171875 0-.339844 0-.511718-.003906-10.214844-.132813-19.714844-4.289063-26.75-11.699219l-57.398438-60.496094c-8.695312-9.734375-19.773438-16.597656-32.179688-19.988281l-1.839843-.5c-2.347657-.640625-4.179688-2.484375-4.804688-4.835937-.621093-2.351563.050781-4.859376 1.773438-6.578126l55.152343-55.148437c1.71875-1.722656 4.246094-2.394531 6.585938-1.769531 2.351562.625 4.191406 2.457031 4.824219 4.8125l.5 1.847656c.988281 3.640625-1.160157 7.386719-4.796875 8.371094-.433594.117187-.859375.1875-1.289063.21875l-43.472656 43.46875c11.300781 4.585937 21.40625 11.6875 29.59375 20.855468l57.261719 60.34375c4.472656 4.71875 10.519531 7.363282 17.019531 7.449219h.324219c6.382812 0 12.367187-2.480469 16.894531-7 4.597656-4.597656 7.078125-10.710937 7-17.214843-.085937-6.503907-2.734375-12.550782-7.453125-17.027344l-60.492188-57.398438c-2.734374-2.597656-2.847656-6.917968-.253906-9.652344 2.59375-2.734374 6.921875-2.851562 9.652344-.253906l60.496094 57.402344c7.410156 7.03125 11.5625 16.535156 11.703125 26.753906.132812 10.21875-3.773438 19.820313-11 27.046875-7.105469 7.101563-16.511719 10.996094-26.539063 10.996094zm0 0" fill="#602f75"/><path d="m234.621094 30.101562-82.910156-23.285156 23.289062 82.910156 16.179688-16.179687 76.648437 76.652344c13.328125 13.328125 13.328125 34.941406 0 48.269531s-34.941406 13.328125-48.273437 0l-105.613282-105.613281 19.3125-19.308594-82.910156-23.289063 23.289062 82.910157 16.175782-16.175781 105.613281 105.613281c13.328125 13.328125 13.328125 34.941406 0 48.269531s-34.941406 13.328125-48.269531 0l-76.652344-76.648438 19.308594-19.308593-82.90625-23.289063 23.289062 82.910156 16.175782-16.175781 97.320312 97.316407c26.230469 26.234374 68.761719 26.234374 94.992188 0l73.957031-73.957032c26.230469-26.230468 26.230469-68.761718 0-94.992187l-97.320313-97.320313zm0 0" fill="#ea3457"/><path d="m191.179688 342.179688c-19.769532 0-38.355469-7.695313-52.328126-21.671876l-92.484374-92.488281-11.355469 11.347657c-1.707031 1.714843-4.191407 2.394531-6.550781 1.777343-2.347657-.613281-4.195313-2.425781-4.847657-4.757812l-23.289062-82.910157c-.667969-2.375 0-4.929687 1.746093-6.671874 1.753907-1.746094 4.3125-2.410157 6.671876-1.746094l82.90625 23.289062c2.335937.65625 4.148437 2.5 4.761718 4.84375.613282 2.34375-.066406 4.84375-1.78125 6.554688l-14.476562 14.484375 71.820312 71.824219c5.15625 5.152343 12.019532 7.996093 19.3125 7.996093 7.289063 0 14.144532-2.839843 19.304688-7.996093 5.160156-5.160157 8-12.019532 8-19.3125 0-7.292969-2.839844-14.148438-8-19.308594l-100.789063-100.78125-11.34375 11.347656c-1.707031 1.714844-4.199219 2.394531-6.554687 1.777344-2.347656-.609375-4.1875-2.425782-4.847656-4.757813l-23.292969-82.910156c-.667969-2.375 0-4.925781 1.746093-6.671875 1.746094-1.742188 4.308594-2.398438 6.675782-1.746094l82.910156 23.289063c2.335938.65625 4.148438 2.5 4.761719 4.84375s-.066407 4.839843-1.78125 6.554687l-14.480469 14.484375 100.789062 100.785157c5.160157 5.15625 12.011719 8 19.304688 8s14.148438-2.839844 19.308594-8c5.15625-5.160157 8-12.015626 8-19.308594 0-7.292969-2.839844-14.148438-8-19.308594l-71.820313-71.824219-11.355469 11.351563c-1.710937 1.707031-4.191406 2.386718-6.550781 1.773437-2.347656-.609375-4.195312-2.421875-4.847656-4.753906l-23.289063-82.910156c-.667968-2.378907 0-4.929688 1.746094-6.675781 1.753906-1.742188 4.308594-2.398438 6.675782-1.742188l82.910156 23.289062c2.335937.65625 4.148437 2.5 4.761718 4.84375.613282 2.347657-.066406 4.839844-1.78125 6.554688l-14.484374 14.480469 92.492187 92.492187c13.980469 13.972656 21.671875 32.554688 21.671875 52.324219 0 19.761719-7.691406 38.34375-21.671875 52.320313l-73.960937 73.957031c-13.96875 13.972656-32.546876 21.667969-52.3125 21.667969zm-144.816407-130.644532c1.746094 0 3.496094.667969 4.828125 2l97.3125 97.316406c11.402344 11.398438 26.554688 17.675782 42.675782 17.675782 16.117187 0 31.269531-6.277344 42.664062-17.675782l73.960938-73.957031c11.402343-11.398437 17.671874-26.550781 17.671874-42.667969 0-16.121093-6.273437-31.273437-17.671874-42.671874l-97.320313-97.316407c-1.277344-1.28125-2-3.019531-2-4.828125s.722656-3.546875 2-4.828125l11.066406-11.0625-59.980469-16.84375 16.847657 59.976563 7.933593-7.929688c2.664063-2.664062 6.984376-2.664062 9.652344 0l76.644532 76.648438c7.742187 7.738281 12 18.027344 12 28.964844 0 10.941406-4.257813 21.226562-12 28.964843-7.730469 7.734375-18.019532 11.996094-28.960938 11.996094-10.9375 0-21.226562-4.261719-28.960938-11.996094l-105.609374-105.617187c-2.667969-2.664063-2.667969-6.988282 0-9.652344l11.058593-11.0625-59.980469-16.847656 16.855469 59.972656 7.925781-7.929688c2.5625-2.558593 7.09375-2.558593 9.652344 0l105.613282 105.613282c7.742187 7.738281 12 18.023437 12 28.964844 0 10.941406-4.257813 21.226562-12 28.964843-7.730469 7.734375-18.019532 11.996094-28.957032 11.996094-10.941406 0-21.226562-4.261719-28.96875-11.996094l-76.648437-76.652343c-2.664063-2.664063-2.664063-6.984376 0-9.652344l11.0625-11.0625-59.976563-16.847656 16.847656 59.980468 7.933594-7.929687c1.335938-1.339844 3.082032-2.007813 4.828125-2.007813zm0 0" fill="#602f75"/><path d="m299.996094 73.4375c0 20.734375-16.808594 37.546875-37.546875 37.546875-20.734375 0-37.546875-16.8125-37.546875-37.546875 0-20.738281 16.8125-37.546875 37.546875-37.546875 20.738281 0 37.546875 16.808594 37.546875 37.546875zm0 0" fill="#ffe600"/></svg>