<svg height="426pt" viewBox="0 -56 426.01884 426" width="426pt" xmlns="http://www.w3.org/2000/svg"><path d="m371.757812 252.597656h-320.851562c-22.625 0-40.960938-18.335937-40.960938-40.957031 0-22.625 18.335938-40.960937 40.960938-40.960937h320.851562c22.621094 0 40.960938 18.335937 40.960938 40.960937 0 22.621094-18.339844 40.957031-40.960938 40.957031zm0 0" fill="#00e7ff"/><path d="m371.757812 259.425781h-320.851562c-26.351562 0-47.789062-21.441406-47.789062-47.785156 0-26.347656 21.4375-47.789063 47.789062-47.789063h320.851562c26.347657 0 47.785157 21.441407 47.785157 47.789063 0 26.34375-21.4375 47.785156-47.785157 47.785156zm-320.851562-81.921875c-18.820312 0-34.136719 15.316406-34.136719 34.136719 0 18.816406 15.316407 34.132813 34.136719 34.132813h320.851562c18.820313 0 34.132813-15.316407 34.132813-34.132813 0-18.820313-15.3125-34.136719-34.132813-34.136719zm0 0" fill="#00e7ff"/><path d="m317.144531 6.839844s-55.59375 55.824218-74.175781 89.121094l34.78125 16.875s25.742188-85.515626 39.394531-105.996094zm0 0" fill="#ea3457"/><path d="m277.75 119.664062c-1.023438 0-2.042969-.226562-2.980469-.683593l-34.78125-16.882813c-1.691406-.820312-2.964843-2.300781-3.53125-4.09375-.566406-1.785156-.367187-3.734375.550781-5.371094 18.824219-33.726562 73.003907-88.304687 75.300782-90.613281 2.476562-2.488281 6.433594-2.695312 9.160156-.464843 2.714844 2.226562 3.304688 6.152343 1.355469 9.070312-10.734375 16.101562-31.460938 80.667969-38.539063 104.179688-.578125 1.914062-1.964844 3.480468-3.796875 4.289062-.875.378906-1.808593.570312-2.738281.570312zm-25.089844-26.59375 20.898438 10.148438c3.976562-12.835938 12.394531-39.335938 21.035156-62.5-14.601562 16.171875-31.636719 36.226562-41.933594 52.351562zm0 0" fill="#602f75"/><path d="m317.144531 307.210938s-55.59375-53.898438-74.175781-87.191407l34.78125-16.875s25.742188 83.585938 39.394531 104.066407zm0 0" fill="#ea3457"/><path d="m317.144531 314.039062c-1.714843 0-3.433593-.648437-4.753906-1.925781-2.296875-2.230469-56.527344-54.988281-75.382813-88.769531-.917968-1.640625-1.117187-3.585938-.550781-5.378906.566407-1.785156 1.839844-3.265625 3.53125-4.085938l34.78125-16.875c1.800781-.875 3.882813-.914062 5.703125-.121094 1.824219.796876 3.210938 2.347657 3.800782 4.253907.253906.828125 25.601562 82.867187 38.554687 102.289062 1.933594 2.90625 1.367187 6.796875-1.3125 9.03125-1.273437 1.054688-2.824219 1.582031-4.371094 1.582031zm-64.472656-91.140624c10.355469 16.113281 27.523437 35.835937 42.171875 51.59375-8.695312-22.828126-17.214844-49.046876-21.242188-61.746094zm0 0" fill="#602f75"/><path d="m121.765625 101.691406s12.3125-50.429687 32.835937-50.429687c0 0 20.523438 16.421875 41.050782 16.421875 20.523437 0 49.257812 45.152344 49.257812 45.152344zm0 0" fill="#ffe600"/><path d="m244.910156 119.664062c-.203125 0-.40625-.007812-.613281-.027343l-123.148437-11.144531c-1.980469-.179688-3.777344-1.214844-4.9375-2.835938-1.15625-1.609375-1.546876-3.652344-1.078126-5.585938 2.269532-9.285156 14.832032-55.632812 39.472657-55.632812 1.542969 0 3.050781.527344 4.257812 1.492188.1875.148437 18.96875 14.929687 36.789063 14.929687 23.101562 0 49.882812 40.246094 55.019531 48.3125 1.394531 2.199219 1.421875 4.992187.070313 7.21875-1.246094 2.046875-3.464844 3.273437-5.832032 3.273437zm-114.371094-24.03125 100.386719 9.085938c-11.328125-14.988281-26.183593-30.207031-35.273437-30.207031-18.601563 0-36.578125-11.578125-42.929688-16.132813-8.402344 2.527344-17.203125 21.179688-22.183594 37.253906zm0 0" fill="#602f75"/><path d="m417.152344 236.804688c-21.304688-11.0625-31.390625-36.808594-45.28125-52.269532-9.660156-10.753906-25.175782-10.011718-30.824219-23.144531 3.402344-13.207031 19.152344-12.65625 30.605469-24.640625 13.785156-14.425781 24.886718-41.140625 47.542968-54.222656-29.199218 51.578125-29.867187 103.003906-2.042968 154.277344zm0 0" fill="#fff"/><path d="m417.148438 243.632812c-1.070313 0-2.148438-.253906-3.144532-.765624-15.695312-8.15625-25.691406-23.152344-34.507812-36.386719-4.300782-6.445313-8.359375-12.542969-12.703125-17.382813-3.285157-3.652344-7.746094-5.757812-12.46875-7.984375-7.191407-3.386719-15.335938-7.226562-19.550781-17.023437-.601563-1.390625-.71875-2.941406-.339844-4.40625 2.734375-10.605469 11.128906-14.828125 18.539062-18.546875 4.769532-2.398438 9.707032-4.878907 13.746094-9.105469 4.40625-4.605469 8.71875-10.886719 13.292969-17.53125 9.207031-13.394531 19.640625-28.574219 35.769531-37.886719 2.679688-1.539062 6.039062-1.09375 8.21875 1.066407 2.183594 2.167968 2.648438 5.53125 1.132812 8.207031-28.210937 49.832031-28.859374 98.132812-1.984374 147.664062 1.429687 2.636719.972656 5.894531-1.128907 8.035157-1.3125 1.339843-3.082031 2.046874-4.871093 2.046874zm-68.628907-82.734374c2.269531 3.324218 5.957031 5.191406 11.625 7.867187 5.476563 2.578125 11.679688 5.503906 16.808594 11.210937 5.003906 5.566407 9.328125 12.058594 13.902344 18.925782 2.214843 3.328125 4.449219 6.675781 6.773437 9.925781-10.417968-32.132813-10.175781-64.472656.730469-96.699219-2.4375 3.320313-4.777344 6.726563-7.09375 10.101563-4.890625 7.113281-9.511719 13.832031-14.675781 19.234375-5.671875 5.933594-12.222656 9.226562-17.484375 11.871094-5.660157 2.84375-8.949219 4.609374-10.585938 7.5625zm0 0" fill="#602f75"/><path d="m168.363281 225.917969c66.878907 5.503906 132.03125-17.859375 195.585938-67.929688-81.5625-64.257812-165.753907-84.574219-252.847657-56.296875 14.316407 16.828125 22.976563 38.625 22.976563 62.457032 0 19.328124-5.707031 37.3125-15.496094 52.40625" fill="#fff"/><path d="m187.265625 233.523438c-6.488281 0-12.972656-.265626-19.460937-.800782-3.757813-.3125-6.554688-3.605468-6.242188-7.363281.304688-3.761719 3.578125-6.535156 7.363281-6.246094 61.5625 5.125 123.375-15.488281 183.847657-61.121093-75.433594-56.925782-152.824219-74.597657-230.253907-52.640626 11.914063 17.199219 18.382813 37.726563 18.382813 58.792969 0 19.972657-5.738282 39.378907-16.59375 56.121094-2.058594 3.171875-6.28125 4.066406-9.441406 2.015625-3.164063-2.054688-4.066407-6.28125-2.015626-9.441406 9.417969-14.519532 14.398438-31.359375 14.398438-48.691406 0-21.246094-7.582031-41.855469-21.351562-58.027344-1.472657-1.742188-1.988282-4.09375-1.367188-6.289063.621094-2.191406 2.296875-3.925781 4.460938-4.632812 87.539062-28.425781 174.746093-9.097657 259.179687 57.433593 1.644531 1.292969 2.601563 3.265626 2.601563 5.359376s-.957032 4.066406-2.601563 5.363281c-59.175781 46.617187-119.945313 70.167969-180.90625 70.167969zm0 0" fill="#602f75"/><path d="m111.101562 101.691406c-34.300781 11.132813-69.054687 29.796875-104.273437 56.296875 37.785156 28.429688 75.027344 47.792969 111.753906 58.566407 9.789063-15.09375 15.496094-33.078126 15.496094-52.410157 0-23.828125-8.660156-45.625-22.976563-62.453125zm0 0" fill="#ffe600"/><g fill="#602f75"><path d="m118.582031 223.378906c-.640625 0-1.285156-.085937-1.921875-.273437-37.664062-11.046875-76-31.113281-113.9375-59.660157-1.714844-1.285156-2.722656-3.308593-2.722656-5.453124 0-2.144532 1.007812-4.164063 2.722656-5.453126 35.429688-26.660156 71.183594-45.953124 106.273438-57.339843 2.613281-.859375 5.511718-.039063 7.304687 2.066406 15.867188 18.648437 24.601563 42.402344 24.601563 66.882813 0 19.972656-5.738282 39.378906-16.59375 56.121093-1.28125 1.976563-3.457032 3.109375-5.726563 3.109375zm-100.246093-65.386718c32.492187 23.445312 65.113281 40.398437 97.171874 50.492187 7.699219-13.484375 11.746094-28.710937 11.746094-44.339844 0-19.71875-6.53125-38.886719-18.480468-54.480469-29.800782 10.253907-60.167969 26.480469-90.4375 48.328126zm0 0"/><path d="m105.519531 146.785156c0 5.65625-4.585937 10.238282-10.242187 10.238282s-10.238282-4.582032-10.238282-10.238282 4.582032-10.238281 10.238282-10.238281 10.242187 4.582031 10.242187 10.238281zm0 0"/></g></svg>