<svg height="384pt" viewBox="0 0 384 384.21738" width="384pt" xmlns="http://www.w3.org/2000/svg"><path d="m311.097656 199.796875c0 60.324219-48.902344 109.226563-109.226562 109.226563-60.324219 0-109.226563-48.902344-109.226563-109.226563s48.902344-109.226563 109.226563-109.226563c60.324218 0 109.226562 48.902344 109.226562 109.226563zm0 0" fill="#00e7ff"/><path d="m201.871094 315.851562c-63.992188 0-116.050782-52.058593-116.050782-116.054687 0-63.992187 52.058594-116.050781 116.050782-116.050781 63.996094 0 116.054687 52.058594 116.054687 116.050781 0 63.996094-52.058593 116.054687-116.054687 116.054687zm0-218.453124c-56.464844 0-102.398438 45.9375-102.398438 102.398437 0 56.464844 45.933594 102.402344 102.398438 102.402344 56.46875 0 102.402344-45.9375 102.402344-102.402344 0-56.460937-45.933594-102.398437-102.402344-102.398437zm0 0" fill="#00e7ff"/><path d="m223.144531 206.730469 153.464844 153.46875-17.191406 17.191406-332.285157-332.285156 17.195313-17.191407 133.113281 133.117188" fill="#ea3457"/><path d="m359.417969 384.21875c-1.746094 0-3.492188-.667969-4.824219-2l-332.289062-332.285156c-1.277344-1.28125-2-3.015625-2-4.824219 0-1.8125.722656-3.546875 2-4.828125l17.195312-17.191406c2.664062-2.667969 6.984375-2.667969 9.652344 0l133.113281 133.113281c2.664063 2.664063 2.664063 6.984375 0 9.652344-2.667969 2.664062-6.988281 2.664062-9.652344 0l-128.289062-128.289063-7.539063 7.542969 322.632813 322.628906 7.539062-7.539062-148.640625-148.640625c-2.664062-2.667969-2.664062-6.988282 0-9.652344 2.667969-2.667969 6.988282-2.667969 9.65625 0l153.464844 153.464844c2.667969 2.667968 2.667969 6.988281 0 9.652344l-17.191406 17.195312c-1.335938 1.332031-3.082032 2-4.828125 2zm0 0" fill="#602f75"/><path d="m59.628906 49.917969c66.449219-3.316407 134.699219 39.492187 175.691406 71.195312l3.121094 1.039063c10.921875 3.640625 22.960938.796875 31.101563-7.34375l16.804687-16.804688c11.871094-11.871094 11.871094-31.113281 0-42.980468-62.335937-62.335938-162.316406-64.015626-226.71875-5.105469zm0 0" fill="#fff"/><path d="m248.132812 130.5625c-3.953124 0-7.949218-.636719-11.855468-1.933594l-3.117188-1.042968c-.726562-.242188-1.40625-.605469-2.015625-1.074219-43.398437-33.5625-108.300781-72.785157-171.179687-69.777344-2.871094.09375-5.53125-1.53125-6.640625-4.183594-1.105469-2.660156-.433594-5.726562 1.695312-7.667969 67.605469-61.839843 171.339844-59.503906 236.152344 5.3125 7.035156 7.03125 10.90625 16.378907 10.90625 26.316407 0 9.945312-3.871094 19.289062-10.90625 26.320312l-16.800781 16.808594c-7.125 7.121094-16.550782 10.921875-26.238282 10.921875zm-9.558593-15.5625 2.027343.675781c8.496094 2.832031 17.757813.660157 24.117188-5.695312l16.800781-16.800781c4.453125-4.453126 6.910157-10.371094 6.910157-16.667969s-2.457032-12.210938-6.910157-16.664063c-55.230469-55.230468-141.179687-61.15625-202.984375-16.535156 60.125 4.195312 119.175782 40.230469 160.039063 71.6875zm0 0" fill="#602f75"/><path d="m59.628906 49.917969c-1.816406 1.660156-3.59375 3.386719-5.347656 5.140625l120.3125 120.3125 6.96875 2.324218c11.535156 3.84375 24.253906.84375 32.847656-7.753906l11.234375-11.234375c10.414063-10.414062 12.40625-26.582031 4.828125-39.210937l4.847656 1.613281c-40.992187-31.699219-109.242187-74.507813-175.691406-71.191406zm0 0" fill="#ffe600"/><path d="m191.800781 186.195312c-4.132812 0-8.3125-.664062-12.402343-2.023437l-6.964844-2.320313c-1-.332031-1.921875-.898437-2.667969-1.652343l-120.3125-120.3125c-1.28125-1.277344-2-3.015625-2-4.828125s.71875-3.550782 2.003906-4.832032c1.828125-1.820312 3.675781-3.617187 5.5625-5.347656 1.167969-1.070312 2.679688-1.703125 4.265625-1.777344 66.972656-3.316406 134.996094 37.636719 180.207032 72.609376 2.640624 2.035156 3.421874 5.675781 1.847656 8.613281-.25.460937-.539063.890625-.875 1.273437 3.699218 13.269532.132812 27.808594-9.992188 37.9375l-11.234375 11.234375c-7.453125 7.449219-17.304687 11.425781-27.4375 11.425781zm-13.519531-16.789062 5.4375 1.8125c9.128906 3.042969 19.054688.710938 25.867188-6.101562l11.234374-11.234376c8.210938-8.214843 9.777344-20.914062 3.800782-30.875-.394532-.652343-.667969-1.351562-.820313-2.074218-41.453125-30.894532-99.574219-64.371094-156.710937-64.371094-.546875 0-1.09375.003906-1.648438.003906zm0 0" fill="#602f75"/><path d="m49.136719 60.445312c-1.046875 1.140626-2.113281 2.253907-3.136719 3.429688-56.6875 65.433594-50.5625 164.449219 10.65625 225.667969 10.535156 10.535156 27.617188 10.535156 38.152344 0l13.28125-13.28125c10.765625-10.765625 15.035156-26.234375 11.6875-40.882813-31.640625-41.0625-73.921875-108.878906-70.640625-174.933594zm0 0" fill="#fff"/><path d="m75.734375 304.25c-8.660156 0-17.316406-3.292969-23.910156-9.882812-64.460938-64.460938-69.277344-167.664063-10.984375-234.960938.703125-.820312 1.4375-1.605469 2.164062-2.390625l1.082032-1.164063c1.941406-2.132812 5.007812-2.820312 7.667968-1.710937 2.660156 1.105469 4.339844 3.765625 4.199219 6.644531-3.105469 62.566406 35.933594 127.214844 69.230469 170.425782.601562.78125 1.027344 1.683593 1.246094 2.648437 3.929687 17.179687-1.125 34.835937-13.511719 47.234375l-13.28125 13.273438c-6.589844 6.589843-15.246094 9.882812-23.902344 9.882812zm-33.207031-224.972656c-44.300782 61.726562-37.066406 149.414062 18.953125 205.4375 7.851562 7.851562 20.652343 7.851562 28.503906 0l13.28125-13.277344c8.707031-8.714844 12.445313-21.007812 10.152344-33.136719-31.152344-40.675781-66.726563-99.332031-70.890625-159.023437zm0 0" fill="#602f75"/><path d="m49.136719 60.445312c-3.28125 66.054688 39 133.871094 70.640625 174.933594-.316406-1.378906-.609375-2.765625-1.058594-4.125l6.96875 2.320313c11.53125 3.847656 24.25.84375 32.847656-7.753907l11.234375-11.230468c10.414063-10.417969 12.40625-26.585938 4.824219-39.214844l-120.3125-120.316406c-1.75 1.746094-3.460938 3.542968-5.144531 5.386718zm0 0" fill="#ffe600"/><path d="m135.925781 242.074219c-3.941406 0-7.929687-.605469-11.820312-1.835938-.441407.390625-.933594.726563-1.480469.984375-2.878906 1.363282-6.292969.871094-8.253906-1.675781-34.699219-45.035156-75.371094-112.71875-72.058594-179.441406.082031-1.589844.714844-3.101563 1.789062-4.273438 1.75-1.914062 3.539063-3.789062 5.359376-5.605469 2.652343-2.652343 6.980468-2.660156 9.644531.007813l120.3125 120.3125c.394531.394531.742187.835937 1.027343 1.316406 9.210938 15.339844 6.800782 34.894531-5.851562 47.550781l-11.234375 11.230469c-7.453125 7.449219-17.308594 11.429688-27.433594 11.429688zm-15.765625-17.492188c.238282.046875.476563.113281.710938.191407l6.976562 2.324218c9.125 3.046875 19.042969.707032 25.859375-6.109375l11.230469-11.226562c8.027344-8.03125 9.703125-20.339844 4.195312-30.191407l-113.347656-113.347656c-.652344 57.726563 33.28125 116.632813 64.375 158.359375zm0 0" fill="#602f75"/></svg>