<svg height="415pt" viewBox="0 -35 415.03232 415" width="415pt" xmlns="http://www.w3.org/2000/svg"><path d="m395.945312 275.769531c0 26.390625-21.394531 47.785157-47.785156 47.785157s-47.785156-21.394532-47.785156-47.785157 21.394531-47.785156 47.785156-47.785156 47.785156 21.394531 47.785156 47.785156zm0 0" fill="#ea3457"/><path d="m348.160156 330.382812c-30.113281 0-54.613281-24.5-54.613281-54.613281s24.5-54.613281 54.613281-54.613281c30.113282 0 54.613282 24.5 54.613282 54.613281s-24.5 54.613281-54.613282 54.613281zm0-95.574218c-22.585937 0-40.960937 18.375-40.960937 40.960937 0 22.585938 18.375 40.960938 40.960937 40.960938 22.585938 0 40.960938-18.375 40.960938-40.960938 0-22.585937-18.375-40.960937-40.960938-40.960937zm0 0" fill="#ea3457"/><path d="m53.25 193.488281c-.851562-4.425781-1.519531-8.921875-1.976562-13.476562.441406 4.5625 1.125 9.046875 1.976562 13.476562zm0 0" fill="#fff"/><path d="m53.246094 200.316406c-3.207032 0-6.066406-2.269531-6.699219-5.539062-.953125-4.964844-1.632813-9.582032-2.066406-14.109375-.363281-3.746094 2.371093-7.078125 6.117187-7.449219 3.914063-.398438 7.085938 2.367188 7.46875 6.105469.425782 4.261719 1.066406 8.589843 1.890625 12.875.082031.4375.121094.875.121094 1.300781 0 3.207031-2.273437 6.0625-5.53125 6.691406-.441406.085938-.875.125-1.300781.125zm0 0" fill="#602f75"/><path d="m380.15625 165.988281c-18.957031 11.429688-48.53125 32.664063-56.273438 57.820313-11.628906 37.800781-46.523437 52.335937-78.503906 46.523437 0 0-5 22.875-24.847656 40.707031h42.625c80.105469 0 145.046875-64.941406 145.046875-145.050781zm0 0" fill="#00e7ff"/><path d="m263.15625 317.863281h-42.621094c-2.828125 0-5.363281-1.742187-6.375-4.382812-1.011718-2.640625-.292968-5.632813 1.8125-7.519531 17.847656-16.039063 22.695313-36.898438 22.742188-37.105469.804687-3.574219 4.351562-5.878907 7.886718-5.242188 27.292969 4.949219 59.75-6.039062 70.75-41.808593 8.101563-26.3125 36.714844-48.058594 59.28125-61.664063 1.066407-.640625 2.285157-.980469 3.527344-.980469h28.046875c3.773438 0 6.824219 3.058594 6.824219 6.828125.003906 83.742188-68.128906 151.875-151.875 151.875zm-27.070312-13.652343h27.070312c73.925781 0 134.484375-58.34375 138.058594-131.398438h-19.140625c-17.007813 10.4375-44.699219 30.375-51.664063 53.007812-12.5625 40.828126-49.140625 55.253907-80.160156 52.089844-2.128906 6.160156-6.394531 16.160156-14.164062 26.300782zm0 0" fill="#602f75"/><path d="m170.667969 180.195312c0 45.242188-36.679688 81.921876-81.921875 81.921876-45.242188 0-81.917969-36.679688-81.917969-81.921876 0-45.242187 36.675781-81.917968 81.917969-81.917968 45.242187 0 81.921875 36.675781 81.921875 81.917968zm0 0" fill="#ffe600"/><path d="m88.746094 268.941406c-48.933594 0-88.746094-39.808594-88.746094-88.746094s39.8125-88.746093 88.746094-88.746093 88.746094 39.808593 88.746094 88.746093-39.8125 88.746094-88.746094 88.746094zm0-163.839844c-41.40625 0-75.09375 33.6875-75.09375 75.09375s33.6875 75.09375 75.09375 75.09375 75.09375-33.6875 75.09375-75.09375-33.6875-75.09375-75.09375-75.09375zm0 0" fill="#ffe600"/><path d="m197.972656 268.941406s-106.75 8.792969-144.710937-75.363281c12.164062 63.105469 65.1875 111.550781 130.472656 116.855469-3.464844-.320313 16.996094-30.46875 14.238281-41.492188zm0 0" fill="#00e7ff"/><path d="m183.738281 317.261719c-.183593 0-.371093-.003907-.558593-.023438-67.613282-5.496093-123.792969-55.816406-136.621094-122.363281-.652344-3.40625 1.339844-6.753906 4.648437-7.800781 3.265625-1.046875 6.855469.535156 8.28125 3.699219 35.566407 78.84375 136.886719 71.445312 137.925781 71.367187 3.246094-.320313 6.359376 1.902344 7.179688 5.144531 2.105469 8.402344-3.246094 20.171875-10.46875 34.679688-1.304688 2.628906-2.867188 5.757812-3.625 7.574218.066406.484376.078125.984376.035156 1.492188-.308594 3.550781-3.289062 6.230469-6.796875 6.230469zm-105.8125-78.933594c21.605469 35 58.339844 59.457031 100.519531 64.703125.882813-1.972656 2.039063-4.304688 3.453126-7.148438 2.285156-4.59375 6.8125-13.6875 8.695312-19.902343-.089844 0-.175781 0-.261719 0-20.199219 0-73.484375-3.507813-112.40625-37.652344zm0 0" fill="#602f75"/><path d="m195.617188 311.039062c-4.011719 0-7.953126-.285156-11.882813-.601562 3.917969.367188 7.871094.601562 11.882813.601562zm0 0" fill="#fff"/><path d="m195.613281 317.863281c-3.894531 0-7.988281-.207031-12.511719-.628906-3.742187-.351563-6.496093-3.652344-6.167968-7.390625.320312-3.742188 3.738281-6.503906 7.355468-6.210938 3.433594.277344 7.425782.578126 11.324219.578126 3.773438 0 6.828125 3.054687 6.828125 6.824218 0 3.769532-3.054687 6.828125-6.828125 6.828125zm0 0" fill="#602f75"/><path d="m53.261719 193.578125c-.003907-.027344-.003907-.058594-.011719-.089844.007812.03125.007812.058594.011719.089844zm0 0" fill="#fff"/><path d="m53.261719 200.40625c-1.8125 0-3.535157-.730469-4.796875-1.972656 0-.003906-.003906-.007813-.003906-.007813 0-.003906-.007813-.007812-.007813-.007812s.050781.03125-.015625-.011719c-.84375-.847656-1.484375-1.925781-1.792969-3.171875-.140625-.542969-.21875-1.1875-.21875-1.742187 0-3.773438 3.050781-6.828126 6.824219-6.828126 3.441406 0 6.296875 2.550782 6.761719 5.863282.433593 2.78125-.886719 5.496094-3.226563 6.902344-.007812 0-.007812 0-.007812.003906-.585938.355468-1.242188.625-1.945313.789062-.523437.125-1.050781.183594-1.570312.183594zm0 0" fill="#602f75"/><path d="m108.953125 156.933594c11.3125 8.050781 23.027344 9.050781 23.027344 9.050781s-11.714844-1-23.027344-9.050781zm0 0" fill="#fff"/><path d="m131.988281 172.8125c-.195312 0-.394531-.007812-.589843-.023438-.558594-.050781-13.71875-1.265624-26.40625-10.292968-1.867188-1.332032-2.867188-3.4375-2.867188-5.570313 0-1.371093.414062-2.75 1.265625-3.949219 2.171875-3.074218 6.445313-3.796874 9.519531-1.605468 9.527344 6.78125 19.554688 7.804687 19.648438 7.8125 3.558594.308594 6.246094 3.289062 6.246094 6.796875 0 .191406-.007813.390625-.027344.589843-.296875 3.554688-3.285156 6.242188-6.789063 6.242188zm0 0" fill="#602f75"/><path d="m51.273438 180.011719c-.441407-4.617188-.707032-9.289063-.707032-14.027344.003906 4.738281.246094 9.414063.707032 14.027344zm0 0" fill="#fff"/><path d="m51.265625 186.839844c-3.464844 0-6.433594-2.628906-6.785156-6.152344-.488281-4.90625-.742188-9.835938-.742188-14.644531 0-.019531 0-.039063 0-.058594 0-3.769531 3.054688-6.824219 6.828125-6.824219 3.773438 0 6.824219 3.054688 6.824219 6.824219 0 4.230469.222656 8.605469.675781 13.382813.359375 3.746093-2.386718 7.074218-6.132812 7.4375-.21875.023437-.445313.035156-.667969.035156zm0 0" fill="#602f75"/><path d="m204.671875 165.988281h175.488281c-18.960937 11.429688-48.535156 32.664063-56.277344 57.820313-11.628906 37.800781-46.519531 52.335937-78.503906 46.523437 0 0-13.269531 73.707031-81.539062 66.878907 0 0 26.144531-52.949219 23.386718-63.972657-50.691406 9.359375-105.304687 16.1875-139.4375-79.386719-1.519531-4.246093 0-81.921874 0-81.921874-14.539062-9.691407-20.480468-30.59375-20.480468-30.59375v-43.613282c49.429687 5.8125 46.523437 52.335938 46.523437 52.335938 0-49.429688 49.050781-52.335938 49.050781-52.335938v43.613282c-2.910156 20.351562-34.515624 34.890624-34.515624 34.890624 1.347656 21.558594 10.816406 33.753907 20.585937 40.707032 11.3125 8.050781 23.03125 9.050781 23.03125 9.050781h24.640625" fill="#fff"/><path d="m172.660156 344.488281c-3.054687 0-6.214844-.160156-9.5-.484375-2.226562-.222656-4.207031-1.523437-5.292968-3.484375-1.082032-1.957031-1.140626-4.324219-.148438-6.332031 9.261719-18.765625 18.660156-41.054688 21.8125-52.613281-45.34375 7.957031-103.324219 12.140625-138.171875-85.429688-.472656-1.324219-1.894531-5.304687-.464844-80.828125-14.167969-11.523437-19.902343-31.222656-20.15625-32.113281-.171875-.605469-.257812-1.234375-.257812-1.867187v-43.617188c0-1.949219.832031-3.804688 2.292969-5.097656 1.460937-1.300782 3.40625-1.898438 5.332031-1.679688 24.84375 2.921875 38.722656 15.597656 45.90625 29.386719 11.507812-21.054687 34.507812-28.59375 48.460937-29.417969 1.96875-.113281 3.730469.554688 5.085938 1.84375 1.375 1.292969 2.148437 3.089844 2.148437 4.96875v43.617188c0 .320312-.019531.644531-.066406.964844-2.734375 19.117187-24.328125 32.714843-34.039063 37.925781 1.75 13.746093 7.558594 24.207031 17.3125 31.140625 9.527344 6.78125 19.554688 7.808594 19.648438 7.8125l24.058594-.023438c3.773437 0 6.828125 3.058594 6.828125 6.828125s-3.054688 6.824219-6.828125 6.824219h-24.640625c-1.140625-.070312-14.300781-1.289062-26.988281-10.316406-14.085938-10.023438-22.191407-25.875-23.4375-45.839844-.175782-2.808594 1.398437-5.445312 3.953124-6.628906 7.773438-3.59375 28.226563-15.777344 30.546876-29.21875v-35.09375c-11.792969 2.78125-33.902344 11.898437-35.328126 41.300781.015626 1.214844-.019531 2.371094-.085937 3.464844-.226563 3.679687-3.347656 6.648437-7.027344 6.398437-3.6875-.117187-6.613281-3.136718-6.613281-6.824218 0-.804688.015625-1.597657.035156-2.378907-.132812-7.585937-2.78125-34.445312-32.898437-41.820312v34.433593c1.21875 3.710938 6.71875 18.8125 17.4375 25.957032 1.941406 1.296875 3.089843 3.484375 3.039062 5.8125-.675781 34.835937-.984375 74.25-.246093 79.917968 33.265624 92.683594 85.496093 83.058594 131.621093 74.542969 3.539063-.65625 6.992188 1.5625 7.859375 5.0625 2.550782 10.21875-10.308594 40.105469-19.328125 59.210938 52.460938-1.457031 63.667969-59.089844 64.148438-61.6875.679687-3.707031 4.226562-6.140625 7.933593-5.496094 27.292969 4.949219 59.75-6.039063 70.75-41.808594 5.929688-19.238281 22.808594-36.03125 40.28125-48.992187h-152.960937c-3.773437 0-6.824219-3.054688-6.824219-6.824219 0-3.773437 3.050782-6.828125 6.824219-6.828125h175.488281c3.066406 0 5.753906 2.042969 6.578125 4.996094.820313 2.953125-.425781 6.09375-3.050781 7.675781-16.816406 10.136719-46.089844 30.625-53.28125 53.988281-12.535156 40.714844-48.949219 55.160156-79.898438 52.117188-5.101562 17.800781-24.015624 66.554687-77.847656 66.554687zm0 0" fill="#602f75"/><g fill="#00e7ff"><path d="m252.585938 92.523438c-3.773438 0-6.824219-3.058594-6.824219-6.828126v-7.269531c0-16.589843 13.1875-30.085937 29.390625-30.085937 16.207031 0 29.386718 13.496094 29.386718 30.085937v5.816407c0 3.769531-3.050781 6.828124-6.824218 6.828124-3.773438 0-6.828125-3.058593-6.828125-6.828124v-5.816407c0-9.0625-7.058594-16.433593-15.734375-16.433593-8.679688 0-15.738282 7.371093-15.738282 16.433593v7.269531c0 3.769532-3.054687 6.828126-6.828124 6.828126zm0 0"/><path d="m252.585938 92.523438c-3.773438 0-6.824219-3.058594-6.824219-6.828126v-7.269531c0-9.0625-7.6875-16.433593-17.136719-16.433593-9.445312 0-17.125 7.371093-17.125 16.433593v5.816407c0 3.769531-3.054688 6.828124-6.828125 6.828124s-6.824219-3.058593-6.824219-6.828124v-5.816407c0-16.589843 13.804688-30.085937 30.777344-30.085937s30.789062 13.496094 30.789062 30.085937v7.269531c0 3.769532-3.054687 6.828126-6.828124 6.828126zm0 0"/><path d="m252.585938 31.621094c-3.773438 0-6.824219-3.058594-6.824219-6.828125v-4.273438c0-11.304687 9.011719-20.503906 20.089843-20.503906 11.082032 0 20.09375 9.199219 20.09375 20.503906v3.421875c0 3.769532-3.054687 6.824219-6.828124 6.824219-3.773438 0-6.824219-3.054687-6.824219-6.824219v-3.421875c0-3.777343-2.886719-6.851562-6.441407-6.851562-3.550781 0-6.4375 3.074219-6.4375 6.851562v4.273438c0 3.769531-3.054687 6.828125-6.828124 6.828125zm0 0"/><path d="m252.585938 31.621094c-3.773438 0-6.824219-3.058594-6.824219-6.828125v-4.273438c0-3.777343-3.261719-6.851562-7.261719-6.851562s-7.261719 3.074219-7.261719 6.851562v3.421875c0 3.769532-3.050781 6.824219-6.824219 6.824219-3.773437 0-6.828124-3.054687-6.828124-6.824219v-3.421875c0-11.304687 9.378906-20.503906 20.914062-20.503906s20.914062 9.199219 20.914062 20.503906v4.273438c0 3.769531-3.054687 6.828125-6.828124 6.828125zm0 0"/></g><path d="m300.375 200.675781c0 7.539063-6.113281 13.652344-13.65625 13.652344-7.539062 0-13.652344-6.113281-13.652344-13.652344" fill="#fff"/><path d="m286.71875 221.15625c-11.292969 0-20.480469-9.1875-20.480469-20.480469 0-3.769531 3.054688-6.828125 6.828125-6.828125 3.773438 0 6.828125 3.058594 6.828125 6.828125 0 3.761719 3.058594 6.828125 6.824219 6.828125 3.769531 0 6.828125-3.066406 6.828125-6.828125 0-3.769531 3.054687-6.828125 6.828125-6.828125s6.824219 3.058594 6.824219 6.828125c0 11.292969-9.1875 20.480469-20.480469 20.480469zm0 0" fill="#602f75"/><path d="m252.585938 152.890625c-3.773438 0-6.824219-3.058594-6.824219-6.828125v-133.972656c0-3.769532 3.050781-6.828125 6.824219-6.828125 3.773437 0 6.828124 3.058593 6.828124 6.828125v133.972656c0 3.769531-3.054687 6.828125-6.828124 6.828125zm0 0" fill="#00e7ff"/></svg>